/* XPM */
static char *_4fbcda10eef4ce8b03ea2ae342e2f98OA20pPONLrr6pscF[] = {
/* columns rows colors chars-per-pixel */
"46 72 107 2 ",
"   c None",
".  c #010000",
"X  c #0C0100",
"o  c #0C0801",
"O  c #0A0A0A",
"+  c #150000",
"@  c #1B0000",
"#  c #100C01",
"$  c #020D15",
"%  c #131212",
"&  c #1D1D1D",
"*  c #230000",
"=  c #2C0000",
"-  c #340000",
";  c #3E0000",
":  c #201704",
">  c #031826",
",  c #252525",
"<  c gray17",
"1  c gray20",
"2  c #3D3B3B",
"3  c #430000",
"4  c #4B0000",
"5  c #540101",
"6  c #5C0101",
"7  c #570C0C",
"8  c #551212",
"9  c #640101",
"0  c #680101",
"q  c #730101",
"w  c #7C0000",
"e  c #432A02",
"r  c #4D3003",
"t  c #4B3907",
"y  c #552121",
"u  c #613939",
"i  c #554009",
"p  c #5B4609",
"a  c #624B0A",
"s  c #714604",
"d  c #744905",
"f  c #073F62",
"g  c #434343",
"h  c #4D4D4D",
"j  c #544C4C",
"k  c #585447",
"l  c #535353",
"z  c #5D5D5D",
"x  c #626262",
"c  c #6C6464",
"v  c #6C6C6C",
"b  c #756F6F",
"n  c #796F6F",
"m  c #727272",
"M  c #840000",
"N  c #8C0000",
"B  c #900000",
"V  c #83630D",
"C  c #8C6A0E",
"Z  c #9C760F",
"A  c #8C6F1F",
"S  c #A9770C",
"D  c #A57D10",
"F  c #C48E10",
"G  c #C59613",
"H  c #DDA816",
"J  c #E2A915",
"K  c #F1B718",
"L  c #F6BB18",
"P  c #FABE19",
"I  c #FFC219",
"U  c #FFCB3B",
"Y  c #FFD04F",
"T  c #FFDB79",
"R  c #1B618C",
"E  c #0F6499",
"W  c #0C6CA7",
"Q  c #0D71AF",
"!  c #0E75B6",
"~  c #118FDE",
"^  c #1190DF",
"/  c #1190E0",
"(  c #13A3FD",
")  c #838383",
"_  c #8D8D8D",
"`  c #97938A",
"'  c #939393",
"]  c #9A9A9A",
"[  c #A4A4A4",
"{  c #AEAEAE",
"}  c #B4B4B4",
"|  c gray72",
" . c #FFDE82",
".. c #FFE69F",
"X. c #FFEBB5",
"o. c #C5C5C4",
"O. c #CDCDCD",
"+. c gray84",
"@. c #DCDCDC",
"#. c #FFF2CD",
"$. c #FFF4D5",
"%. c #FFF5D9",
"&. c #E2E2E2",
"*. c #EDEDED",
"=. c #F2F2F2",
"-. c #FFFBF2",
";. c #FFFFFF",
/* pixels */
"                                        k p a a p p                                         ",
"                                      ` I I I %.U I I :                                     ",
"                                    o.I I I L L I ;.I G                                     ",
"                                  . Y I I .     . X.;.I .                                   ",
"                                  @.I I o         o  .#.K                                   ",
"                                  =.I C             A %.P                                   ",
"                                . ;.I I V V V V V V I T I .                                 ",
"                                I I I I I I I I I I I I I I t                               ",
"                              o I I I I I I I I I I I I I I I                               ",
"                            . -.I I I I I I I . H I I I I I I I .                           ",
"                        . ..I d d d s s d d s I P r s d d d d J F D                         ",
"                        ] # o 5 6 5 6 9 6 6 . s I 3 9 5 6 5 5 6 = S .                       ",
"                      . 9 q 0 0 0 0 0 0 0 0 . s I 4 6 6 0 0 0 0 0 4 i                       ",
"                      q q q 0 0 0 0 0 0 0 0 0 e Z 5 6 0 0 0 0 0 0 q =                       ",
"                    B N 0 0 0 0 0 0 0 0 6 0 0 0 6 0 0 0 0 0 0 0 0 0 0 +                     ",
"                  . 0 0 0 0 0 0 0 0 0 0 9 3 0 0 - 0 - 0 0 0 0 0 0 0 0 B o                   ",
"                  N B 0 0 0 0 0 0 0 0 0 0 6 ; . 0 * 0 0 0 0 0 0 0 0 0 0 0 X                 ",
"                + 0 0 0 0 0 0 0 0 0 4 0 0 0 . 0 0 3 0 0 0 0 0 0 0 0 0 0 0 N =               ",
"                q q 0 q 0 0 0 0 0 0 ; 5 0 0 . 0 X ; 5 0 0 0 0 0 0 0 0 @ @ q w               ",
"              @ B w 0 0 0 0 0 0 0 ; ; 0 0 0 . 0 3 = ; 5 5 0 4 5 ; = * 3 ; * 0 q             ",
"            . B 0 0 0 0 0 0 0 0 0 0 0 0 0 0 . 0 3 @ - ; ; ; ; = = ; ; ; ; ; 0 N *           ",
"            4 M 0 0 0 0 0 0 0 0 0 0 0 0 0 B X 0 0 ; * ; - ; ; ; O O % & & ; ; 0 N .         ",
"          . B q 0 0 0 0 0 0 0 0 0 0 0 0 B . 3 0 0 0 3 ; 3 . =.;.;.;.;.;.;.;.. ; 5 M         ",
"          0 B 0 0 . . ; ; ; . . . 0 0 . + 3 0 0 0 0 0 ; % ;.;.;.;.[ ( ( ( &.;.) 3 M         ",
"        . N B w - ; 3 X ] =.;.;.;.@.1 3 4 5 - + - ; 0 4 ;.;.;.;.;.{ / . > $ ;.;.{ B .       ",
"        . B 6 3 3 ; [ ;.R ! E ;.;.;.;.| * 0 0 6 6 9 3 | ;.;.;.;.;.*.f W ( [ ;.;.O.3 B       ",
"        N M 5 5 0 v ;.% ( . ( . ;.;.;.;.b * 0 . 0 0 3 = = ;.;.;.;.;.=.v v ;.;.;.;.. N .     ",
"      . B 0 0 0 g ;.;.h ~ ~ ! ;.;.;.;.c ; ; 0 3 0 6 0 6 0 + o.;.;.;.;.;.;.O.@.&.;.=.3 *     ",
"      B N B 0 4 =.;.;.;.;.;.;.;.;.;.2 4 3 0 . 0 0 M - 6 X 9 0 + . . . X . 0 0 0 . &.0 B     ",
"      B 0 q 5 0 0 . . ;.;.;.;.;.;.% 0 @ 4 0 0 0 0 0 4 0 ; ; . 9 0 0 0 0 0 0 0 0 0 0 N B     ",
"    . B 0 M 0 4 X 0 0 0 0 0 9 9 9 0 ; * 0 0 0 0 0 0 N + 0 ; X ; 3 ; 3 . X 0 0 0 0 0 0 N @   ",
"    q N 0 w 0 0 3 3 0 6 0 0 3 4 3 + = - 6 0 0 0 0 0 B + 0 0 0 ; ; - ; ; ; 3 5 0 0 0 0 q +   ",
"    N 0 0 0 0 0 0 0 0 ; - ; - ; - 6 - 4 0 0 0 0 0 0 M X 0 0 ; 0 0 5 0 0 0 0 3 - 0 0 0 0 B   ",
"    N 0 0 0 0 0 0 0 0 0 0 0 0 0 6 + - 6 0 0 0 0 0 0 q w 3 0 0 3 5 6 0 0 0 0 0 0 0 0 0 B B   ",
"  + N 0 0 0 0 0 0 0 0 0 0 0 6 3 3 ; 6 0 0 0 0 0 0 0 0 q + 0 0 0 0 6 0 0 0 0 0 0 0 0 0 B B   ",
"  B N 0 0 0 0 0 0 0 0 0 0 0 6 3 ; 9 0 0 0 3 0 0 0 0 0 0 B . 0 0 0 0 0 0 0 0 0 0 0 0 0 N B ; ",
"  B 0 0 0 0 0 0 0 0 0 0 0 0 0 0 9 0 0 0 6 3 0 0 0 0 0 0 0 3 0 0 0 0 0 0 0 0 0 0 0 0 0 0 N ; ",
"  B 0 0 0 0 0 0 0 0 0 0 0 9 0 0 0 0 0 0 3 3 0 0 0 0 0 0 0 ; - 5 0 0 0 0 0 0 0 0 0 0 0 0 N - ",
"- B B 0 0 0 0 0 0 0 0 0 0 9 0 0 0 0 0 ; = ; 0 0 0 0 0 0 q ; ; 6 0 0 0 0 0 0 0 0 0 0 0 0 N - ",
"- B B M 0 0 0 0 0 0 0 0 0 0 0 0 0 9 3 = ; 3 ; 5 3 ; 4 5 ; 3 ; 6 0 9 0 0 0 0 0 0 0 M 0 w N = ",
"- N B 0 0 0 0 0 0 0 0 0 0 0 0 0 0 0 + ; 3 ; ; - = 3 ; ; = . - 5 = 6 0 0 0 0 0 0 0 0 0 N B - ",
"- M 0 0 0 0 0 0 0 0 0 0 0 0 0 0 0 9 + ; ; ; . . - ; ; - . ; X 0 0 ; . N 0 0 0 0 0 0 0 0 N - ",
"- B 0 0 0 0 0 0 0 0 0 0 0 0 0 0 0 0 0 * 3 . ; . ; 3 3 X ; 0 0 0 0 0 ; ; . 0 0 0 0 0 0 0 B ; ",
"- B B 0 0 0 0 0 0 0 0 0 0 0 0 0 0 9 0 0 0 0 9 9 3 ; ; 0 0 0 0 . ; 0 0 ; ; X q 0 0 0 0 0 M ; ",
"- N 0 0 0 0 0 0 0 0 0 0 0 0 0 + - 9 0 X X @ 0 0 0 0 0 0 9 + 5 0 6 6 0 0 3 ; * w 0 0 0 0 N - ",
"- B 0 0 0 0 0 0 0 0 0 0 0 0 = ; 5 9 ; 0 0 0 ; = 9 0 4 3 ; 5 ; @ @ - 0 0 5 ; ; = w 0 0 0 N - ",
"  B q 0 0 + w 0 0 0 0 0 0 - 3 4 0 * 6 3 = = 6 9 * @ ; 0 ; * - M B 0 ; 0 3 3 ; = 0 0 0 0 N   ",
"  B N 0 0 * w 0 0 0 0 0 * ; 4 0 . 0 @ 5 B M + - 6 9 ; ; @ B B N N M N + 0 5 3 ; + 0 0 0 N   ",
"  N B 0 0 0 4 0 0 0 0 0 * 4 0 9 0 . B 3 = B B B + . B N B O . * ' ;.+ O 0 X 4 ; @ 0 0 N B   ",
"  @ B 0 0 0 4 0 0 0 0 0 = 0 0 0 0 *.. ;.;.+ . . . B m ;.% ;.;.1 ;.;.+.;.. X 0 ; * 0 0 N @   ",
"    B N 0 0 - M 0 0 0 @ 0 ; 0 9 . ;.O.;.;.1 ;.;.;.j ;.;.O ;.;.< ;.;.@.& . 6 4 ; * 0 0 N +   ",
"    B M 0 0 6 ; 0 0 0 . 0 @ 6 0 { ;.+.;.o.. h ;.l O ' ;.. h l . < 2 . . . 0 5 5 + M . B     ",
"    . B 0 0 0 @ 0 0 0 - 3 = 0 . . . . _ . . . . . . . . . . . . . . . . . 0 4 0 + w 3 4     ",
"    . B 0 0 0 5 B 0 0 0 * 5 6 . . . . . . . . . . . . . . . . . . . . . . 0 0 0 0 4 B .     ",
"      M 0 0 4 4 N 0 0 0 * 4 5 . . . . . . . . . . . . . . . . . . . . . . 6 0 0 0 X M       ",
"      . 0 0 4 0 + 0 0 0 4 0 5 . . . . . . . . . . . . . . . . . ' [ . . . 6 0 - 0 X .       ",
"        M q w = 6 N 0 0 * 0 5 . . . . . ; ; ; ; . . @ ; ; 3 ; X ;.. . . . 6 0 - * M         ",
"        . N 0 5 N . 0 0 * 0 5 . . . . ; ; ; ; 3 ; - * ; ; ; ; 3 ) ;.;.@ q 9 + ; 9           ",
"          = 0 0 - ; 0 0 0 0 6 ] ;.. ; ; ; ; 3 ; 3 ; * 3 ; 0 0 3 - ' m . N 9 w N =           ",
"          . w N M B 0 0 0 0 6 [ [ @ ; ; ; 6 N B B N B @ B B N 0 - l *.z B 9 N w .           ",
"              M B B 0 9 0 0 5 ;.;.1 ; ; 5 B B N B N B B B B B 4 ; l @.;.B + w               ",
"                N N 0 4 0 0 5 ;.O % ; ; 3 ; 3 ; ; 3 ; B M ; ; ; ; = @.=.N 6 .               ",
"                  B 0 0 5 0 5 ;.;.% X . ; . . 3 @.;.. ;.;.. *.;.. ;.;.. N 6 @               ",
"                    N N @ 0 5 ;.;., ;.;.h ;.;.. ;.;._ ;.;.. ;.;.v ;.@.M B 9 @               ",
"                      @ = 0 6 ;.;.O ;.;.g ;.;.. ;.;.y x ;.0 ;.;.8 7 0 B = 0                 ",
"                        . = 0 . ) 3 b u y ) ) - - - - - - - - = 4 4 4 4 0 0                 ",
"                            0 0 @ @ 5 ; = 6 6 6 3 ; ; 3 6 6 6 6 0 0 0 0 6 .                 ",
"                            X ; 9 0 0 4 ; ; ; X X . . . . . . - ; ; ; ; ;                   ",
"                                . ; ; 3 .     . . . .             . . .                     ",
"                                                                                            ",
"                                                                                            ",
"                                                                                            "
};
