/* XPM */
static char *blood1670870378[] = {
/* columns rows colors chars-per-pixel */
"72 72 210 2 ",
"   c None",
".  c #010101",
"X  c #0C0101",
"o  c #0C0C0C",
"O  c #190707",
"+  c #141414",
"@  c #1C1C1C",
"#  c #290303",
"$  c #370303",
"%  c #3C0A0A",
"&  c #381919",
"*  c #232323",
"=  c #2B2B2B",
"-  c #382525",
";  c #333333",
":  c #3B3B3B",
">  c #430101",
",  c #580808",
"<  c #4A1313",
"1  c #461A1A",
"2  c #561D1D",
"3  c #630000",
"4  c #6B0101",
"5  c #680C0C",
"6  c #750202",
"7  c #7B0101",
"8  c #641313",
"9  c #691A1A",
"0  c #731313",
"q  c #7D1616",
"w  c #452424",
"e  c #4B2A2A",
"r  c #552424",
"t  c #4D3D3D",
"y  c #6E2424",
"u  c #7B2424",
"i  c #702929",
"p  c #7B2B2B",
"a  c #712424",
"s  c #673333",
"d  c #713232",
"f  c #7B3232",
"g  c #743B3B",
"h  c #793B3B",
"j  c #434343",
"k  c #4B4B4B",
"l  c #5C4B4B",
"z  c #524040",
"x  c #535353",
"c  c #5C5C5C",
"v  c #634C4C",
"b  c #764444",
"n  c #7D4343",
"m  c #754949",
"M  c #7A4B4B",
"N  c #695555",
"B  c #685656",
"V  c #755454",
"C  c #7A5353",
"Z  c #795B5B",
"A  c #755B5B",
"S  c #636363",
"D  c #6C6C6C",
"F  c #6E6161",
"G  c #746262",
"H  c #7C6363",
"J  c #7D6969",
"K  c #716A6A",
"L  c #747474",
"P  c #7A7171",
"I  c #7C7C7C",
"U  c #830000",
"Y  c #8A0000",
"T  c #8B0A0A",
"R  c #940000",
"E  c #9B0101",
"W  c #980A0A",
"Q  c #851313",
"!  c #8D1818",
"~  c #961818",
"^  c #A30000",
"/  c #AB0000",
"(  c #A10B0B",
")  c #AF0B07",
"_  c #B30000",
"`  c #BB0000",
"'  c #BC0F00",
"]  c #BD1600",
"[  c #A31313",
"{  c #AE1919",
"}  c #B81919",
"|  c #812222",
" . c #8B2525",
".. c #832C2C",
"X. c #892B2B",
"o. c #9C2929",
"O. c #972828",
"+. c #843232",
"@. c #8B3333",
"#. c #863C3C",
"$. c #933535",
"%. c #9A3B3B",
"&. c #9E3131",
"*. c #A63535",
"=. c #AA3434",
"-. c #A13B3B",
";. c #B63737",
":. c #C30100",
">. c #CB0000",
",. c #C10C00",
"<. c #CB0C00",
"1. c #D40000",
"2. c #DB0100",
"3. c #D50D00",
"4. c #DD0D00",
"5. c #D20808",
"6. c #C11400",
"7. c #CD1600",
"8. c #CE1A00",
"9. c #D71000",
"0. c #DC1300",
"q. c #D31D00",
"w. c #DC1D00",
"e. c #C81919",
"r. c #C71717",
"t. c #D21B1B",
"y. c #E10100",
"u. c #EC0100",
"i. c #E30C00",
"p. c #EE0C00",
"a. c #EB0B0B",
"s. c #E10A0A",
"d. c #F40201",
"f. c #FC0200",
"g. c #F70D00",
"h. c #FA0C00",
"j. c #E31300",
"k. c #EB1400",
"l. c #E31900",
"z. c #EC1D00",
"x. c #FD1100",
"c. c #F41700",
"v. c #C72000",
"b. c #D32300",
"n. c #DD2300",
"m. c #DA2C00",
"M. c #DB3100",
"N. c #E12400",
"B. c #EC2200",
"V. c #E72800",
"C. c #EA2900",
"Z. c #F22300",
"A. c #F32A00",
"S. c #FD2B00",
"D. c #FB2200",
"F. c #E13200",
"G. c #E03800",
"H. c #EC3400",
"J. c #FC3B00",
"K. c #F73700",
"L. c #C03C3C",
"P. c #FF4000",
"I. c #814444",
"U. c #844D4D",
"Y. c #8A4B4B",
"T. c #924141",
"R. c #984040",
"E. c #8D5454",
"W. c #8C5C5C",
"Q. c #835656",
"!. c #975E5E",
"~. c #955252",
"^. c #AD4040",
"/. c #AB5E5E",
"(. c #856060",
"). c #8A6363",
"_. c #836B6B",
"`. c #8D6C6C",
"'. c #906060",
"]. c #986E6E",
"[. c #827171",
"{. c #837A7A",
"}. c #8E7C7C",
"|. c #8A7373",
" X c #947B7B",
".X c #987878",
"XX c #AB6464",
"oX c #C06C6C",
"OX c #838383",
"+X c #8C8686",
"@X c #8B8B8B",
"#X c #958383",
"$X c #9C8E8E",
"%X c #988888",
"&X c #939393",
"*X c #9B9B9B",
"=X c #9A9494",
"-X c #A18383",
";X c #A38D8D",
":X c #AD8585",
">X c #A39D9D",
",X c #A3A3A3",
"<X c #ABABAB",
"1X c #A9A3A3",
"2X c #B2ACAC",
"3X c #B2B2B2",
"4X c #BAB4B4",
"5X c #BABABA",
"6X c #C09090",
"7X c #C0C0C0",
/* pixels */
"                                                                . .               . .                                                           ",
"                                                              + o +             o + o                                                           ",
"                                              . . .         . = k : @ . . . . . * : = +         . . .                                           ",
"                                              . . . .     . . k +Xc @ . . . . . : D j + .     . . . . .                                         ",
"                                            ; k k k : * . + @ = j k k : = * ; j : : = * + o + ; j k k j @                                       ",
"                                        . . k @X&X+XD = . @ = @ o : D L x j c L : + + * * o + k OX&X*Xc @ .                                     ",
"                                        = : D &X@XOXS k = = ; = @ j L I c k S I k @ * = = = : x I +X*XL k ; *                                   ",
"                                    . + x OX@X&XI S c S S k = : j c L L c x S L x : ; = : c D S c L &X+XOXD = .                                 ",
"                                    * = c +X@X@XL c c D L x ; : k S D L c c c D x : : ; j S I c k D @X@X+XD j * @                               ",
"                                . @ k S c c D OXD x k S D k ; j k c S S c c x k k : : ; j c D c j S OXL D c S c ; .                             ",
"                                . * S OXS : c I S k k S S k ; j j c S S S c k k j : : : k c D c : c I S k k L I : .                             ",
"                                . * c I c : c L c j j c D c j : : c L I D S D I c : : : k c S k : c I c j k D I : .                             ",
"                                . * c I x ; x D c : : c D c x j ; c +X&XL D OX*XD ; : k c D D k = x D c : j S D : .                             ",
"                                . @ k D k ; k S x : : c c c j : = j c S c k c D k = ; : k c c k = k S x : j S D ; .                             ",
"                                . @ k D k ; j c k : : x c k j ; * * ; : : : : : = * = : k c c j = k c k : : c S ; .                             ",
"                                . @ k c j @ = : : = ; k c k : = * * = = ; : ; = * * = ; : x x : = : : = * ; x c = .                             ",
"                                . @ j c = o o + @ @ = j x j ; * * * * = = = = * * * = = : k k : * @ + o o @ j c * .                             ",
"                                . + ; j * . . . o + * ; j ; = * @ @ * - e r - * @ @ @ * = : : = @ o . . . + : j * .                             ",
"                                    @ @ +       . o + * = * @ @ + @ * w 9 Q 2 = * + @ @ * * = @ o o         @ @ +                               ",
"                                    . .           . o + @ + + + + * = r Q W 9 ; * @ + + + @ + o .           . .                                 ",
"                                                    . o o @ * = ; ; : e 2 2 r : ; = * * @ + o o                                                 ",
"                                                      . . @ ; j k k j : = * ; : : j : ; * + .                                                   ",
"                                                    o @ * ; : j j t ; = 1 2 - = : j j : ; * @ +                                                 ",
"                                                  . o = : k x j j ; = & , 6 < * : k k j j : ; @ .                                               ",
"                                                  . + = j k k j : = @ % T E , + = j j j j j : @ .                                               ",
"                                                  . o = j k x j ; * o $ E >.3 o @ ; j k k j ; @ .                                               ",
"                                                  . + * ; : k : ; * o # U ^ , . @ ; : k j : = @ .                                               ",
"                                                      + @ ; j j : * o X $ > # . @ ; j k j * + o                                                 ",
"                                                      o + = : j k = o o X X X X * j k k : * + o                                                 ",
"                                                    @ ; j : = k S j * # $ $ # + : c x : : j j = .                                               ",
"                                                  . @ c L k @ x L c ; & 8 6 < * x I c ; ; S L ; .                                               ",
"                                                + @ : D I c = c OXD : w 8 6 2 = c OXS j j D I k * + .                                           ",
"                                    . . . . . . @ ; x L OXS : S @XD k e 9 6 r j D +XD k x L OXS : * . . . . . .                                 ",
"                                  @ = = : : : : : j k S D c k c D S k s ! ( y t c L S k k D D c k ; = = : j : : =                               ",
"                            . . . @ k D L OXOXOXD c k x k k k k k k k g } 5. .: k c x j k x c x k k k S OX@XOXL : . . . .                       ",
"                          * * = = j D &X&X*X*X*XOXS k k k k c x k k k b e.a.o.k k c x k k j k x c S S OX*X,X*X@Xc = = = =                       ",
"                        . j D L I @X*X,X*X+X&X*XOXS c k k c S c c x x h e.a.*.S S S c c x k k c S D L OX=X=X&XOXI D I OXc * . . .               ",
"                      + + c &X,X1X,X3X<X&XI @X*XOXF v l l N G A v v v @.e.a.;.H H H G N l t t l G P I OX@X@XI I @X*X1X3XI ; + + + o             ",
"                . . + j S OX*X*X@X@XOXOXL D I +XH g i y a p @.X... .o.} s.d.t.=.=.&.O.X.u y 9 i f C L I I L D D I OX&X*XOXS c c c ; .           ",
"              . . . + S 3X,X*X&XI D c k c S S D m q 7 U U R E E ^ ` 1.u.d.f.u.y.>.:._ ^ R Y U U 7 h K D D D c x S D I I @X*X,X*X@Xj .           ",
"            = k x x S @X5X*X+XJ m d p p p ..@.$.o.W / _ :._ _ ' ] 6.` >.y.u.1.:.:.:.` :.` _ _ / / { *.-.%.$.p p d h A P OX@X=X*X&XD k ; o       ",
"          . : I *X*X<X3X7X*XI M q T R W W ( ) ` ` ` >.y.u.2.` 8.M.v.) _ >.2.` ^ _ ` >.1.2.2.2.2.2.2.2.5.,._ ( E T U h K L I @X*X*X&XOXj o .     ",
"        ; j S OX&X=X*X*X,X|.U.X.W E ^ / _ ` :.>.>.>.2.y.u.2.7.w.B.n.6.6.2.y.1.:.` _ :.9.i.2.y.y.y.2.y.1.1.:.` _ E Y | b Z L I OX&X&X&XD : =     ",
"      . c &X&X+XOXOXI I OXY.~ ( / _ ` ` >.1.1.1.2.2.2.y.i.l.m.z.g.k.n.N.p.d.d.p.>./ ] b.n.i.y.2.y.y.y.2.2.2.2.>._ E T Q f F L I I @X*X@XL k @ . ",
"    . . c *X,X&X{.H V V V O./ _ _ _ ` ` :.1.1.1.1.2.2.1.2.n.M.z.u.p.B.z.g.f.f.g.3._ ' q.w.i.y.p.k.s.j.i.p.i.i.2.:._ ^ R ! I.C Z Z }.*X*X*XS @ . ",
"    . . k @X&X&X}.Y.u u u [ :.:._ / / / / _ ` >.>.>.>.>.<.b.G.q.1.4.p.h.h.f.c.B.0.>.<.<.3.i.d.c.A.C.n.V.A.z.g.d.2.>.>.:.{ ~  .| +.`.,X<X3XD * . ",
"    . . : I &X*X.X$.Y Y U _ 2.>._ / / / / / ` :.:.>.:.<.<.q.M.q.<.2.d.d.f.f.z.F.w.2.>.>.1.p.h.D.J.H.F.H.K.S.x.d.d.i.y.y.>./ E R Q !.,X3X5XL * . ",
"    . . k @X*X<X:X*.^ ^ ^ :.2.1.>.:.>.1.1.1.9.b.9.y.i.l.n.w.7.w.N.j.p.u.u.u.i.w.<.:.:.>.2.l.z.z.z.l.l.l.z.k.p.d.k.Z.k.2.1.` / / [ XX3X<X1XS @ . ",
"    . . k &X<X5X:XL.:.` :.1.2.y.2.u.d.f.f.f.z.F.B.f.x.S.K.w.:.N.J.A.i.2.2.y.2.y.:.^ _ 1.j.n.M.l.y.2.y.y.y.y.y.i.Z.J.B.y.1.:.:.:.r.XX7X<X&Xc @ . ",
"    . . k @X*X<X;X;.^ / _ _ :.:.>.1.2.2.y.y.3.q.0.p.g.k.z.4.>.9.n.l.l.l.y.y.k.Z.9.:.>.2.2.j.l.i.y.u.u.u.y.y.y.y.k.Z.0.1.>.:.` _ } /.<X,X*XB @ . ",
"    . . : I @X*X.X$.U R ^ ^ ^ / ` :.:.:.:.:.:.:.>.2.2.y.y.2.2.1.:.7.m.N.j.i.Z.J.z.2.2.y.y.y.y.2.2.d.d.d.y.y.y.y.2.y.1.:.:.:.` / W ~.&X*X*XS @ . ",
"    . . j OX&X&X|.+.7 U R R R / :.:._ / / ^ / ^ _ :.>.>.>.>.:.` _ ,.8.q.3.1.0.V.l.1.1.1.1.1.1.2.y.y.d.u.1.2.2.2.2.1.:._ _ _ / E ~ E.@X*X*XD @ . ",
"    . . k &X&X@X_.a 4 7 U U U ^ >.:.^ Y Y Y Y Y R ^ / / / / / / / _ ,.,.:.>.<.<.<.:.:.>.:.>.>.1.y.y.y.2.>.>.2.2.1.>._ / ^ ^ E R Q E.@X&X*XS @ . ",
"    . . k OX@X+X_.m a 0 7 7 7 E ` ` E Y Y U Y Y R E ^ ^ / _ ` _ / ` :.>.:.>.:.>.:.>.:.>.>.>.1.1.y.2.2.>.:.:.>.>.:._ / E E E W Q +.).=X&X@Xc @ . ",
"    . . : D OX&X%X}.W.d 4 4 4 7 R E E R E R R E E E ^ _ ` >.y.2.>.>.1.1.1.2.1.1.2.1.1.2.2.y.u.y.y.1.>.>.:.` ` _ / / R Y Y Y Q #.Z  X*XOXD j + . ",
"    . . ; c I @X*X*X&XU.5 8 8 5 7 U Y E E E ^ ^ ^ ^ / _ :.2.d.u.y.y.y.y.y.y.2.2.2.2.2.2.y.u.u.y.2.:.` _ _ _ E E E R T Q Q Q +.(.@X+X&XL x ; o . ",
"    . . : L OX@X&X*X*X[.m C Q.h 0 6 6 7 U R / ` _ ^ ^ / _ >.2.2.y.y.2.y.y.2.1.1.>.>.1.>.>.>.>.:.` / E R Y U 7 7 7 7 ..Y.E.'.].#X@XI D c k ; + . ",
"    . . k OX@XOX@X=X*X@XOX@X*X).9 3 3 3 6 U _ 1.>./ ^ E ^ _ ` 1.2.y.y.y.y.2.>.` :.` :.` ` / E ^ ^ R U 6 4 3 3 3 , 3 m +X*X<X<X1X=XS : k x ; o . ",
"    . . : D I I I OXOX&X>X,X,X#X).W.W.W.U.#.%.;.o.T U U U Y Y ^ _ _ _ _ _ / _ _ / _ / ^ E Y U U U u h U.M Q.W.'.!.W. X=X*X*X*XOXL c j j k = o . ",
"    . . ; c D I I D D &X5X<X,X,X1X<X3X2X=XI I {.M 9 3 3 3 3 4 6 U U U U U Y R ^ ^ ^ R Y 7 4 3 3 3 g J +X$X>X<X4X4X4X<X>X*X&XOXD x k : j : = o . ",
"      . * : x I OXI I @X<X*X@X&X,X,X<X,X*X&X@X@X_.b d g n h h h f +.#.T.T.%.%.%.-.-.$.@.f d d g n `.&X=X&X*X,X5X3X<X&XI I I L c x j j ; = @ o . ",
"        + + : I @X+XOX@X@XI D I *X*X&X&X*X,X,X*X+X_.[.#X$X%X#X|._.|. X%X;X;X;X-X-X#X X_.J J J #X;X1X3X,X@X&X*X,X*X*XL c c S c c k j j * o o     ",
"          . = c D I OXOXI L D I @X@XOXI &X,X*X@X@X@X&X,X<X<X,X*X+X&X=X*X<X3X<X1X*X*X&X@X+X@X&X*X<X,X1X*XOXOX@X+XOXOXS k k x c k k : ; @ .       ",
"            @ * j c D I OXOXOXOXOXI D D I &XOXL OX&X*X,X3X3X5X,X=X&X@X&X<X5X3X<X*X@X&X&X*X,X<X<X,X&XOXI OXI D D D L c k k k k j : = + o         ",
"              . + : c S L I OXOXL D S S D I L S L &X,X,X1X<X3X,X*X&XOX@X,X3X3X,X*XOXOX&X*X<X<X,X=XI D D L D c x c c k j j : : ; ; @ .           ",
"                + * = = ; c L I I L c c S D D D L OX@XOXOXOXOXOXI I I OXI OX+X&X@XOXI I I I OXI L L D D c c c k x k : * * @ @ @ @ +             ",
"                  . . . . = c D I L c x c c D D I I I D c c k c c D I L S x D OXOXOXL D c c x x k D I D k j k k j j * . . . . . .               ",
"                          * = ; : : = = = ; ; : k D L L D c k c D L D D c x c c D D S x k x k k k j : ; * * * = * * + o                         ",
"                          o . . o . . . o . o . = c L I I D k D I L D c c k k j k c c j j k k j : * o o . o . . . . .                           ",
"                            . . . . . . . . . . * : k k k : ; : k k : : ; = = = ; : ; = = = ; = = @ . . . . . . . .                             ",
"                                                  + + + + + + + + + + + o + o o + + o o o + o o o o                                             ",
"                                                  . . . . . . . . . . . . . . . . . . . . . . . .                                               "
};