/* XPM */
static char *eb5d5caeaaf54cd690aa9de387cbfaa7PkXkt9pgxpSISFUy[] = {
/* columns rows colors chars-per-pixel */
"72 72 228 2 ",
"   c #030101",
".  c #0B0205",
"X  c #0E0907",
"o  c #0D0C0C",
"O  c #100706",
"+  c #130907",
"@  c #14010A",
"#  c #1D000E",
"$  c #150B0A",
"%  c #1B0D0B",
"&  c #1B100F",
"*  c #130E11",
"=  c #1D0913",
"-  c #131313",
";  c #1B1413",
":  c #1F1816",
">  c #1B1B1B",
",  c #240E0E",
"<  c #310E0E",
"1  c #23110F",
"2  c #29120F",
"3  c #240313",
"4  c #2B0316",
"5  c #220914",
"6  c #2E061A",
"7  c #34021B",
"8  c #3A001D",
"9  c #34081B",
"0  c #241312",
"q  c #2C1412",
"w  c #231A16",
"e  c #2D1A14",
"r  c #27111F",
"t  c #241A19",
"y  c #2C1C1A",
"u  c #311613",
"i  c #351A14",
"p  c #3A1B16",
"a  c #331D1A",
"s  c #3E1D18",
"d  c #2A221A",
"f  c #342315",
"g  c #3A2217",
"h  c #352719",
"j  c #3C2419",
"k  c #3C2B19",
"l  c #3D311B",
"z  c #3E0A24",
"x  c #291B23",
"c  c #361A2A",
"v  c #232323",
"b  c #2A2523",
"n  c #2C2825",
"m  c #2C2B2B",
"M  c #322D26",
"N  c #312D2B",
"B  c #38322B",
"V  c #382931",
"C  c #343434",
"Z  c #393231",
"A  c #3C3C3C",
"S  c #50090E",
"D  c #401E17",
"F  c #411E1A",
"G  c #72090A",
"H  c #45211C",
"J  c #4B231E",
"K  c #422C1A",
"L  c #4A281C",
"P  c #44321B",
"I  c #4A341E",
"U  c #47381F",
"Y  c #4C3A1E",
"T  c #513E1F",
"R  c #410121",
"E  c #490627",
"W  c #53012A",
"Q  c #59012D",
"!  c #570930",
"~  c #471134",
"^  c #640032",
"/  c #6A0035",
"(  c #73013A",
")  c #422520",
"_  c #4D2620",
"`  c #4B2C22",
"'  c #522721",
"]  c #552923",
"[  c #5C2C25",
"{  c #5F2F28",
"}  c #443621",
"|  c #4D3C22",
" . c #5C3326",
".. c #593525",
"X. c #543E22",
"o. c #602F27",
"O. c #622F28",
"+. c #653129",
"@. c #69342B",
"#. c #643929",
"$. c #6C3B2C",
"%. c #71372F",
"&. c #723C2F",
"*. c #743830",
"=. c #544223",
"-. c #5B4525",
";. c #5E4927",
":. c #5B472A",
">. c #514636",
",. c #604A27",
"<. c #6B462C",
"1. c #654D29",
"2. c #73432F",
"3. c #724A2E",
"4. c #67502A",
"5. c #6C532C",
"6. c #71562F",
"7. c #73592F",
"8. c #764531",
"9. c #784731",
"0. c #7C4A33",
"q. c #665232",
"w. c #755530",
"e. c #7C5233",
"r. c #765B30",
"t. c #795D32",
"y. c #7E6234",
"u. c #521740",
"i. c #790D45",
"p. c #6E1843",
"a. c #771747",
"s. c #542B50",
"d. c #6D2B54",
"f. c #424242",
"g. c #4B4B4B",
"h. c #525252",
"j. c #5A5A5A",
"k. c #606060",
"l. c #880A0A",
"z. c #970B0F",
"x. c #A31010",
"c. c #8E0D2C",
"v. c #A10622",
"b. c #D81010",
"n. c #E91019",
"m. c #CE0327",
"M. c #C43A3C",
"N. c #E92526",
"B. c #835636",
"V. c #855C36",
"C. c #8C5C39",
"Z. c #905E3B",
"A. c #826435",
"S. c #866937",
"D. c #8B653A",
"F. c #886938",
"G. c #8D6D3A",
"H. c #93683D",
"J. c #946A3D",
"K. c #94723D",
"L. c #99763E",
"P. c #860345",
"I. c #97014C",
"U. c #9C004D",
"Y. c #9E0854",
"T. c #891A51",
"R. c #9E1258",
"E. c #A3024D",
"W. c #A80054",
"Q. c #AF0158",
"!. c #B4015A",
"~. c #BD025F",
"^. c #872858",
"/. c #96205B",
"(. c #973B64",
"). c #912E76",
"_. c #D70256",
"`. c #C70064",
"'. c #CD0067",
"]. c #EB086D",
"[. c #C82D7A",
"{. c #B64A52",
"}. c #9C7441",
"|. c #9E7A41",
" X c #A37542",
".X c #A37C43",
"XX c #AB7F46",
"oX c #914770",
"OX c #915B76",
"+X c #965E7A",
"@X c #AC4F61",
"#X c #95647C",
"$X c #A16872",
"%X c #C64646",
"&X c #E9516B",
"*X c #D36B71",
"=X c #E9797B",
"-X c #A78244",
";X c #AC8346",
":X c #B08348",
">X c #B68C4A",
",X c #D33886",
"<X c #98448F",
"1X c #B3478F",
"2X c #9E7389",
"3X c #A3708A",
"4X c #D0498D",
"5X c #DA4B92",
"6X c #EE4B9C",
"7X c #EB569B",
"8X c #D87195",
"9X c #E27D85",
"0X c #D573A2",
"qX c #D76CD5",
"wX c #A88999",
"eX c #AAA3A6",
"rX c #ABA7A9",
"tX c #BEA3B0",
"yX c #F18C8C",
"uX c #D497B6",
"iX c #D4B9C6",
"pX c #CFC4CA",
"aX c #D4C3CC",
"sX c #DEDCDC",
"dX c #E3D9DB",
"fX c #E1E1E1",
"gX c #F6EEEE",
"hX c #F6F6F6",
/* pixels */
"h.g.g.f.f.A f.f.A C m > - v m m v v A A v o > > > - > m m ; * o X .     .     o X o o - v A A A N m > m m A h.j.g.f.m - - o - o - > > m m C A A ",
"g.g.f.A f.A A A A C m v - > m m v m C A v - - - - - > v V z z 8 z z 8 8 8 8 7 z 8 8 7 7 c m m v v v > > m A h.j.g.f.m - - - - - - > > m m C A f.",
"g.f.A A A A A C C m v > > > > v m C A A v - o   o . o * E U.!._.!.~.W.Y.U.U.U.Y.E.E.E.P.E * * * * o   - C g.g.g.g.f.A m v > - - o - > v m C f.f.",
"f.A C C A A A C m v v v > > - v C C C m x 9 z z z z z z P.,X].]._.'.~.!.!.!.Q.W._._.].[.a.8 8 8 8 7 7 r V f.C C f.h.g.f.C m > - - o - > C C A f.",
"A A A N N C m m v > - > > > - m C - - o z I.`.`.`.`.`.`.,X0X&Xn.v.~ z z z z z z v.n.&X8X[.Q.Q.Q.Q.Q.!.P.E - - - C f.f.f.C m v > > > v v m m C C ",
"A f.C m m v v > v - - - o - - v c Q Q Q T.,X7X7X6X6X6X6X7X=X%Xx.c.d.s.r = ; * - S z.M.*X9X5X5X5X5X5X5X1XT.E E E c m v m C C m v > m m m > m m C ",
"A C C m v > v C C v v - o .     W `.].].,XuXpXiXiXiXiXiXyXN.l.< k.qX<X~ 4 4 = - ; < l.N.*XiXiXiXiXpXiXuX4X~.~.!.W .   - m C C v > v m v > v v m ",
"C C m v > - m g.g.f.m - * 6 8 z i.,X,X,X0XiXfXfXfXfXfXdXyXN.l.& d.1X).i./ ^ E = % % l.N.=XdXfXfXfXfXfXaX8X[.[.[.p.z 7 z x v m v - > v > - > v v ",
"m v v v v v C h.h.g.m - 3 Q P.P.^.3X3X3XuXsXhXhXhXhXhXgXyXN.z.& c u.i.Y.!.Q.( 4 = = l.N.yXgXhXhXhXhXhXfXtX2X2X2X^.P.P.^ z - > > - > > > > > > v ",
"> > > v C f.g.f.g.g.C > r W ( ( ^.OX+X#XwXpXfXfXsXsXsXsXyXN.l.% r 6 i.!.~.E./ 4 5 & l.n.=XaXdXfXfXfXfXpXwX#X#X#Xa.i.( ! 6 - v > - > > > > > v > ",
"- - > > A j.h.g.f.g.f.A b = 3 3 ! ^./.R.oXwXeXeXeXeXeXeX*XN.l.; = 6 i.W.U.^ R 4 0 0 G n.*XeXeXeXrXrXrXwXoX/././.! 4 3 = v v v > > > v v > v v v ",
"> > v m A g.h.h.h.g.g.A > o . . 6 ! / / a.oXOX+X+X+X+X+X@XM.x.G R 3 Q i./ 8 4 3 S S x.M.@X+X+X+X+X#X+XOXa.( / / 7 X . o > v > > > v C m m m v m ",
"> v m m A A g.j.j.g.A b - $ & 1 % @ @ @ 8 i.R.E.R.R.R.R.oX$X{.b.G , 5 8 8 4 5 - G b.M.#X(.R.R.R.R.E.R.P.R @ @ @ % % $ o - > - > v C A A C m C m ",
"v v m A A f.f.f.f.f.m > ; 5 1 1 1 + O + 4 R W W W Q Q Q ( (.M.m.c.Q Q ^ / ^ Q E c.m.M.(.a.Q Q W Q W W E 4 + + + , 1 ; % - > > m A A A f.A A A A ",
"v v C A A A A A C m > : 0 1 0 2 2 1 2 q 1 + . . . . . @ R P.E.E.E.I.I.I.U.U.I.I.I.E.E.P.E @ . . . . . . % q q q 1 q 0 , & * - v f.f.A f.h.g.f.A ",
"v v m C A A A C b > : w q q q q 2 2 q i u % + O O O % % 9 Q ^ ^ ^ ^ ^ ^ ^ ^ ^ ^ Q ^ ^ Q 8 % % % + $ + $ , u u u u q q 0 & * ; > v A g.g.g.f.f.f.",
"C m m v C f.C v ; ; 0 q q u u u q 2 u s s i q 5 , 2 p H i 3 # # # # # # # # # # # # # 3 , u i D s i u q < i i s D i u 5 0 = & - > m g.g.s.A f.A ",
"m m v > m A m - & 1 0 e i i i u q q u F F F i u u i J [ s % + % % o X X & q 1 5 % % % % 2 D J ' ' J D i u u p D F F u 2 q q 1 & * m g.f.A A A A ",
"v v > - v C m ; & 2 q i s s i u u q q F J D i i u i J [ J i u i p q ; w J  .[ H H J F D u D J [ ' J H p p D F F J F p 2 2 e 1 & ; N f.A C C A C ",
"> > > - > m b ; 2 q u s H H s u u 2 u D J D p u i s ' o.] D p F H a t y [ %.O.] ' [ [ J D F ] o.[ ' D p p F J J J F u < q u q 2 0 N A C m m m m ",
"> - - > > > > 0 q < i s J J D p u u p F _ F F D i D ' [ [ F D J _ s w y [ %.+.[ ] O.O.J s H ] O.] J F s s F ' _ _ H u q u p i q q n m m v v v > ",
"o - > v > - ; 5 q u i s F J J H D i D ' [ ' F D i s ' O.[ J J [ ' M t y ] %.+.] ' O.{ J D H [ O.[ J F D D ' [ [ ' F u q p D s q y n v v v > - - ",
"v > > > > > > & q u s D ' ' J J D p D ' o.] ' F p D J O.[ ' ' [ ] H t a [ %.+.' ' { { J s H [ O.[ J F D F [ o.[ ] H i q p H D < y v - > > v C C ",
"m m > o ; > : 1 u s D J ] ] ' J F i D [ o.[ [ F p s ' O.{ ' ' [ ] ) t y { %.+.[ ' O.[ J D H ] O.' _ J F _ [ O.O.[ ' s u s J D u t v - - - m g.j.",
"C C m v v v ; 1 i D J ] O.o.] J F p F [ o.[ ' J p D ' O.O.' ' [ { ) t y [ %.+.] ' O.O.J s J [ O.[ _ ' J ' { +.+.O.] F p F J F u y x o - - m f.g.",
"A A C A m v - 1 p H J ] O.+.[ ' F p D [ o.o.] J D J ' O.[ ' ' { ] ) t a [ %.+.] ' { O.' H J o.+.[ [ ' ' ' { @.@.+.[ J F F [ F p a b - ; v v C A ",
"A A A f.C m ; 1 i H J [ +.+.+.[ ' D D ] +.+.O.[ _ ' [ O.[ ' ' [ { ) t x ] %.@.] ] O.o.] J ' o.+.O.o.] ' ' [ +.@.+.O.] F ' o.] D h v o > > m C A ",
"C C A f.A C > f H J J [ +.+.+.O.' F F ] +.+.+.{ ' ' [ O.{ ] ' [ [ ) t y [ %.@.[ [ o.o.[ ' ] o.+.+.+.[ ] ] [ +.+.+.O.] ] [ O.[ J l v - - v m A f.",
"C A A A f.A d | X...J [ O.+.+.+.[ F J [ +.+.+.O.] ' [ +.{ ' ' { [ H t a [ *.%.O.o.O.O.[ ' [ O.@.@.+.[ [ ] { +.@.+.+.O.[ O.+.+...=.n - > v C f.g.",
"g.g.g.g.g.f.M :.5.#. .#.&.&.&.&.@.{ #.@.&.&.&.@.o.o.@.@.#. . .#. .` y a  .9.8.*.$.$.%.+. .#.$.&.&.&.+.O. .@.$.&.&.$.$.$.%.$.2.5.q.n > v v C f.g.",
"k.j.j.g.g.A N :.6.w.0.B.C.Z.Z.C.V.B.V.C.C.C.V.B.e.0.B.B.0.3.3.3.3.X.h B 2.Z.Z.B.e.B.B.B.B.V.C.Z.Z.Z.V.e.0.B.B.B.B.B.B.0.0.0.w.6.q.n v m C C A f.",
"j.j.j.j.g.A B =.6.A.K..X;X;X:X:X:XXX;X:X;X.X XL.L.L.L.L.J.F.D.D.t.,.} | A. X}.}.H.L. X.XXXXX:X:X:X:X.X}.L.}. X X}.L.J.F.F.D.V.6.,.n - m C C A A ",
"g.h.j.k.g.f.M =.4.y.K.L.|.-X-X;X;X;X;X;X-X-X|.}.}.L.K.K.G.S.A.A.t.,.U T S.-XL.G.S.G.K.|.-X;X;X;X;X-X-X|.L.L.L.}.}.K.G.A.A.A.7.1.:.m - m A f.f.f.",
"j.h.j.j.g.A d U =.1.5.6.7.t.y.A.S.F.A.S.A.A.y.A.y.y.7.5.5.4.4.1.;.X.P Y y.K.S.7.1.5.7.y.A.S.S.S.S.S.y.y.A.y.A.t.y.t.5.1.1.5.1.=.=.M o v C C A f.",
"k.j.j.g.g.f.d l Y Y Y T T =.;.<.4.4.1.1.1.1.1.1.1.;.-.| | Y Y Y | l k U 6.A.7.;.Y X.X.-.,.,.4.,.1.1.4.1.,.1.,.1.,.,.=.Y Y Y Y Y | M o v C C f.f.",
"h.g.g.g.g.f.d h l l k g k l I I I I I I I I I I I P K k g k k j h f d k #.3.,.I K K K P I I I I I | I } I I I I I I K k k K K l B M o v m C C A ",
"C C A f.g.g.v f f f e e y i p g f i i f p p g g g i i e q i e e e w w d I #.] H s p g p i i i p s g p p i i i g g g f i i g g f B M $ > v m C C ",
"v v C A f.f.> w e e 2 2 5 u i p i q 0 0 q q u u i u q q q q q q 1 & ; y J [ ' H D D p q 0 2 q u u s i q q 0 q q u u 2 2 u p i f h n - - > v m C ",
"- > v m C C - 1 e 2 2 2 2 u p F i q q q q q u p s p u q < q u u 1 0 ; t L { ] J F F D i q q u u s D p q q q e u u u q 2 i H s u d b - - > > v v ",
"- - - v d > + 1 1 2 e 2 2 u s H s q q 0 q u i s H H p q u u u u 2 ; ; t _ o. .' _ J J s q q u p D J s u q q i i i u q 2 p H H u t v o o - - > v ",
"- > - > v m - & q u s u 2 u F J s q q q u i D F J H D u i D F i q 0 ; y ` %.+.{ ] ' J c u u u i F H s u < u i D s p u q p F F i a b ; - o > > v ",
"v > - - m C - % q s J s u u F F s q q q i s F ' J J D i D F F F i 0 ; y ] %.%.+.{ ' F s i < i p F J s i q u i F F D i q p J F p c n > ; o > > > ",
"> > > > m A : 1 i H ' H u i D F s u u u i F J ' ] J D p D F ' F p q ; y [ *.*.@.[ [ J F p p D F J ' F i u i F F J F s < s J H p h b > > > - > > ",
"- - > - m C d 1 s J [ J p p D J D i u i p D J ] [ ] J p D F ' F H y t y [ *.*.@.o.' _ D p p F J ] [ _ s i F F F J F s u D J F i a b - - > > - - ",
"- - > m C f.d 1 i ' O.' F F F J F u p p p F ' [ o.[ J p s J J J ) a t y ] *.*.@.o.' _ F D F F [ [ O.] F D J _ ' ' J D p F ' F p a b - > > - - - ",
"o > v C f.g.n 1 s ' O.[ F F [ ' F p p F F ] ] O.+.[ J p s J ' ] ] M 0 y ] *.*.@.o.' ' F F J ] o.O.O.] _ F F _ ' ] ] J F ' ] ' D a b > ; - - o - ",
"- > m A f.g.m i H ] O.[ [ ' o.[ ] D D F J [ O.+.+.o.J s D J ' { [ ) t y [ *.*.@.o.[ _ F ' ] o.+.+.O.[ ' J ' ' [ O.[ ' ' [ +.] F h m > > - - - o ",
"m m m m A f.M P [ O.+.O.[ o.O.O.] F F F ' [ +.+.+.O.' F J ' { o.[ H t y ] @.@.@.O.[ [ ] [ o.O.+.@.+.O.[ [ ' [ O.O.O.[ ] { +.o. .=.C > - > - - o ",
"A A N v C A M =.1.<.@.+.+.+.@.+.[ ' J L ] { @.@.@.#.[ J ' { o.+.{ L w y ` @.%.+.@.+.+.O.+.+.+.+.@.@.+.+.+.o.+.+.@.@.+.+.+.+.$.<.q.>.> > > > - - ",
"f.A A C C m M ,.6.w.2.8.0.0.0.0.9.$.$.#.#.<.2.8.9.2.<.#.$.2.2.2.#.` d h ..2.9.2.8.&.9.9.B.9.B.B.B.9.9.9.8.8.9.2.9.9.8.8.8.8.3.6.7.>.> - - > - > ",
"A A g.g.A v M =.6.t.V.H.}. X X X}.L.J.G.H.H.H.J.H.H.H.D.D.V.V.A.e.:.l P w.J.J.D.C.H.J. XJ. X.X X X X X}.H.H.H.J.J.J.J.J.D.C.t.w.q.>.- o o > > v ",
"g.g.g.g.C > d =.q.y.H.|.:X>X>X>X>X>X>X-X.X.X.X.X.X.X.X.XK.K.J.G.A.4.Y =.G.:X-XK.K.L.XXXX>X>X>X>X>X>XXX X.X.X.X.X.X|..X|.L.G.A.6.:.B - - - > v v ",
"g.g.g.A m - w U 1.5.7.A.G.G.K.L.L.L.K.K.G.G.G.G.G.F.S.A.y.t.w.r.5.=.P =.A.|.K.A.t.t.A.J.L.L.L.L.}.}.G.S.A.A.A.A.A.y.y.y.t.r.5.,.=.C o > > v m m ",
"g.g.g.f.C v w l T =.=.,.1.4.7.7.t.t.7.t.7.7.w.r.7.6.4.;.-.-.-.-.=.Y l Y r.G.y.1.;.,.1.5.r.t.t.t.t.r.5.1.1.;.,.,.;.1.;.;.;.-.=.=.=.M - > v m m C ",
"f.g.g.g.f.A > k P P I P I Y T X.=.X.=.=.=.X.X.X.X.X.Y P P P l P l h f P <.r.1.T I K P Y X.X.=.X.X.=.X.Y P P P P P P P P P P P P U M > v m m C m ",
"f.A f.g.g.g.d d k k g g g g g g j j j j j j j j j g f p f f i f f e w h X.$. .L g f f f j j j j H K H g g g g g f f i f i f f h B v v v C m m C ",
"f.f.f.A f.f.: d f f p p p i i u < q q q u u u q u q q q q u q q 2 0 ; t _ [ ' F < u u u u < q u u p p p p p i i q q q q u q e f h m d v C C C A ",
"A A C m C A w e g H J J L J J H F D F F H H H _ ) H J H J F J J H e : y ` @.O.' ' F F J F _ H J J J J J _ _ _ F J J H J J H D f h N > m N C A f.",
"A C C A C C > q p L o.o.O.O.o.[ [ F F [ { O.O.O.O.O.O.O.{ O.O.O.] j t y ] %.@.@.O.o.o.o.O.O.{ O.O.O.O.O.O.O.o.o.{ { O.[ o.[ ' s a Z m v v m A f.",
"C C A >.C C t q s J [ o.[ o.+.o.o.F ' o.O.@.+.O.O.o.{ O.O.O.O.O.] k t y [ *.%.O.O.+.O.O.O.O.O.+.o.o.O.+.+.O.o.o.+.+.O.{ +.+.[ D a Z m > - v C f.",
"v m m C m v > q i J _ [ ] [ o.o.' D F [ +.+.+.o.[ ' ' ] ] O.O.[ _ p w y [ *.+.[ o.o.O.o.' o.o.o.o.] o.o.O.[ [ [ O.O.[ ] [ O.[ s a Z N v - > m m ",
"- > v v > > ; 0 i D J J J ] [ [ _ D F [ O.+.O.[ J J J ' [ O.O.[ ) y w x [ %.@.] ' o.o.' ' ' o.o.' J ' o.o.' J [ O.O.' J ] { ' s a Z m v - - > > ",
"- - > v > - % 0 u F J ' ' ' o.[ _ p D ' O.O.[ ' F F F ' ' O.[ ' s y : y ] %.+.] ' ] ] ' ' ' ] ] J F F ] [ _ ' ' { [ ' D J ] J i y Z m v - - - - ",
"- - > m v > $ , u D J _ J ' [ o.' D F ] o.[ ] F D s F _ [ O.[ J i 0 ; x [ %.+.] J J ' ' J J ' J D D F F _ J _ [ [ [ F i D J D i w C C v > > > > ",
"- > v C m v - ; q D J J F J ] [ F p D ' [ _ F D u u p D J [ ' F u w ; y ' +.[ _ F J J J F F ' J p i p s F F F ' ] _ s u i D p u q m m v v v v v ",
"m m C A A C : ; u s J F s D F ' F s D F _ F D i u u u s F ' J D i 0 ; y ` +.] D F J F D D D F J s < u i s p s F J _ i q u p i q q m v > > v C A ",
"A A f.A g.f.t 0 u s F D i i D F F i i F D D u u < q q i s F F s e 1 ; y ) [ J s i F F F u i D D i q q u u u u p D D u 2 q u u q r b d > - m f.h.",
"h.h.g.g.g.A t 0 u i s i u u i p i < u u i i u u q q q u i s s u q ; ; t ` [ J i u p s i u i p p u 2 q u i u < i p p q q q q 2 2 y x > v C A f.g.",
"k.k.h.h.g.C ; q i i i u q q u u < q q 0 q q u u q 2 q i i u u q q & ; y ) [ J i q u u q q q u u q q q u u q < q u u q 2 0 q q q t b > C j.h.f.f.",
"h.h.h.h.A o X $ % % % % % + % % % $ % + + % % % % % % % , % % % + o o $ q u q % $ % % % % % % % % + % % % $ $ % % % % + + % + + % ; > C g.g.f.g.",
"f.f.f.A -                                                   .           . .                                               .       o o v f.g.g.h.",
"- > - o                                                                                                                           . o > A f.g.h."
};
