/* XPM */
static char *result[] = {
/* columns rows colors chars-per-pixel */
"72 72 156 2 ",
"   c #241219",
".  c #2A161A",
"X  c #2A181A",
"o  c #311C1C",
"O  c #37221E",
"+  c #3B251F",
"@  c #3C2720",
"#  c #3F2920",
"$  c #452D21",
"%  c #492F22",
"&  c #4A3123",
"*  c #513726",
"=  c #533A26",
"-  c #593E27",
";  c #5A3F28",
":  c #5E4229",
">  c #614529",
",  c #65492C",
"<  c #6A4C2C",
"1  c #72532E",
"2  c #79582F",
"3  c #644930",
"4  c #6A4E30",
"5  c #735430",
"6  c #7B5A30",
"7  c #7E613D",
"8  c #815F33",
"9  c #836234",
"0  c #8C6937",
"q  c #82643D",
"w  c #8C6A3A",
"e  c #936D36",
"r  c #916D3A",
"t  c #967038",
"y  c #9B773D",
"u  c #9D793D",
"i  c #A57D3C",
"p  c #9E7E4E",
"a  c #9B7D50",
"s  c #A17E48",
"d  c #AA823F",
"f  c #A78146",
"g  c #AA8344",
"h  c #A4804A",
"j  c #B68F47",
"k  c #BC9246",
"l  c #BD944C",
"z  c #BE9856",
"x  c #B9975C",
"c  c #BB985E",
"v  c #B59663",
"b  c #B69866",
"n  c #C09545",
"m  c #C0964A",
"M  c #C79B4A",
"N  c #CA9E4A",
"B  c #C79D52",
"V  c #CA9F50",
"C  c #CDA24E",
"Z  c #D1A54D",
"A  c #CCA351",
"S  c #CBA35B",
"D  c #D0A653",
"F  c #D6AA51",
"G  c #D9AD53",
"H  c #D0A75A",
"J  c #D1A95D",
"K  c #D8AE58",
"L  c #DFB356",
"P  c #DDB45B",
"I  c #E1B557",
"U  c #E0B558",
"Y  c #E5BA59",
"T  c #E9BE5C",
"R  c #CBA664",
"E  c #CEAA65",
"W  c #CEAC6F",
"Q  c #D0AA63",
"!  c #D0AC69",
"~  c #DDB562",
"^  c #D8B36A",
"/  c #DFB96C",
"(  c #CDAC71",
")  c #CBAE7A",
"_  c #CEB079",
"`  c #D5B372",
"'  c #D8B572",
"]  c #DEBC75",
"[  c #D8B779",
"{  c #DCBC7C",
"}  c #E4BB62",
"|  c #E8BE61",
" . c #E2BF74",
".. c #EDC25E",
"X. c #F0C55F",
"o. c #EBC264",
"O. c #EDC66C",
"+. c #EFC96F",
"@. c #F1C661",
"#. c #F6CB63",
"$. c #F9CE65",
"%. c #F4CC6C",
"&. c #F9CF69",
"*. c #FBD166",
"=. c #FBD36B",
"-. c #E6C171",
";. c #ECC671",
":. c #EEC873",
">. c #EDC979",
",. c #F5CD71",
"<. c #F7D072",
"1. c #FBD473",
"2. c #FFD876",
"3. c #F5D27C",
"4. c #F8D47C",
"5. c #FCD87E",
"6. c #DBBD82",
"7. c #DFC186",
"8. c #DFC189",
"9. c #DEC593",
"0. c #E7C781",
"q. c #EECD82",
"w. c #E1C58D",
"e. c #E7CA8F",
"r. c #ECCE8B",
"t. c #F4D283",
"y. c #F9D786",
"u. c #FCDA84",
"i. c #FBDB8E",
"p. c #E5CA94",
"a. c #EACE93",
"s. c #E7CD99",
"d. c #EDD192",
"f. c #EBD29C",
"g. c #F5D996",
"h. c #F8DB93",
"j. c #F7DC9A",
"k. c #F9DE9B",
"l. c #FEE29D",
"z. c #ECD5A4",
"x. c #ECD7A9",
"c. c #EFD9AA",
"v. c #F6DEA4",
"b. c #F8DFA3",
"n. c #F3DDAC",
"m. c #F3DEB2",
"M. c #FBE1A3",
"N. c #F6E1AF",
"B. c #FAE4AE",
"V. c #FFE8AE",
"C. c #F5E2B6",
"Z. c #FCE6B0",
"A. c #F6E4BA",
"S. c #F8E6BD",
"D. c #FBEBC3",
"F. c None",
/* pixels */
"F.F.F.F.F.F.F.F.F.F.F.F.F.F.F.F.F.F.F.F.F.F.F.F.F.F.F.F.F.F.F.F.F.F.F.F.F.F.F.F.F.F.F.F.F.F.F.F.F.F.F.F.F.F.F.F.F.F.F.F.F.F.F.F.F.F.F.F.F.F.F.F.",
"F.F.F.F.F.F.F.F.F.F.F.F.F.F.F.F.F.F.F.F.F.F.F.F.F.F.F.F.F.F.F.F.F.F.F.F.F.F.F.F.F.F.F.F.F.F.F.F.F.F.F.F.F.F.F.F.F.F.F.F.F.F.F.F.F.F.F.F.F.F.F.F.",
"F.F.F.F.F.F.F.F.F.F.F.F.F.F.F.F.F.F.F.F.F.F.F.F.F.F.F.F.F.F.F.F.F.F.F.F.F.F.F.F.F.F.F.F.F.F.F.F.F.F.F.F.F.F.F.F.F.F.F.F.F.F.F.F.F.F.F.F.F.F.F.F.",
"F.F.F.F.F.F.F.F.F.F.F.F.F.F.F.F.F.F.F.F.F.F.F.F.F.F.F.F.F.F.F.F.F.F.F.F.F.F.F.F.F.F.F.F.F.F.F.F.F.F.F.F.F.F.F.F.F.F.F.F.F.F.F.F.F.F.F.F.F.F.F.F.",
"F.F.F.F.F.F.F.F.F.F.F.F.F.F.F.F.F.F.F.F.F.F.F.F.F.F.F.F.F.F.F.F.F.F.F.F.F.F.F.F.F.F.F.F.F.F.F.F.F.F.F.F.F.F.F.F.F.F.F.F.F.F.F.F.F.F.F.F.F.F.F.F.",
"F.F.F.F.F.F.F.F.F.F.F.F.F.F.F.F.F.F.F.F.F.F.F.F.F.F.F.F.F.F.F.F.F.F.F.F.F.F.F.F.F.F.F.F.F.F.F.F.F.F.F.F.F.F.F.F.F.F.F.F.F.F.F.F.F.F.F.F.F.F.F.F.",
"F.F.F.F.F.F.F.F.F.F.F.F.F.F.F.F.F.F.F.F.F.F.F.F.F.F.F.F.F.F.F.F.F.F.F.F.F.F.F.F.F.F.F.F.F.F.F.F.F.F.F.F.F.F.F.F.F.F.F.F.F.F.F.F.F.F.F.F.F.F.F.F.",
"F.F.F.F.F.F.F.F.F.F.F.F.F.F.F.F.F.F.F.F.F.F.F.F.F.F.F.F.F.F.F.F.F.F.F.F.F.F.F.F.F.F.F.F.F.F.F.F.F.F.F.F.F.F.F.F.F.F.F.F.F.F.F.F.F.F.F.F.F.F.F.F.",
"F.F.F.F.F.F.F.F.F.F.F.F.F.F.F.F.F.F.F.F.F.F.F.F.F.F.F.F.F.F.F.F.F.F.F.F.F.F.F.F.F.F.F.F.F.F.F.F.F.F.F.F.F.F.F.F.F.F.F.F.F.F.F.F.F.F.F.F.F.F.F.F.",
"F.F.F.F.F.F.F.F.F.F.F.F.F.F.F.F.F.F.F.F.F.F.F.F.F.F.F.F.F.F.F.F.F.F.F.F.F.F.F.F.F.F.F.F.F.F.F.F.F.F.F.F.F.F.F.F.F.F.F.F.F.F.F.F.F.F.F.F.F.F.F.F.",
"F.F.F.F.F.F.F.F.F.F.F.F.F.F.F.F.F.F.F.F.F.F.F.F.F.F.F.F.F.F.F.F.F.F.F.F.F.F.F.F.F.F.F.F.F.F.F.F.F.F.F.F.F.F.F.F.F.F.F.F.F.F.F.F.F.F.F.F.F.F.F.F.",
"F.F.F.F.F.F.F.F.F.F.F.F.F.F.F.F.F.F.F.F.F.F.F.F.F.F.F.F.F.F.F.F.F.F.F.F.F.F.F.F.F.F.F.F.F.F.F.F.F.F.F.F.F.F.F.F.F.F.F.F.F.F.F.F.F.F.F.F.F.F.F.F.",
"F.F.F.F.F.F.F.F.F.F.F.F.F.F.F.F.F.F.F.F.F.F.F.F.F.F.F.F.F.F.F.F.F.F.F.F.F.F.F.F.F.F.F.F.F.F.F.F.F.F.F.F.F.F.F.F.F.F.F.F.F.F.F.F.F.F.F.F.F.F.F.F.",
"F.F.F.F.F.F.F.F.F.F.F.F.F.F.F.F.F.F.F.F.F.F.F.F.F.F.F.F.F.F.F.F.F.F.F.F.F.F.F.F.F.F.F.F.F.F.F.F.F.F.F.F.F.F.F.F.F.F.F.F.F.F.F.F.F.F.F.F.F.F.F.F.",
"F.F.F.F.F.F.F.F.F.F.F.F.F.F.F.F.F.F.F.F.F.F.F.F.F.F.F.F.                                F.F.F.F.F.F.F.F.F.F.F.F.F.F.F.F.F.F.F.F.F.F.F.F.F.F.F.F.",
"F.F.F.F.F.F.F.F.F.F.F.F.F.F.F.F.F.F.F.F.F.F.F.F.F.F.F.. . . . . . . . . . . . . . . . . . F.F.F.F.F.F.F.F.F.F.F.F.F.F.F.F.F.F.F.F.F.F.F.F.F.F.F.",
"F.F.F.F.F.F.F.F.F.F.F.F.F.F.F.F.F.F.F.F.F.F.F.F.F.F.F.O + @ @ @ + + + + @ @ @ @ @ @ @ + + F.F.F.F.F.F.F.F.F.F.F.F.F.F.F.F.F.F.F.F.F.F.F.F.F.F.F.",
"F.F.F.F.F.F.F.F.F.F.F.F.F.F.F.F.F.F.F.F.F.F.F.F.F.F.& = - : > : > : > : : : : : : : : : = & F.F.F.F.F.F.F.F.F.F.F.F.F.F.F.F.F.F.F.F.F.F.F.F.F.F.",
"F.F.F.F.F.F.F.F.F.F.F.F.F.F.F.F.F.F.F.F.F.F.F.F.. O * , 2 6 9 8 9 9 7 8 9 9 9 9 9 9 6 2 < = + X F.F.F.F.F.F.F.F.F.F.F.F.F.F.F.F.F.F.F.F.F.F.F.F.",
"F.F.F.F.F.F.F.F.F.F.F.F.F.F.F.F.F.F.F.F.F.F.F.  . @ ; 2 e i i i u d i i i i i i i i i e 2 : + X   F.F.F.F.F.F.F.F.F.F.F.F.F.F.F.F.F.F.F.F.F.F.F.",
"F.F.F.F.F.F.F.F.F.F.F.F.F.F.F.F.F.F.F.F.F.F.o o O & 3 w s l l l l l l l l l l l l k k d 0 < & O o o F.F.F.F.F.F.F.F.F.F.F.F.F.F.F.F.F.F.F.F.F.F.",
"F.F.F.F.F.F.F.F.F.F.F.F.F.F.F.F.F.F.F.F.F.F.$ % * 3 q a x R ! ! E ! ! ! Q Q ! J H A C k u 7 , = & $ F.F.F.F.F.F.F.F.F.F.F.F.F.F.F.F.F.F.F.F.F.F.",
"F.F.F.F.F.F.F.F.F.F.F.F.F.F.F.F.F.F.F.F.o $ - > 1 8 a v ) 6.6.w.7.w.w.7.w.w.7.{ / ~ P C j y 9 1 , - $ o F.F.F.F.F.F.F.F.F.F.F.F.F.F.F.F.F.F.F.F.",
"F.F.F.F.F.F.F.F.F.F.F.F.F.F.F.F.F.F.F.  o % , 6 w p v ) 9.f.z.z.z.z.z.z.z.x.f.d.q.;.o.L C j d e 6 , & o   F.F.F.F.F.F.F.F.F.F.F.F.F.F.F.F.F.F.F.",
"F.F.F.F.F.F.F.F.F.F.F.F.F.F.F.F.F.F.. . @ * 4 r f z ( 9.x.A.D.A.A.A.A.S.A.S.C.M.h.3.&.o.L A l d r 4 * @ . X F.F.F.F.F.F.F.F.F.F.F.F.F.F.F.F.F.F.",
"F.F.F.F.F.F.F.F.F.F.F.F.F.F.F.F.F.F.O + & > q s z ! 6.f.A.D.D.D.S.C.C.A.C.C.m.l.i.u.=.#.o.P J z h q 3 & + O F.F.F.F.F.F.F.F.F.F.F.F.F.F.F.F.F.F.",
"F.F.F.F.F.F.F.F.F.F.F.F.F.F.F.F.F.% = - , 7 a x ( 6.p.c.A.D.A.m.x.f.s.s.s.s.p.r.t.<.=.&.+.-.] W v p q 4 ; - & F.F.F.F.F.F.F.F.F.F.F.F.F.F.F.F.F.",
"F.F.F.F.F.F.F.F.F.F.F.F.F.F.F.. + = < 2 q p v ) 8.z.c.C.D.D.m.z.w.{ [ [ [ [ [ -.;.%.&.1.3.t.e.8.) v p w 6 , - + . F.F.F.F.F.F.F.F.F.F.F.F.F.F.F.",
"F.F.F.F.F.F.F.F.F.F.F.F.F.F.  . + - 2 e f x ) 9.x.A.S.D.D.D.n.p.[ E S S S S S ~ } o.=.2.y.h.v.z.9.) x h e 2 : + X   F.F.F.F.F.F.F.F.F.F.F.F.F.F.",
"F.F.F.F.F.F.F.F.F.F.F.F.F.F.  . + : 9 u k R 6.z.A.D.D.D.D.A.z.w.` S B A M M C D L ..#.1.y.l.B.C.z.{ R l i 9 : + X   F.F.F.F.F.F.F.F.F.F.F.F.F.F.",
"F.F.F.F.F.F.F.F.F.F.F.F.F.F.  . + : 9 i l E 8.z.S.D.S.m.x.z.p.6.[ W Q J H D D F L Y ..O.3.h.b.b.d.] Q m i 9 > + X   F.F.F.F.F.F.F.F.F.F.F.F.F.F.",
"F.F.F.F.F.F.F.F.F.F.F.F.F.F.  . @ : 9 i l W 8.z.S.D.m.z.p.8.6.w.8.8.{ ] / P L L L L L } ;.3.i.i.q. .J m d 9 > $ X   F.F.F.F.F.F.F.F.F.F.F.F.F.F.",
"F.F.F.F.F.F.F.F.F.F.F.F.F.F.  . + : 8 i l Q w.x.S.S.z.p.[ ` [ 8.p.f.f.t.>.O...Y L G F F Y O.3.3.:.} A m i 9 > # .   F.F.F.F.F.F.F.F.F.F.F.F.F.F.",
"F.F.F.F.F.F.F.F.F.F.F.F.F.F.  . + : 9 i l Q 7.z.C.C.s.{ E S ^ w.f.N.B.l.y.<.@...L Z C Z L | %.&.o.U D m d 9 > $ .   F.F.F.F.F.F.F.F.F.F.F.F.F.F.",
"F.F.F.F.F.F.F.F.F.F.F.F.F.F.  . @ : 9 i l Q 7.d.N.N.p.` S M Q { f.N.V.l.u.2.&...L Z M M F Y #.#...L Z n i 9 > # .   F.F.F.F.F.F.F.F.F.F.F.F.F.F.",
"F.F.F.F.F.F.F.F.F.F.F.F.F.F.  . @ : 9 i l Q ] r.j.g.0.^ A B J ] r.l.l.i.u.2.&...L Z M M F Y #.#...I Z n d 9 > # .   F.F.F.F.F.F.F.F.F.F.F.F.F.F.",
"F.F.F.F.F.F.F.F.F.F.F.F.F.F.  . @ > 9 i m H } >.t.t.-.P C M S / >.u.u.5.2.2.*.X.L Z M M F Y #.#...I Z k i 9 > # X   F.F.F.F.F.F.F.F.F.F.F.F.F.F.",
"F.F.F.F.F.F.F.F.F.F.F.F.F.F.  . @ : 9 i k C P O.<.,.| K M M D P O.1.2.2.=.=.$.X.I Z M N F Y #.#...I Z n d 9 > # X   F.F.F.F.F.F.F.F.F.F.F.F.F.F.",
"F.F.F.F.F.F.F.F.F.F.F.F.F.F.  . + : 7 i k D P o.<.%.o.K C C F L ..#.*.$.*.X.X...I Z N C L T #.#...I Z n i 9 , # X   F.F.F.F.F.F.F.F.F.F.F.F.F.F.",
"F.F.F.F.F.F.F.F.F.F.F.F.F.F.  . + : 8 i l D } +.3.3.;.} K F F L Y ......X.......I F Z F L ..#.#...I Z n i 9 > # X   F.F.F.F.F.F.F.F.F.F.F.F.F.F.",
"F.F.F.F.F.F.F.F.F.F.F.F.F.F.  . + > 9 d k H / q.h.h.3.;.Y P L L L L L L L L L L L L I Y ..X.*.*...L Z n d 9 > + X   F.F.F.F.F.F.F.F.F.F.F.F.F.F.",
"F.F.F.F.F.F.F.F.F.F.F.F.F.F.  X + > 6 i l J ] d.M.M.h.3.O...Y L F Z Z Z Z Z Z F L Y ..X.X.#.*.#...I Z n i 9 > $ X   F.F.F.F.F.F.F.F.F.F.F.F.F.F.",
"F.F.F.F.F.F.F.F.F.F.F.F.F.F.  X + : 9 i l R 7.s.N.B.l.u.1.#...L Z C M M M M C F L ..X.$.*.*.*.#.T L Z k i 9 > + X   F.F.F.F.F.F.F.F.F.F.F.F.F.F.",
"F.F.F.F.F.F.F.F.F.F.F.F.F.F.  X + : 2 e g c _ 9.x.c.l.u.2.&...P F C M C M M C F I X.$.*.*.*.#.X.I C k d t 2 : + X . F.F.F.F.F.F.F.F.F.F.F.F.F.F.",
"F.F.F.F.F.F.F.F.F.F.F.F.F.F.F.X O = < 2 w h b ) 8.d.r.3.<.*.#...I G F F F F G I ..X.*.*.X.X...L C j i w 6 < - + X F.F.F.F.F.F.F.F.F.F.F.F.F.F.F.",
"F.F.F.F.F.F.F.F.F.F.F.F.F.F.F.F.F.% = : 4 7 h b W  .-.:.&.*.#.X.....T T Y T ....X.X.*.*.X...L Z k y 9 < ; - % F.F.F.F.F.F.F.F.F.F.F.F.F.F.F.F.F.",
"F.F.F.F.F.F.F.F.F.F.F.F.F.F.F.F.F.F.@ @ & : 7 h z J P o.#.=.*.*.X.$.X.X.X.#.X.X.*.*.*.X...L Z n f 9 , & # + F.F.F.F.F.F.F.F.F.F.F.F.F.F.F.F.F.F.",
"F.F.F.F.F.F.F.F.F.F.F.F.F.F.F.F.F.F.X X O * < a g l A L ..#.$.#.*.X.*.$.$.X.*.*.*.$.$.X.I C n d e 1 = O X X F.F.F.F.F.F.F.F.F.F.F.F.F.F.F.F.F.F.",
"F.F.F.F.F.F.F.F.F.F.F.F.F.F.F.F.F.F.F.  o & , 2 e i j C L ............T ......X.......I A k i e 6 , & o   F.F.F.F.F.F.F.F.F.F.F.F.F.F.F.F.F.F.F.",
"F.F.F.F.F.F.F.F.F.F.F.F.F.F.F.F.F.F.F.F.o $ - , 1 9 y j C F L L I I I I I I I L I L G Z j u 9 1 < - $ o F.F.F.F.F.F.F.F.F.F.F.F.F.F.F.F.F.F.F.F.",
"F.F.F.F.F.F.F.F.F.F.F.F.F.F.F.F.F.F.F.F.F.F.% & * , 8 u k C Z Z Z Z Z Z Z Z Z Z Z Z C k s 8 , - & $ F.F.F.F.F.F.F.F.F.F.F.F.F.F.F.F.F.F.F.F.F.F.",
"F.F.F.F.F.F.F.F.F.F.F.F.F.F.F.F.F.F.F.F.F.F.o o O % < 0 d k n n n n n n n n n n n n k d 0 < & + O o F.F.F.F.F.F.F.F.F.F.F.F.F.F.F.F.F.F.F.F.F.F.",
"F.F.F.F.F.F.F.F.F.F.F.F.F.F.F.F.F.F.F.F.F.F.F.  . @ - 2 e i d i i i i i d i d i i d i t 6 ; + X   F.F.F.F.F.F.F.F.F.F.F.F.F.F.F.F.F.F.F.F.F.F.F.",
"F.F.F.F.F.F.F.F.F.F.F.F.F.F.F.F.F.F.F.F.F.F.F.F.. @ - , 2 8 9 9 9 9 9 0 9 9 9 9 9 9 9 2 < - + X F.F.F.F.F.F.F.F.F.F.F.F.F.F.F.F.F.F.F.F.F.F.F.F.",
"F.F.F.F.F.F.F.F.F.F.F.F.F.F.F.F.F.F.F.F.F.F.F.F.F.F.% - : : > : : : > > > > > > > > > ; - % F.F.F.F.F.F.F.F.F.F.F.F.F.F.F.F.F.F.F.F.F.F.F.F.F.F.",
"F.F.F.F.F.F.F.F.F.F.F.F.F.F.F.F.F.F.F.F.F.F.F.F.F.F.F.+ @ @ @ $ $ # # $ # # # # # # # + + F.F.F.F.F.F.F.F.F.F.F.F.F.F.F.F.F.F.F.F.F.F.F.F.F.F.F.",
"F.F.F.F.F.F.F.F.F.F.F.F.F.F.F.F.F.F.F.F.F.F.F.F.F.F.F.X X X X X . . X X X X X X X X X X X F.F.F.F.F.F.F.F.F.F.F.F.F.F.F.F.F.F.F.F.F.F.F.F.F.F.F.",
"F.F.F.F.F.F.F.F.F.F.F.F.F.F.F.F.F.F.F.F.F.F.F.F.F.F.F.F.                                F.F.F.F.F.F.F.F.F.F.F.F.F.F.F.F.F.F.F.F.F.F.F.F.F.F.F.F.",
"F.F.F.F.F.F.F.F.F.F.F.F.F.F.F.F.F.F.F.F.F.F.F.F.F.F.F.F.F.F.F.F.F.F.F.F.F.F.F.F.F.F.F.F.F.F.F.F.F.F.F.F.F.F.F.F.F.F.F.F.F.F.F.F.F.F.F.F.F.F.F.F.",
"F.F.F.F.F.F.F.F.F.F.F.F.F.F.F.F.F.F.F.F.F.F.F.F.F.F.F.F.F.F.F.F.F.F.F.F.F.F.F.F.F.F.F.F.F.F.F.F.F.F.F.F.F.F.F.F.F.F.F.F.F.F.F.F.F.F.F.F.F.F.F.F.",
"F.F.F.F.F.F.F.F.F.F.F.F.F.F.F.F.F.F.F.F.F.F.F.F.F.F.F.F.F.F.F.F.F.F.F.F.F.F.F.F.F.F.F.F.F.F.F.F.F.F.F.F.F.F.F.F.F.F.F.F.F.F.F.F.F.F.F.F.F.F.F.F.",
"F.F.F.F.F.F.F.F.F.F.F.F.F.F.F.F.F.F.F.F.F.F.F.F.F.F.F.F.F.F.F.F.F.F.F.F.F.F.F.F.F.F.F.F.F.F.F.F.F.F.F.F.F.F.F.F.F.F.F.F.F.F.F.F.F.F.F.F.F.F.F.F.",
"F.F.F.F.F.F.F.F.F.F.F.F.F.F.F.F.F.F.F.F.F.F.F.F.F.F.F.F.F.F.F.F.F.F.F.F.F.F.F.F.F.F.F.F.F.F.F.F.F.F.F.F.F.F.F.F.F.F.F.F.F.F.F.F.F.F.F.F.F.F.F.F.",
"F.F.F.F.F.F.F.F.F.F.F.F.F.F.F.F.F.F.F.F.F.F.F.F.F.F.F.F.F.F.F.F.F.F.F.F.F.F.F.F.F.F.F.F.F.F.F.F.F.F.F.F.F.F.F.F.F.F.F.F.F.F.F.F.F.F.F.F.F.F.F.F.",
"F.F.F.F.F.F.F.F.F.F.F.F.F.F.F.F.F.F.F.F.F.F.F.F.F.F.F.F.F.F.F.F.F.F.F.F.F.F.F.F.F.F.F.F.F.F.F.F.F.F.F.F.F.F.F.F.F.F.F.F.F.F.F.F.F.F.F.F.F.F.F.F.",
"F.F.F.F.F.F.F.F.F.F.F.F.F.F.F.F.F.F.F.F.F.F.F.F.F.F.F.F.F.F.F.F.F.F.F.F.F.F.F.F.F.F.F.F.F.F.F.F.F.F.F.F.F.F.F.F.F.F.F.F.F.F.F.F.F.F.F.F.F.F.F.F.",
"F.F.F.F.F.F.F.F.F.F.F.F.F.F.F.F.F.F.F.F.F.F.F.F.F.F.F.F.F.F.F.F.F.F.F.F.F.F.F.F.F.F.F.F.F.F.F.F.F.F.F.F.F.F.F.F.F.F.F.F.F.F.F.F.F.F.F.F.F.F.F.F.",
"F.F.F.F.F.F.F.F.F.F.F.F.F.F.F.F.F.F.F.F.F.F.F.F.F.F.F.F.F.F.F.F.F.F.F.F.F.F.F.F.F.F.F.F.F.F.F.F.F.F.F.F.F.F.F.F.F.F.F.F.F.F.F.F.F.F.F.F.F.F.F.F.",
"F.F.F.F.F.F.F.F.F.F.F.F.F.F.F.F.F.F.F.F.F.F.F.F.F.F.F.F.F.F.F.F.F.F.F.F.F.F.F.F.F.F.F.F.F.F.F.F.F.F.F.F.F.F.F.F.F.F.F.F.F.F.F.F.F.F.F.F.F.F.F.F.",
"F.F.F.F.F.F.F.F.F.F.F.F.F.F.F.F.F.F.F.F.F.F.F.F.F.F.F.F.F.F.F.F.F.F.F.F.F.F.F.F.F.F.F.F.F.F.F.F.F.F.F.F.F.F.F.F.F.F.F.F.F.F.F.F.F.F.F.F.F.F.F.F.",
"F.F.F.F.F.F.F.F.F.F.F.F.F.F.F.F.F.F.F.F.F.F.F.F.F.F.F.F.F.F.F.F.F.F.F.F.F.F.F.F.F.F.F.F.F.F.F.F.F.F.F.F.F.F.F.F.F.F.F.F.F.F.F.F.F.F.F.F.F.F.F.F.",
"F.F.F.F.F.F.F.F.F.F.F.F.F.F.F.F.F.F.F.F.F.F.F.F.F.F.F.F.F.F.F.F.F.F.F.F.F.F.F.F.F.F.F.F.F.F.F.F.F.F.F.F.F.F.F.F.F.F.F.F.F.F.F.F.F.F.F.F.F.F.F.F."
};
