/* XPM */
static char *celtic_red_1_1670872828[] = {
/* columns rows colors chars-per-pixel */
"64 64 196 2 ",
"   c None",
".  c #000000",
"X  c #0B0B0B",
"o  c #121212",
"O  c #1D1D1D",
"+  c gray14",
"@  c #2C2C2C",
"#  c #333333",
"$  c #3B3B3B",
"%  c #611F1F",
"&  c #691F1F",
"*  c #5B2020",
"=  c #562828",
"-  c #433434",
";  c #593C3C",
":  c #642020",
">  c #7B2222",
",  c #6C3D3D",
"<  c #653E3E",
"1  c #763E3E",
"2  c #733030",
"3  c #444444",
"4  c #4C4C4C",
"5  c #4C4444",
"6  c #554545",
"7  c #535353",
"8  c #5C5C5C",
"9  c #6C4343",
"0  c #6E4848",
"q  c #674D4D",
"w  c #734444",
"e  c #7C4444",
"r  c #744B4B",
"t  c #7B4F4F",
"y  c #625151",
"u  c #6C5252",
"i  c #605D5D",
"p  c #7C5454",
"a  c #745B5B",
"s  c #646464",
"d  c #696767",
"f  c #6B6B6B",
"g  c #786969",
"h  c #747474",
"j  c #7B7575",
"k  c #7C7C7C",
"l  c #9C0A0A",
"z  c #831414",
"x  c #9D1414",
"c  c #991D1D",
"v  c #A20707",
"b  c #A00B0B",
"n  c #AA0F0F",
"m  c #B60000",
"M  c #BC0101",
"N  c #B20808",
"B  c #BC0A0A",
"V  c #A31212",
"C  c #A21B1B",
"Z  c #AC1D1D",
"A  c #B51111",
"S  c #BA1212",
"D  c #B41E1E",
"F  c #822929",
"G  c #8B2929",
"H  c #9E2323",
"J  c #992A2A",
"K  c #942E2E",
"L  c #8B3636",
"P  c #943A3A",
"I  c #AE2D2D",
"U  c #A82727",
"Y  c #B52222",
"T  c #BA2525",
"R  c #A43838",
"E  c #BB3838",
"W  c #C50101",
"Q  c #CB0101",
"!  c #C50C0C",
"~  c #CA0C0C",
"^  c #DD0000",
"/  c #C41313",
"(  c #CF1717",
")  c #CA1818",
"_  c #D91D1D",
"`  c #EB0000",
"'  c #EB0808",
"]  c #EE1010",
"[  c #E01F1F",
"{  c #F11919",
"}  c #F61515",
"|  c #DB2323",
" . c #DB2B2B",
".. c #D42222",
"X. c #C13939",
"o. c #C33030",
"O. c #DD3030",
"+. c #ED2525",
"@. c #F62222",
"#. c #FA2A2A",
"$. c #F82626",
"%. c #E33232",
"&. c #E83B3B",
"*. c #F33232",
"=. c #FB3838",
"-. c #835555",
";. c #895B5B",
":. c #AC4949",
">. c #A64444",
",. c #B84949",
"<. c #A85858",
"1. c #B35353",
"2. c #B45A5A",
"3. c #826565",
"4. c #896666",
"5. c #886B6B",
"6. c #926464",
"7. c #946C6C",
"8. c #9B6D6D",
"9. c #9C6262",
"0. c #857A7A",
"q. c #967373",
"w. c #9A7373",
"e. c #917979",
"r. c #997F7F",
"t. c #AB6565",
"y. c #B36767",
"u. c #B36F6F",
"i. c #BD6C6C",
"p. c #A67C7C",
"a. c #B47D7D",
"s. c #D24E4E",
"d. c #C65858",
"f. c #D95050",
"g. c #ED4B4B",
"h. c #F24C4C",
"j. c #F84E4E",
"k. c #FB5757",
"l. c #FF5B5B",
"z. c #E15757",
"x. c #DD6565",
"c. c #C36868",
"v. c #FD6666",
"b. c #F66A6A",
"n. c #FD6E6E",
"m. c #F26363",
"M. c #F47B7B",
"N. c #FF7373",
"B. c #838383",
"V. c #8E8282",
"C. c #8C8C8C",
"Z. c #968585",
"A. c #949494",
"S. c #9A9494",
"D. c #9B9B9B",
"F. c #A78282",
"G. c #AB8686",
"H. c #B98E8E",
"J. c #A29B9B",
"K. c #B29494",
"L. c #BC9494",
"P. c #BA9D9D",
"I. c #A4A4A4",
"U. c #ABABAB",
"Y. c #BDA4A4",
"T. c #B6A8A8",
"R. c #B4B4B4",
"E. c #BCBCBC",
"W. c #CA9797",
"Q. c #D89B9B",
"!. c #F78686",
"~. c #E39B9B",
"^. c #EA9393",
"/. c #FF9B9B",
"(. c #C5A4A4",
"). c #CAA5A5",
"_. c #D4A9A9",
"`. c #D9A1A1",
"'. c #C4BABA",
"]. c #C8B9B9",
"[. c #D9BBBB",
"{. c #E7A9A9",
"}. c #E7BFBF",
"|. c #EBBBBB",
" X c #FABFBF",
".X c #F2B9B9",
"XX c #F5ABAB",
"oX c #C4C4C4",
"OX c #CCCCCC",
"+X c #D1C1C1",
"@X c #D8CBCB",
"#X c #D3D3D3",
"$X c #DDDDDD",
"%X c #EBC3C3",
"&X c #E2E2E2",
"*X c #E9E9E9",
/* pixels */
"                                                                                                                                ",
"                                                                                                                                ",
"                                                          . . . . . . . .         . . . . . .                                   ",
"                                                        O @ # # @ @ @ @ + +     + @ @ @ @ @ # @                                 ",
"                                      . . . . . . . . + B.U.R.E.I.I.R.oXU.h + @ h I.E.E.U.U.E.D.3 .                             ",
"                                    3 4 3 3 4 3 $ 3 4 8 k A.U.U.D.A.I.I.A.k 8 8 k A.I.I.A.A.U.A.s $ +                           ",
"                        . . . . . + A.oXR.U.oXE.U.U.E.U.7 # # $ # @ # @ + 8 I.D.8 @ @ # @ @ # 7 B.C.$ . . .                     ",
"                        @ $ $ $ $ 4 C.R.I.U.R.R.U.J.R.D.# . . . . . . . . 4 E.R.4 . . . . . . # h C.8 $ # #                     ",
"                  . . + h D.I.U.D.B.s 4 3 3 4 4 3 3 4 4             . . . 3 U.I.3 . .           $ 7 C.U.D.f @ . . . . .         ",
"                O + + $ C.E.OXOXE.A.3 . . . . . . . . .             O O + 4 C.B.# .             O $ A.#XE.C.3 O X . . .         ",
"            . @ d C.A.A.8 7 7 7 4 3 +                       . . . O 8 C.D.B.8 # o .         . # d B.f 8 7 s A.B.# . .   .       ",
"            @ 7 B.U.oXU.# . . . . .                         + @ # 3 k U.oXA.@ . . .         . # A.E.7 . . 7 oXR.4 .     . .     ",
"        . 3 I.D.8 # # #                                 . $ B.I.R.U.s # # #         . .     . $ U.#X8 . . 3 R.I.3 .         . . ",
"        $ s D.C.3 X . .                                 3 s B.D.U.D.4 . .           . .     . $ I.OX7 . . # k B.s 3 @       . . ",
"    . + B.B.7 #                             . . . . . @ I.D.7 # $ #                 . .     . $ A.E.4 .     @ 7 A.U.4 .     . . ",
"    . @ I.D.# .                             # # $ $ # 7 D.C.# . . .                 . .     . # D.R.4 .     . $ U.OX7 .     . . ",
"    . # R.I.$ .                   . . . . # h A.I.U.D.B.8 4                 . . . . . . . . . $ I.oX7 .     . $ D.R.4 .     . . ",
"    . # E.U.# .                 + @ O O + 4 C.E.OXOXE.A.@ .                 O + + @ O O O + + 4 D.E.7 .     . # A.R.4 .     . . ",
"    . @ U.D.@ .           . . # k I.C.C.D.B.8 4 7 7 7 3 O                 # h A.I.I.A.C.D.D.A.k s 7 @       . $ I.OX8 .     . . ",
"    . @ U.A.@ .         @ @ @ 7 D.oXR.R.oXA.@ . . . . .                 + 8 C.R.E.oXR.U.oXoXU.B.$ .         . $ U.#X8 .     . . ",
"    . @ E.I.@ . . . . @ D.R.U.B.8 $ # # # #             . . . . . . . @ D.A.4 # $ $ # # $ # # #         . . . # D.E.7 .     . . ",
"      @ C.C.7 $ 3 4 3 7 A.I.A.h $ . . . .               $ 3 4 4 3 3 4 f OXI.# . . . . . . . . .         3 4 3 7 k B.$ .     . . ",
"        @ 7 C.U.E.E.R.A.7 # @ @                 . . . + B.U.'.E.R.R.oXOX#XD.@ . . .                 . @ I.E.U.B.7 @         . . ",
"        . # B.I.R.E.I.B.@ . . .                 $ $ $ 7 I.+X}.|.{.{.|.[.'.A.7 # # # +               @ 7 D.R.I.k $ .         . . ",
"          + $ 3 4 4 3 $                     . # C.U.I.D.U.W.x.g.h.g.s.2.r.C.C.A.C.k $ . . . . . . + d B.8 4 3 $ +       . .     ",
"            . . . . . .                     + 7 U.*X$XOXU.u...' } { ! c t B.R.oXoXI.4 . . X O + + $ B.A.# . . .         . .     ",
"                                          $ k D.U.R.E.R.D.y._ @.k.b. .A w h A.I.I.A.4 O . @ f A.I.A.f 3 O               . .     ",
"                                        . $ C.U.A.B.A.D.A.y._ +.b.!.&.B , s C.C.B.h 3 + o $ C.U.E.R.7 .                 . .     ",
"                                      . . o @ 3 7 s B.A.D.t.Y ! ..+./ l < d C.C.s $ + X O @ @ # $ $ +                 .         ",
"                                    $ 3 o . . o @ 3 s B.A.e.P H Y Y c F u f k d $ O X X O @ $ # O . .               . .         ",
"                                . + A.I.# . . . X O 3 d B.V.g p -.p 0 q j h 7 $ O X . . . $ B.h # . . . . .     . .             ",
"                                # 7 U.oXd @ o . . X # 8 B.A.A.e.5.p y 8 B.h 3 + o . . X @ 8 I.A.3 X . . . .     . .             ",
"                            . # h J.R.E.R.k + . . X # s C.U.oX(.2.J 9 8 C.k 4 + o . . + h D.U.C.4 O X . . . . .                 ",
"                            . # D.#XR.U.$XR.7 + @ @ $ 7 B.R.&X}.d.x 1 s B.f $ + + + + $ U.oXU.B.7 + o . . . . .                 ",
"                            . $ D.#XR.D.R.R.A.A.D.A.7 @ 8 A.#X].8.1 a h s 3 + # f A.C.C.U.U.D.k 4 @ o . . . . . . .             ",
"                            @ 7 J.OXU.A.A.U.'.OX$X#Xf # 4 j Y.L.3.0 3.5.5 # @ 7 J.#XoX'.R.I.I.C.d 4 + . . . . . . .             ",
"                        . $ A.U.U.U.D.A.A.D.I.U.U.U.I.D.C.4.>.I Z V c K u h A.I.U.U.I.I.oX#XOXoXR.D.7 + . . . . . .             ",
"                        . 5 R.@XW.u.t.t.9.q.C.D.I.R.OX'.p.t.1.E ) Q M n L 5.S.U.U.R.U.T.Q.~.~.Q.W.F.y @ X . . . . . .           ",
"                        . 4 oX%Xx...| _ Z P 5.A.oX&X&X].:.1.`.^.&.` ^ W V G a V.R.#XOX).f.%.*.%.o.K = + X . . . . . . .         ",
"                        . 4 oX Xh.' @.+.! H p V.(.}.+XW.I X.^./.l.#.] ^ m c r j K._.T.H. .' @.+.~ l * @ X . . . . . . .         ",
"                        . 4 oX Xk.} k.b.| Y ;.4.2.d.p.w.Y ) &.l.N.n.#.` W U ;.5.2.,.6.6._ #.b.m. .N : + X . . . . . . .         ",
"                        . 4 oX Xh.{ n.^.| Y -.p J U -.4.Z Q ` #.n.!.=.` W I q.8.R C e t ( *.M.M.%.B & + X . . . . . . .         ",
"                        . 7 OX%Xs.!  .O./ c 0 7 9 e r.K.U W ` ' *.=.{ ` M U w.0.-.e e.F.T ( %.O./ v % + X . . . . . . .         ",
"                        . 4 oX[.2.x S / V G q i 8 d A.P.:.D ! ^ ` ` ^ W b L 3.h s f D.Y.R V S A b z = @ X . . . . . . .         ",
"                        . 4 U.].Z.p -.-.9 a 0.C.B.B.h k K.i.Y m W Q M b 2 6 5 7 f V.A.A.3.t w , , 6 - @ X . . . . . . .         ",
"                        . # k A.S.A.B.h f f k k h f 4 7 R.).<.I E E H > ; $ @ # 8 h h h k h d 8 7 - @ O . . . . . . . .         ",
"                            @ 8 U.OXI.C.C.k 7 4 3 $ + - '.#XK.G.L.L.3.; - @ o O # 3 3 7 k C.C.k 7 @ O . . . . . . . . .         ",
"                            . $ U.&XR.A.C.d $ + + @ # 7 E.OXR.T.(.H.g 4 4 # O O O + + # i B.A.k 7 @ o . . . . . . . . .         ",
"                            . # D.#XR.C.s $ O X o + s A.U.R.E.(.c.R r 8 f i 4 @ O o o O $ s B.k 4 @ X . . . . . . . . .         ",
"                            . # k U.D.k 3 O X . . + C.oXI.U.OX).,.C e d B.k 8 $ O . . X + 3 f f 3 + X . . . . . . . . .         ",
"                              O $ 4 7 4 + X . . . + D.$XU.R.&X+Xp.e e.I.D.B.i $ o . . . X + 3 $ + o . . . . . . . . .           ",
"                                . . O O X . . X O 3 I.$XR.].%X_.8.t G.T.J.B.s 4 @ X . . . X O O X . . . . . . . . .             ",
"                                    X X . . . @ d I.U.E.oXW.z.%._ ( T R 5.k k h 7 # o . . X X X . . . . . . . . . .             ",
"                                      . . o @ 8 A.R.U.U.#XQ.%.' $.*.( V t h B.B.h 8 @ X . . . . . . . . . . . . . .             ",
"                                        . # k D.J.J.I.R.$XXX*.$.v.M.%.S w s B.C.C.k 4 + . . . . . . . . . . . .                 ",
"                                        . # k A.B.k k A.OX{.%.+.m.M.O.S 1 8 f k B.h 3 O X . . . . . . . . . . .                 ",
"                                          + $ 3 4 4 7 s D.a.T /  .%./ b , 4 4 7 7 3 + X . . . . . . . . . .                     ",
"                                            . X O + @ $ f ;.G l N B v z ; 3 @ @ @ + X . . . . . . . . . . .                     ",
"                                              X X o o O 3 6 = * % & % = - @ O o o X . . . . . . . . . . .                       ",
"                                                . . . X O @ + + + + @ + @ O . . . . . . . . . . . . . .                         ",
"                                                        X X X X X X X X X X . . . . . . . . . .                                 ",
"                                                        . . . . . . . . . . . . . . . . . . . .                                 ",
"                                                                        . . . . . .                                             ",
"                                                                        . . . . . .                                             "
};
