/* XPM */
static char *dngn_open_door_1_1670874923[] = {
/* columns rows colors chars-per-pixel */
"72 72 155 2 ",
"   c None",
".  c #010101",
"X  c #0B0101",
"o  c #0C0902",
"O  c #0C0C0C",
"+  c #140101",
"@  c #1C0102",
"#  c #140803",
"$  c #1B0C05",
"%  c #160608",
"&  c #1B0509",
"*  c #130A0B",
"=  c #1B0A0B",
"-  c #171002",
";  c #1A1103",
":  c #1E1409",
">  c #1F1809",
",  c #160C12",
"<  c #1D0B10",
"1  c #141414",
"2  c #1A1414",
"3  c #1C1C1C",
"4  c #230102",
"5  c #2B0101",
"6  c #230A04",
"7  c #2B0A03",
"8  c #240409",
"9  c #2D0309",
"0  c #240B0B",
"q  c #2A0A09",
"w  c #340002",
"e  c #3C0001",
"r  c #3B0E07",
"t  c #330209",
"y  c #3A030A",
"u  c #340C09",
"i  c #3D090A",
"p  c #271504",
"a  c #2D1307",
"s  c #201807",
"d  c #2D1B05",
"f  c #24130A",
"g  c #2C1309",
"h  c #2B1C0B",
"j  c #361702",
"k  c #391407",
"l  c #3A1807",
"z  c #33140B",
"x  c #3B120B",
"c  c #321D0B",
"v  c #3A1C0B",
"b  c #240F11",
"n  c #2A0910",
"m  c #2F1F12",
"M  c #301E15",
"N  c #2D200D",
"B  c #32220C",
"V  c #3C230A",
"C  c #3A2414",
"Z  c #3D2915",
"A  c #232323",
"S  c #2B2222",
"D  c #2B2B2B",
"F  c #2C2C37",
"G  c #382F38",
"H  c #333333",
"J  c #3B3B3B",
"K  c #420001",
"L  c #4C0002",
"P  c #410E05",
"I  c #440109",
"U  c #4A000A",
"Y  c #470C09",
"T  c #530002",
"R  c #5B0000",
"E  c #41150B",
"W  c #421C0C",
"Q  c #4A1C0B",
"!  c #442403",
"~  c #4B2502",
"^  c #462806",
"/  c #43230C",
"(  c #4C250B",
")  c #452D0C",
"_  c #4C2A0B",
"`  c #512E06",
"'  c #522609",
"]  c #532A0B",
"[  c #582F0C",
"{  c #4B300C",
"}  c #54330C",
"|  c #5B340B",
" . c #553A0B",
".. c #5C3B0B",
"X. c #442512",
"o. c #4B2614",
"O. c #432D14",
"+. c #4C2D13",
"@. c #552E15",
"#. c #453115",
"$. c #4F3210",
"%. c #443119",
"&. c #4E321B",
"*. c #4E3818",
"=. c #563514",
"-. c #5B3412",
";. c #553B13",
":. c #593E15",
">. c #54331A",
",. c #563C1B",
"<. c #663B0B",
"1. c #62371A",
"2. c #623F1B",
"3. c #422E22",
"4. c #5C421B",
"5. c #6B4102",
"6. c #6D4B07",
"7. c #67410A",
"8. c #6C430B",
"9. c #7C4905",
"0. c #744509",
"q. c #724C0C",
"w. c #794C0A",
"e. c #62441D",
"r. c #68461B",
"t. c #6B4D1F",
"y. c #6D501F",
"u. c #70521F",
"i. c #5F4522",
"p. c #674124",
"a. c #654821",
"s. c #6E4E24",
"d. c #6D402D",
"f. c #6F5121",
"g. c #735321",
"h. c #7A5422",
"j. c #7A5824",
"k. c #7A4C37",
"l. c #424242",
"z. c #4F4343",
"x. c #4A4A4A",
"c. c #804605",
"v. c #814C05",
"b. c #834E0A",
"n. c #835309",
"m. c #804618",
"M. c #8C501C",
"N. c #804F22",
"B. c #805021",
"V. c #8C5321",
"C. c #815B23",
"Z. c #80592D",
"A. c #805436",
"S. c #846025",
"D. c #8D6425",
/* pixels */
"1 3 A D 3 3 3 J A l.D 1 1 1 A H H J D D H A O J J D A D 3 3 D D D H H H H H 3 A D H H H D D H 3 D H D A 3 3 3 A D A D D 3 3 3 1 1 1 1 3 3 3 3 3 ",
"A D D A A A D H D H D D 3 3 H D J l.x.H D H 3 H H H H J H D H H H D J H J J D D D H J J H J J J D J J D D A A D A D D A A 3 3 A 3 A 3 3 3 A A A ",
"D D A 3 3 F D 3 A H D O 1 3 3 3 H x.l.3 D 1 3 H l.J J J D D D D H H J J J J H H D J x.l.x.l.J J J J J J H D D D A 3 A A A A 3 3 1 3 3 3 3 A A A ",
"D A A A A A A 3 A A A 3 1 1 A 3 3 J D H 3 . O D H H D D A 3 3 3 3 A D H D H A A D A H J J l.J J H J H H J D D A 3 3 2 2 3 A A 3 3 3 1 3 1 3 3 A ",
"A D A D A D 3 H O O 3 1 A A A D H D D A D . . A D D 1 O . . O O O 1 3 1 2 1 O O 1 1 1 1 3 O D D H H H H H H H A 1 1 O 1 1 A A A A 3 A A 3 3 3 A ",
"1 3 3 3 H D 2 2 . A 1 A A A H H D 3 3 H J J . 1 1 O . . . . . . . . . . . . . . . . . . . . . 1 1 A H H J l.H D A 3 O o 1 3 3 F A D 3 3 A A 3 3 ",
"3 D A 3 3 1 A 1 3 D H D D A 1 1 3 . A 2 A . . . . . . . . . . . . . . . . . . . . . . . . . . . O . 3 A H H H D A D 1 O 1 1 3 A A A D A A A 3 3 ",
"H J H H J 3 . H A H H J J H A 1 3 1 A 3 . . . 1 O . . . . . . . . . . . . . . . . . . . . . . . . . O 3 A A A D D F D 1 A A 1 1 3 A D A A 3 3 1 ",
"D H 3 3 1 O 3 3 A D H H J D 1 1 O 1 3 . . . . . . . . . . . . . . . . . . . . . . . . . . . . . . . . O 1 1 A A D H D A A 3 3 3 A A D D A A 1 1 ",
"H A 3 A A A 3 D A J D D 3 1 1 A 3 3 1 . . . . . . . .                             . . . . . . . . . . O 1 3 1 1 A A D A A A 3 A A A 3 A A A 3 1 ",
"D D 3 1 O 1 A J D A D A 1 O 1 3 1 O O . . . . . . .                                         . . . . . . O O 1 1 3 A D H D A A A A 2 1 A D A 3 2 ",
"A D D 3 1 D D D A D 3 O . . . . O . . . . . . . .                                             . . . . . O 1 2 1 O 1 A J H A D A 3 3 1 D D D 3 3 ",
"D A D D A 3 A 3 A 1 3 . O O . . . . . . . .                                                         . . . O O O . O 3 A A A A A A 3 A H H H A 3 ",
"1 3 D H D D 3 D A 3 1 O O . . . . . . . . .                                                           . . O * * 1 1 1 3 3 A A A A 3 A A D D 3 1 ",
"A 2 3 D H l.J 3 3 1 3 . . . . . . . . . . .                                                           . . # * , = 2 : 1 3 3 A A A A 3 A A A A 1 ",
"O 3 D D J l.H 3 O 1 . . . . . . X . X . . .                                                           . . * = 0 0 = 1 O 1 3 3 A 3 3 3 3 3 A 3 3 ",
"2 D D H H l.H 3 3 O . X . . . X . X X . . .                                                           . . X & & 8 & & * 1 1 3 A A A 3 A 3 3 3 3 ",
"D H J J D A 1 1 . . . . X X X . + + X . . .                                                         . . . X + @ 4 @ 4 & % * 1 3 3 A A A A 1 A D ",
"D J J F D 3 1 O X . . . . + X + + + X . . .                                                         . . . X + + @ @ @ @ % * 1 2 3 A A A 3 A 3 A ",
"H D A D A 3 o . . . . . . . + @ + X X . . .                                                         . . . . + @ @ 4 4 @ @ = < * 1 1 A A D A A 1 ",
"D H J O 1 O . . . + 4 + @ + @ @ @ X X . . .                                                         . . . . + + 4 @ @ @ 5 9 q + , 1 A D D D A 1 ",
"H H A O . . X . . + e 5 4 @ @ @ + + . . . .                                                         . . . X + @ @ 4 @ 4 w e t 8 % 2 A A D D A 3 ",
"H D 3 1 . . X + 4 K R e 4 @ @ @ + + X X . .                                                         . . . X + + @ @ @ @ e T L w @ 0 D D A A 3 3 ",
"J J F 2 . . X @ 5 L R K 4 @ @ @ @ + X . . .                                                         . . . . + @ @ 4 @ 4 K R T e @ 5 H A A A 3 A ",
"A A A 1 O . X @ w L R K 5 @ @ @ @ + + . . .                                                         . . . . + + @ @ @ 4 K R T e + w H D A A A A ",
"H D D 1 . . X @ 5 L R K 5 @ @ @ @ % + . . .                                                         . . . X + @ @ 4 @ 4 K R L w @ w J D 1 1 3 A ",
"H H H H * . X @ 5 K L e 4 @ @ 8 4 % X . . .                                                         . . . X + @ @ 4 @ 4 e L e 5 & 4 3.A 1 O O 1 ",
"J J l.H 1 . . @ w e L w 4 @ 8 8 & + + . . .                                                         . . . X + @ + 4 @ 4 e K e 4 . 8 l.A O . O 1 ",
"D J J H o . X @ 5 K K w 9 4 8 8 4 % X . . .                                                         . . . X + @ @ 4 @ 4 t I w + . @ H 3 . . . O ",
"J H H 1 O . X @ 5 e U y 5 4 8 8 4 % + . . .                                                         . . . X + @ 4 4 4 4 t K 5 @ + + F A . . . O ",
"D D D 1 O . X @ 9 y I i x k 7 6 & @ X . . .                                                         . . . X + @ 4 4 w r x w @ + . + J D O . . . ",
"J J D A 1 . X % 4 8 9 W [ ] r 8 6 % + . . .                                                         . . . X + @ @ w Q 1.o.@ + . . + H D . . . O ",
"H J H F 3 . O + @ & 8 ( 9.5.~ a 6 @ + . . .                                                         . . . X + @ 5 W d.m.=.@ . . . + D D . . . O ",
"J J D 3 1 X * % @ & 8 ' v.c.| V a & + . . .                                                         . . . X @ 7 k @.k.V.-.@ X . . + H D O . O O ",
"J J D O 1 . * & & 8 6 ] v.n.5.} V 0 + . . .                                                         . . . + $ j +.p.k.V.| @ X . . + J D O . . 3 ",
"D D A O 1 o * 8 8 7 u ] 9.n.6...) p # . . .                                                         . . . # f Z 4.t.j.B.| @ + X . + J D 3 O O 1 ",
"D A 1 O O . * 8 8 9 t ' 0.w.6...) B @ X . .                                                         . . . $ N #.:.s.j.h.>.5 @ X X @ H D 3 1 O 1 ",
"2 A 1 O O . # @ 9 w u ( 0.q.7. .{ B - o . .                                                         . . X s N %.=.a.g.g.>.5 @ . . + H D A 3 1 O ",
"1 3 1 O O . X + 8 8 8 ( 8.0.} ! V B ; o . .                                                           . o > N Z O.,.r.j.>.4 + X . @ l.H 3 3 O 1 ",
"O 1 1 O O . * + @ & 4 Q <.<.! a d N ; o . .                                                           . o : N m M Z i.s.&.@ X . . @ l.H A O 1 1 ",
"O 1 2 O 1 . o + 8 9 9 W [ ] k 4 6 p - o . .                                                           . o $ h f b z ) | Q 4 @ X . @ J H A 1 1 O ",
"1 3 1 . O . X + 9 I U Y x x 7 @ @ 6 + X . .                                                           . . % $ @ 4 8 w e K e w + X @ G D A 1 3 1 ",
"1 1 1 O . . X 4 y U R U u 7 4 4 @ # + . . .                                                           . . X + @ @ 4 4 5 e L L 5 . @ H H A 3 A 3 ",
"A 3 3 O . . X 4 t T R U 9 8 8 8 @ @ X . . .                                                           . . X + + @ @ @ 4 e R K w @ @ H J H H D D ",
"3 3 3 O O . X 8 y L R U t 8 4 8 + & X . . .                                                           . . X + @ @ @ 4 4 K T L w 4 @ z.J J H J D ",
"A A A O . . + @ w U T U 9 6 8 & @ @ X X . .                                                           . . X X + @ 4 @ 4 e T e 5 @ 4 x.J J H H J ",
"3 H 2 O . . X @ w I U I 9 8 8 4 @ @ X . . .                                                           . . X + + @ 4 @ 4 w K e 5 @ w J J H J J J ",
"D D H O . . + @ w y L y 8 9 4 4 @ + X . . .                                                           . . X + + @ @ 4 4 5 e e 5 + 4 J J H D H l.",
"D D 3 O . . # 4 t e L t 9 8 8 4 @ @ + . . .                                                           . . X + @ @ @ @ 4 w K e 5 + 4 J H M A D J ",
"H H A . . . + @ t y I i u q 8 4 @ + + . . .                                                           . . X + @ @ 4 4 9 w K e 5 @ @ H H 1 3 H J ",
"A H 2 . . . + + 8 9 t E ( / k 4 4 @ + . . .                                                           . . X & @ 4 z X.@.E w 4 @ . 4 H H 1 3 F l.",
"D A D 2 . . . + @ & 7 W 8.<.W 6 & @ + . . .                                                           . . X % & 0 W 2.g.@.7 + X + 4 J A 1 1 F H ",
"A D H A o . . + & @ 6 _ b.9.} k 8 @ + . . .                                                           . . X & f z @.h.D.=.6 + X X @ H D 3 3 F J ",
"A F 3 H O . . + @ @ 6 ] v.b.7.^ l % X . . .                                                           . . . & h O.e.C.D.-.7 + X . @ A A 1 1 1 D ",
"A A H J 1 . X + 6 4 q ] n.n.q. .) 6 + . . .                                                           . . + = Z ,.g.C.D.-.7 + + . @ D A 1 1 1 F ",
"1 A D A O . . 8 8 4 9 ] w.w.q...) a # . . .                                                           . X # h O.4.y.C.C.-.5 4 @ + + D 3 O o 3 A ",
"O 3 D D . . . 8 w 5 u ( 0.w.8..._ d ; o . .                                                           . o ; B #.4.t.j.u.-.e 5 4 @ @ D M O . 3 3 ",
"O 1 A 3 . . + 8 8 4 9 Q <.8...` ) B s o . .                                                           . O - B O.*.4.t.u.] 7 4 4 @ 4 H A . O 1 3 ",
"O A J H 2 . X + @ @ 6 / ..7.) v c d s o . .                                                           . o # N B C O.4.r./ 7 + + X 4 H A 1 O 3 3 ",
"O A l.J 3 . . & + @ 8 v ;.{ v 6 p d s o . .                                                           . o - h g 0 z +.:.V 4 + + X 4 H A 1 O 1 3 ",
"1 A D H 1 . . $ 4 t y x / V g 8 6 f ; X . .                                                           . o O = 0 7 7 l Q P e 5 4 + 4 H A 3 O 3 3 ",
"O A D D O . . 8 w U T L u 8 6 4 @ & # . . .                                                           . X o % 4 4 4 5 7 K R K w @ 5 J A 1 O 1 3 ",
"1 3 D A , . . 8 w T R U 9 9 8 @ & % # . . .                                                           . X . & @ 8 4 4 5 e R T K @ 5 D A 1 O 1 3 ",
"2 D A A O . . 8 t T R U t 6 4 @ & = + . . .                                                           . X X + @ 4 4 4 5 K R T e @ 4 A 3 O O * 3 ",
"1 A A 3 1 . o @ t U R I t 8 4 @ & & X X .                                                             . X X * + 4 4 4 5 e R L w @ 4 A 3 O O , 1 ",
"3 F A 3 O . X 8 w U T I 9 6 @ % * X X .                                                                 . X X X + 8 @ 5 e L K 5 @ 5 A 1 O . O 3 ",
"A A D A O . X 8 t y U y 9 4 & + X . .                                                                     . . X + & @ 5 w K e 5 @ 4 A 1 O . O 1 ",
"3 A D 3 1 . & 0 t e U t 8 @ X X X . .                                                                       . X X + % 8 w K e 5 @ @ M 1 . . . O ",
"A D D A 1 1 = n t e U t 8 X X . . .                                                                           . . . + @ w K e 5 @ @ 3 1 O . . O ",
"A D A 3 1 O , 0 t w y 9 + . X . .                                                                               . . X % 6 y w 4 @ + 2 O . . . O ",
"A A A 1 1 O * = 8 4 8 % . X . . .                                                                                 . . X % 9 @ + . @ 3 O . O O O ",
"3 3 1 O O o * + & % + X . . .                                                                                     . . . X % X + X , 3 O O . O O "
};
