/* XPM */
static char *exit1670870027[] = {
/* columns rows colors chars-per-pixel */
"72 72 205 2 ",
"   c #090908",
".  c #141414",
"X  c #1C1C1C",
"o  c #2C2616",
"O  c #1F2025",
"+  c #1F263E",
"@  c #232324",
"#  c #292620",
"$  c #22242B",
"%  c #2C2C2C",
"&  c #39362D",
"*  c #272A37",
"=  c #21273D",
"-  c #2E313F",
";  c #333333",
":  c #393835",
">  c #3B3B3B",
",  c #483F28",
"<  c #68541F",
"1  c #4E4327",
"2  c #4A422B",
"3  c #584B28",
"4  c #4A4639",
"5  c #584F34",
"6  c #5D5337",
"7  c #614F21",
"8  c #64542A",
"9  c #685628",
"0  c #725D23",
"q  c #6A5B34",
"w  c #7B6325",
"e  c #7A642B",
"r  c #74643B",
"t  c #222A43",
"y  c #252C46",
"u  c #222B4A",
"i  c #2E3242",
"p  c #333643",
"a  c #3A3C48",
"s  c #232D54",
"d  c #222E5C",
"f  c #273257",
"g  c #343B59",
"h  c #1E2D67",
"j  c #1F306E",
"k  c #202F68",
"l  c #233164",
"z  c #23336C",
"x  c #2B3868",
"c  c #233575",
"v  c #24367B",
"b  c #25387D",
"n  c #3D4257",
"m  c #36416C",
"M  c #434343",
"N  c #41454B",
"B  c #4C4C4C",
"V  c #524F4A",
"C  c #575347",
"Z  c #535353",
"A  c #5A5753",
"S  c #5B5B5B",
"D  c #6B5E40",
"F  c #6C624B",
"G  c #74664A",
"H  c #676255",
"J  c #766F52",
"K  c #787358",
"L  c #585A6A",
"P  c #4E567A",
"I  c #595C72",
"U  c #5D6178",
"Y  c #636363",
"T  c #626269",
"R  c #6B6B6B",
"E  c #64687A",
"W  c #737373",
"Q  c #7B7B7B",
"!  c #836927",
"~  c #826A2A",
"^  c #896F2B",
"/  c #8E732B",
"(  c #93762D",
")  c #96782E",
"_  c #9B7C2F",
"`  c #856F38",
"'  c #8A7336",
"]  c #927B31",
"[  c #9D7E30",
"{  c #867A4C",
"}  c #978136",
"|  c #A58433",
" . c #A78A36",
".. c #AD8A35",
"X. c #AB923B",
"o. c #B69338",
"O. c #B4963B",
"+. c #BA9539",
"@. c #BB9B3D",
"#. c #C39D3C",
"$. c #C9A23E",
"%. c #948B5C",
"&. c #AF974D",
"*. c #BB9C46",
"=. c #BAA54A",
"-. c #AEA159",
";. c #B6A756",
":. c #B9AA5B",
">. c #96906D",
",. c #B5AA6E",
"<. c #CDA640",
"1. c #C6A946",
"2. c #D5AC43",
"3. c #D6AC43",
"4. c #CCB44C",
"5. c #DBB145",
"6. c #D7B74B",
"7. c #CFB358",
"8. c #E1B647",
"9. c #E4BA4A",
"0. c #E9BC49",
"q. c #C7B16E",
"w. c #C8B568",
"e. c #DDC151",
"r. c #EBC34E",
"t. c #F2C64E",
"y. c #E6C855",
"u. c #F3CB52",
"i. c #EDD057",
"p. c #EDD55C",
"a. c #F4D156",
"s. c #F5D65A",
"d. c #F5DC5D",
"f. c #DAC27B",
"g. c #E5CC65",
"h. c #E7D468",
"j. c #F3D768",
"k. c #EDD47A",
"l. c #F8E27A",
"z. c #243983",
"x. c #263B8A",
"c. c #283D88",
"v. c #273E91",
"b. c #283F93",
"n. c #30438A",
"m. c #294196",
"M. c #2A439C",
"N. c #2C46A3",
"B. c #2E4AAD",
"V. c #314CAD",
"C. c #3650AB",
"Z. c #3E56AE",
"A. c #2F4CB1",
"S. c #314EB3",
"D. c #314FB8",
"F. c #3753B8",
"G. c #3351BD",
"H. c #4D598D",
"J. c #575F85",
"K. c #4C5B98",
"L. c #5B6080",
"P. c #66749E",
"I. c #4B5DA2",
"U. c #465BAA",
"Y. c #465EB6",
"T. c #4D63B6",
"R. c #3554C4",
"E. c #3A59C6",
"W. c #3A5BD3",
"Q. c #3B5EDA",
"!. c #3C60DF",
"~. c #3F63E5",
"^. c #435FC4",
"/. c #4762C6",
"(. c #5872CC",
"). c #4767D8",
"_. c #4163DD",
"`. c #5A76D3",
"'. c #4467E3",
"]. c #7A8395",
"[. c #7686B4",
"{. c #6A81C8",
"}. c #838383",
"|. c #8B8B8B",
" X c #949494",
".X c #949997",
"XX c #9A9A9A",
"oX c #B9B588",
"OX c #AAAB97",
"+X c #8492B5",
"@X c #D1BB83",
"#X c #D7C69A",
"$X c #EDD680",
"%X c #E7D393",
"&X c #F7E592",
"*X c #DCCDAA",
"=X c #E3D5AE",
"-X c #F7ECBB",
";X c #E6DDC4",
":X c #EAE1CD",
">X c #F3ECD5",
",X c #F3EEE3",
"<X c #F6F2E9",
"1X c #FBF9F5",
"2X c #FEFDFC",
/* pixels */
"X ; > B Z V Z M M > > > ; @ @ . . @ : M B B B B M n & % # @ . @ > n M B B V B > : ; $ O X X % M M B B B B N M > : ; % X X . X % 4 M B n : & % @ ",
"; Y Q |. X.X X|.}.W R Y S B > % % B R Q |. X|.}.Q Q R A N > % B H Q Q |.|..X|.W Y S B M ; > H W Q }.|. X X].Q W R Y B > % @ ; S Q Q }.Q R Y B > ",
"> R Q |..X X X}.W R R T S B > % % N Y W Q }.}.Q W R Y V M : % M Y W W Q }.}.Q W Y Z B M : > Y ].>.|.|..X.X|.Q W W Y Z M ; @ > Y |.|..X].Q H Z N ",
"> W }.}.}.}.Q R Y S S A B M > @ % > S S Y Y Y S S V B B M ; @ : Z Y S Y Y Y S S Z B 4 > ; M R |.].|.|.|.|.>.W W W R S B > @ > R |. XXX|.Q R S B ",
"> W W W W R Y S B B B B M > ; @ @ : M B B B B B n > > > : % X ; M B M B N B N B B n : > > V R |.}.].Q }.}.W R R R Y S V : @ > R |..XXX|.Q R S Z ",
"; S Y S S S A B M > > > ; ; % @ @ % : : > > > > > & ; % % @ @ # ; > : ; & ; : : > > & M B S W |.>.W W R R Y S Y S S B M ; X ; Y >. X.X|.W R S Z ",
"% B B M 4 n > : ; ; % ; # @ X O X @ X # % % % ; ; % % @ @ X @ @ % % @ @ @ X @ % ; % ; 4 Y W Q Q W W Y S V B V C Z B M M % . % S }.].|.}.Q R S B ",
"@ > > > ; ; ; % % ; Z S S Z B B B N 4 n > > ; % : B B B B M n 4 > : % @ % > M M > : % n S Y Y R T L Z B n 4 n > > : ; % X . @ M Y R }.Q W R S Z ",
"X ; ; ; % % $ @ @ > R |.}.>.W R R Y Y S B n ; @ M A R R R Y Y S V > % # > S S Z n > ; > V Z S A Z B M > : : : ; % $ X X . . X % n A W W W R S Z ",
"@ > M M M > ; % @ > R |.}.P.Q Q W R Y S B 4 ; # B W Q Q Q W W Y S n ; @ 4 R R S C M > > M N N B n > : % ; : > > > ; % $ # O @ % ; V R W W R A B ",
"% A S Y Y S A > % ; Z R R Y H L S Z Z V M > % $ S ].|.Q W W R Y A 4 ; @ M W W R Y Z B M > > > > & # # $ $ M A S Y Y A Z 4 n ; % % Z W Q W R Z M ",
"; R Q Q Q Q W B % % > V B B V B B M > > > : % # A |.|.Q R R R Y Z n ; # V W Q W R Y A N > : ; ; % @ @ O % V R W Q Q W W Y A M % % Z W W R H Z M ",
"> R >.P.}.Q W Z : % ; M M > > > : ; % % ; % # $ V R W Y S S S Z B > ; % B R ].Q }.W R Y Y S Z B M > ; % ; Z W ].|.|.Q R Y Z M % % n H Y Y A B > ",
"n W >.|. XP.R A > % ; ; ; ; % @ @ @ @ @ @ O @ @ : V Z Z Z B M M n > ; ; B R Q |.XX|.Q }.|.}.Q R Y V n : : S Q |. X X].W Y Z M ; @ : Z Z Z V n M ",
"> R W }.}.{ Q Y Z N M M > ; ; % $ : M > : ; % # & > M n > > > > : : ; ; 4 Z R Q }.Q W W Q W R S A V 4 ; : S Q >.|.|.Q W S V > % O ; > M M > : : ",
"% A T R Q }.}.Q W R Y S Z > > % > Z W R Y Z > % % % % # % ; ; ; & ; ; ; : > B S Y Y S S S S A B N N : % * Z Q Q Q Q W W S B > % @ # % % % % % O ",
"$ B A T R Q |.|.}.}.W R S M > ; > Y |.}.W Y B ; % O @ % ; : 4 a M > > > : & : 4 B B B B B M n > > > ; % % B R R R R R Y S n & % O % % ; % % % % ",
"O 4 B S Y W Q }.|.|.Q R L B a % ; A Q Q Q R S > ; @ % M Z Z S S Y Y S Z B n 4 n > M > > > : & % % % % @ @ > V S S S Z Z B M > % % > B B B B M : ",
"O > M B A T W }.XX X}.R H Z M % ; B W W Q W Y B : # : S W W >.].|.|.Q R Y Z M > % ; ; % ; % O O @ O X X @ % % > B B B M > M > & : Z R K W R S Z ",
"X ; > M N B A R W W R Y A B > % ; Z Q Q Q R Y B > $ > R ].Q W Q W W R Y S B > : % : N B B V Z B M > > : ; % % ; ; > : > > > > M B Y W Q Q Q Y B ",
"X ; ; ; : > > M B Z Z A B M > @ ; L |.].Q R S B : $ M Q  X}.W R Y S S Z V N > % % B S R R W ].>.W R Z B n & @ @ % $ ; ; ; ; n C Y W Q ].|.|.R Z ",
"@ > M 4 > > > > > a M M > > ; @ ; L { W R Y A B > $ M W }.W Y S B M 4 n > > ; @ % M Y R R Q |. X|.W Y S M ; @ O @ % ; : : : M S W Q }.|..X|.Y B ",
"% S H A A B M > : : > > : % % @ % N R Y Y Z B M : % > Y R Y Z M : ; % ; % % % @ @ M S S Y R Q |.Q W H Z M ; @ @ % : > M M N V Y W Q |.}.}.Q Y Z ",
"> Q P.W R S V M ; ; ; ; ; @ @ @ % > Z B B B M > : ; : M N 4 > ; $ @ O O O O O O $ > B B V Z R Q W W Y B : % @ % ; M B B V B Z Y W Q |.Q Q Y S B ",
"M Q }.Q W Y B 4 ; : M Z Z B N ; % ; 4 a n 4 > > : % % ; : ; % - y s u s s s u s y i : : > n S Y Y H B M % % % % % ; : : > > > B Z R ].}.W R A B ",
"B }.|.}.W Y V n ; > Z R R R S > % ; ; ; ; ; : > ; @ @ # @ @ @ u z c c c c c c c j y $ $ # % M Z S Z N ; # % % # @ @ @ # @ @ % ; M S Q Q Q H Z M ",
"M |.|.}.W Y B > ; > Y W P.>.W S 4 n > ; % ; ; : % @ O + = * + d c x.x.x.x.x.z.z.v d t + * * p M n > > ; ; : n > > > M N > ; % % : Z W W W Y Z > ",
"V  X XQ R S M ; % : Y Q >.|.].E Y A B : % @ @ $ @ X = d z z z v n.m.m.m.v.m.v.x.v c j j z f y % % % ; : B Z S Y S Y W }.Y B > % % B W W W Y Z M ",
"B |.|.W Y Z M ; @ : Y Q |.|.}.>.W Y V > % O O O $ O u z z.z.z.x.m.M.M.M.M.M.m.x.z.z.z.z.z.z u O O O ; n B S R R W W |..XQ S N ; % n H R R Y B > ",
"> R R H S B > ; $ ; S W ].}.].Q R S N : $ O t s s d z z.x.m.m.m.m.M.N.M.M.M.m.m.v.v.v.x.z.v j d s s y ; > B S R W Q }.|.R Z M % % > S S S B > % ",
"$ B V V B N M ; # ; S W W >.Q W R Z n ; % * d z.z.z.x.m.M.M.M.m.M.M.M.M.M.M.M.M.M.M.M.m.n.z.z.b z.z.h = # > B Y W Q W W Y Z M ; % : B B n & % @ ",
"@ : > n > : ; % @ ; B Y R R T Y A M & % = s z z.c.x.x.m.M.M.M.B.A.D.D.D.D.D.A.N.M.M.M.m.x.z.z.z.z.z.z s y - > Z W Q R Y Z B : % O % > : : & # X ",
". # $ % @ % @ @ O % 4 A Z A V V M ; @ t l c v z.b.b.b.b.b.N.b.S.W.Q.Q.Q.Q.Q.R.A.b.N.b.b.b.b.x.z.z.z.v c k y % M R Q Y Z M > ; @ O O % @ # O @ O ",
"X ; : ; ; % % % @ % : n 4 n 4 n : % @ t z z.z.x.b.b.N.N.N.N.S.R.Q.'.`.{.`.~.W.R.B.N.N.N.N.b.v.x.z.z.z.z.c u O M T Q Y Z M ; ; ; ; : : : : ; ; % ",
"; Z A A B B a ; % % ; ; ; ; ; ; ; @ O t z x.v.b.b.M.N.b.N.S.W.Q.~.`.+XOX+X).!.W.R.A.N.N.N.b.b.b.z.z.z.z.c u @ M R Q S Z > > > M Z Z S A Z Z n > ",
"a Q Q W R S A M > % # @ O X $ % % # X t z x.b.b.b.N.b.N.N.R.~.~.!.[.oXh.OX(.!.~.!.D.N.b.b.N.N.b.v.z.z.z.c u $ M R W Y V M ; > S W Q Q Q W R A C ",
"> W Q Q Q W Y S Z B > : % @ % ; a % @ t j x.b.N.N.b.N.M.N.R.~.^.H.W ,.j.,.L.I./.!.D.N.N.M.M.N.b.v.z.z.z.c u O M Y Q Y Z > ; > R }.}.}.Q W R S Z ",
": R Q }.}.>.Q W R Y A N : @ % 4 M ; X t z x.b.b.b.N.b.N.N.R.~.U.A %.=.p.;.r I T.Q.R.N.b.M.N.b.N.v.z.z.z.c u O M T W Y B > @ > Q .X|.}.Q W R S Z ",
"> R Q Q >.P.Q Q W R S B > $ ; M M ; @ t j x.b.M.M.N.N.A.S.U.U.U r } 4.p.1.] G L.U.Z.S.N.N.b.M.b.b.v.z.z.c u O M R W Y Z > @ > R  X|.].Q W R S B ",
"> W Q Q Q Q ].W W R S B > % : M B : X t j x.b.M.M.b.B.R.^.H.S F ' O.6.p.4.} ` F L I.E.R.N.N.N.b.b.b.v.z.c u O a S R S Z > @ > Y Q ].>.}.W R S Z ",
"> W W W R W Q W R T A B M : > B M : @ t j x.b.b.N.N.S.E.Y.I 0 ^ | $.e.d.6.*.[ ! q J./.Y.S.N.M.N.M.M.m.x.v u O > A Y A B ; @ ; V R Q |.}.W R S Z ",
"% Y Y Y S S S A A Z M > N Z B B M % @ u b b.b.N.B.R.U.H.I G ( [ $.6.y.d.y.5.@.| ` H I K.F.D.B.b.M.m.v.x.c u O ; M M a ; % @ % a Z R ].Q W R S V ",
"% B Z Z V B n 4 M > ; > Z Y S B > % X u c.b.N.N.R.W.I.A 0 ^ [ #.8.u.s.d.a.0.3.+.[ ~ 8 I ^.W.D.b.M.M.m.x.c u O # ; ; % $ @ X @ % > S Q Q W R S Z ",
"@ > M > > : ; % ; ; ; ; Z W R B > % @ d M.D.D.S.U.I.U G ~ _ ..$.9.u.s.d.s.t.5.#.[ ( ! H J.U.U.S.D.D.B.m.z.u $ % > M , a : ; ; ; : S W W W R S C ",
"X ; % % $ % @ # @ % % ; A Q T Z > % O x F.Q.Q.^.H.A G ( [ [ ..#.8.u.s.j.a.t.5.#...[ _ ` D L I._.Q.W.R.B.c.s O > Z Y Y Y A N 4 : : Z R W R R S Z ",
"X : > ; % % % @ @ @ % ; Z R Y B > % @ x E._.).Y.U q ^ | +.+.+.$.5.r.j.l.j.r.3.#.+.+.+.[ ! q J.^.).~.W.A.m.s @ > S R W R Y Z N ; ; B Y R R Y S Z ",
"% Z Z Z V N > ; @ @ ; a M A Z N : % O x ^./.K.L G ' ..#.3.5.5.<.$.7.%X-X%X1.<.3.3.5.5.#.[ ` H I K.Q.W.A.c.s O > S W W W Y Z M ; % M S S S S Z Z ",
"; R W W R S Z > % $ ; , a M a , > % X x Y.T.T 0 ( | #.9.t.0.t.5.*.q.=X1X*X&.$.5.0.t.0.8.+.| ^ q E (.E.V.n.s O > S W R R Y Z M ; # & n Z B B B B ",
"> R Q Q W J V > % % % ; ; ; ; : % @ . n ]. X%.X.=.1.e.e.a.a.a.g.@X*X:X1X:X#Xf.g.a.a.i.r.4.=.O.&.>..X].J.N * . > L W R Y Z M > % @ ; M M M > > > ",
"n W ].>.P.T Z M ; % @ @ @ @ % % % X   3 ;.p.h.p.i.p.p.d.d.d.d.&X>X1X1X2X1X<X-X&Xs.d.d.d.p.p.p.y.p.h.;.{ 1 o   ; S W T Z M > % @ O # ; ; ; ; % @ ",
"4 P.}.|.>.R S B > ; % @ % : > : ; X   4 >.,.w.:.e.e.y.i.s.s.s.l.=X:X<X2X,X;X=Xl.s.d.s.i.y.e.6.4.w.,.>.K 4 #   : R { E Z > % % ; > M B M M M : % ",
"4 >.|.}.].W Y S B > % @ > Z B B > % . n ].].>.} X.1.$.r.u.u.u.y.q.@X:X2X=X@Xq.9.u.u.a.e.$.@. .} >.[.P.H.g * X B Q }.E Z > % ; B A Y Y Y S Z B M ",
"a Q }.Q Q W R S A M % $ B W R S M : @ m C.Z.L < w } o.$.r.r.0.$.#.q.=X>X#X=.#.5.r.0.0.$.X.) e 6 P E.G.m.c u O B Q  XW B > @ ; S W Q Q Q W R S Z ",
": Y R Y H S Z B B > % # Z }.Q L N ; X u n.n.m n 8 w | @.$.$.$.$.3.7.$X&Xk.5.<.<.$.$.$.o./ e 5 g m m.m.b h t O B Q }.R Z > % > Y }.Q W W W R S B ",
"% B A Z B B M M n & # $ S  X>.L B ; X + d h h f M 8 w } ......$.0.u.j.j.s.t.$.#.......( w 3 n h z j j j h + O B W }.R V > @ > R ].}.W W R R S Z ",
"@ > M a a : ; ; : % % % Y  X}.L N : X + u s f f > 2 9 w ( | | $.0.u.d.d.a.u.8.#.| _ ( w 7 1 a d f s s f s * @ M R Q S B > @ > Y >.].}.Q Q R S Z ",
"X ; ; ; % % # % @ % % ; Y |.}.Y B ; X @ - - p n > & 1 9 w (  .$.8.t.s.d.s.t.5.@.} ( w 8 2 & > a p y i p p % X n Y R A M ; @ > Y }.|..X|.}.W Y V ",
"X : : % @ @ O @ % ; : M Y }.W S M ; @ @ % ; : > ; ; , 1 < w | @.3.r.i.d.a.r.$.o.) w 7 1 & ; > > : ; : : : % @ 4 S T Z M ; @ : Y ].>..X X}.W Y 4 ",
"% Z B N : % O : B S S Y R Q R Z > ; X % % ; ; ; ; ; & , 1 9 w } +.3.y.d.y.$...) w 3 1 & & % ; ; ; ; % ; ; % X > S Y Z > ; % > Y W }.].}.Q R S n ",
": R R Z B ; X 4 S W Q Q Q W H B > % O # % ; % ; ; % % % & 1 < w [ #.6.j.6.o.) w 7 1 % ; % ; ; % ; % ; ; % # @ > S R Z M : ; a S W Q }.Q W Y Z 4 ",
"; R Y S M > # > S Y R R Y S Z M > % O % & n > > > > n : > 5 5 q w  .e.p.1.} w 0 5 4 > M : n > > > > n : : % @ ; N B 4 : ; % ; M Z R W W W R A n ",
"> R Y Z B > % n B Z Z A B N N M > % O % 4 B B B B B B V B B C 6 0 } =.d.=.! q 6 V B B B V B B B B B B V N ; @ % ; ; ; & % @ # ; 4 A R W R R A V ",
"> W R S 4 : ; > > M M M > : : > ; % O ; B Z Z Z Z A Z Z Z Z Z C 6 ' =.p.=.e 6 C Z Z Z V Z Z Z Z Z Z Z V B : # # M B n > ; ; % % : n Y R R H S B ",
"B }.Q S n > % % % ; ; % % % % ; ; % X : Z Z Z B Z Z A Z Z A S A 6 J ;.p.-.F C S S Z B Z S A Z B Z S A Z M : @ n R W R S Z M > % % > Z S S Z 4 n ",
"B .X].A M > ; % @ @ % ; % % % ; ; % X : Z S Z B S S S Z Z Z S S Z K ;.p.-.H Z S S S B Z S S Z Z Z S S Z B : @ V Q .X}.W Y Z 4 & @ ; n B B n 4 > ",
"B  X|.R A B M % @ ; V S Z B 4 n : % O ; B Z Z Z Z Z Z Z Z Z S Z Z K :.p.-.H Z Z Z Z Z Z Z Z Z Z Z S Z Z n & @ B Q .XQ K Y Z n % @ % ; > 4 > : % ",
"N }.}.{ R S B > @ > W  X}.R H Z M ; @ ; B Z Z Z Z Z Z Z Z Z Z B Z K :.j.-.H B Z Z Z Z B Z Z B Z B Z B B B ; @ B W ].Q W Y Z n % X @ @ # % % % @ ",
"4 Q P.W R S M > # n W  XQ W T S M ; @ ; B Z Z Z Z Z Z Z Z Z S Z Z K %.:.%.H Z A Z Z Z S Z S Z Z Z S Z S V : o n W Q Q W S V 4 % # ; M M B M ; % ",
": W W W Y Z M > % 4 R }.Q W R A B ; @ ; V S S S S S S S S S S S S H K K K S S S S S S S S S S S S S S S Z > O n R Q Q R S M : % % M Y Y Y A n & ",
"; Y R R Y V n : & n Y W W R S Z M ; O : Z Y Y S Y Y Y Y Y Y Y Y S Y T T Y Y Y Y Y Y Y Y Y Y Y Y Y Y Y S S > @ 4 Y W R R A n : % % B W W R Y V M ",
"% A S Z B 4 > : ; > Z Y S S Z B > % @ : S R Y Y Y R Y Y Y Y R Y Y Y Y R Y Y Y Y Y Y Y Y Y Y Y S Y R R Y A > @ : Z S Z Z B M > ; ; M H Y S A B M ",
"$ B B M > n 4 : ; : N B Z V V N > ; X M Y R Y Y R R R Y Y R R R Y Y R R R Y Y R W Y Y Y R W R Y R R R Y A > @ ; M Z M M > M > ; : > n Z Z V M > "
};
