/* XPM */
static char *detect1670871655[] = {
/* columns rows colors chars-per-pixel */
"72 72 221 2 ",
"   c None",
".  c #010101",
"X  c #0A0005",
"o  c #0B0B0B",
"O  c #1C000E",
"+  c #130E10",
"@  c #1C0A13",
"#  c #1F0010",
"$  c #131313",
"%  c #1C1C1C",
"&  c #181116",
"*  c #240202",
"=  c #2A0101",
"-  c #270F0F",
";  c #330101",
":  c #3C0000",
">  c #380E0E",
",  c #240212",
"<  c #2C0116",
"1  c #210814",
"2  c #2A0B19",
"3  c #320019",
"4  c #3A001D",
"5  c #390811",
"6  c #2F1919",
"7  c #211C1C",
"8  c #321A1A",
"9  c #3B1A1A",
"0  c #3A1414",
"q  c #3F0020",
"w  c #3A0825",
"e  c #311829",
"r  c #232323",
"t  c #2A2A2A",
"y  c #2C2424",
"u  c #342323",
"i  c #3A2424",
"p  c #3A2929",
"a  c #352C2C",
"s  c #313131",
"d  c #393939",
"f  c #3C3030",
"g  c #430000",
"h  c #4B0000",
"j  c #480B0B",
"k  c #530000",
"l  c #590000",
"z  c #550B0B",
"x  c #441A1A",
"c  c #4C1E1E",
"v  c #4A1414",
"b  c #531B1B",
"n  c #591616",
"m  c #620000",
"M  c #6A0000",
"N  c #64090A",
"B  c #6A0A0A",
"V  c #740101",
"C  c #7B0000",
"Z  c #790A0A",
"A  c #730B0B",
"S  c #671616",
"D  c #731414",
"F  c #771E1E",
"G  c #450022",
"H  c #4C0328",
"J  c #520029",
"K  c #5A012D",
"L  c #510B2E",
"P  c #5F0030",
"I  c #590C33",
"U  c #5F1339",
"Y  c #640233",
"T  c #6D0036",
"R  c #690938",
"E  c #730039",
"W  c #7B003D",
"Q  c #6B103D",
"!  c #442424",
"~  c #4D2222",
"^  c #422929",
"/  c #4C2C2C",
"(  c #5B2323",
")  c #5A2D2D",
"_  c #522A2A",
"`  c #443C3C",
"'  c #4A3B3B",
"]  c #483636",
"[  c #553535",
"{  c #5E3636",
"}  c #5D3E3E",
"|  c #652D2D",
" . c #6B2B2B",
".. c #762727",
"X. c #673636",
"o. c #7E0645",
"O. c #7D1D4D",
"+. c #7E2C55",
"@. c #5C2752",
"#. c #434343",
"$. c #4E4444",
"%. c #4C4C4C",
"&. c #5C4141",
"*. c #564747",
"=. c #515151",
"-. c #5C5353",
";. c #5B5B5B",
":. c #634D4D",
">. c #655959",
",. c #755B5B",
"<. c #6A6363",
"1. c #686767",
"2. c gray44",
"3. c #820000",
"4. c #8B0000",
"5. c #880A0A",
"6. c #920000",
"7. c #9A0000",
"8. c #930B0B",
"9. c #871415",
"0. c #8A0711",
"q. c #A00000",
"w. c #AA0505",
"e. c #B40505",
"r. c #950330",
"t. c #A8052B",
"y. c #AD2A2A",
"u. c #8E2A2A",
"i. c #D20303",
"p. c #C61F1F",
"a. c #E10202",
"s. c #E6000A",
"d. c #F3000A",
"f. c #C6002D",
"g. c #F50026",
"h. c #CF2D32",
"j. c #F83838",
"k. c #E52E2E",
"l. c #8C0046",
"z. c #8A0045",
"x. c #95004A",
"c. c #9A004D",
"v. c #95084F",
"b. c #9C1B5B",
"n. c #8D1F56",
"m. c #A00050",
"M. c #AE0258",
"N. c #AD0057",
"B. c #B6005B",
"V. c #BB015E",
"C. c #B61946",
"Z. c #852556",
"A. c #902857",
"S. c #A91861",
"D. c #B51163",
"F. c #9B2D64",
"G. c #9F3A69",
"H. c #8B286D",
"J. c #B8246E",
"K. c #A13962",
"L. c #AC2C6C",
"P. c #E40054",
"I. c #C93941",
"U. c #C30162",
"Y. c #CF0068",
"T. c #CB0065",
"R. c #DE1A7C",
"E. c #E40072",
"W. c #EF0B68",
"Q. c #DE2A7E",
"!. c #E1275C",
"~. c #B25454",
"^. c #965A78",
"/. c #915874",
"(. c #94486E",
"). c #AB5665",
"_. c #B07176",
"`. c #9E6E78",
"'. c #DC5050",
"]. c #D94848",
"[. c #F64646",
"{. c #E76271",
"}. c #C07171",
"|. c #8F3D83",
" X c #FF0080",
".X c #F91A8A",
"XX c #F43191",
"oX c #8E498A",
"OX c #B84880",
"+X c #946C80",
"@X c #967E8A",
"#X c #A4798F",
"$X c #B150A8",
"%X c #C54686",
"&X c #C5548D",
"*X c #DB468E",
"=X c #CC699B",
"-X c #DC7093",
";X c #D775A6",
":X c #C679A0",
">X c #E475AD",
",X c #E27DA5",
"<X c #EB5897",
"1X c #F079F0",
"2X c #95878E",
"3X c #A68194",
"4X c #A4A4A4",
"5X c #B3A8AD",
"6X c #D89A9A",
"7X c #DE8F8F",
"8X c #E89999",
"9X c #D893B2",
"0X c #E085A8",
"qX c #CCACB2",
"wX c #F7B2B2",
"eX c #DCBACB",
"rX c #D3D3D3",
"tX c #DCD7D9",
"yX c #E2DEE0",
"uX c #E7E7E7",
"iX c gray99",
/* pixels */
"                                                                                                                                                ",
"                                                                                                                                                ",
"                                                                                                                                                ",
"                                                                                                                                                ",
"                                                                                                                                                ",
"                                                      . . . . . . . . . . . . . . . . . .                                                       ",
"                                                    < J P P P P Y K K J K J J J J K J J H <                                                     ",
"                                    . . . . . . . . 4 x.Y.Y.Y.Y.Y.U.B.B.B.B.B.B.B.B.B.B.l.G . . . . . . . .                                     ",
"                                    q q q q q q q q o.J.XXR.W.P.U.V.B.M.N.N.M.M.U.P.!.Q.L.Q 3 4 3 4 3 3 4 3                                     ",
"                            . . . w z.N.N.N.M.M.M.M.J.-X0X!.g.t.R L L L L L L L t.g.!.=X=XL.c.c.m.c.m.l.c.W 4 . . .                             ",
"                          O # # @ L D..X.X.X.X.X.X.XXX0X8X'.a.9.e r $ $ + + + + Z i.].7X7X*XR.R.R.R..XQ.R.D.K O O O O                           ",
"                    . . . K l.l.l.S.*X>X>X>X>X>X>X>X,X{.'.y.V +.oX+.e 1 1 @ + $ j B y.'.{.-X;X;X;X;X;X;X;XOXH.o.W W J X . .                     ",
"                  . . . . z.E. X XXX9XrXrXrXrXrXrXrX6X[.a.Z + oX1X$XU 3 3 2 @ + o $ B i.j.7XrXrXrXrXrXrXrX9X*XE.E.E.E X . . .                   ",
"                O G J J J Z.%X%X%X=XeXuXuXuXuXuXuXuXwX[.a.Z + @.|.H.o.o.o.o.H @ + + N i.j.8XuXuXuXuXuXuXuXeX:XOXOX).Z.K J J G ,                 ",
"              . , T x.x.x.(.@X2X2X5XtXiXiXiXiXiXiXiXwX[.a.Z $ 2 w R m.V.T.V.W 3 @ + B i.[.wXiXiXiXiXiXiXiXyX5X@X2X2X(.v.x.x.E 3 .               ",
"              . , H Y Y Y +./.^.+X#X5XrXrXrXrXrXrXtX6X[.i.Z + 1 w T M.V.N.z.P 3 1 + B i.j.7XrXrXrXrXrXrXrXeX#X^.^.+X+.T Y Y J , .               ",
"                  O O O O I b.b.b.G.@X4X4X4X4X4X4X4X_.k.i.Z $ 1 3 T B.B.o.G q 3 1 + B i.k._.4X4X4X4X4X4X4X2X(.b.b.b.I , , O O                   ",
"                  . . . . G E W W O.(.`.+X+X+X+X+X+X).].p.9.j 4 < K c.x.K 3 < < 5 j 9.p.h.).+X`.+X+X+X+X`.(.Z.o.W W G X . . .                   ",
"                          , 3 3 3 L O.F.F.F.F.F.F.F.K.).~.y.e.B 1 4 K K 4 3 1 @ B w.y.~.).K.G.F.F.F.F.F.F.+.L 3 3 3 ,                           ",
"                            . . . , Y l.z.z.z.z.l.l.n./._.I.d.9.6 2 4 q 4 4 2 - 0.s.h.`.^.A.l.l.l.l.l.z.l.T 3 . . .                             ",
"                                  # q G G G G G G G I +.K.C.f.r.Y Y T T T T Y Y r.f.C.K.Z.U G G G G G G G q ,                                   ",
"                                    . . . . . . . . < T m.m.m.c.m.m.m.m.m.m.m.m.m.m.m.m.W 3 . . . . . . . .                                     ",
"                                                    # G J J H J H J J J H J J J H J J J G ,                                                     ",
"                                                      X X X X X X X X X X X X X X X X X X                                                       ",
"                                                        . . . $ t t t t r % % r % % $ . .                                                       ",
"                                                          . . s =.;.;.=.%.` #.#.#.#.t o .                                                       ",
"                                                          & % ] :.-.-.=.$.` ` ' ` ` a % $                                                       ",
"                                                        o s %.' _ ! i 9 8 8 0 x 9 6 u f t & .                                                   ",
"                                                      o % ` <.) h : * * = ; : h : * 8 ' ] 7 o o                                                 ",
"                                                    $ s ` ] [ S V k ; ; k M V V h * > n ( ^ r % .                                               ",
"                                                  . % %.<.[ : M 7.V ; g C q.7.q.m * g V D { #.r .                                               ",
"                                                  . % #.-./ g V 7.M : : C 7.7.6.m ; k 3.D X.#.r .                                               ",
"                                                  . $ d $.~ : V 7.V : : C 7.6.3.m g m 4.9.X.#.r .                                               ",
"                                                $ % y p / n m C 6.M : h C 7.4.3.m g m 4.8...) i 7 &                                             ",
"                                              . % s ] x j B 6.4.4.M h k 3.7.4.3.l g m 4.7.5.S _ #.r o .                                         ",
"                                              . r %.$.x h C 7.6.3.m h k C 6.4.3.m h m 4.7.4.Z | %.r . .                                         ",
"                                              . r =.*.~ h C q.6.3.m h h V 4.3.3.m g m 4.6.4.V ( d % o .                                         ",
"                                              . t ;.>.) j Z 8.5.Z N z z B Z Z Z z j N 5.8.5.B c t % . .                                         ",
"                                              . t ;.<.*.} X. . .| ) / _ ) | | | ) / )  . .b c i s % . .                                         ",
"                                              . t ;.2.2.1.<.=.=.=.=.=.=.=.=.=.=.=.=.=.=.%.d s s s & . .                                         ",
"                                              . t %.;.$.` ^ a ^ ^ ^ p p a p ^ ^ i p a p p i 9 f #.r . .                                         ",
"                                              . % #.` 8 - * * ; g ; * * * * ; j ; * * * = ; j ^ %.t . .                                         ",
"                                              . % #.` 6 * : k k m h = = g k l m g * ; g h k z _ =.r o .                                         ",
"                                              . % #.` 6 = l 4.4.4.M ; : M 4.4.4.k * h V 4.C B | =.t . .                                         ",
"                                              . % #.` 6 = M q.7.7.M : h C 7.7.7.l = k 4.6.4.Z | =.t . .                                         ",
"                                              . % #.` 6 ; M q.6.4.M g k 3.7.6.4.k = h 4.6.4.Z | =.r . .                                         ",
"                                              . % #.` 8 ; M q.6.3.M h l 3.7.6.3.k = k 4.7.4.Z | =.t o .                                         ",
"                                              . % ` ' 9 g M q.6.3.M h k 3.7.4.3.l ; l 4.7.4.Z | =.t . .                                         ",
"                                              . % #.' x h C q.4.4.m h l 4.7.4.3.m g m 4.7.4.Z | =.t . .                                         ",
"                                              . r %.*.c h V q.6.C M h l 3.7.4.C m g m 6.7.4.Z ( #.% . .                                         ",
"                                              . t ;.>.~ h V 7.4.3.M h l 3.7.4.C m g M 4.6.4.V b s % . .                                         ",
"                                              . t ;.>.} ) ..u.u.F b ~ b F F F F n 0 v B D S n ! s % . .                                         ",
"                                              . t ;.2.<.>.,.,.:.&.*.$.} } &.&.&.] a i ^ ^ ^ p a s % . .                                         ",
"                                              . t ;.1.>.-.-.-.*.' ' ` ` ` ` ' ' f y y y y u u f d % . .                                         ",
"                                              . t ;.>.` u i i x x 9 8 6 6 8 9 x 0 - - - - > 0 ^ #.r . .                                         ",
"                                              . t -.-.u * = = : h : * * = ; : h ; * * = ; g j / =.t . .                                         ",
"                                              . r %.$.8 = h m V V k = ; k M V V h * : k M m N [ =.r . .                                         ",
"                                              . % #.` 6 = M q.7.7.V : g C 7.q.q.m * k 4.6.4.Z | =.t o .                                         ",
"                                              . % #.' 9 g M q.7.6.M g h 3.7.6.6.l : l 4.7.4.Z ( #.% . .                                         ",
"                                              . % #.' x h V q.6.4.m h k 3.7.6.3.m g m 4.7.4.V b s % o .                                         ",
"                                              . r %.$.x h M 6.4.3.M h k C 6.4.C m g m 6.6.4.V c s % . .                                         ",
"                                              . t -.:.~ h m 4.3.3.M h k V 3.3.3.m g m 6.7.4.Z b s & . .                                         ",
"                                              . t ;.>.[ b S D D D S v v S D D D n v n Z Z A N ~ s % . .                                         ",
"                                              . t ;.1.>.*.&.X.{ { [ [ ' [ { X.{ [ ' _ _ ~ ~ ! p s % . .                                         ",
"                                              . r =.1.<.;.=.#.#.#.#.%.#.#.%.#.#.%.#.d s t t t t t $ . .                                         ",
"                                                % t s s s t r r r r r r r r r r r r % $ $ $ % $ $ $                                             ",
"                                                  . . . . . . . . . . . . . . . . . . . . . . . .                                               ",
"                                                                                                                                                ",
"                                                                                                                                                ",
"                                                                                                                                                ",
"                                                                                                                                                ",
"                                                                                                                                                "
};
