/* XPM */
static char *eye_of_draining1670871130[] = {
/* columns rows colors chars-per-pixel */
"72 72 199 2 ",
"   c None",
".  c #010000",
"X  c #0D0000",
"o  c #130000",
"O  c #1C0000",
"+  c #230000",
"@  c #2B0000",
"#  c #320000",
"$  c #3A0000",
"%  c #30000D",
"&  c #3E0A0A",
"*  c #3B0708",
"=  c #300018",
"-  c #440000",
";  c #4B0000",
":  c #440D0D",
">  c #4E0A0A",
",  c #48000C",
"<  c #530000",
"1  c #5B0000",
"2  c #530C0C",
"3  c #5F0D0D",
"4  c #410E14",
"5  c #4B1515",
"6  c #481717",
"7  c #5B1313",
"8  c #531B1B",
"9  c #5C1C1C",
"0  c #620000",
"q  c #6C0000",
"w  c #630B0B",
"e  c #6B0B0B",
"r  c #730000",
"t  c #7B0000",
"y  c #710C0C",
"u  c #631111",
"i  c #6C1414",
"p  c #611A1A",
"a  c #6B1D1D",
"s  c #721212",
"d  c #721B1B",
"f  c #7C1515",
"g  c #611E25",
"h  c #4C2121",
"j  c #522424",
"k  c #5C2727",
"l  c #5C2D2D",
"z  c #642424",
"x  c #612C2C",
"c  c #6A2B2B",
"v  c #732424",
"b  c #742A2A",
"n  c #7B2D2D",
"m  c #7E2121",
"M  c #6C3636",
"N  c #723232",
"B  c #7D3232",
"V  c #793B3B",
"C  c #684242",
"Z  c #7D4747",
"A  c #7D5F5F",
"S  c #820000",
"D  c #8C0000",
"F  c #800A0A",
"G  c #930000",
"H  c #9C0000",
"J  c #960C0C",
"K  c #891111",
"L  c #811B1B",
"P  c #8C1B1B",
"I  c #9B1414",
"U  c #A30000",
"Y  c #AB0000",
"T  c #B30000",
"R  c #BB0000",
"E  c #B90F0F",
"W  c #B40F0F",
"Q  c #A21C1C",
"!  c #AA1E1E",
"~  c #B31212",
"^  c #B11C1C",
"/  c #B81A1A",
"(  c #832222",
")  c #842C2C",
"_  c #962727",
"`  c #843636",
"'  c #8A3333",
"]  c #8A3C3C",
"[  c #953636",
"{  c #953E3E",
"}  c #9D3C3C",
"|  c #983737",
" . c #AD2C2C",
".. c #A52424",
"X. c #B22323",
"o. c #BD2424",
"O. c #B12A2A",
"+. c #AC3232",
"@. c #A33B3B",
"#. c #AC3D3D",
"$. c #A43737",
"%. c #BB3333",
"&. c #B53D3D",
"*. c #C30000",
"=. c #CB0000",
"-. c #C40E0E",
";. c #CA0B0B",
":. c #D30000",
">. c #DC0101",
",. c #DC0E0E",
"<. c #D40F0F",
"1. c #CB1E1E",
"2. c #C11E1E",
"3. c #DA1515",
"4. c #DD1F1F",
"5. c #D51919",
"6. c #E30000",
"7. c #EC0101",
"8. c #E20C0C",
"9. c #F30000",
"0. c #FB0202",
"q. c #FF0808",
"w. c #E31C1C",
"e. c #E91313",
"r. c #F51818",
"t. c #CD2222",
"y. c #C32929",
"u. c #CE2D2D",
"i. c #D32323",
"p. c #DC2525",
"a. c #D32B2B",
"s. c #DD2F2F",
"d. c #C83838",
"f. c #DD3434",
"g. c #D13131",
"h. c #E82525",
"j. c #E42929",
"k. c #F12929",
"l. c #FA2828",
"z. c #EB3333",
"x. c #E53B3B",
"c. c #F83737",
"v. c #8A3845",
"b. c #953F40",
"n. c #844141",
"m. c #894343",
"M. c #944545",
"N. c #9E4343",
"B. c #934A4A",
"V. c #9B4D4D",
"C. c #A44545",
"Z. c #AE4242",
"A. c #A34A4A",
"S. c #AE4F4F",
"D. c #B34444",
"F. c #B84444",
"G. c #B64C4C",
"H. c #BB4949",
"J. c #A45252",
"K. c #AC5555",
"L. c #A45E5E",
"P. c #B25454",
"I. c #B95555",
"U. c #B35A5A",
"Y. c #BE5C5C",
"T. c #927878",
"R. c #BF6060",
"E. c #A47D7D",
"W. c #A76767",
"Q. c #C34C4C",
"!. c #CA4D4D",
"~. c #D34B4B",
"^. c #C85151",
"/. c #D45555",
"(. c #D85454",
"). c #EF4040",
"_. c #FF4040",
"`. c #E45B5B",
"'. c #EF5B5B",
"]. c #F55F5F",
"[. c #C36262",
"{. c #CB6363",
"}. c #CF6868",
"|. c #D46767",
" X c #D36A6A",
".X c #DA6C6C",
"XX c #DF7070",
"oX c #FB6060",
"OX c #F96868",
"+X c #E37171",
"@X c #EB7676",
"#X c #EF7878",
"$X c #F27979",
"%X c #FC7E7E",
"&X c #DC9D9D",
"*X c #FF8080",
"=X c #FFA7A7",
"-X c #D8CFCF",
";X c #FFDFDF",
/* pixels */
"                                                                                                                                                ",
"                                                                                                                                                ",
"                                                                                                                                                ",
"                                                                                                                                                ",
"                                                                                                                                                ",
"                                                                . . . . . . . .                                                                 ",
"                                                              + @ $ $ $ $ @ @ + O                                                               ",
"                                              . . . . . . . . $ 0 q t t q 0 1 ; @ . . . . . . . .                                               ",
"                                            o O O + + O + @ + 1 S D G G D t r q ; + + + + + + O O o                                             ",
"                                          . @ $ ; < < < 1 0 q S G G D D S t D D r 1 1 q q 1 < ; - @ .                                           ",
"                                        X X $ 1 q t S D D G U U U H D D S D G H D D D H G D t r 0 $ o X                                         ",
"                                  . . o # ; 1 r S D G G G U T T T Y U H H G H U H G G D G D G S r < $ + o . .                                   ",
"                                . . . X ; t S S D H H U U T R *.*.R *.R Y H U H H U G D D G H D t r 0 $ o . . .                                 ",
"                              O @ $ $ ; q G D G H Y T Y T *.:.:.>.6.>.:.=.R T T R R Y H D D G D G t r 1 $ @ + O o                               ",
"                            . + ; 0 q t D U H H Y R R *.R :.6.7.0.0.0.9.6.>.=.*.=.>.*.Y H D D G U D t r 0 < - $ O .                             ",
"                          O + $ 1 r S G H Y Y Y R *.=.:.>.6.7.7.9.9.9.7.>.:.=.=.:.:.*.T U G D D G G D t r 0 < - @ O o                           ",
"                        . @ ; 1 r S G H Y R R R =.:.6.7.9.9.0.7.7.6.6.>.=.=.=.>.:.*.*.R T U H D D D G G t r 0 < - $ + . .                       ",
"                      . . $ q r t D G Y T =.=.=.:.>.>.6.6.6.6.:.=.*.=.*.R T *.:.*.R R T T U H G D D H D D t q 1 < - + . .                       ",
"                      . . ; S D t D G U R :.6.7.6.6.>.*.R T U U H H U H G H U T T Y Y Y U U H H G D D D S r q 1 1 < @ . .                       ",
"                      X X < G G D D H Y =.6.7.9.6.>.*.Y G D t t t t t t t t D H H G H H H H H H U D D t S t q 0 1 0 $ X .                       ",
"                    X # ; q D G G H T *.>.9.>.=.R Y H D t r q q r q r q r q r t t t S D D D G H U H G D D t t q 0 0 - + O X                     ",
"                  . o ; t S t D H T =.6.9.0.:.U G D t q 0 0 0 0 1 0 0 0 1 0 0 0 1 0 q t S S D D U H U G D t t t r 0 ; - @ X .                   ",
"                o @ $ 0 G D S G T =.6.7.:.R H D t r e u 7 2 ; - ; - - > 7 7 p p 9 p u q r q r D D H H G S S D D t r 0 < $ @ O X                 ",
"              . o - 0 S H D S U =.6.9.7.R D r 0 0 0 w 9 k 6 # # # # $ & 8 x x x x x p w 0 0 0 r S G H G D S G H D t q 0 < - @ o .               ",
"              . O - 0 t G D D U *.:.:.*.H r e u i d a 9 j C A Z B a > : 5 j l M V n.` ) m d i y r D H H G D G G G D t q 0 < $ o .               ",
"              . o - 0 r D D H Y R R U G t 0 u z N ] B 8 h T.-X&X XC.s ; - & k V B.K.K.S.C.] b i 0 D H H H G D D G H D t q 0 - O .               ",
"              . O - r t D H Y Y T U D t e e b m.V.K.M.9 6 E.;X&X[.} s < $ * c V.U.}.}.}.R.K.M.) i F D G G G D t D G D S r q ; O .               ",
"              . O < r D G U T T Y H t e d b A.[. XXXI.z 5 L.=XW.l 8 3 < - : ` [. X+X@X@XXX}.U.A.] L r t S D S S D D S t r 0 - + .               ",
"              . + 1 S D H Y R T Y G r w v m.R.$X*X*X/.c : M.+XV O @ ; < $ : M.XX#X%X*X%X$X+X|.I.C.( q r S S S t t t t t r 0 - O .               ",
"              . + < S D G H Y Y T H t w n B.R.@X$X%X{.b & g v.g * $ ; ; $ : { XX#X%X%X#X+X{.I.&.X.I S D D D D t r r q q 0 < $ O .               ",
"              . O < S t S G H Y R Y t w ) A.R..X@X%X{.c # % = , 1 < - $ $ : { XX#X%X$X+X}.U.C.X.*.T U U H H D t r 1 0 0 < - # o .               ",
"            O @ ; r D D t H Y T T U D D I O.F.Y.[.{.K.B 8 4 % * - - $ : 5 c S.#XXX X{.[.I.d.y.~ Y H G G D D t q q 0 < < < < - @ O o             ",
"          . + ; 0 D H D S H R T U U H U T R O.A.J.J.V.m.M 8 # # # # # : x m.[.%X XK.J.J.&.1.:.R U G S S D r q 0 0 0 < - ; 1 < - # O .           ",
"          . + < q D G D D H U U U U U Y T T ^  .+.+.$.M.m.B b b n B n ] A.U.}..X^.d.%.%.o.-.R Y J D S t r r 0 0 1 0 < ; ; < < - $ O .           ",
"          . + ; q t D D H G D G H U T R Y U W E E E ^ $.V.P.Y.{.|.|..X.X+X.X{.U.g.e.8.<.;.R U H S D t t q 0 0 0 0 0 1 1 < ; - - $ O .           ",
"          . + ; q r S D D D S D G U U T U U Y T R R W  .#.Q.(.`.oXoXoXoXoX'.~.&.t.>.>.=.R U G D t S t r 0 0 0 q 0 0 1 1 ; ; - - $ O .           ",
"          . + < 0 r t t r t S S D D D G H H U Y Y Y Y ~ / 2.t.p.h.k.l.l.k.h.w.w.-.Y U U H D D D S t t r 0 q q r q 0 < ; ; < < - $ O .           ",
"          . + ; q r t q 1 q t t t S S D G H U H H H U T R R T =.:.>.7.7.>.>.6.7.R D S t S t t S S S t r q 0 r t r 0 < - ; 1 < ; $ O .           ",
"          . + < 0 q q 1 < 1 q r t S D G G D H H G D G U Y U H Y R R T T R R R R U G D S t S S t t r q q 0 0 q q r r 0 < < ; ; - $ O .           ",
"          . + ; 1 0 1 ; $ < 0 q t D G H D S D U G D D H H D S G U G D D G H D S G H G D t S S S S r 0 0 1 0 0 0 r t r 0 < - - $ $ O .           ",
"            O @ $ ; < 1 0 < < 1 q r t S S S D D D S S D G D G D D D G D D D D S D D D S S t t r q q 0 1 < 0 t D t r q r 1 ; $ @ O o             ",
"              . o @ - 0 t 0 - ; 1 0 0 0 r t S S S S t S D G H D D D G H D S t S t S S S S S t r 0 0 0 < - 1 G Y D 0 r t 0 ; # o .               ",
"              . o @ - 0 r r r 0 1 < < 1 q r r r r t t t t D G D t D G D D t S S S t t r r r q 0 < < < 1 q t D D r 0 r S q ; # o .               ",
"              . o @ - < 0 D U S < ; - ; < 0 q 0 0 0 q r S S D S t S S D S S t S S S r q 0 q 0 < - ; - q G G r 1 1 1 q t 0 ; # o .               ",
"              . X @ - < 0 D Y G r q q r r t 0 1 < 1 1 q r r t t t t t r t r r r r r q 1 0 q t r q r q G T Y r < 1 0 q t 0 ; @ o .               ",
"              . o @ ; 1 r D G H Y T R R T U r < ; ; ; < < 1 q q 0 q q q q q q q 1 < ; ; 1 D U T *.*.*.=.:.R D q 0 0 0 q 1 ; # o .               ",
"              . o @ ; 0 t S t U *.>.7.9.>.*.D 1 < 7 2 > 2 w s e e e y e e e e s w > > < r U =.6.0.0.9.7.>.R H t q 0 1 1 < - # o .               ",
"              . o $ < 0 q t S D U T =.>.6.6.*.H Q @.N.` B } F.} ) | D.Z.[ ' @.H.{ n L J Y =.6.7.7.6.>.=.T H S q 0 1 < < - - # o .               ",
"              . O - 1 0 0 r t S t G Y *.6.0.7.6.z.OX+X^.K..X*X}.J.[.@X@XR.U. X*X}.J.%.<.7.9.0.7.>.=.*.U D t q 1 0 0 ; - - - @ o .               ",
"                o + # ; 0 0 r r t D G Y *.6.7.7.r.c.c.f.a.x._.f.y.g.x.x.u.y.f.x.f.a.5.>.,.p.s.u.y.~ U G t q 0 0 0 1 < - # + O o                 ",
"                  . o $ 0 0 0 q t S t D U *.6.0.0.q.q.q.0.0.q.7.>.,.,.6.>.,.8.8.7.q.7.6.3.d.^.K.S._ S t q 1 1 0 0 1 < - @ X .                   ",
"                    X @ $ ; 0 0 q t t D H U *.:.>.>.:.5.j.h.k.p.1.i.p.p.t.1.i.p.p.i.p.j.g.%.$.[ ' d r q 0 0 0 0 1 < $ @ O X                     ",
"                      X o $ 1 0 0 q t t D D H Y T Y ~  .F./.`.!.Z.H.(.(.H.D.!.`.!.D.Q.(.!...K f e e 0 0 0 0 1 1 < ; @ o X                       ",
"                      . . @ < 1 1 q r t t S D G G H I _ } H.^.H.@.D.!.I.C.M.C.I.A.] N.G.&.P r r r 0 0 0 0 0 0 1 ; $ + . .                       ",
"                      . . + - < 1 0 q q r S D D D D D K P I O.X.Q Q X.Q P d a v a p a m L y q t D r 0 0 1 0 0 1 ; - + . .                       ",
"                        . O $ - < 1 1 0 q t t t t t t t t D G G G G G D q 1 ; - - - ; 1 0 0 0 S H S q 0 1 1 1 1 - $ O . .                       ",
"                          o O @ - < 1 0 q q q q q q 0 0 1 0 q q q q q 0 1 < < < < < < 1 0 0 0 t D D S r 1 ; ; ; # O o                           ",
"                            . O $ ; < 1 1 0 0 0 0 0 1 ; - - $ - - $ $ - $ - < 1 1 0 0 0 0 1 0 r S G H t < $ - $ O .                             ",
"                              o O + @ $ - < 1 0 0 0 1 1 ; < < ; < 1 q q 0 1 1 0 0 0 0 1 0 0 0 q q r q < @ + + O o                               ",
"                                . . . o + - ; 1 0 1 1 0 1 1 0 1 1 r D G D t q 0 1 0 0 0 0 1 0 0 0 < ; @ o . . .                                 ",
"                                . . . . O + $ < < < < < < 1 0 1 1 r t S t r q q 0 < < < < < < < < $ @ O X . . .                                 ",
"                                        X X @ - - ; ; - ; < 0 0 0 0 q q 0 q r t 1 ; - ; ; - ; - - @ o X                                         ",
"                                          . O @ # # @ # # $ ; ; < 1 < 1 1 1 0 r < # # # @ # # # @ O .                                           ",
"                                            o o o o o o o O O $ - ; ; ; ; ; ; < # O o o o o o o o o                                             ",
"                                              . . . . . . . . O $ $ # $ $ $ $ $ O . . . . . . . .                                               ",
"                                                              o O O O O O O O O o                                                               ",
"                                                                . . . . . . . .                                                                 ",
"                                                                                                                                                ",
"                                                                                                                                                ",
"                                                                                                                                                ",
"                                                                                                                                                ",
"                                                                                                                                                "
};
