/* XPM */
static char *eye1670873705[] = {
/* columns rows colors chars-per-pixel */
"72 72 172 2 ",
"   c None",
".  c black",
"X  c #0A0005",
"o  c #1D000E",
"O  c #1E0F0F",
"+  c #170F0F",
"@  c #1F0010",
"#  c #130E10",
"$  c #1D0913",
"%  c #101010",
"&  c #2D0E0E",
"*  c #230112",
"=  c #2C0116",
"-  c #210814",
";  c #2C0812",
":  c #2F0218",
">  c #320019",
",  c #39001D",
"<  c #3F0020",
"1  c #331429",
"2  c #5A080D",
"3  c #4B0C0C",
"4  c #690A0A",
"5  c #740F0F",
"6  c #790A0A",
"7  c #440123",
"8  c #4A0025",
"9  c #510029",
"0  c #5D022E",
"q  c #5F0531",
"w  c #590A32",
"e  c #5F1339",
"r  c #640032",
"t  c #6B0035",
"y  c #6B093A",
"u  c #700139",
"i  c #7B003E",
"p  c #73093E",
"a  c #65153D",
"s  c #521740",
"d  c #7C0340",
"f  c #740F49",
"g  c #7F1B4D",
"h  c #7F2B55",
"j  c #60305C",
"k  c #850909",
"l  c #8E0707",
"z  c #960707",
"x  c #93042C",
"c  c #AE0435",
"v  c #BB043C",
"b  c #A82727",
"n  c #B13232",
"m  c #D20303",
"M  c #D20D0D",
"N  c #CC1111",
"B  c #D81111",
"V  c #E10202",
"C  c #E00D0D",
"Z  c #F00101",
"A  c red",
"S  c #CC0028",
"D  c #E90031",
"F  c #FF0038",
"G  c #D92D2F",
"H  c #CE3F3F",
"J  c #D43536",
"K  c #F4393A",
"L  c #FA3B3B",
"P  c #E93232",
"I  c #830142",
"U  c #8C0046",
"Y  c #8F0048",
"T  c #800840",
"R  c #97014C",
"E  c #9A004D",
"W  c #9F0752",
"Q  c #8B1D54",
"!  c #991A5A",
"~  c #A4024D",
"^  c #B91D45",
"/  c #A10050",
"(  c #AB0055",
")  c #AF0058",
"_  c #B6005B",
"`  c #BA005D",
"'  c #892B5A",
"]  c #94255D",
"[  c #85355D",
"{  c #872847",
"}  c #A91861",
"|  c #B51163",
" . c #9B2D64",
".. c #9C2460",
"X. c #923A66",
"o. c #993F6C",
"O. c #9E3F67",
"+. c #95327C",
"@. c #A23A62",
"#. c #E72B5C",
"$. c #C60264",
"%. c #CB0266",
"&. c #D3016A",
"*. c #D40163",
"=. c #DF1577",
"-. c #E20567",
";. c #E00070",
":. c #EF0078",
">. c #F90474",
",. c #C2367C",
"<. c #CB327F",
"1. c #F3336B",
"2. c #BA4545",
"3. c #B54C58",
"4. c #87447F",
"5. c #905A75",
"6. c #A44464",
"7. c #AF5C63",
"8. c #A04E77",
"9. c #A2567C",
"0. c #94647C",
"q. c #9D7E7E",
"w. c #A76C70",
"e. c #D85959",
"r. c #EE4A4B",
"t. c #F64747",
"y. c #FC4C4C",
"u. c #EA5B5B",
"i. c #CA7A7A",
"p. c #E56879",
"a. c #FF0080",
"s. c #F91686",
"d. c #D43886",
"f. c #E8308C",
"g. c #F33494",
"h. c #BE4E86",
"j. c #A74C9E",
"k. c #946C80",
"l. c #9F758A",
"z. c #927E88",
"x. c #A26D88",
"c. c #A4758D",
"v. c #DB418E",
"b. c #C5548D",
"n. c #DB5F90",
"m. c #C74787",
"M. c #DC688E",
"N. c #D8609C",
"B. c #CB6B9B",
"V. c #E7679B",
"C. c #D868A0",
"Z. c #E768A8",
"A. c #E272E1",
"S. c #A98999",
"D. c #AC919F",
"F. c #BA99A9",
"G. c #B2B2B2",
"H. c #DE8A8E",
"J. c #D18E91",
"K. c #EB9C9C",
"L. c #DD8BB4",
"P. c #D397B5",
"I. c #D7B0B0",
"U. c #E9AAAA",
"Y. c #F8B1B1",
"T. c #D5B5C5",
"R. c #CFC5CA",
"E. c #D2C3CB",
"W. c #DCCDD5",
"Q. c #E0D5DB",
"!. c #E2E2E2",
"~. c #F6F6F6",
/* pixels */
"                                                                                                                                                ",
"                                                                                                                                                ",
"                                                                                                                                                ",
"                                                                                                                                                ",
"                                                                                                                                                ",
"                                                                                                                                                ",
"                                                                                                                                                ",
"                                                      . . . . . . . . . . . . . . . . . .                                                       ",
"                                                      , 7 7 , 7 < < , , , , , , , , , , :                                                       ",
"                                      . . . . . . . , T ( ( ( ( ) ( E R E E R E R E E R d < . . . . . . . .                                     ",
"                                    @ @ @ @ @ @ - * w | >.>.>.>.;.&.%.$.` $.$.$.*.-.&.=.} w o o o o o o o o                                     ",
"                            . . . > u Y Y Y Y Y Y Y } b.Z.1.F _ T f y y y y f y c D #.V.h...d x d i i i i t , . . .                             ",
"                            . . . 7 ) a.a.a.a.>.>.a.g.L.I.u.A k O # % % % % % % k Z r.I.P.v.;.;.;.;.;.;.;.( 7 . . .                             ",
"                          9 i I d ! m.Z.Z.Z.Z.Z.Z.Z.V.M.e.n k { 4.j 1 $ $ $ # % 3 k b e.p.M.B.N.C.C.C.C.N.h.] t u u 9 X                         ",
"                  . . . . i ;.:.:.f.L.E.E.E.T.R.E.E.K.t.C 6 @ k.A.j.e = : = $ % + O 5 M K H.E.E.E.E.E.E.R.P.d.&.&.&.t X . . .                   ",
"                o , , , , Q <.d.d.n.T.!.!.!.!.!.!.!.U.t.m 6 % j j.+.f r u t < $ # % 4 m K K.!.!.Q.!.!.!.!.T.B.,.,.,.g 7 < < < *                 ",
"              . * 0 I I I X.x.c.c.F.W.~.~.~.~.~.~.~.Y.y.V 6 % 1 e f R ( _ ( t = $ # 4 m L Y.~.~.~.~.~.~.~.Q.F.c.l.l.6.d I I r : .               ",
"              . * 0 i u i [ 0.k.0.S.T.!.!.!.!.!.!.Q.U.r.V 6 % - = t ( $.` / t = $ # 4 m L K.!.!.!.!.!.!.!.E.D.k.k.k.[ d d u q : .               ",
"                  = > > > a ]  . .8.S.G.G.G.G.G.G.G.J.P V 5 % $ = t ` ` U 0 8 > - # 4 m P i.G.G.G.G.G.G.G.D.9. . . .s , > > = o                 ",
"                  . . . . 8 I Y U ' 5.z.z.z.z.S.z.z.w.J B k & ; = r ( / 0 > = = ; ; 5 N G 3.z.z.z.z.z.S.z.5.' Y U U 9 X . . .                   ",
"                          > 7 7 7 e h o.X.6.o.o.o.o.6.3.2.b z 2 - 7 y r 8 = - $ 2 l b 2.3.6.6.o.6.X.o.o.o.' e 7 7 7 >                           ",
"                            . . . * u E R E W E / E ..0.q.H A l O $ = : > = - % k Z J w.k. .W W E R W E E d > . . .                             ",
"                                  @ < 9 9 9 9 9 9 9 a [ 6.^ S x q q r t r r 0 w x S ^ @.[ a 9 9 9 9 9 9 9 7 *                                   ",
"                                    X X X X X X X X = y W / ~ E R R R R E E R R E ~ ~ W p , X X X X X X X X                                     ",
"                                      . . . . . . . * 9 r r r r r r r r r r r r r r r r 9 = . . . . . . .                                       ",
"                                                      o o o @ o @ @ o o @ o @ o o * o o o                                                       ",
"                                                      . . . . . . . . . . . . . . . . . .                                                       ",
"                                                                                                                                                ",
"                                                                                                                                                ",
"                                                                                                                                                ",
"                                                                                                                                                ",
"                                                                                                                                                ",
"                                                                                                                                                ",
"                                                                                                                                                ",
"                                                                                                                                                ",
"                                                                                                                                                ",
"                                                                                                                                                ",
"                                                                                                                                                ",
"                                                                                                                                                ",
"                                                                                                                                                ",
"                                                                                                                                                ",
"                                                                                                                                                ",
"                                                                                                                                                ",
"                                                                                                                                                ",
"                                                                                                                                                ",
"                                                                                                                                                ",
"                                                                                                                                                ",
"                                                                                                                                                ",
"                                                                                                                                                ",
"                                                                                                                                                ",
"                                                                                                                                                ",
"                                                                                                                                                ",
"                                                                                                                                                ",
"                                                                                                                                                ",
"                                                                                                                                                ",
"                                                                                                                                                ",
"                                                                                                                                                ",
"                                                                                                                                                ",
"                                                                                                                                                ",
"                                                                                                                                                ",
"                                                                                                                                                ",
"                                                                                                                                                ",
"                                                                                                                                                ",
"                                                                                                                                                ",
"                                                                                                                                                ",
"                                                                                                                                                ",
"                                                                                                                                                ",
"                                                                                                                                                ",
"                                                                                                                                                ",
"                                                                                                                                                ",
"                                                                                                                                                ",
"                                                                                                                                                "
};
