/* XPM */
static char *exdoor1670873552[] = {
/* columns rows colors chars-per-pixel */
"72 72 149 2 ",
"   c None",
".  c black",
"X  c #010101",
"o  c #020202",
"O  c gray1",
"+  c #040404",
"@  c gray2",
"#  c #060606",
"$  c #070707",
"%  c gray3",
"&  c #090909",
"*  c gray4",
"=  c #0B0B0B",
"-  c #0C0C0C",
";  c gray5",
":  c #0E0E0E",
">  c gray6",
",  c #101010",
"<  c #111111",
"1  c gray7",
"2  c #131313",
"3  c gray8",
"4  c #151515",
"5  c #161616",
"6  c gray9",
"7  c #181818",
"8  c #191919",
"9  c gray10",
"0  c #1B1B1B",
"q  c gray11",
"w  c #1D1D1D",
"e  c #1E1E1E",
"r  c gray12",
"t  c #202020",
"y  c gray13",
"u  c #222222",
"i  c #232323",
"p  c gray14",
"a  c #252525",
"s  c gray15",
"d  c #272727",
"f  c #282828",
"g  c gray16",
"h  c #2A2A2A",
"j  c gray17",
"k  c #2C2C2C",
"l  c #2D2D2D",
"z  c gray18",
"x  c #2F2F2F",
"c  c gray19",
"v  c #313131",
"b  c #323232",
"n  c gray20",
"m  c #343434",
"M  c #353535",
"N  c gray21",
"B  c #373737",
"V  c gray22",
"C  c #393939",
"Z  c #3A3A3A",
"A  c gray23",
"S  c #3C3C3C",
"D  c gray24",
"F  c #3E3E3E",
"G  c #3F3F3F",
"H  c gray25",
"J  c #414141",
"K  c gray26",
"L  c #434343",
"P  c #444444",
"I  c gray27",
"U  c #464646",
"Y  c gray28",
"T  c #484848",
"R  c #494949",
"E  c gray29",
"W  c #4B4B4B",
"Q  c #4C4C4C",
"!  c gray30",
"~  c #4E4E4E",
"^  c gray31",
"/  c #505050",
"(  c #515151",
")  c gray32",
"_  c #535353",
"`  c gray33",
"'  c #555555",
"]  c #565656",
"[  c gray34",
"{  c #585858",
"}  c gray35",
"|  c #5A5A5A",
" . c #5B5B5B",
".. c gray36",
"X. c #5D5D5D",
"o. c gray37",
"O. c #5F5F5F",
"+. c #606060",
"@. c gray38",
"#. c #626262",
"$. c gray39",
"%. c #646464",
"&. c #656565",
"*. c gray40",
"=. c #676767",
"-. c #686868",
";. c DimGray",
":. c #6A6A6A",
">. c gray42",
",. c #6C6C6C",
"<. c #6D6D6D",
"1. c gray43",
"2. c #6F6F6F",
"3. c gray44",
"4. c #717171",
"5. c #727272",
"6. c gray45",
"7. c #747474",
"8. c gray46",
"9. c #767676",
"0. c #777777",
"q. c gray47",
"w. c #797979",
"e. c gray48",
"r. c #7B7B7B",
"t. c #7C7C7C",
"y. c gray49",
"u. c #7E7E7E",
"i. c gray50",
"p. c #808080",
"a. c #818181",
"s. c gray51",
"d. c #838383",
"f. c #848484",
"g. c gray52",
"h. c #868686",
"j. c gray53",
"k. c #888888",
"l. c #898989",
"z. c gray54",
"x. c #8B8B8B",
"c. c gray55",
"v. c #8D8D8D",
"b. c #8E8E8E",
"n. c gray56",
"m. c gray57",
"M. c #929292",
"N. c gray58",
"B. c #959595",
/* pixels */
"$ : t n N l g g g l l n F R Q Q R L V n d g l l l l l l g g g V R Q R P F N n l g g d t t w w t d d g l V R Q Q R P F n g g g l l l N V V t 1 $ ",
": 9 F $.:.| Q _ ' | | o.w.c.M.N.k.i.5.$.Q Q ' | | ' | | _ Q _ 0.c.N.M.j.0.*.o.| _ Q P F F V F F P R _ | 5.k.M.M.c.j.0.$._ Q _ ' ' | o.,.:.L w 1 ",
"1 t Q 0.w.o.Q R _ | *.,.5.0.w.w.i.i.w.$.R P Q Q _ Q Q ' | *.5.i.c.k.k.d.,.$.| ' Q P L F V V V F P Q _ o.0.c.c.d.0.,.:.*.$.o.| ' ' o.*.w.w.Q g 1 ",
"5 g ' d.i.| L F P ' :.5.| R R _ o.,.0.o.F N V V V V F R o.w.k.d.w.0.,.*.o.' _ P L N N n N n N V F P R ' ,.j.i.$.R R Q o.:.:.| Q R _ $.w.d._ n 9 ",
"t P o.w.5._ L P _ | *.*.R V V L R $.:.' V V P R R R R R o.i.c.0.$.| ' ' ' _ P V L P R R P L L P Q ' _ Q o.5.:.Q V V F Q *.*.o._ Q _ | 5.w.o.P d ",
"V ,.:.$.' R Q ' *.*.' R L V N N L _ | Q F _ :.0.0.5.*.| $.5.w.| F F L R _ _ L n P *.0.0.5.$.' | ,.0.o.R R _ Q L V V N L _ | *.:.o._ Q o.:.:.*.F ",
"P j.5.R L L _ *.w.5._ N V L V N V P Q Q Q *.i.k.c.j.0.*.o.:.*.Q V V V L _ | P l Q w.k.c.k.i.,.,.d.j.*.R F V F F L V N V L _ ,.w.:.Q P _ | 5.w.R ",
"R c.5.L N F Q ,.d.0.Q n F P V n N L Q | :.5.w.d.d.i.,.o.| o.$.o.o.Q P P | $.Q V _ 5.d.j.j.d.i.i.d.w.*.' P V N P R L V N N Q 0.d.,.R F P | ,.d.Q ",
"L d.,.P V L Q :.j.w.Q N L R L N N F Q *.j.i.5.:.:.*.o.' _ _ | 5.d.,.| ' $.*.' R _ $.:.,.0.d.j.j.0.,.:.*._ F V R ' R L V N Q 0.d.,.Q L Q | ,.0.P ",
"V ,.:._ _ ' $.0.j.w._ N L R L V L Q o.0.j.i.:.$.' _ Q R P P Q 5.j.w.,.:.:.:.o.Q Q _ ' ' $.,.w.w.,.*.,.0.o.R P _ ' Q P F V R 5.d.0.| ' o.*.:.*.F ",
"g _ $.:.0.w.d.j.d.5._ F R Q P L Q :.i.w.5.5.:.$.Q L V V V V F | 5.w.d.i.,.$.' R L F F L P Q | $.*.,.w.d.,.| Q Q R R R R F Q :.d.d.d.i.j.d.:._ n ",
"w N | w.k.M.c.j.w.:._ P R Q P P ' w.k.w.o.o.*.| P V n n n N N R | 0.k.k.5.o.Q L V N n n n N F R o.,.0.i.5.$.' Q P R Q Q R _ $.0.d.M.M.N.k.$.F t ",
"9 n R $.:.:.*.$.o.' _ _ Q P P R _ o.$.' P P R R P L F V V V V L P | 5.5.$._ P V V L F F V V N V L R _ ' Q R P P R Q Q | $.$.o.o.o.*.:.5.:.Q N t ",
"5 g V R Q R P L L R _ ' R L P Q Q P L V N l n V P R P F F F F N N P ' | _ R F n V P R P F N n n n n n n n N V P Q Q Q o.,.:.' P L L P Q Q F n 9 ",
"1 d N V F V V V V V L L V n V L F V N n g g g l n N N N n N N n n V L L F V n l n V F V V N n l g g g g g g l N F V V P _ Q F N n n N N V n d 5 ",
"1 w g n n n n n n n l g g d g n n n n g d t t t d d d d g g n n l g g g g d t t g n n n n l l g d d t t t t t d g g g g l l g d t d d g g t t 1 ",
": w d g l l n l g g d t t t t g d d t w 9 9 5 9 9 5 9 5 9 w d t t w 9 9 9 5 5 9 w t t d t d d t 9 5 9 5 5 9 9 w w t t t d t t t t d t t t w 9 : ",
": w t t d g l g d d d g d t w 9 5 1 : : = = = = = : = = = : 1 1 1 = = = = = = : = : 1 1 1 : : : = = = = = : : 5 t t t t g d d t t d d t w 9 1 = ",
"1 w t d g l l g d d g n d t 9 1 : $ . . . . . . . . . . . . . . . . . . . . . . . . . . . . . . . . . . . . $ 5 w t d g l g d t g l l d t 5 1 = ",
": w l N V N l g t g N F n d 9 5 : $ . . . . . . . . . . . . . . . . . . . . . . . . . . . . . . . . . . . . = 1 t n F V n g d d l N V l d 5 : = ",
"1 w N Q _ L n d d g F R F l t 5 = $ . .                                                                   . $ 5 d F ' R V l d d N L L V g w : = ",
"1 t V R P V g d d l L R F l d 9 : = . .                                                                   . = 9 g V _ P n d t d N P P V l w 5 = ",
"5 d N L V n d t t l L R V n g w 5 = . .                                                                   . = w l N P V g t t d N P R V l d w 1 ",
"5 g N V V l g d l n L R V l d t 5 = . .                                                                   . : w l N V N l g g l V P L N g t w 1 ",
"9 g n N N N N N F L L L n d t w 5 = . .                                                                   . : w l n N N n n V F L L V l d t w 1 ",
"5 g n N V V F L P R P V l d t w 5 = . .                                                                   . = w l n V V F L P P P L V l t t w : ",
"1 d N L R R R R Q Q P F l t 9 9 1 $ . .                                                                   . = 9 g N R R R P Q Q R L V g t 9 5 : ",
": t V ' | ' _ Q Q R L F l t 9 5 : $ . .                                                                   . = 5 g L o.| _ _ _ Q P L N g t 9 1 = ",
"1 t F ' o.| | _ _ R P F l d w 9 : $ . .                                                                   . = 5 g L o.o.| ' _ Q R L N g t w 1 : ",
"5 d V P _ o.o.o._ Q P F n g t w 1 $ . .                                                                   . = 9 l F R ' $.o.| Q P L V n g t 9 : ",
"5 n N V P | $.o._ R L V N n g t 9 = . .                                                                   . : t n N F Q $.$.| Q P F V n n d t 1 ",
"w F V n V Q ' _ R F n l n N l d 5 = . .                                                                   . 1 g F N l F _ ' _ P F n l N N g t 1 ",
"d P V d l F R P L N g d n F n d 5 = . .                                                                   . 1 n P N d n P R P F n d d n V l w 1 ",
"w F N d d l n N l g w w g N g t 9 : . .                                                                   . 1 g V n t d l n n l d t t n N g t 1 ",
"9 n l d w 9 w w t t 9 5 d l g t 5 = . .                                                                   . = d n g d w w w t t w 9 9 g n d w 1 ",
"1 d l l g w 5 9 w t w t d g d w 5 $ . .                                                                   . = 9 g l l d 9 5 w w t t t g g t w : ",
"1 t n L F l t 9 t d n N l d w 5 : $ . .                                                                   . = 5 d N R V t w w t g N N g t w 5 = ",
": w N Q Q V l d g n F P n t 9 1 : $ . .                                                                   . $ 5 d F ' P n d d g N L F l w 5 : $ ",
": w n P Q R P F V V L L n t 9 1 = $ . .                                                                   . = 5 t N R Q R L F V F L F l t 5 1 = ",
": w l F R | $.o._ R L F l t 5 1 = $ . .                                                                   . = 1 t n L Q $.$.' Q P L N g w 5 : = ",
"1 t l N L _ ' ' _ P F n g d t 9 : $ . .                                                                   . = 9 d l N P | | ' Q L V l g d 9 5 = ",
"5 g l n N F R Q Q P n d g g d t 5 = . .                                                                   . = w l l n F L R Q R F l g g l t w : ",
"5 l n N N V V F F V l g g l g t 5 = . .                                                                   . = w l N N V V V L F N g g l l d w 1 ",
"9 g N F F N l l n n n n n l g t 5 = . .                                                                   . : w l V L V n l l n n n n l l d t 1 ",
"9 g V L L N l g g l N N n n g t 9 = . .                                                                   . : t n V P F n g g g n N N n l d t 1 ",
"5 l n V V L L V n l l n l l g d 5 : . .                                                                   . = w l N V F L F N n l n l n l d w 1 ",
"5 g l g N R _ Q F n g g l l g t 5 = . .                                                                   . : w g l g F _ _ P V l g g l l d w 1 ",
"1 g l n V R Q P V n n l l g t w 1 = . .                                                                   . = 9 l l n F Q Q L V N l g l g t 9 : ",
"1 t N L P V n g l l V F n d w 5 : $ . .                                                                   . = 5 d N R F n l g l N V V l t w 1 = ",
": w N ' R n 9 5 w l P Q N t 9 5 = $ . .                                                                   . $ 5 d F o.P t 5 9 t N P P n t 5 1 = ",
": w F | ' V t 5 w l R | L g t w 1 = . .                                                                   . $ 5 d L $.Q g 9 9 w V _ _ V g w 9 : ",
"1 w F | ' F t 9 9 g _ $.P n g t 5 = . .                                                                   . $ 5 d L $.Q l w 5 w V ' ' L l d w 1 ",
"5 d N P L g w 5 9 g L _ P N l t 9 = . .                                                                   . = w n V Q V t 9 5 w n P R L N g t 1 ",
"9 N N n g w 5 5 w t n V V F l d 5 = . .                                                                   . : d N n n t 9 5 9 w g N F V V l w 1 ",
"9 N V N l w 9 5 9 t g N V V n t 5 = . .                                                                   . : g N N n d 9 5 9 w d l N V N l t 1 ",
"9 l L Q P n w 9 9 t n V V N l t 9 = . .                                                                   . : t N P _ F d 9 5 9 d n V N n d w 1 ",
"5 l P o.' F d 5 5 w n F V l g t 9 = . .                                                                   . : t N R $.Q l w 5 5 d N V n l d t 1 ",
"5 l L ' Q N t 9 5 w V P V n g d 5 = . .                                                                   . : w N P o.P l w 5 9 d F L N l d w 1 ",
"9 g F R P N t 9 5 t F R V n g t 5 = . .                                                                   . : w n F Q L g w 5 9 g L P V l d t 1 ",
"5 l V L F l 9 5 5 t V Q V l t w 1 = . .                                                                   . : w l F R V t 9 1 5 l P P N g w 9 : ",
"9 l N F N d 5 1 5 t V R N t w 5 : $ . .                                                                   . : t l N L n w 5 : 9 l L L l t 9 1 = ",
"5 l N V n t 5 1 5 t N L N d w 9 : $ . .                                                                   . = t n N N g w 1 1 9 g V V n d w 1 = ",
"9 N n l g t 9 9 w w l n n n d w 1 = . .                                                                   . : d N n l d 9 9 9 9 d l n n l d 5 : ",
"d L V n g g g g g g g l N F N g w 1 = $                                                                   = 9 n F N l l g g d g g g n V F l d 9 ",
"F Q Q P P L L L L F F F P Q P F N g t 9                                                                 9 d n P Q Q P L L L L L F F L P Q L V n ",
"| *.*.o.$.o.o.o.o.| ' ' ' | ' _ Q R V d $ .                                                           $ d L _ o.$.$.$.o.o.o.o.o.| ' _ ' | ' _ R ",
"*.*.$.*.$.$.*.*.*.$.o.o.| ' | | ' Q F d . .                                                         . . g _ *.*.*.$.$.*.*.*.*.*.$.o.| | | | | _ ",
"$.| _ Q _ ' | | | | ' ' Q R Q _ Q L n w $ .                                                         . $ l ' *.o.| _ Q _ ' | | | ' _ Q Q R Q ' P ",
"$.Q R P L R Q Q _ Q Q Q P L P R P V g 9 . .                                                         . . n | :.| Q R L P Q Q Q _ _ Q R L L R R L ",
"| R R R P R R Q Q Q R P L F L L L V l 5 $ .                                                         . $ l | *._ R P R R P R Q Q R P P L F L P V ",
"' P P R P L L L R R L F F F F F V N g 9 . .                                                         . $ l | $.Q L L R R L L R R P L V F F F F V ",
"L N N V V N n N V N n n n n n n n g t 5 $ .                                                         . . d L R F N V V N n n V V N N n n n n n l "
};
