/* XPM */
static char *lava01670873328[] = {
/* columns rows colors chars-per-pixel */
"72 72 217 2 ",
"   c #240000",
".  c #2B0000",
"X  c #330000",
"o  c #3B0000",
"O  c #3C0800",
"+  c #430000",
"@  c #4B0000",
"#  c #450B00",
"$  c #4A0C00",
"%  c #530000",
"&  c #5B0000",
"*  c #550A00",
"=  c #5B0B00",
"-  c #481500",
";  c #5C1400",
":  c #581900",
">  c #630000",
",  c #6B0000",
"<  c #640C00",
"1  c #6C0C00",
"2  c #730000",
"3  c #7B0000",
"4  c #740A00",
"5  c #7B0B00",
"6  c #661400",
"7  c #6D1500",
"8  c #671C00",
"9  c #741300",
"0  c #7A1300",
"q  c #751C00",
"w  c #7C1B00",
"e  c #652800",
"r  c #742200",
"t  c #772500",
"y  c #782B00",
"u  c #7F3C00",
"i  c #7C4300",
"p  c #820000",
"a  c #8B0000",
"s  c #840C00",
"d  c #8C0C00",
"f  c #930000",
"g  c #9B0000",
"h  c #950B00",
"j  c #9C0B00",
"k  c #861100",
"l  c #8B1300",
"z  c #811B00",
"x  c #8E1A00",
"c  c #951300",
"v  c #9D1200",
"b  c #941B00",
"n  c #9D1C00",
"m  c #A30000",
"M  c #AB0000",
"N  c #A50B00",
"B  c #AC0A00",
"V  c #B40000",
"C  c #BC0000",
"Z  c #B40B00",
"A  c #BC0B00",
"S  c #A51400",
"D  c #AC1400",
"F  c #A41900",
"G  c #AC1C00",
"H  c #B31400",
"J  c #BC1400",
"K  c #B61C00",
"L  c #BC1B00",
"P  c #862400",
"I  c #8E2400",
"U  c #832B00",
"Y  c #8D2800",
"T  c #952400",
"R  c #9D2100",
"E  c #902E00",
"W  c #9B2B00",
"Q  c #893500",
"!  c #943300",
"~  c #9F3000",
"^  c #9F3800",
"/  c #A32400",
"(  c #AB2300",
")  c #A42B00",
"_  c #AC2B00",
"`  c #B52000",
"'  c #BC2200",
"]  c #B12A00",
"[  c #BD2B00",
"{  c #A33100",
"}  c #AD3100",
"|  c #A93A00",
" . c #B13300",
".. c #BD3300",
"X. c #B43A00",
"o. c #BC3B00",
"O. c #C30000",
"+. c #CC0000",
"@. c #C60C00",
"#. c #CA0A00",
"$. c #D40000",
"%. c #DC0100",
"&. c #D30900",
"*. c #D80C00",
"=. c #C51300",
"-. c #CD1300",
";. c #C31C00",
":. c #CB1C00",
">. c #D31400",
",. c #DD1300",
"<. c #D51B00",
"1. c #DC1D00",
"2. c #E40100",
"3. c #ED0100",
"4. c #E60D00",
"5. c #EC0A00",
"6. c #F50100",
"7. c #FE0000",
"8. c #F40E00",
"9. c #FD0B00",
"0. c #E31100",
"q. c #EB1200",
"w. c #E31C00",
"e. c #EB1B00",
"r. c #F41500",
"t. c #FB1200",
"y. c #F21B00",
"u. c #FB1C00",
"i. c #C32300",
"p. c #CC2600",
"a. c #C32C00",
"s. c #CD2A00",
"d. c #D42400",
"f. c #DC2200",
"g. c #D42C00",
"h. c #DB2B00",
"j. c #C43200",
"k. c #CB3100",
"l. c #C43B00",
"z. c #CE3800",
"x. c #D63400",
"c. c #DD3300",
"v. c #D73C00",
"b. c #DC3900",
"n. c #E32300",
"m. c #EF2300",
"M. c #E62B00",
"N. c #EC2A00",
"B. c #F52500",
"V. c #FC2200",
"C. c #F42B00",
"Z. c #FC2A00",
"A. c #E43200",
"S. c #EA3400",
"D. c #E43900",
"F. c #ED3900",
"G. c #F33400",
"H. c #FE3000",
"J. c #F53B00",
"K. c #FC3D00",
"L. c #974000",
"P. c #9A4000",
"I. c #9C5C00",
"U. c #AB4400",
"Y. c #A64800",
"T. c #B24200",
"R. c #BE4100",
"E. c #B54B00",
"W. c #A55900",
"Q. c #BD5A00",
"!. c #C34300",
"~. c #CB4200",
"^. c #C64B00",
"/. c #CD4D00",
"(. c #D54600",
"). c #DD4600",
"_. c #D34A00",
"`. c #CE5300",
"'. c #C55800",
"]. c #D65400",
"[. c #DB5400",
"{. c #D45900",
"}. c #D85C00",
"|. c #EC4700",
" X c #E54B00",
".X c #F34300",
"XX c #FF4000",
"oX c #FC4A00",
"OX c #EB5400",
"+X c #E35B00",
"@X c #F15300",
"#X c #FF5200",
"$X c #FE5900",
"%X c #CD6000",
"&X c #CA6700",
"*X c #DC6100",
"=X c #CF7800",
"-X c #E46300",
";X c #EA6200",
":X c #E76800",
">X c #F66100",
",X c #FE6000",
"<X c #FB6A00",
"1X c #E57000",
"2X c #EE7100",
"3X c #FB7400",
"4X c #FF7400",
"5X c #F77800",
"6X c #D78400",
"7X c #D29200",
"8X c #E88700",
"9X c #FE8000",
"0X c #F98C00",
"qX c #FF9000",
"wX c #F7A800",
"eX c #FFA900",
"rX c #FFB600",
/* pixels */
"    X o @ & , 3 3 p f +.7.C a p p 2 % + o + o + X     X o .     . o o + o @ > p 2 > , 3 v g.F.K p f g a , , 2 3 & o o + X   . X @ > 3 3 p g V C ",
"    X + % > , 3 3 3 p C 3.V p 3 3 2 % @ @ + @ @ o . . o o X   . . X o + + + > 3 , > , 3 S x.F.K 3 a g p , > , 2 & o o o X   . X + & 3 3 3 f M C ",
"X X o o @ & > , > > > a V f 2 , , , , > > > > > @ X . o o o X .   X o + + + & , , & , 3 v (.OX_ , 3 a 2 & @ % & + . . . . . . . X @ & > , 3 f g ",
"+ o + + % & > > & @ @ > p , > > & , 2 p p p p 3 > o X o + o + .   . o o + + % & & > , 3 R }.2X| > 2 3 , @ + + o .         . .     X + @ & , 3 p ",
"o + % & a M f 3 > @ o @ > & % & , p m V g p , > % o o X o X . X . o @ @ + @ & 2 2 2 x  .!.z.o.b > & > @ o X X X     . X X X X .   X + @ @ > 2 p ",
"+ @ > 3 C 2.+.f , @ X o + + + % 2 g $.2.V p > @ + + o X X     X o @ & % @ + > 3 3 3 _ *X+X[ j 3 > % + X .   . X     . o + o X .   X o + + & 2 3 ",
"% > a V <.H.:.h , + X % , 2 2 2 2 a V +.C M p & @ + X X . . . o @ & , > @ + % , a M s.OX X` a 2 % + X . . . X X X . @ , , & % + X o + @ % > > , ",
"2 p V 2.G.$X(.c , o X , M m M a 2 2 a m O.2.M 3 & o X     . o @ & > 2 , % + + @ g %.y.K.b.G 3 > + o . . . . X o o o , m f 3 , & % @ o & 2 > % @ ",
"m M +.3.S.[.X.k % o X , M M M f 2 , , 3 m +.m p > + X     o % & & 2 p p > % @ % N t.e.M.' l , % + X . . . o % & @ + 2 m g a 3 , > > > 2 3 2 > & ",
"$.$.$.$.J ( w $ o . X & 3 a f a 3 , % @ & , 3 p > @ X   . @ , > > 3 g g p , , , H C.d.F 0 > @ + o o X .   + 2 a > + & 3 3 3 3 3 3 a f a p p p p ",
"6.2.$.V g 3 & X   X o % > 5 d d h 3 > + + o & 2 > + X X X & a 3 4 h A A m a p p K S.` s & o X X + o o X . @ a m 3 % & > , 2 3 a f m M a 2 a N B ",
"V V M g 3 & + . X @ & , 2 R !.l.a.;.B g 3 & & & @ X X o % 3 m D ` a.).b.>.C m 3 j K v 3 > + . X X X X . X + , a a p 3 2 > & , m C f 2 > % s K d.",
"p p p 3 > + X   o > p 3 p l.5X<XoXH.t.3.C 3 > + X . . @ , g O.1.K.$X4X,XZ.6.V p 3 p 3 p , @ . X X     . o @ % , f O.m p > + > C 2.a X X X w x.XX",
"> & > > % % & , 2 3 s / R.U.P.! T F Z C f 2 % X o @ % & , p g >.u.h.| ) H V g p , & & & % + o @ & + X o @ % > 2 2 3 > & , a m V V p % & & 4 F ( ",
"+ + + + % & 3 m M a d !.5XL.$ O O @ 2 p 2 > +   + > 2 , > 2 p O.6.V < $ 2 p p p & o X X X o + > 3 & + @ % , 2 2 % o o X 3 +.$.M p p 3 3 3 2 2 , ",
"X X X o @ % 2 g M M Z a.`.T * + X o % > > , % @ > a f a 3 2 > M 6.C > @ > 2 , , @ o o o + @ % 2 a > + + @ > p a & X . X , V C f p 2 2 3 p , & % ",
". . . X o + > p m +.%.A b s 2 & o X o + > 3 2 , a m V M m , o m 6.C 2 & > > % @ + o + % % & > p g , + o o % a m , X X X % p f p 3 2 > 2 3 , @ + ",
"    X o + @ & > p M O.m p p p , @ o X X % 3 p a g g m M m 2 + N t.&.m 3 2 > & % @ @ % > , 2 3 g C h 4 = O = v ;.c > % + % , , , > & % > , & + o ",
". X + % & , & % % > 2 3 3 a f 3 & + X . @ , a M f 2 2 p a 3 , H C.e.&.C f 2 , , > & > 2 p f M O.2.>.a.x $ ; X. Xp.O.f , & & % + o o X + % + X . ",
"X X @ > , 2 > + o o + & 3 p f 3 > @ X . + & p M p % % > 3 p p L A.m.5.%.B l a 3 , & > , a V +.$.3.e.A./ * 8 E.;XA.2.V p , @ o X       . o X     ",
"o o & 2 > % % & > , , > & > > % @ o .   X @ & , & @ + % > p m B K H C J j.o./ p > @ @ % 2 C %.+.V S x 0 > 9 I { b a p 3 , & @ @ + .   . X X . . ",
"+ @ > 3 & X @ 2 a f f , + X X X X .     X + o X X o + + % p O.m p p p R {.2XX.p % X X . > C 3.C p % X % 2 2 > & + X & 3 2 , > & & o     . . X . ",
". o > f h b c s 3 p 3 & o o o o + + X X X X X   . . X o @ , f p 2 2 3 l _ o.;.C a & , a m V V f 2 , > > > > , , & + @ & > , 2 a p & X X o X . . ",
"  X , g p.F.i.h 3 , & % o + o @ & % @ o X X .       . o + % > > > , 3 p a h O.6.C p M %.$.M p 2 > 3 f 3 % % , 3 , & @ o @ 2 a m M 2 o o o X     ",
"  X > f S ( G j a 3 > & @ % % > 2 , @ o X . X X o + o o X + @ % % > 2 2 2 p M +.@.D =.$.$.g 3 > % > 3 2 > , 2 2 2 , t i ! N M M g 3 & @ + X . . ",
". o > p 1 = 3 m m a 2 , & > 2 p a p & o .   o % & , & o . X o o + % & , > , p f L A.f.&.C g 3 & @ @ % , p p 2 > 2 3 Y.7X*Xw.+.M a 3 2 & + o o o ",
"X o % 2 & + 4 K ;.D v h l 5 1 3 g a , @ o . + % 2 p 3 +   . X X o + % & > , p f H h.g.d.K h , & + o o & p p , & , p E.8X>XZ.4.C g f p > @ + + + ",
"o o @ % > > b /. Xb.g.g.s.l % , a f 3 > @ X o @ , g a & X X X . . X + % , 3 f M B S a. X~.b > % o o X @ > , & @ , 3 G z.A.C.B.0.+.m 3 , & @ + + ",
"o + + + & 2 ) {.:X|.F.G.F.b + & a f a 2 & + + @ 2 M m , + o X .   X + % , p f M f p  .:X{.Y % + o X . o % % @ @ > p m O.<.M.G.u.q.Z 2 , > & @ + ",
"X o o o @ & 7 U ! ( K K K s % > p p 2 , & % & > a M M 3 & @ o X X + & > , , , 2 3 3 _ :X%Xy o X X . . X + + + + > 3 V 2.&.=.p.D.F.R % > 2 > % % ",
"X X o + + o o X + , p p 3 2 > , 3 3 , & > & 2 3 g V V f 3 & + o + % 2 3 , & + X & 3 } :X&Xe             . X o @ > p C 6.$.f R }.1XQ X % 3 2 , > ",
"X o @ > & > @ o @ 3 g p 2 & % @ % % & > , 2 f C +.$.O.f , & % % % > 2 3 2 2 2 3 v K [ l.W 6 + X . . X o @ & & , c ' c.K.s.h d ) ^ 8 X & 3 2 > & ",
"+ + > 3 3 3 > o % f M a > % + o . X @ > 2 3 C 6.7.6.$.f > & & > & , 3 3 3 p g C <.G.s.v 3 , & @ o + o % 2 3 3 a i.J.$X3X/.c 3 4 > # X % 3 2 > > ",
"& & 2 a g M a > , g V p % + X . . X @ > 3 f V +.0.B.p.k % > , > > & & 2 f V M M J s.K N a 3 > % o X X & p g M Z f.XX X]._ k 2 , > @ . 2 M f 3 , ",
"2 3 a g O.2.C p p m V 3 @ X .   . o % , f V m f ' OX`.q + & 3 , > @ o & V $.V a f h N M m a 2 % X .   & g O.$.4.B.XXs.v s 1 , 2 2 % X a %.O.a 3 ",
"p a g m &.9.#.p 3 f f > o .   . o + @ > p g N v a.OX_.w % 9 R s , < : w Z $.M 3 a a g M g p , @ X o + 2 g C $.%.1.A.F 4 , & & , > % o p O.M a p ",
"g g M V <.Z.;.4 & > & +   . . o + % @ @ & > F s.M.Z.1.h 4 } {.) 3 T U.T.G m f 3 f M m g p , % + o > a f f f g M N S 5 & % @ @ % % % % > , 3 3 3 ",
"M M C @.A.oX..1 @ @ @ o   . . + % % @ + + @ F G.Z.6.$.m d !.3XX.5 ) }.].( p p 3 g M g 3 > % o + + p M m p 3 3 3 2 3 & + o o o + @ & 2 @ X @ 2 p ",
"$.%.,.n.@X9X'.z , 3 3 % X X X o @ @ + + % > Z u.q.2.O.g a ` b.b & 0 ) ] D g p 2 2 2 > % @ + + @ % 2 g a 3 , & & & % @ o o o o o @ p C 2 o @ 2 3 ",
"7.7.Z.XX5XrX=XT f M V 3 + X X X o + o @ > p C 6.2.+.V g p m O.3 o @ 2 a M V a > % + X   . X + % > 2 3 2 > & @ o X X o o o X X o & M 7.g o @ 2 p ",
"f m J f.R.I.u 6 , a f 3 > @ o X X o + @ a O.M g a p 3 2 2 a m , o @ , 2 3 3 > @ + o X X o % & % @ % & & @ + X X X o o X o o + % > p g g f N L L ",
"o $ a O.s # X X + , p p 3 & + o X X o % m 6.g + + + % & , 2 p > + @ & & % @ + + o X X o @ > 2 % X o + o o .     X o o X X o @ > 2 & o f 2.r.G.J.",
"+ % p O.p @ + @ < T ] D M 2 + + @ @ + @ 3 V 2 o X X o @ % & > @ X o @ @ + o o X o X @ > , , > @ X X X X X . . . X o + @ > 3 a p 3 3 3 @.t.e.f.g.",
"& > f O.a & > , b !.+XM.2.f o @ > > % + @ % + X .   . X o + @ o . . X o o o X   X o > f f , + o . X X X X . . . . X % , f +.O.g a V $.q.H.g.D h ",
"% & p M a , , , l !.OXM.2.g , 3 f a , @ @ + + + + @ + + + + + o o X X o o o X X o @ 3 M g > o + + @ % @ @ + + + o . , g O.6.%.m a C 2.w.h.K s , ",
"X o & 3 3 2 , & 4 G d.J m V C +.$.C a , , > > , 2 p p 2 > @ + % & % + o X X + @ & , a V g > o @ , 3 f p , , > > + X p +.2.6.%.M p m C Z D d > % ",
"  . + & , 3 , % , f M f 3 V %.2.3.+.g 3 p f p 3 f V V g p > @ > p , % + o o @ & 2 3 f M f > + , a B =.H j s 3 2 & @ g 2.3.6.$.g 3 p f p 2 > @ + ",
"X X + @ % & , 3 p 3 2 2 , 3 a g V g 2 > f O.a & 3 M C M g 3 > 3 f 3 , & % @ & > > , p f a 2 , g +.v.*X*X/.| w & p m C O.O.C g 3 & & & % % @ + + ",
"+ + o + + + , M g , + % > @ X @ , , @ @ m 7.f o , m O.O.C g p a g f p 2 , > > > > > , 3 p p a +.7.,XrXeXqX%Xe @ m 7.+.m f a , % o .     X X o + ",
"o X X o X . @ > > @ o + % % % 2 f a > % a O.a & , p f g g a 3 M +.:.j.} k 2 2 p c G ` K F 4 > 3 f } Q.]..Xk.9 + p C M f 3 , & + X X X + % % + o ",
"X . X X .     . . . X o + & 3 f V m 3 > 2 a p 3 2 , , 3 p p p C 6.C.>X}./ p a g :.F.J.J.a.9 X X O > s Z 5.+., o > a p p , @ o o X o + & 2 > @ + ",
". . X X . .         . X o % > p g f 3 > 2 3 3 2 2 , 3 g V G } ;.+.w..XF.:.M m f -.B.N.h.K s > % + , f C q.,.B 3 2 2 2 2 > @ o X o > p p p 2 & & ",
"    X o X . . . .     . X o @ > 3 p , > 2 3 2 , , 2 f O.4.F.:X..j C q.t.5.%.V p O.8.*.B j m g 3 & p M >.N.B.4.O.g > > , % @ o X + f $.M p 3 2 2 ",
"    X o X . X X X .     . X o @ > > & & > , & % 4 h Z 2.9.F.-X} s g +.2.6.6.#.j -.t.#.g a m m p & a M :..XK.e.$.m 3 > % & & & > 2 V 6.V p 2 , , ",
"      X X   . X X X . .   . X o o + + @ + o o + 4 ` n.8.6.:.( k 4 p g C 2.6.e.g.N.C.<.h p a a 2 > 3 a [ OXOX;.m m m 2 + > p m V O.+.$.g 2 & % @ ",
"      . .   . o o o X .   . X .   . o + o . . . 9 j.M.q.2.M 3 , & > , f C 4.w.D.F.F.i.h 3 3 2 , & , 2 ) '.{.( f m C s $ 3 V +.2.2.+.C a > @ X . ",
".         . X o + + + o X X o X . X % > & % + X * 0 c B M g p > % @ @ % 2 3 0 z n K v 3 , > & % @ % % 6 U W H O.M g S / J $.$.+.V M g 2 % o . . ",
". .     . X X o + & & % + + o o X + , 3 p p & X . . + , p p 3 > + X             @ 3 2 > % @ + o + X X X . > C 3.C p ' K.Z.9.2.m p p 3 > + X     ",
".       . X o X o + % > 3 3 2 & + + % , p m > o : Q ! k 3 3 2 % o X X .     X o % & & @ + o o o o & 2 & o @ 3 f a p l b S V V M f 3 > % % + o X ",
"        X o o X X X + 3 C M g 2 % o + % a C 2 o y %X{./ 3 , > + X X o o .   + & % + o X X X X o + 3 V p @ X o + > 3 & + & 3 f M M 3 + % & % + o ",
". . . . X o o X X o @ p C M f 3 & @ + @ 3 m p , P | U._ S s 2 % o + % % + o @ % + X X . . X X o o > a 3 & @ @ & p V , o + & , p p > o @ & & & & ",
"o X o o X X X o o o @ p O.m a 2 > % + @ , a g m s 6 q [ h.D 3 & o @ , , & % @ + X .     . X o X X + % & , 2 2 3 V 2.a o X O + @ % + X @ & > 2 2 ",
"@ @ @ % % @ @ % @ + @ 3 g g a p 2 < 7 q d g C +.f @ * T j. .~ P r 7 , > & % & > @ o o X o o o o X + @ % , 2 3 f =.V.H , > > > % @ % % > , 3 g g ",
"% % > , 2 3 2 , > % + % , a m g 3 x | ^.d.$.2.2.m $ X = z W.6X=X'.! 6 + + @ 2 f 3 > > > & @ + o o @ % % % & 2 d k.$Xh.O.C O.M p 2 p f p 2 g O.$.",
"2 2 3 3 a f f a 3 & @ + o 3 V m a b ^.;XS.3.3.3.m % . . - W.wX0X2XY.; o o @ d =.B f a p 2 & + + + % & @ + @ > s R.2XF.8.6.9.0.H c B O.M f C 2.6.",
"C V g p , > a V M p & @ X , f f p s P ! F C V C f , @ o # E ].^.o.I = @ % 1 ) ).d.+.M a 3 , > & % @ % + X o @ 1 b X.K V >.F.@X*X'.x.2.$.+.+.$.$.",
"7.3.V 3 & X 3 $.%.M 3 % X % 3 3 p , + o & p p p 3 p , @ + p O.g p 3 > > 2 h ^.9XXX7.+.g 3 p 3 2 > @ + X   . X @ > p 3 p } :XqXeXeX$X7.7.7.2.+.O.",
"XXF.F & 9 T S C O.C V p & > 2 x } { 7 @ & 2 2 3 2 > % + + p C f > > 2 2 2 4 P ^ k.V.<.V g a 3 2 , , > @ o o + % & & 2 p F z.(.'.'.g.2.+.O.V m m ",
"4X:XQ o b D.p.j m $.2.M 3 , > W *X{.Y & & > 2 3 , % o o + p O.p @ % 2 3 , & % O R G.n.#.M f 3 p 3 3 3 > + + % & % + > 3 g V Z j h M O.m a p p p ",
"`.!.P @ k ' G d f +.2.+.M N n a.|.v.b > > , , , % + X . X > a > o @ & > & % % @ { @XG.,.O.M g f g p > & & & & & @ o @ & 4 p a 3 2 a g a p 3 2 3 ",
"b c s , 5 5 3 3 f V $.$.2.e.M.N.u.>.h > , 3 > @ + X . . . + & o   X + @ + @ & 2 o.<XoXr.2.+.V V V 3 + % , , , & % + X X o % & > , , 2 3 3 3 , > ",
"p 3 p 3 2 > , 3 a M +.2.7.u.K.Z.9.$.f > 2 p > + o X .     X o X   . o + o @ > p R.5X#Xu.3.$.C O.C 3 o @ 2 3 , & @ o X   . o @ % > & & 2 p 2 > > "
};
