/* XPM */
static char *result[] = {
/* columns rows colors chars-per-pixel */
"72 72 239 2 ",
"   c #040202",
".  c #0B0101",
"X  c #0C0C0C",
"o  c #140000",
"O  c #1C0101",
"+  c #14010A",
"@  c #1D010D",
"#  c #130A0C",
"$  c #1B0D0D",
"%  c #140E11",
"&  c #1C0B13",
"*  c #131313",
"=  c #1A1414",
"-  c #1B1B1B",
";  c #230101",
":  c #2B0001",
">  c #240B00",
",  c #2B0B00",
"<  c #27080B",
"1  c #330001",
"2  c #3B0000",
"3  c #330B00",
"4  c #3C0B00",
"5  c #350308",
"6  c #330C0D",
"7  c #3B090B",
"8  c #271000",
"9  c #39170A",
"0  c #2B0417",
"q  c #220914",
"w  c #3C0C12",
"e  c #34021B",
"r  c #3A001D",
"t  c #330818",
"y  c #251618",
"u  c #2C1D1E",
"i  c #3E0A24",
"p  c #2B1D22",
"a  c #361A2A",
"s  c #232323",
"d  c #2D2324",
"f  c #2B2B2B",
"g  c #332223",
"h  c #38292A",
"j  c #382931",
"k  c #333333",
"l  c #3C3132",
"z  c #3C3C3C",
"x  c #430000",
"c  c #4B0000",
"v  c #430A00",
"b  c #4D0C00",
"n  c #43030A",
"m  c #4C020B",
"M  c #440C0C",
"N  c #530000",
"B  c #5C0000",
"V  c #520B00",
"C  c #5C0B04",
"Z  c #53020A",
"A  c #5A020B",
"S  c #461700",
"D  c #561700",
"F  c #5B1301",
"G  c #561C00",
"H  c #420B12",
"J  c #5D0410",
"K  c #441117",
"L  c #630000",
"P  c #670607",
"I  c #6B0000",
"U  c #730000",
"Y  c #7B0000",
"T  c #780508",
"R  c #641200",
"E  c #6A1800",
"W  c #741600",
"Q  c #7B1D00",
"!  c #660411",
"~  c #790413",
"^  c #5B2500",
"/  c #503500",
"(  c #682600",
")  c #762600",
"_  c #7C2A00",
"`  c #7A3200",
"'  c #420121",
"]  c #4A0728",
"[  c #53012A",
"{  c #59012D",
"}  c #54092C",
"|  c #580830",
" . c #471134",
".. c #640032",
"X. c #6A0035",
"o. c #73013A",
"O. c #433335",
"+. c #521740",
"@. c #751044",
"#. c #771747",
"$. c #542B50",
"%. c #6D2B54",
"&. c #434343",
"*. c #4B4B4B",
"=. c #535353",
"-. c #5A5A5A",
";. c #606060",
":. c #820000",
">. c #8C0000",
",. c #880A05",
"<. c #940101",
"1. c #9B0000",
"2. c #940A00",
"3. c #9A0804",
"4. c #871700",
"5. c #991600",
"6. c #840313",
"7. c #9B1119",
"8. c #A30100",
"9. c #AB0000",
"0. c #A90B02",
"q. c #B40100",
"w. c #BB0000",
"e. c #B90C00",
"r. c #AA1700",
"t. c #B61800",
"y. c #BC1A00",
"u. c #A11F1F",
"i. c #882800",
"p. c #8B2A00",
"a. c #972600",
"s. c #833400",
"d. c #873900",
"f. c #993400",
"g. c #A62900",
"h. c #B92700",
"j. c #AD3200",
"k. c #A73800",
"l. c #B73700",
"z. c #BC3B00",
"x. c #8E0D2C",
"c. c #A10622",
"v. c #C30000",
"b. c #CC0100",
"n. c #C90B00",
"m. c #D50101",
"M. c #DB0100",
"N. c #D40B00",
"B. c #C91700",
"V. c #D91800",
"C. c #DC1919",
"Z. c #E30201",
"A. c #EE0100",
"S. c #EB0C00",
"D. c #F80500",
"F. c #E71800",
"G. c #F71400",
"H. c #EB131D",
"J. c #C72900",
"K. c #D62800",
"L. c #C43500",
"P. c #D83700",
"I. c #E82700",
"U. c #F92700",
"Y. c #E93700",
"T. c #F33900",
"R. c #CE0327",
"E. c #C43A3C",
"W. c #E92526",
"Q. c #824400",
"!. c #944200",
"~. c #9B4300",
"^. c #A54800",
"/. c #AB4D00",
"(. c #B84600",
"). c #AA5500",
"_. c #B95400",
"`. c #B07C00",
"'. c #C84500",
"]. c #D64C00",
"[. c #CA5700",
"{. c #D75800",
"}. c #F44B00",
"|. c #CA6200",
" X c #DA6000",
".X c #F06B00",
"XX c #860345",
"oX c #97014C",
"OX c #9B004D",
"+X c #9E0854",
"@X c #891A51",
"#X c #9E1258",
"$X c #A3024D",
"%X c #A80054",
"&X c #AF0158",
"*X c #B4015A",
"=X c #BD025F",
"-X c #872858",
";X c #96205B",
":X c #963868",
">X c #D70256",
",X c #C70064",
"<X c #CE0168",
"1X c #EB086D",
"2X c #C82D7A",
"3X c #B34B57",
"4X c #914770",
"5X c #915B76",
"6X c #965E7A",
"7X c #95647C",
"8X c #DD4D5F",
"9X c #D36B71",
"0X c #E9797B",
"qX c #E79600",
"wX c #D33886",
"eX c #98448F",
"rX c #9E7389",
"tX c #A3708A",
"yX c #D54A90",
"uX c #EE4B9C",
"iX c #EB569B",
"pX c #D87195",
"aX c #E27D85",
"sX c #D573A2",
"dX c #D76CD5",
"fX c #A88999",
"gX c #AAA4A7",
"hX c #BEA3B0",
"jX c #F18C8C",
"kX c #D497B6",
"lX c #D4B9C6",
"zX c #CFC4CA",
"xX c #D4C3CC",
"cX c #DEDCDC",
"vX c #E3D9DB",
"bX c #E6DFE3",
"nX c #E1E1E1",
"mX c #F6EEEE",
"MX c #F6F6F6",
/* pixels */
"*.*.*.&.z &.&.&.z k f - * s f f s f k z s X - s - * - f f - % X X           X X X X   % f z z k k f - s f &.*.-.*.&.f * X * X * * - - f k k z &.",
"=.*.&.z &.z z z z k f s * - f f s f z z s % * * * * * s g i r H ' i r r r r e e r r e i p f f f s p * s f &.=.-.*.&.f * * * * X X - - f f k z z ",
"*.&.z z z z z z k f s - - - - s f k z z s * X X X + X * } +X*X,X=X*X%X$XOXOXOX$X+XOXOXoX] % % % * X X * f *.*.*.*.*.z f s - * * * * - s k z z &.",
"z z z f z z z k f s s s s * % s k k f f a e e e i i i i oX2X1X1X<X<X=X*X*X&X&X&X>X>X1X2X#.i r e e e e 0 j &.z k &.*.*.&.k f - * X * X - f k z z ",
"&.z z k f k f s s - * - * * - f k * * X i oX,X,X,X,X,X,XwXsX0XH.x. .i i i i i i c.H.8XsX2X*X&X&X&X&X%XXX' * % X k &.&.&.k f f - - - - s f f k k ",
"&.z k f s s s s - * % % % * * s a | | | @XwXiXuXuXuXuXuXiXaXE.0.x.%.$.0 = & % * C 3.E.9XpXyXyXyXyXyXyXyX#.[ ] ] a f s f k k f s - f k f s f f k ",
"z k k f s - s k k f - - X X     | ,X1X1XwXkXlXxXlXlXlXlXjXW.7.6 eXdXeX .0 0 & * $ 6 ,.W.0XlXlXlXlXxXzXkXyX=X,X*X]     * s k f s - s f s - - f f ",
"k k f s - * f *.*.&.f - # 0 r r @.2XwXwXiXxXnXnXnXnXnXcXjXC.2.% $.eX:X@.X.X.' & = q ,.C.0XcXnXnXnXnXbXxXsX2X2X2X@.' i e p f f s * - s - X - s s ",
"f s s s s s z *.=.*.f % q { XXXX-XtXtXtXhXvXMXMXMXMXMXmXjXW.3.= a +.@.+X*X&Xo.0 $ $ ,.W.jXmXmXMXMXMXMXnXhXrXrXrX-XXXXX..i * - - * - - - * * - s ",
"- - - s k &.*.&.*.*.k - q | o.o.-X5X7X7XfXzXnXvXcXcXcXcXjXW.3.$ y e o.*X=X%XX.e q $ ,.C.jXxXcXcXnXnXnXxXfX5XrX7X-X@.o.| 0 * s - X - s s - - - s ",
"% * - s z -.=.*.&.*.&.z f q 0 q } -X;X;X4XfXgXgXgXgXgXgX9XW.,.q q 0 X.*XOX{ ' e q $ 6.C.9XgXgXgXgXgXgXfX4X;X;X;X} 0 q 0 p f s - * - s s s - s - ",
"* - s s z *.=.=.=.*.&.&.k * X   0 ..X...#.4X6X6X5X5X5XrX3XE.u.P H 0 { XXX.e 0 q H P 7.E.3X6X6X6X5XrX6X5X#.X.X.X.e % X * - - - - - d k f f f f f ",
"s s s k z z *.-.-.*.&.z z s * - % + + + i @.+X#X#X#X#X#X:X7XE.Z.~ & q i r 0 & % T N.E.7X:X#X#X#X#X+X+XXX' + + + - - s s - * * - s k z z k k f k ",
"s s f z z &.&.&.&.&.z z k j s * X       @ ' [ { [ [ { { #.:X3XR.c.} { ......{ } x.R.E.:X#.{ { { { [ } ' @         % - s - * - f z z z &.z z z z ",
"s s k z z z z k k z z k f f p % o + . .   . .   +     + ' XXOX$XOXoXOXoXOXOXoXoXOX$X$XoX] + . . +           . + . % - - - - - z *.&.z *.*.*.&.z ",
"s s f k z &.z k z z z k f * = ; : ; ; o   . o O ; 1 1 5 n { ......{ ..................{ t O ; : 1 : o .   . o O O < % * - * - k *.*.&.*.*.&.&.z ",
"k f f s k &.z z z z z k s . O 1 1 1 : O   O 2 B U >.<.<.B 0 @ < @ < @ < @ @ @ @ @ @ @ < 5 c N I Y B ; .   . O : : < + + * * - k &.*.*.*.&.z z &.",
"f f s - f z z z z k f s y ; : 1 2 : ; O   O B >.1.1.8.8.Y 1 o 2 B c 2 : ; ; ; O O o O : c U Y 1.w.2.V O   o O ; : : ; + $ * s f z *.*.&.z z z z ",
"s s - * s k z z z f s = < 1 2 2 1 : : O   O N 8.>.U U >.:.I B 5.K.B.e.1.Y L L B N c B B Y <.9.v.Z.V.4.,   o O : 5 : 5 5 O X * f z z &.z z k k z ",
"- - - * - f k k f y y < 6 2 2 2 2 1 ; O . o N 9.:.B c L Y :.:.y.Y.F.S.M.0.,.:.Y I B L I >.9.b.m.A.F.a.3   o ; ; : 5 : 5 , O q s f k z k f f f f ",
"- * * - - - f f - $ 6 x 2 2 2 2 2 1 : O   o 2 I B c c N L :.8.0.t.t.q.e.L.z.g.:.L x c c U w.M.b.w.0.R ;   o O : : : : : 5 5 < $ - f f f s s s - ",
"X * - s - - s - $ : c B m x 2 2 1 : : O . . ; 1 1 2 2 x N >.v.8.:.:.Y g.{..Xl.Y B 1 1 1 L w.A.w.Y B ; o   o ; : : 1 5 5 7 Z n < $ s s - s - % % ",
"s - - * - s * q : x I T L 2 2 2 2 1 : O . . O : : : 1 2 c I >.:.U U Y 2.j.z.B.w.>.B I >.8.q.q.<.I I x ;   o O ; 5 1 : 5 H ! ! M q s - * * s k k ",
"f f - % - s   > x L 6.3.I x 2 2 2 1 : O   . O ; ; ; : 1 2 B I L L I Y :.:.2.v.D.w.:.9.m.m.9.:.U L Y I ;   o ; : : 1 5 5 J ~ ~ J w u * * * f *.-.",
"z k f s s s   ; 4 L >.3.I x 2 2 2 1 : O . . O 1 2 x x 2 1 x c N N B I U U :.9.b.e.t.n.M.b.8.Y L B L N ;   o ; : 1 5 5 1 A 6.~ J w u * * * f z *.",
"z z z k f s X ; x L 6.3.U x 2 x 2 1 : O   . ; N B I B 2 : 1 2 2 x N L L L I :.<.B.P.K.b.w.<.U B x c 2 ;   o ; : 1 1 5 1 A ~ ~ J w u * * - f k z ",
"z z z &.k s   ; x L :.1.I x x 2 2 1 : O   . ; B I :.U c ; : 1 1 2 x B B L I :.<.t.K.I.K.t.2.I B 2 x : O   o ; : : 1 1 1 J ~ ! J w g * - - f k z ",
"k k z z z f   ; x B T :.L x 2 2 2 1 1 O . . : x I 1.>.B 1 1 1 : : 1 x N L Y <.9.0.r.J.].'.5.L B 2 2 ; o   O ; : 1 1 2 1 m ! ! Z K g * * s f z &.",
"z k z &.&.k   O x B U T B x x x x 1 : O . o : c U 9.8.I x 2 1 : ; 1 2 B I :.1.9.<.:.j. X{.p.N c 2 1 O o   o ; : 5 1 1 1 m ! ! N K g * - s k *.*.",
"*.*.*.*.&.f   ; x B U Y L x x x 2 2 : O . o 2 L :.q.9.Y B c 2 1 1 x B L I I I U Y Y j..X|.) 2 1 1 : O o   o ; : 1 2 5 2 V P P Z w g - s f k z *.",
";.;.=.*.&.f   ; x L U Y L x x x x 1 1 O   O x Y 1.q.q.<.Y B x 2 2 B U Y L B x 1 B Y j..X|.( O ; O ; o .   o ; : 1 1 2 1 N P P Z M h s f f k &.z ",
"-.-.-.-.*.f   O 2 c B L W Q E V 2 2 1 O . O B w.b.m.v.<.I B N N c L Y Y U U U Y 5.h.h.L.f.R x 1 1 : ; o   O ; : 1 v F ( R Z c x w h - f k z z z ",
"=.*.-.;.*.f   O : 1 2 x Q (.a.R x 2 1 O . ; U A.D.D.m.>.L B B B B I Y Y Y :.1.w.V.T.J.5.Y L B c 2 2 : O   o : 1 1 b ` /.) v 1 3 6 f * f z z &.&.",
"-.=.-.-.*.f X + : 1 1 4 i.].(.) V x 1 O   ; U b.V.U.K.,.V L I I L B B U <.q.9.9.e.K.y.0.>.Y L c 2 2 ; O   O ; 2 v ( !.|.` 4 : : 6 d * s z z z z ",
"-.-.-.=.*.f * > : 2 1 x p.].'.a.E V 1 O . : L 1.J.}.'.) x B Y I L c 2 B q.m.q.>.2.2.0.9.8.>.U N 1 : O O   o : v G ` ^.|.s.v 1 : 6 d * s k k z z ",
"=.*.*.*.&.k * < 2 x v c a.].].k.p.R 1 O . : L 3.h.}.].Q N W 5.4.I R D Q e.m.9.Y :.>.1.9.8.:.L N 1 2 : ;   O ; S ` !.).[.s.b 2 2 6 u * s f k z z ",
"k k z *.&.f X < 2 c c N a.'.L.j.p.E 4 ; . O R K.I.U.V.2.T k.{.g.Y i./.(.r.8.<.Y <.9.8.1.:.I N x 2 L B :   ; 3 ^ ` !./._.s.V x 2 7 g * - s f k k ",
"s s f z z f X ; x B N P p.L.z.k.a.) b 3 . o R T.U.G.m.8.4.L..Xl.:.g.{.].g.:.:.Y 1.9.1.Y L N 2 x x :.Y 1   > 4 ^ ` !.^./.p.C c c M g * * - s f f ",
"* - s f f s X ; 2 c c V 4.z.j.a.Q E S 3 o O W G.S.Z.v.1.,.h.P.5.B Q g.j.r.1.:.U U U L N c x x c B Y L : . > S ^ ( ` ~./._ b x x 6 d * * * - s f ",
"* * * s s -   O : 2 2 x ) l.k.Q R F D 3 . O U D.Z.b.q.<.>.8.v.U 2 c U >.9.q.>.L N x 1 ; : 1 x N B I B ; . 8 S S b ( d./.) v 1 1 6 d * X * - - s ",
"* - - * s s X o : 1 2 x Q k.a.R c c b 3 . X I 1.>.:.Y U Y >.8.I 2 c L U Y Y L N x 2 1 1 2 N B c x B 2 O . 8 4 v 4 V _ ~.) v 1 1 6 u - * % * - s ",
"s - * * s s   ; 2 N I Y ,.Q E B c x v : .   L x x x c B L U :.L x c B B c c x x 2 1 1 2 c L U B 1 2 : o   O 3 2 4 c F ) E I B c 7 g s * X - - - ",
"- * - * s s   ; c I <.9.:.N V c x x 1 ;   ; x 2 1 1 2 x N B I c 1 x c c x 2 2 1 1 1 c L I I L c 1 1 ; o   O : 1 2 x x x I <.:.L v u - - - * - - ",
"* * * s f s   ; x U 8.q.:.c c x x 2 1 O . o : 1 : : : 1 2 x c 2 : : 1 2 2 2 1 : 1 2 L <.<.I x 2 : 1 ; o   o : 1 2 x x 2 I <.>.I M g * * - - * * ",
"* * - f k f   ; c U 1.w.:.N c c x 2 : ; . . : x x c c x x x 2 2 2 1 1 1 2 2 1 : x c Y 9.1.L 2 x x c 2 o   O : 1 2 x 2 x I <.6.I M h - - - * * X ",
"X * s k z f   ; c I <.9.Y c x x x 2 1 O . O 2 I U :.:.U L N x N B N x 1 1 2 x c B I >.q.1.L 2 c I Y L :   O : 1 2 x x x L >.:.I b h - - * * * * ",
"* - f z &.f   ; c I :.1.U c c c x 2 1 O . ; N U >.q.q.1.Y L c L :.I B x 2 2 c L I Y <.9.1.L x I >.0.,.4   O : 1 2 x x 2 B Y T L M g - * * * * X ",
"f f f f z f   ; c L Y :.L c x c x 2 1 O   1 B B Y 9.w.9.1.:.L Y <.Y I B N c B B I I Y <.>.I I 1.v.P.~.S   O : 1 2 x x 2 B U I B M g - - - * * X ",
"&.z f s k f   : x L Y :.L c x c x 2 1 O . 2 B 2 L 8.v.v.w.1.:.<.1.<.>.U I B L B B L I Y Y :.>.b.D..X`./   O : 1 2 x 2 x B I I B M u * - - - * X ",
"&.z z z k s   ; x L U :.L x x x 2 2 1 O . 1 B L I :.<.1.1.>.:.8.b.B.L.h.4.U Y :.5.r.h.y.r.Y B Y 1.j.d.S   o ; 1 2 x x v B I I B M u * * * - - - ",
"&.&.&.*.k s   ; 2 N B I W E R c x 2 1 ; . ; c Y U I I Y :.:.Y w.A.U..X{.g.Y >.1.B.T.}.T.L.W 1 2 2 L B 2   O : 1 2 c F E R B N x 7 u * * % * - - ",
"&.&.*.*.k - X $ : 4 x c W k.p.R 2 2 : O   ; c U U I Y 1.q.r.j.B.b.I.}.Y.B.9.8.<.B.U.I.K.t.,.B N x I L 4   O ; 1 2 V _ ~.) b 2 2 6 u * * * - s f ",
"*.*.*.&.f -   o ; : : 2 i.].k.W v 2 : O . O c L I U <.v.S.Y..Xl.1.e.F.G.A.m.q.>.w.G.N.0.2.8.1.Y B :.Y v   O : 1 4 E k.|.s.4 : : < d * * s - f f ",
"*.*.*.&.k f % $ : 1 1 4 s.[.(.s.E b : O . O 2 B U 2.t.Z.G.Y.{.j.Y 1.b.A.D.D.n.3.N.G.N.1.>.8.9.:.B >.U 4   o : v D _ /.|.d.b 1 : 6 d - - s f f k ",
"&.&.*.*.*.z * < 1 2 2 v p.[.[.f.i.D 1 O   . ; 2 W h.I.S.D.B.g.4.I :.1.v.Z.D.F.K.I.U.B.2.:.>.>.U L Y L 4   O : S ) ~./.|.d.b 1 1 6 u - - f f f f ",
"&.&.&.*.*.z X < 5 x x c i._._.~.s.G 3 ; . . O : W J.I.S.Z.9.:.U B L U >.w.S.K.Y.T.Y.J.2.Y Y U I B I c 3   O 3 G ` !./.[.s.V 2 x 4 d s f f k k k ",
"&.z z z &.k X < 4 c c V _ /./.f.` ( 4 8 . o : 1 V W 5.0.9.1.:.L N c c B I :.4.Q 5.y.5.Y I L B N c N 2 O   8 9 ^ ` !.).).s.V x x M g s f f k z z ",
"z z z k z f X ; 2 x x c ) ~.~.d.` ^ S 8 . ; 2 1 1 : x I :.Y :.B x 1 ; ; ; O O ; c Y U L B c x 2 x 1 ; o   8 S ^ ( d.!.~._ V x x M h s d k k z &.",
"z z z k z k X $ : 5 1 2 ( d.d.( G G S 8 . : 4 1 D s.p.4.Y Y I B 2 1 1 : ; ; 1 x N B B c x 2 2 2 2 B V O   8 S S ^ ( ` !.( 4 1 1 6 l s s - f z z ",
"k k k z z k * $ O ; ; ; ^ Q.( b 4 4 S 8 X 1 c 2 _ |.{.g.Y I L c 1 2 2 1 : ; x B N x 2 1 : 1 1 2 x Y U :   8 9 S 4 v ( Q.^ : ; ; y l f s * s z z ",
"s s f k k f X @ < 2 m Z C ( D v 2 4 3 > . : N I 4.^.(.g.r.,.I c 2 x N N x 2 x B x 1 1 : : 1 1 2 2 L L ; . O 3 4 2 v S ( D Z m 2 w z f s % - f f ",
"* - s s s -   $ 1 Z U 6.P x v 2 1 1 : O . ; B 8.,.R ) h.K.r.Y B 2 N L I B N c x 2 ; ; ; : 1 2 2 1 x 2 O   O , 1 1 2 v v P ~ T Z K O.k s % % - - ",
"X * - s s -   < 5 A 6.>.P 2 1 2 2 : ; O   : U b.<.c V a.J.j.f.p.) E I I B B B L c 2 2 1 2 2 2 2 1 2 1 O   o : : 1 2 2 2 L 6.~ A K O.k s * * * * ",
"* * s f f -   ; 1 A T 6.! 2 1 1 1 : ; O   1 >.A.1.c 2 C ) ^.qX|.[.f.F x 2 c U <.Y L L L B c x 2 2 x 2 O   o ; : 1 2 1 2 B 6.~ A w l k s - - - - ",
"* - s k f s   O 1 A ~ 6.B 1 1 1 : : ; O O N 8.A.8.N : 1 S ).qXqX.X^.D 1 2 c ,.n.0.<.>.:.U B x x x c x O . o O : 1 1 1 1 A ~ ~ A H j k s s s s s ",
"f f k z k f X ; 5 Z ! ~ A 1 1 1 : O o > v U <.q.<.I c 2 v p. X].l.a.R c B I k.}.K.v.9.>.Y I L B N N x : O o o O : : 1 1 N ~ ! Z H h s - - s k z ",
"z &.z &.&.f   $ 5 c J ! m 1 1 ; O o   o x Y Y :.Y :.I c x :.v.8.:.U L I U ,.'..X}.D.b.1.Y :.Y U L c x 1 ; o   . O : 1 1 m ! ! m w g s - * s &.=.",
"=.*.*.*.&.k X < 5 n J J n 1 ; O O , : : B I Y :.U I N 2 x :.v.<.I L I U U W i.~.K.U.V.q.1.>.Y U I I L c 1 ; O O O O ; : n A J m w u - s k &.&.&.",
";.-.=.*.*.k * < 5 n J J n : O . 8 ^ E V B L I Y I N x 1 x :.w.:.c B U U L B c 4 a.T.I.n.9.<.:.Y Y Y Y L x 2 x : o . O ; n J J m w y * k -.=.&.&.",
"=.=.-.-.&.k * q 5 M M Z 5 O O ; D p.4.L L I I I B x 1 : 1 L <.L 2 x B L B B N c j.}.T.F.v.9.<.1.1.Y L B B B B 2 O o O O 5 Z m n 5 y * k =.*.&.&.",
"*.*.=.-.*.f X # : : 5 5 ; . 3 W r.e.2.L U Y L c 2 1 1 : ; x B 2 : 1 x c x c B U l..X}.G.Z.b.q.q.q.Y x B I I I c 1 ; o . < 5 5 5 < y * f z *.&.&.",
"z z =.;.&.s X o + @ ; O o   b J.D.m.<.L U Y L x 2 1 : ; ; 1 x : ; : 2 2 x c L :.L..X}.U.A.m.w.v.w.Y 2 c U Y I B c 1 o   . O ; ; $ y - s z &.&.&."
};
