/* XPM */
static char *out_wall1670786006[] = {
/* columns rows colors chars-per-pixel */
"72 72 42 1 ",
"  c #1C0505",
". c #140D0D",
"X c #1B0B0B",
"o c #131313",
"O c #1B1414",
"+ c #1B1B1B",
"@ c #220303",
"# c #2C0303",
"$ c #220B0B",
"% c #2B0B0B",
"& c #330101",
"* c #3A0101",
"= c #320B0B",
"- c #3B0B0B",
"; c #221313",
": c #2B1212",
"> c #221B1B",
", c #2B1A1A",
"< c #311111",
"1 c #381414",
"2 c #311C1C",
"3 c #3B1C1C",
"4 c #232323",
"5 c #2C2323",
"6 c #2B2B2B",
"7 c #312222",
"8 c #3E2323",
"9 c #302B2B",
"0 c #3C2D2D",
"q c #333333",
"w c #3B3B3B",
"e c #400000",
"r c #422E2E",
"t c #443535",
"y c #473B3B",
"u c #483D3D",
"i c #434343",
"p c #4C4545",
"a c #4B4B4B",
"s c #525252",
"d c #5A5A5A",
"f c #606060",
/* pixels */
"saaiiwiiwq64o+664+oooo+446qqqisiq4+ooo46qqqwiiiqq6446wsdsi6oo.oooo46qqwi",
"aaiwiwwiwq64o4664+ooooo44qqqwiawq4+ooo466qqwwwwqq4+6qwssaiqooooooo+46qww",
"iiiqwwiwiwq644444++ooooo4qwwiwwwwqq6+o+466qqwqwqw4o6iaaaaaw64+ooooo4qwwi",
"iiqqwiwiwiiqq644444444+o4qiaawqwwasw4o+466qq6qqwi6oqsdaiaaiiq4ooooo46qwi",
"iwwqqqwaaaiiqq64444++oooo4qwiw6qwwiw64+44+4464446+o6iaiawwwww64+++4446qw",
"iwq66qwaaasiiq66444+oooooo+qiqqq6wwwq644+oo4+ooooo446wiaq4qiwq64+666466q",
"wwqqqwwiaiiiwq44+o++o+ooo+4qwwqqqqwq64++o+o++o+oo++446wiq6qwwqq66464+446",
"qq6qiaaiwwqwi6+ooooo++oo+46qqqwq6qq6++oo+++oo+++4oo+46qqq6qiwwwq644+o+44",
"6666wiiiwqqqw6oo.oooo++o+6qqqwwwqqq6+oooo+oo+O>46+o+44666qwwwwqq64++oo++",
"64+o6qwqqwwwq6+ooooo++++46qqwqqwwqq64ooooo++OX$5q6+4664466wwwwq64+o+++o+",
"4++o+6q6qwwq644+o...o4+>46qqwq6qwq664+o.ooo+,X@5wq+466646qqwqq644+++4+oo",
"4+oo+466q66444++o..X+4,%,4644++6qq64+ooooo;,%@@,64++466q64666q6646666444",
"44ooo466644ooo4+o. @;><e=,+oooo4q64+oooo+4,**#@;4ooo+6qw64+466qqqwiqqq6q",
"oo+o>64444++.oooo..OOO::,444+ooo444+++oo.O%*-%;>o++++6qq4++44+6qwiwiwwww",
"oo+4664oo++ooooooo++$@O>4664+ooo4+4+++ooX #*-26+oo4++4664o+++o+waiiiaaiw",
"+++4464;O++o..oo.o+4;:,466q44+o++++++4++. @=:55+o+4++44644++oo+waaiaaiiw",
"664444;==:+ooo.o.o+446696q64+4+ooooOo44+O.O;,44oo+++oo466w4ooo+qiaaaiiii",
"664444:==:>Ooooo.oo449666644++4+ooXX>;,;Ooo>>+4+o+4++o+46w6oo+6qiiaiwwww",
"44+o462=&#$;+++OXX.o>4++o+ooo+4ooX#%%%=-$.X$$,44644++++46w6+46qwiiiwwqwq",
"++oo+6,##&&:>>4O  ..++Ooooooo+++.$#*&**e%. #%;+6644+++4446446wiwwwwq6666",
"oo+o++OX@&*#X>>+X.  X$....oo++o;##$#&**e&@#&&$+46+ooo+oo++46qwwwqq66444+",
"oo+4+o.oX=*#@X4+o. @ @ ooooo4oo$*%XX=e*e*#**=$oo4ooooooooo46qwwq66444+oo",
"44+oooo+O$%@##=%@@@  ....ooooooo$XoX#**e*&&*&@$O4+oooooooo++66666qwq6qqw",
"664o+4+4+o.@#*****@ ...oooooo+4o..o.@&***&##&##:4ooo++ooooooo+444waiwasf",
"wq4+4++++ooX@#***#@  ...oooo.oooo.X @&**&##&*##$+oo+oooo.ooo+++46qiiaaaa",
"wwq64++ooo...@&#@@X.  ..oo+o..oo.X @##&##@#***#Xo+++oo.oo.o++o+46qwadaiq",
"wwqq64+ooooooX@@@ .o @ XOO+X....ooX$#=##@@#==&#Xo++++ooooooo+o+46qqisaww",
"qqww64+oooooo.X   OOX@@@##%X..o..o,4,;@@@ @:$@@Xoo4+++4oo.oo+o46qwwiaaai",
"qqqwq4+oo++oooo.  ;;X@###&#@@ ooo+554+;@  X>O$ Xo+++4+4++oooo466qwiiiaaa",
"wwwq6o+oo++o+++oXXXX@@@@#*&#@Xoo.X,,OoOOX.XoO  X+o+++4o++4oo+6wwiwwasaaa",
"wwwq+oo4+oo+++4+o.    @ #***# o.oX#@Xo+>oo.o.  ;4ooo4+oo464o4qiaaawsdsaw",
"iwq4+ooo+ooo+++oo.. @#@$$*&%$O.o.X###$$;X . XXO+4+oooooo+6++6waaiaaasaii",
"iw64+ooooooooo.oo.o.@&$>:#%;+ooooX#***# @ @  O>4+Oooo. @;44+qiaaiaaaiwiw",
"wq6++ooooooooo.oooo.$&$+O$$O+oo+o.$@@%@$X   X$O;;O...o.XO4++6qwwwaaaaaiw",
"q64oo++4ooooooo.o+oo@#X...ooo++++oO..XO>oo..XX @@   .oO++4+o+466qwisssii",
"66+o+4++oooo4oo.+OXX@#X.oooooo++4+...o+4+oooo      X.o++++oooo466qwassiw",
"444++4+oooooooo.X$@@@# .o+oooooo+OXX.o++++++o.. @X;Ooooooooooo+466qwaiwq",
"4+4++++ooo.o..o.@@##@ Xoo++ooo.o+O  .o++44+4+..  $++oooooooooooo+46wwqq6",
"4++oooooo... ...O;XXO;OOOOOX.ooo+oX.O+o+oo+4>X . oooooooo++4+oooo++6wq66",
"44oo.o.o.... .oo++ooo444;@ .oooo.ooo++oo.oo++$ Xo.oo4+ooo44q4oooooo6iq44",
"o+o++ooooo.... .O+o++4+X@  ..ooooooo+ooo.ooo+OOOoooO:;>>,::226644+++6444",
"oo+++4+ooo.o.  ..o+444O@@  Xoo4o.o4+ooooo.ooo++ooo4:%=55,##&3uiw64++o+++",
"44+4+++oooooo. ..ooo++O$$$XOoo++o+++ooo+o+o+++++.o+O$:,2%#=3rrtwqq64o+++",
"qq64+oo++4+o.....oooooO++>+ooooo++4+ooo+466664+ooooO>;%=&&8ur33taiw6++oo",
"wq64+oo+444+oooooo..o++444+ooooO+>4+ooo+466664++oooo+,,<=1tat3rysiw6+ooo",
"qq6++oo+466++ooooOXX;444+4+ooo+OX;>+oooo+464++o++ooo+4,70tpspyupaai6oo.o",
"qq64+o+446664ooO4>$$,64++>Oooo>;$O++oooo+44+++oo4+oo+466iaaaaapaaiw6oooo",
"wq6666666qwq64+444>;444+O;XX X$;,,>+ooo+4644+oo+4ooo+4+4qwiaiyiiaww4+ooo",
"iww6wwwqqwwwq64466644++o.    @@;664+oo+46664+oo+4ooo++oo4qwwwqqwww664+oo",
"wiiiwwqwqwq644+++44++4oo  @@$@ :64+o++oo4q44oo.X:X$$$:>++6qwwwwiiwq4+o+o",
"wiiswqqwwqq64+oo.o+444+oX X;+$@O>+oo+++o464ooo.$#&#&##;4446iiiiaawq4oo+4",
"iaiaiqwiwwq644oo++>;;;OOX@@$; @@OOXO++ooo4+oooO$#%:%$$>+++4666qwiq4+o+46",
"saiiiwwwwwwq644445,#%#:+;##@ @@@@  @>++ooooooo+X@:5,Oo+4+ooo+o46q4o++466",
"aaaiiiiwwiwqq44465$##%;+:%##@@@@@##@;+ooooooo+>$@:5,ooo+ooooooo44+o+446q",
"iiaaaaiwwwiw66444,OX;;>4;#######***#Xoo+++4++Oo$#%=$Oooo++ooo++++++4666q",
"iiiasaiwqwwq66++4+oo+>>,:#&#&&&****%Ooo4+4+4+o.$&##$..ooo4+oo++oo+44qqqq",
"iwwiiawwwqw66+++44+.X:%$%**##****=::.ooo+4+oooo+,,;oooo+44+oooooo+46qqwq",
"iww6qwiiwq64++o+64+.@&&#****&***&$>4ooooo4+oooo4q64+oo+++4ooooo+44446qwi",
"qwqwwqqwq44++o++4>O@@#&&&**&#=<:%;Oo++o+444++o+++44+ooo++4oooooo++6446qq",
"qqwwwqqq6+ooo+++oX@&&&#&****#%4+>+oo++4+4664+4++oo++oooo+4oo.oooo4q+o+6q",
"446q64644oooo+o++>,:%$%:%%##XOO44+oo+444qiwwq664o++oooooooo.ooooo4q4oo44",
"o++6+++44ooo++o+4655;.>6,OXo..oo4+oo++66issdsiq64ooo++oooooooo+oo4q+ooo+",
"oo+4+oo++oo+4++466664+464oo..ooo+ooo+4qwaddssawq6++o+++oooo.o++oo4q4oooo",
"oo464++oooo++4466qqqqqqq4o.ooooooooo4qwssssaaaaiq6++oo44ooooooooo4q4++++",
"o+4q64++oooo+6q6qqqqwiwq6+ooooooooo46qafsaaiiaaaiq4+o+46++ooooo.o+644+44",
"66qwwwq64+++++46qwiiasaiwq44+ooo+46qwwassaassiwasaw6+o4466+ooo.oo+6+++46",
"wiiiisaiw6+oo++6wiasdfdaiiw64ooo+qaaiiaaaiadswqafssw+o+4qi4ooo.ooo++o+6q",
"saaiasaiww64o++4qwiasssaiiq4++o+66wiasaaaiasawqisaaq6+++464ooooooo+++6qq",
"ffsssaaiwiw6++o+6qwiasaiiiq4oo446qqwsdswiaaiwqqwiiiwq4+o+4ooo++oooo+6qwi",
"sssssaaiiwq6++o+66qwiaiwqq6+oo+4666qwaiwiaawwqqwwq6644+++4+ooo++ooo4qwia",
"iasfsiiaawq4o++4466qwiwqq4+oooo+4446qqqqwiwqqwwwq4+oo++++4ooooo+ooo4wiaa",
"iisfsiisiw6+oo+4+46qwiqq64ooooo++4+46qqqqiwqqwwqq+oooo++4++oooo+4oo6wias"
};
