/* XPM */
static char *peaks_11670771744[] = {
/* columns rows colors chars-per-pixel */
"16 16 6 1 ",
"  c #25131A",
". c #362030",
"X c #3D253B",
"o c #90919E",
"O c #ADC1CF",
"+ c #E9EBEC",
/* pixels */
"XXXX+ XXXXX+ XXX",
"XXXXO XXXXXO XXX",
"XXX+Oo XXX+Oo XX",
"XXXOOo XXXOOo XX",
"XXXOoo XXXOoo XX",
"XXXooo XXXooo XX",
"XXX    XXX    XX",
"XXXX+ XXX.XO XXX",
"XXXXO XXX.XO XXX",
"XXX+Oo XX.OOo XX",
"XXXOOo XX.OOo XX",
"XXXOoo XX.Ooo XX",
"XXXooo XXXooo XX",
"X..    XXX    XX",
"XXXXXXXXX.XXXXXX",
"XXXXXXXXX.XXXXXX"
};
