/* XPM */
static char *dngn_enter_pandemonium1670785715[] = {
/* columns rows colors chars-per-pixel */
"72 72 196 2 ",
"   c #000000",
".  c #0C0C0C",
"X  c #150101",
"o  c #1C0101",
"O  c #150D0D",
"+  c #1C0B0B",
"@  c #131313",
"#  c #1C1C1C",
"$  c #260202",
"%  c #2B0000",
"&  c #280C0C",
"*  c #320000",
"=  c #3D0000",
"-  c #360808",
";  c #3B0A0A",
":  c #251313",
">  c #2B1313",
",  c #2A1D1D",
"<  c #351C1C",
"1  c #381919",
"2  c #242424",
"3  c #2B2B2B",
"4  c #352525",
"5  c #3C2424",
"6  c #372B2B",
"7  c #333333",
"8  c #3D3131",
"9  c #3B3B3B",
"0  c #440000",
"q  c #4D0101",
"w  c #460B0B",
"e  c #4F0E0E",
"r  c #540101",
"t  c #5B0000",
"y  c #550E0E",
"u  c #5C0C0C",
"i  c #4F1212",
"p  c #471A1A",
"a  c #541313",
"s  c #5D1414",
"d  c #541B1B",
"f  c #5C1D1D",
"g  c #620202",
"h  c #7E0000",
"j  c #740A0A",
"k  c #641111",
"l  c #721212",
"z  c #452929",
"x  c #532222",
"c  c #5C2222",
"v  c #542A2A",
"b  c #5E2828",
"n  c #423535",
"m  c #4E3333",
"M  c #533535",
"N  c #5A3434",
"B  c #543B3B",
"V  c #692828",
"C  c #792C2C",
"Z  c #633232",
"A  c #693535",
"S  c #743636",
"D  c #434343",
"F  c #4B4B4B",
"G  c #514444",
"H  c #594747",
"J  c #534A4A",
"K  c #535353",
"L  c #5B5555",
"P  c #5B5B5B",
"I  c #644646",
"U  c #674949",
"Y  c #7D4A4A",
"T  c #675757",
"R  c #635C5C",
"E  c #705454",
"W  c #636363",
"Q  c #6E6060",
"!  c #6B6B6B",
"~  c #7E6464",
"^  c #737373",
"/  c #7C7C7C",
"(  c #840101",
")  c #8A0000",
"_  c #840D0D",
"`  c #930000",
"'  c #9C0404",
"]  c #8C1212",
"[  c #871818",
"{  c #861D1D",
"}  c #931919",
"|  c #9C1E1E",
" . c #A50000",
".. c #AB0101",
"X. c #AE0A04",
"o. c #B40101",
"O. c #BB0101",
"+. c #B30D0D",
"@. c #AB1400",
"#. c #A91818",
"$. c #B81818",
"%. c #AF2000",
"&. c #B02900",
"*. c #822222",
"=. c #8B2B2B",
"-. c #952424",
";. c #843333",
":. c #8D3131",
">. c #953838",
",. c #A12525",
"<. c #A12C2C",
"1. c #AB2C2C",
"2. c #AF3131",
"3. c #B33B3B",
"4. c #B83A3A",
"5. c #C10000",
"6. c #CB0101",
"7. c #CA0E0E",
"8. c #D20000",
"9. c #DD0101",
"0. c #DB0C0C",
"q. c #CD1010",
"w. c #C71919",
"e. c #D21313",
"r. c #DD1212",
"t. c #E10000",
"y. c #ED0000",
"u. c #E40909",
"i. c #EB0C0C",
"p. c #F50101",
"a. c #FD0000",
"s. c #FC0D00",
"d. c #F40A0A",
"f. c #EF1F00",
"g. c #FE1400",
"h. c #FE1B00",
"j. c #E51717",
"k. c #EB1515",
"l. c #F71616",
"z. c #CC2700",
"x. c #FA2700",
"c. c #EF3700",
"v. c #E73F00",
"b. c #FA3A00",
"n. c #FE3E00",
"m. c #C72E2E",
"M. c #C73838",
"N. c #CC3D3D",
"B. c #D93C3C",
"V. c #E02727",
"C. c #F32323",
"Z. c #C54500",
"A. c OrangeRed",
"S. c #EF5700",
"D. c #FF5300",
"F. c #D96E00",
"G. c #EE6F00",
"H. c #F96200",
"J. c #FE6D00",
"K. c #FC7D00",
"L. c #864545",
"P. c #825555",
"I. c #935C5C",
"U. c #A64545",
"Y. c #B25454",
"T. c #996262",
"R. c #867373",
"E. c #977979",
"W. c #A46C6C",
"Q. c #AD7878",
"!. c #B17979",
"~. c #C24E4E",
"^. c #CA4A4A",
"/. c #CF5050",
"(. c #E64B4B",
"). c #CA6161",
"_. c #D06060",
"`. c #D87070",
"'. c #D77878",
"]. c #D68B00",
"[. c #FF8300",
"{. c #FEA600",
"}. c #F5AF00",
"|. c #FFAF00",
" X c #FAD800",
".X c #FDDF00",
"XX c #838383",
"oX c #8B8B8B",
"OX c #9C8787",
"+X c #949494",
"@X c #9A9A9A",
"#X c #A59696",
"$X c #A0A0A0",
"%X c #B5B5B5",
"&X c #BCB5B5",
"*X c #C2B4B4",
/* pixels */
"                                                              P %X/ 2           W %X/ 2                                                         ",
"    . . @ @ @ @ @ @ @ . . . . .   . . . @ @ @ @ O o X X   . . W %XR.5 o o o o o Q %X/ 2 . . O o $ O @ @ . . . . . . .   . . . @ @ . . . . .     ",
"  . 2 9 F P P P K F D D D 7 3 # @ # 7 D F P K K A [ j x 3 2 # ! %XQ.-.) ( h ( h T.&XR.9 2 9 B V ) C L K F D D 9 7 2 # @ 2 9 F F F F 9 7 # @ .   ",
"  . D ! oX@X$X$X@XoX/ / ^ W K 9 3 7 K ^ oX$X@X+XY.j.e.;.F 9 7 / %X'.C.p.y.t.t.9._.*XoXJ D W R.M.a./.#X+XXX/ ^ ! K D 3 2 D ^ XXoXoX/ ^ P D 2 .   ",
"  . D / XXoXoXoXXX^ ! W P K F 9 2 7 F W ! / ^ ^ U.j.e.;.G V [ W.&X'.C.a.p.y.y.9._.*XOXS S P.E.N.a.^.OXoXXX^ ^ ! P F 7 2 F ^ oX+X+XXX^ P F 3 .   ",
"  @ F / / XX/ ^ ! P K K K F D 7 3 3 D K K K K P :.j.e.C B | 9.).*X'.C.a.a.p.y.9._.*X!.,.-.T.E.^.a.^.OXXX^ ^ ^ ! P F 9 2 F / +X@X@XXX! W K 7 .   ",
"  . 9 ! ! ! W P K F D D D 9 7 3 2 2 7 9 D D D D =.0.u.#.-.+.t.B.`.(.l.a.a.a.y.9.^.`.Y.#.#.U.~.V.a.4.R.^ ! W W W K F 7 # D ^ oX+X+XXX! W K 7 @   ",
"  . 7 P K F F F D 9 7 7 9 3 2 2 2 2 2 3 7 7 7 7 *.0.p.u.0.8.t.k.C.l.a.a.a.a.y.t.r.r.q...+.e.j.d.a.1.T P K P K K F D 3 @ D ! oXoXoX/ ^ W F 7 .   ",
"  . 2 F D 9 9 9 9 3 7 9 F D D 9 9 7 7 7 9 9 7 3 V $.j.d.a.y.t.f.n.n.n.x.g.a.x.v.v.v.z.X.o.t.a.u.q.=.G D F D D D 9 7 2 @ 7 P ^ XXXX/ ! W K 7 @   ",
"  . 2 9 7 7 7 3 3 2 7 K / ^ ! ! W W P K F D 7 2 B L.3.r.a.y.t.S.{.|.|.[.b.g.H.}.}.}.F.%.O.t.y.$.C N 9 9 9 9 7 3 3 # @ @ 2 9 K ! / ^ ^ P K 7 .   ",
"  . 2 7 9 9 7 3 3 2 3 W @XoXoXXX/ ^ ^ W P F 9 2 D W I.m.i.u.t.G. X.X.X|.A.h.K..X.X X].&.o.6.q.*.9 7 7 7 7 7 7 3 2 # # # # 3 9 P ^ ^ ^ P F 7 .   ",
"  . 3 K P P K K D 3 3 F ^ ^ ! W W W P K F F 7 2 F ^ R.Y.4.w.9.c.J.J.J.D.x.s.b.G.F.F.Z.@.' ] { v 3 3 2 9 F K K K F D 9 7 3 3 9 W ^ ^ ^ P F 3 .   ",
"  . D ! ^ XX/ ^ P 9 2 9 K F K K K F D D D D 3 2 K oX+X/ ~ 2.t.y.a.a.a.a.a.a.y.t.6.5.o..._ x 3 2 2 2 , 9 W ^ / / / ^ P K D 3 7 W XX^ ^ P D 3 .   ",
"  . D / XXoX/ ^ P 9 3 7 9 D D 9 9 7 7 3 3 3 3 2 D W ^ ! E 1.t.y.p.p.a.a.a.a.y.t.8.5.o. .] A F D 9 3 3 D ! / oXoX/ ! W K 9 3 7 K W W W F D 2 .   ",
"  @ D XXXXoXXX^ W D 7 7 7 7 7 3 2 2 2 2 2 2 2 # 7 F K K U -.t.t.9.y.a.a.a.a.y.t.8.5.o. .} L.! P F 9 7 F ^ XX+X@XXX^ W K 9 3 3 D K K K D D 2 .   ",
"  . 9 ! / XXXX/ ^ P F F D D 7 3 3 3 9 F D 9 7 3 3 9 9 9 m { O.O.O.8.p.a.a.a.y.9.5... .` [ I P K F 9 3 F ! XXoXoX/ ! P F 9 3 2 7 9 D 9 9 7 2 .   ",
"  . 7 P W ^ XXXXXX^ ^ ! W F D 7 7 D W / ! W D 7 3 3 3 3 4 k ` ` ) O.y.a.a.a.y.t.o.) ) ( l N D D D 7 2 D ! / / ^ ^ ^ P D 7 2 2 2 3 3 3 3 2 # .   ",
"  . 3 F P W ^ XXoXoXXX/ ^ P D 9 3 D ! XX/ ^ K 9 3 2 2 3 8 b *.] ' o.8.t.t.9.8.5...` ( j k z 9 9 9 3 2 9 P ! ! ! W W K D 7 3 3 7 7 7 7 3 3 # .   ",
"  . 2 D F P ! ^ XXoX+XXX^ P F 9 3 9 P / / / W F 7 3 3 D L T E <.O.O... . . . .' ...._ f z 4 3 3 3 2 2 3 D F K P K F F D 9 3 7 F P K P F D 2 .   ",
"  . # 9 D F K W ^ XXoX/ ! P K 9 3 7 P ^ ^ XXW K D 3 7 P / / R.U.w.o.' ) ) ) ) ) ' +.{ m 9 7 3 3 3 3 2 3 3 7 D F D D 9 9 9 9 D P ^ ^ ^ W K 7 .   ",
"    # 9 9 9 D F K W W W P K D 9 2 9 W XX/ / W K 9 3 9 ! oXXX/ P.:.| ..o. . . . .-.>.Y T P W W P F D 9 7 3 3 7 7 7 7 9 7 D K P ! / XXoX! K 7 .   ",
"  . # 3 7 7 7 3 7 9 D F K D D 7 3 9 ! oX/ ^ P K 9 3 n / @XXX! P K ;.7.9.6.O.O.5.>.~ ^ XXoX+X@XoX! W K 9 2 2 # 2 3 7 3 7 D W ^ / XX+X@X/ K 7 @   ",
"  . 7 P K K F D 9 9 9 9 D 9 7 3 2 7 P ! W P K F 9 3 9 P ^ W P F 9 b l l j l l l A R W ! ^ XXoX/ ^ P F 9 3 2 3 7 9 D 9 D K W / / oXoXoX! K 7 @   ",
"  . D / ^ ! P K D 9 7 3 7 3 2 # 2 3 D K K K F D 9 7 9 F K F D 7 2 2 , 2 , , , , 9 F K K P ^ XX/ ^ K D 7 2 2 7 D D F K F P ! / XXoX/ ^ P K 7 .   ",
"  . F XX/ / W P D 9 7 9 F D D 9 3 3 9 D D D D D 7 3 7 7 9 9 7 2 @ @ @ @ @ . @ @ 3 9 9 9 F W ! W W F 9 3 2 3 7 7 9 9 9 9 F K W / XX/ ^ P F 3 .   ",
"  @ K oXXXXX! P F 9 7 F W ! ! P 7 7 7 7 7 7 9 D 7 3 2 3 3 2 2 @ . .   . . .   . # 2 3 2 7 F P P P 9 3 3 3 3 2 3 3 3 3 3 7 7 F ! / / ^ P D 3 .   ",
"  @ K +XXX/ ! K D 7 7 K ^ / XX! K D 9 7 7 3 7 7 3 2 # # @ @ @ .                 . @ # @ 2 7 D D D 7 3 7 9 9 7 7 9 D 7 3 3 3 D W / ^ ^ K D 2 .   ",
"  @ P @XoX/ W F 9 7 3 P / XXoX/ ! P K D 7 2 3 3 3 2 # . . . . .                   . . . @ 2 7 3 3 9 9 F P P P P ! ^ P D 7 3 9 P ^ ^ ^ P D 3 .   ",
"  @ K +XXX! P D 9 3 3 K / XXoXoXXX^ P F 7 2 # # # # . .                                 . @ # # # 7 F K W ! ^ ^ oX@X^ K D 3 7 K ! ! ! K 9 2 .   ",
"  . D ^ ! P K D 9 3 3 K ^ XXXXXX/ ! P D 7 # # . . . . .                                   . . . . 2 7 D P W ^ / / XX! K 9 3 3 F P K K D 3 # .   ",
"  . 3 K K K F D 7 3 3 F ^ ^ XX/ ^ W F 9 3 2 .                                                     . # 7 D P ^ XX^ ^ W K 9 3 3 D F F D 3 2 @     ",
"  . # 7 7 9 7 7 3 2 3 D W W W W P F 9 3 # @ .                                                     . . 2 7 F W / ! W K D 7 2 2 7 9 7 3 3 2 @ .   ",
"    @ 2 2 2 2 2 2 # 3 9 K K K F D 9 3 # @                                                             . # 9 W ^ W K D 7 3 2 2 2 2 2 2 # 2 @ .   ",
"  . 3 D D 9 7 7 3 3 3 7 9 9 9 9 9 7 3 # .                                                             . # 9 W / W K D 7 7 9 D 9 D D 9 9 7 # .   ",
"  . 9 ! ! P P F D 7 3 3 3 3 3 3 7 3 2 # .                                                             . # 7 W / W F D 7 D P W ! ! W W K F 3 .   ",
"  . D / / / ! W K F 9 7 3 2 2 3 7 7 3 # .                                                             . # 7 W / ! K 9 3 F ! / / / / ! W K 7 .   ",
"  . D ^ / XXXX^ ! W P F D 3 2 3 9 9 3 # @                                                             . # 7 W / W F 9 3 F / oXXX/ / ! W K 7 .   ",
"  . D ^ / oXXXXX/ ^ ! P K 9 2 7 F D 7 # .                                                             . # 9 P / W K 7 2 F XX+XoXXX^ ^ P F 7 @   ",
"  . D / / / / XX/ / ! W F 9 3 9 F D 3 # .                                                             . # 7 P ^ W K 7 2 D ^ XXoXoX/ ^ W K 7 @   ",
"  @ D XX/ ^ ^ / / ^ ! P K 9 7 9 F D 7 # .                                                             . @ 7 P ! P K 9 2 9 W / XXoX/ ! P K 7 .   ",
"  . 9 W W W W P P P K F D D K F D 9 3 # .                                                             . # 3 D F D 9 3 2 7 D P / XX/ ! P K 7 @   ",
"  . 3 K K K F F D D D 9 7 K W P F 9 3 # .                                                             . # 2 3 7 3 2 2 # 2 7 F W XX^ ^ W K 7 .   ",
"  . 2 D D 9 9 7 7 7 7 7 3 K ^ W F 9 3 # .                                                             . # 3 9 F D 9 9 7 7 3 D W / ^ ^ P K 7 .   ",
"  . # 7 3 3 3 2 2 3 2 3 7 K / W F 7 3 # .                                                             . # 3 F W W P K F 9 7 D P ^ ^ ! W K 7 .   ",
"  . 2 D 9 7 7 3 3 2 2 3 7 K ! W F 9 3 # .                                                             . # 7 K ^ ^ ^ W K D 7 9 K W ! ! P F 7 .   ",
"  . 7 P P K K D 7 3 2 3 9 D K F D 7 3 # @                                                             . # 7 P ! ! ! W K D 3 7 F P P P K K 7 @   ",
"  . 9 ^ ^ ^ W K D 7 2 7 9 9 9 9 9 7 3 # .                                                             . # 7 P ^ ! ! P F 9 2 3 9 F F F F F 3 .   ",
"  . D / / XX^ P D 7 3 3 3 7 3 7 7 7 3 # .                                                             . # 7 P ^ ! W F D 7 2 3 7 D 9 9 9 7 2 .   ",
"  @ D XXoXoX/ P F 9 7 2 2 # 2 2 3 3 2 # .                                                             . # 7 W / W K D 7 3 2 2 3 7 7 3 3 # @ .   ",
"  @ F XXoXXX/ W K F 9 3 2 7 D D 9 9 3 2 # # O X X o o X X o o o X X o o X X o o o X o o o X X O # . . @ # 9 ! oX! F 9 3 7 D F K K K K D 9 2 .   ",
"  @ K +XoXXX^ ^ W K F 7 2 D ! P K D 3 2 2 3 > $ % * * % $ % = % $ % * * % $ * = % $ % * * % & : 3 # . @ # D ^ +X^ F 9 2 9 P ! ^ / ^ ! P F 7 .   ",
"  @ D ^ ^ ! ! W P K D 7 # K / ^ P D 3 2 2 2 : & % * * % % * * % % % * * % % * * % % % * * % & : 2 # @ @ # D ^ +X^ K 7 2 D ! / / / ^ ! W K 7 .   ",
"  . 7 P P P K F F D 9 3 2 P +X/ P D 7 # # @ + $ % % % % $ % % % $ % % % % $ % % % $ % % % % $ + # @ @ @ # 9 ! oX! K 7 2 F ^ XX/ ^ ^ ! W K 7 .   ",
"  . 2 F D D 9 9 7 9 7 3 2 P +X/ W D 3 2 # # : & & % % * * % % * * % % % * * % % % * * % % % % & @ # # # 2 9 W XX! F 7 2 D / XXXX/ / ^ W F 7 @   ",
"  . # 9 7 7 3 3 3 3 3 3 3 W oX/ P D 3 # 2 2 3 6 1 - = = 0 = * = 0 = = = 0 0 = * = 0 = = = 0 0 1 2 3 7 3 2 7 P ^ P D 7 2 D ^ oXoXoXXX/ ! K 7 @   ",
"  . # 7 7 2 2 2 2 2 3 7 9 W oX^ P D 3 2 3 7 9 9 z ; 0 0 q 0 = 0 q 0 0 = 0 q 0 = 0 q 0 = 0 0 w 1 7 7 9 7 2 7 P ! K D 7 2 D ! XX+X@XoX/ W F 7 .   ",
"  . 7 K F 9 7 2 3 9 K K P ! / ! K 9 3 2 2 7 7 7 5 ; = 0 0 = = 0 0 0 = = 0 0 0 = 0 0 0 = = 0 0 < 3 7 7 3 2 7 P ! K D 7 3 D ! / XXoXXX/ P F 3 .   ",
"  . 9 ! P K 9 2 7 P ^ ^ XX/ ^ P F 7 3 2 3 3 7 3 < ; = = = = = = = = = 0 = = = = = 0 = = = = ; < 7 7 7 3 2 7 K ! K D 7 7 F W ^ / / ^ ! P D 3 .   ",
"  . 9 ^ W K D 7 7 K W W ! P P F D 9 3 2 7 D 9 D z w w p z z z p 0 0 0 0 0 0 0 0 0 0 0 0 w p z n D 9 D 7 3 3 D F D 7 7 2 7 F P ! / ^ ^ P F 3 .   ",
"  . D ! W K D 7 9 D K K K F D D D 7 3 2 9 F F K m e i m J F F x r q r q r r q r q q r q a m F F K F F 9 3 2 3 7 7 7 3 2 3 7 D P ! ^ ^ P K 3 @   ",
"  @ F XXW F D 7 7 9 9 9 9 9 7 7 7 7 3 3 D K K K m y a M F K K B x a r t r r r t r q r t a B F K K K K 9 2 3 F K K F 9 7 3 3 9 F W W W P F 3 .   ",
"  @ K +X! F 9 7 3 3 3 3 3 2 3 3 7 3 2 2 D P K K M u k M K P P L G v u t t q t t t r t t s M K P P P K 9 3 9 ! XX^ W K D 9 3 7 D K P P F D 3 .   ",
"  @ P @X^ K D 9 7 2 2 7 D 9 7 7 9 7 2 3 D P P F B c b B K K P K F B f s a a u t t q r s c B K K P K K 9 3 9 ^ +XXX^ W K 9 3 3 7 D D F 9 9 2 .   ",
"  @ K +X/ W P F 9 3 3 K ^ W P K F 9 3 2 9 K K J G B B J K K K K K G B B M v d t r r d v B J K K K K K 9 3 9 ^ +XXX! W K 9 3 2 3 3 7 9 7 3 # .   ",
"  @ F oX/ ^ W K D 3 7 W @XoX^ W K D 7 2 9 K K K K K K K K F K K K K K K F J v y r r d G F K K K K F K 9 3 9 ! oX/ ^ P K 9 3 2 3 3 7 9 3 2 @ .   ",
"  . F / / ^ W F D 7 7 W oXXX^ W P D 3 3 D P K P K P K P P P P P K P P P P L H M f t c J P P P P P P P D 3 9 W XX/ ! P F 9 2 3 D K K K D 7 2 .   ",
"  . 9 ^ ! ^ P F 9 7 9 P XX/ ^ W P D 3 3 D P W P W W W W W P P W W W P W P W P W Z g V H W W P W P W P D 3 9 W / / ^ K D 7 2 9 W / ^ ^ K D 3 .   ",
"  . 9 P P P F D 9 7 9 F W W W K F 9 3 3 F ! W W W W W W W W ! W W W W ! W W W ! U A U R W W W W ! W W F 3 7 K W P P F D 7 3 9 K ! W W K D 2 .   ",
"  . 3 K F D D D 9 7 7 D K K K F D 9 3 2 F ^ W W W ! ! W W W ^ W W W ! ! W W ! ^ W R W ! ! W W ! ^ W P F 3 3 D K F D 9 D 9 7 9 F K K K F D 2 .   ",
"  . # 7 3 3 3 2 2 # 2 3 7 7 7 3 2 2 # @ 7 D D 9 D D D D 9 D D D 9 9 D D 9 9 D D D D D D D n 9 D D D 9 3 # # 2 7 3 3 3 2 2 # 2 3 7 7 7 3 2 # .   ",
"    . . . . . . . . . . . @ . . . . . . . @ @ @ @ @ @ @ @ @ @ @ @ @ @ @ @ @ @ @ @ @ @ @ @ @ @ @ @ @ @ . . . . . . . . . . . . . . . . . . .     ",
"                                                                                                                                                "
};
