/* XPM */
static char *result[] = {
/* columns rows colors chars-per-pixel */
"72 72 234 2 ",
"   c #010000",
".  c #0A0505",
"X  c #060C0B",
"o  c #0D0B0A",
"O  c #0D0808",
"+  c #140C0B",
"@  c #160B09",
"#  c #1B110C",
"$  c #11120E",
"%  c #170B10",
"&  c #1B0E13",
"*  c #0C1A18",
"=  c #1C1915",
"-  c #1A1915",
";  c #08110F",
":  c #23140D",
">  c #221413",
",  c #24131A",
"<  c #2A141E",
"1  c #2B1A1A",
"2  c #291A13",
"3  c #3D1A11",
"4  c #341D1C",
"5  c #311E15",
"6  c #29110F",
"7  c #14221C",
"8  c #23231D",
"9  c #2F261E",
"0  c #39241B",
"q  c #2E1620",
"w  c #2E1921",
"e  c #331A23",
"r  c #381E26",
"t  c #162B27",
"y  c #1B3835",
"u  c #132A2B",
"i  c #2B2A25",
"p  c #3D2424",
"a  c #3E222B",
"s  c #332927",
"d  c #33332B",
"f  c #3E352A",
"g  c #293739",
"h  c #393936",
"j  c #27382F",
"k  c #482A1D",
"l  c #552B1E",
"z  c #4D301F",
"x  c #422B22",
"c  c #452828",
"v  c #493427",
"b  c #553524",
"n  c #55372B",
"m  c #442430",
"M  c #4C2B31",
"N  c #482730",
"B  c #532D31",
"V  c #4A3B37",
"C  c #543234",
"Z  c #5B3332",
"A  c #5D3B39",
"S  c #5A3A35",
"D  c #532D2D",
"F  c #633C2A",
"G  c #613532",
"H  c #643C33",
"J  c #6B3D34",
"K  c #643E3A",
"L  c #723C2B",
"P  c #401E15",
"I  c #26463B",
"U  c #3F4036",
"Y  c #46463A",
"T  c #5A4637",
"R  c #5D402B",
"E  c #67422D",
"W  c #6B4335",
"Q  c #64423C",
"!  c #6C453C",
"~  c #644535",
"^  c #734435",
"/  c #7B4B36",
"(  c #734B3C",
")  c #79483E",
"_  c #794638",
"`  c #77523C",
"'  c #704634",
"]  c #313D41",
"[  c #183A42",
"{  c #254A48",
"}  c #384446",
"|  c #2C5044",
" . c #345B4C",
".. c #214D58",
"X. c #2C5956",
"o. c #395756",
"O. c #386859",
"+. c #336055",
"@. c #2E6466",
"#. c #356B66",
"$. c #3A726B",
"%. c #3C7B75",
"&. c #3C7A74",
"*. c #484945",
"=. c #56564A",
"-. c #50564D",
";. c #664841",
":. c #7A4E41",
">. c #744B42",
",. c #6A5648",
"<. c #7C5243",
"1. c #765549",
"2. c #665A50",
"3. c #596458",
"4. c #49665B",
"5. c #67685A",
"6. c #766553",
"7. c #7B6954",
"8. c #447768",
"9. c #557368",
"0. c #437C74",
"q. c #517168",
"w. c #667969",
"e. c #717563",
"r. c #814F38",
"t. c #844B36",
"y. c #85523A",
"u. c #8B573A",
"i. c #885A3D",
"p. c #93573E",
"a. c #825544",
"s. c #8B5C45",
"d. c #875A46",
"f. c #985B45",
"g. c #845348",
"h. c #A85A44",
"j. c #A65A44",
"k. c #8C6249",
"l. c #94634B",
"z. c #9A654B",
"x. c #9C694D",
"c. c #986144",
"v. c #896A56",
"b. c #996956",
"n. c #8D745C",
"m. c #9D795A",
"M. c #A4694D",
"N. c #B2664D",
"B. c #A26D54",
"V. c #AB6C51",
"C. c #B26A50",
"Z. c #B96E53",
"A. c #A67151",
"S. c #AC7452",
"D. c #AB7659",
"F. c #BE7355",
"G. c #B57C55",
"H. c #B97F57",
"J. c #BC7B5D",
"K. c #B4775B",
"L. c #A7734E",
"P. c #8F7962",
"I. c #B07C63",
"U. c #C5795B",
"Y. c #C57E60",
"T. c #3F817A",
"R. c #42857C",
"E. c #49897A",
"W. c #538778",
"Q. c #559478",
"!. c #4D8C74",
"~. c #6B8C74",
"^. c #BE8359",
"/. c #B88359",
"(. c #A9845A",
"). c #9C9577",
"_. c #91896D",
"`. c #B78764",
"'. c #A69571",
"]. c #BB9778",
"[. c #AB8E6B",
"{. c #95A27A",
"}. c #AAAB78",
"|. c #C6845F",
" X c #CE8C6A",
".X c #C98565",
"XX c #D58D6A",
"oX c #D58B68",
"OX c #D8926E",
"+X c #D99D7B",
"@X c #DB9773",
"#X c #C79778",
"$X c #E39C76",
"%X c #E39E78",
"&X c #D4A972",
"*X c #E5A27B",
"=X c #E4BE75",
"-X c #4C9483",
";X c #549D88",
":X c #519885",
">X c #488D80",
",X c #6C9D81",
"<X c #56A18B",
"1X c #5AA58C",
"2X c #5CA689",
"3X c #5EAC90",
"4X c #66AA8B",
"5X c #64B394",
"6X c #69B997",
"7X c #6BBD99",
"8X c #6BB694",
"9X c #75BB96",
"0X c #6FB190",
"qX c #6EC19C",
"wX c #88AC86",
"eX c #8EB691",
"rX c #A49A82",
"tX c #C79C81",
"yX c #CDA784",
"uX c #D7AC87",
"iX c #D7B58F",
"pX c #E7AC85",
"aX c #ECB089",
"sX c #F1B78E",
"dX c #E9BA93",
"fX c #F4BD93",
"gX c #9AC59E",
"hX c #F8C59B",
"jX c #EEC39A",
"kX c #FCCDA2",
"lX c #F7CBA1",
"zX c #FFD2A6",
"xX c #E3CEA3",
"cX c None",
/* pixels */
"cXcXcXcXcXcXcXcXcXcXcXcXcXcX      cXcXcXcXcXcXcXcXcXcXcXcXcXcXcXcXcXcXcXcXcX                                                      cXcXcXcXcXcXcX",
"cXcXcXcXcXcXcXcXcXcXcXcXcXcXO + + . cXcXcXcXcXcXcXcXcXcXcXcXcXcXcXcXcXcXcXcX@ # # # # # # # # @ @ + + @ # # # # # # # # @ O .     cXcXcXcXcXcXcX",
"cXcXcXcXcXcXcXcXcXcXcX  . # 1 4 5 : .   cXcXcXcXcX                      O 2 k b b b b b b b b b x 0 k x z b b b b b b b z 0 #     cXcXcXcXcXcXcX",
"cXcXcXcXcXcXcXcXcXcXcX  O 6 c G c 2 O     cXcXcX.   . .   . . . . . . . @ 0 F u.i.u.p.u.u.u.u./ _ H J _ y.u.u.u.u.u.u.u./ b 2     cXcXcXcXcXcXcX",
"cXcXcXcXcXcXcXcXcXcXcX  . > x G c 6 O         % > 5 4 4 4 4 4 4 4 0 0 z b E / u.u.u.u.u.u.u.u.y.t._ _ r.y.u.u.u.u.u.u.u./ b 2     cXcXcXcXcXcXcX",
"cXcXcXcXcXcXcXcXcXcXcX  O 6 p G c 2 O         : 0 D G G G G G G G E / / u.u.u.u.u.u.u.u.u.u.u.u.u.u.u.u.u.u.u.u.u.u.u.u./ z 9     cXcXcXcXcXcXcX",
"cXcXcXcXcXcXcXcXcXcXcX  . 6 4 B c e < & & & & e c Z G G G G J L ^ / / u.u.u.u.u.u.u.u.u.u.u.u.u.u.u.u.r./ ^ r.y.u./ ' b z 0 :   cXcXcXcXcXcXcXcX",
"cXcXcXcXcXcXcXcXcXcXcX  . % e N m a a r r a r N B Z G G G G J _ r.u.u.u.u.u.u.u.u.u.u.u.u.u.u.u.u.u.r./ ^ J ' / u.E z : O O cXcXcXcXcXcXcXcXcXcX",
"cXcXcXcXcXcXcXcXcXcXcX  . & q m m m m m m M M B D G G H E ' / r.u.u.u.u.u.u.u.u.u.u.u.u.u.u.u.u.u.u.y.^ J G ^ / u.E k #     cXcXcXcXcXcXcXcXcXcX",
"cXcXcXcXcXcXcXcXcXcXcX  . % w m m m m m M D Z G G G H ^ / r.y.u.u.u.u.u.u.u.u.u.u.u.u.u.u.u.u.u.u.u.t._ J G ^ / u.E k #     cXcXcXcXcXcXcXcXcXcX",
"cXcXcXcXcXcXcXcXcXcXcX  . & e N N M M B Z G L J J J ^ / y.u.u.u.u.y.t.t./ / t./ r.y.u.u.y.r./ / / / / ^ ^ J E F F z 3 #   cXcXcXcXcXcXcXcXcXcXcX",
"cXcXcXcXcXcXcXcXcXcXcX  O & p Z Z Z D G J _ r.r.r.t.t.y.u.u.u.u.u.r./ ^ J J J J ^ / u.y./ ^ J J J W W _ / _ b k : : # cXcXcXcXcXcXcXcXcXcXcXcXcX",
"cXcXcXcXcXcXcXcXcXcXcX  . > p Z Z Z G G W / r.y.u.u.u.u.u.u.p.c.c.c.d.:.) ) >.) r.s.c.f.s.r.) ) / ) ) ^ ' E z 5 .   cXcXcXcXcXcXcXcXcXcXcXcXcXcX",
"cXcXcXcXcXcXcXcXcXcXcX  . # 4 M B Z Z G H J ^ ^ r.u.u.u.u.u.x.S.^.^.J.K.K.K.K.I.K.J.Y.`.J.K.K.K.K.K.z.( z 0 2 : cXcXcXcXcXcXcXcXcXcXcXcXcXcXcXcX",
"cXcXcXcXcXcXcXcXcXcXcX  . % e m M B Z G G G H ^ _ r.y.u.f.c.V.J..XoX XoXoX XoX XXXoX X X@X@X$X$XOXoXD.W 0 . . cXcXcXcXcXcXcXcXcXcXcXcXcXcXcXcXcX",
"cXcXcXcXcXcXcXcXcXcXcX  . : r B Z D G H L ^ _ _ ^ ^ y.c.V.J.A.f.d.y.y.a.y.a.y.y.a.y.y.f.D. X$X.XV.s.^ b 3 : @ O   cXcXcXcXcXcXcXcXcXcXcXcXcXcXcX",
"cXcXcXcXcXcXcXcXcXcXcX  O > p Z G G G K J a.p./ J J ) B.Y.OXV.) P 3 3 3 3 3 3 3 3 3 3 l g.J.pXZ./ l 3 3 3 3 : @ .   cXcXcXcXcXcXcXcXcXcXcXcXcXcX",
"cXcXcXcXcXcXcXcXcXcXcX  . & p B B B B C G J _ J J G ) B.Y.@XY.C.p.t.L t.t.t.t.t.t.L L L f.N.U.C.f.u.L l 3 # @ . . cXcXcXcXcXcXcXcXcXcXcXcXcXcXcX",
"cXcXcXcXcXcXcXcXcXcXcX  . # e m m m m N B Z G G G G ) b.Y.$XOXY.U.U.U.U.Z.Z.Z.U.N.N.h.j.j.h.h.h.Z.Z.f.F 5     cXcXcXcXcXcXcXcXcXcXcXcXcXcXcXcXcX",
"cXcXcXcXcXcXcXcXcXcXcX  + s Q b.v.b.g.g.:.J G J ) g.j.J. XtXY.N.p.t.u.t.u.N.U.oXU.U.h.h.h.h.j.j.p.u.W k :     cXcXcXcXcXcXcXcXcXcXcXcXcXcXcXcXcX",
"cXcXcXcXcXcXcXcXcXcXcX  = T m.sXpXpX@XY.M.:.G ) f.C.U.oXOXOXN.g.l l l k G t.K.$XY.U.h.h.h.h.h.t.L l P 6 O     cXcXcXcXcXcXcX                    ",
"cXcXcXcXcXcXcXcXcXcXcX  = Q [.hXsXsXaXtXD.:.B ) z.Z.Y.oXOX$XJ.b.t./ <./ g.D.#XpX$XU.N.h.h.h.h.f.s.t.H 0 :     cXcXcXcXcXcX$ - - 8 7 i 8 - o     ",
"cXcXcXcXcXcXcXcXcXcXcX  = ~ [.hXhXfXfXpXI.>.N ) j.Z.Y.oXOX$XpXuXuXiXuXuXuXdXjXhXpXY.N.h.h.h.h.Z. XyX[.,.s     cXcXcXcX  O 7 d Y *.2.5.3.h -     ",
"cXcXcXcXcXcXcXcXcXcXcX  = T v.#XtXtXtXtXP.g.G g.h.U.Y.OX$XaXsXhXkXzXzXzXzXzXzXzXfXuXY.U.J.J.U.tXpXlXuXv.v       cXcX$ $ = d Y =.3.5.e.5.Y -     ",
"cXcXcXcXcXcXcXcXcXcXcXcXcXs v V A ;.1.g.s.l.z.N.F.U.oX$XaXhXhXlXzXzXzXzXzXzXzXzXhXfXaXpXpXpXpXdXjXlXuX7.f         $ 7 d Y Y Y =.=.3.2.3.f 7     ",
"cXcXcXcXcXcXcXcXcXcXcXcXcXcX    % , r N ) B.Y.Y.Y.U.oXpXfXzXzXzXzXzXzXzXzXkXkXkXhXhXkXkXlXzXzXzXzXzXuXv.v . X   X = i Y =.=.=.3.=.=.Y Y i $     ",
"cXcXcXcXcXcXcXcXcXcXcXcXcXcXcXcXX % & q ! A.OXOXOXoX$XaXfXzXzXzXzXzXzXzXkXhXfXaXaXaXaXaXhXlXzXzXzXzXuXP.=.8 i - - 8 i U Y -.=.=.Y h i = = $ cXcX",
"cXcXcXcXcXcXcXcXcXcXcXcXcXcXcXcXcX    & R B.OX@X$X$XpXaXhXkXkXzXzXzXzXzXhXfXaX$X$X$XpXpXaXhXzXlXlXlXuX_.,.h d i i i d h U U *.T Y 8 X     cXcXcX",
"cXcXcXcXcXcXcXcXcXcXcXcXcXcXcXcX      O 0 n ( l.J.OX$XpXaXsXfXhXzXzXzXzXzXhXhXsXsXsXsXfXhXkXzXiXtX).v.,.V s s s d d d d j i d i i - X cXcXcXcXcX",
"cXcXcXcXcXcXcXcXcXcXcX                .       v s..X$X$X$X$XaXfXlXzXzXzXzXzXzXzXkXhXzXzXzXzXzXtXv.A a r e < p d h d d i 8 = ;     cXcXcXcXcXcXcX",
"cXcXcXcXcXcXcXcXcX* u y y y y y y { | | I I y *.e._.).rX).rX).rXrXrXtX#X+X+X+X+XtXpXtXtXtX).rX7.1.;.B m r < w s s s s d i 7 $     cXcXcXcXcXcXcX",
"cXcXcXcXcXcXcX    * y X.$.#.$.$.R.Q.;XQ.Q.%.#.&.0.0.W.W.W.W.q.#.#.3.6.b.C.C.C.C.N.Z.Z.h.>.*.] } ;.>.K B r < < < < i s f d 8 $     cXcXcXcXcXcXcX",
"cXcXcXcXcXcX7 j I O.$.R.:X:X:XQ.;X<X1X1X<X;X:X-X>XT.T.T.T.%.&.@.@.o.3.2.1.>.,.1.>.>.>.K A ] ] V Q >.>.K C M V h ] g g i 8 = $   cXcXcXcXcXcXcXcX",
"cXcXcXcXX X I  .Q.Q.2X5X5X6X5X5X3X<X-X-X<X3X5X1X>X>XT.T.T.T.T.&.&.$.#.o.o.o.o.o.o.] ] g h V V Q >.:.g.:.( ( =.-.4.X.g * o o cXcXcXcXcXcXcXcXcXcX",
"cXcXcXcX  X I !.8XqXqXqXqXqXqXqX5X1X:X-X;X3X3X<X-X>XT.T.T.T.R.>X>X>X%.$.#.#.@.#.X.{ ] g V ;.>.g.d.f.s.d.d.a.5.9.0.@...t 7 * cXcXcXcXcXcXcXcXcXcX",
"cXcXcXcX  X I !.5XqXqXqXqXqXqXqX7X6X5X3X<X:X-X>XT.T.T.T.T.R.-X<X3X3X3X1X<X2X2X<XW.3.*.T 1.l.V.V.D.D.A.z.s.a.5.9.0.%.$.#.X.y t     cXcXcXcXcXcXcX",
"cXcXcX7 7 7  .Q.8XqXqXqXqXqXqXqXqXqXqX6X<X-XT.T.T.T.T.>X>X>X<X3XqXqXqXqXqX0X0X4X~.e.,.<.c.L.^.^.^.^./.m.v.7.w.9.%.T.T.T.$.X.y * * ; cXcXcXcXcXcX",
"    7 I O.!.Q.Q.qXqXqXqXqXqXqXqXqXqXqX6X<X-XT.T.T.T.>X-X1X3X5X6XqXqXqXqX8X4X~.5.6.v.x.L.G./.^.^.^.^.[._.{.~.Q.!.T.T.T.T.%.$.@.X.{ u X   cXcXcXcX",
"    7 +.Q.qXqXqXqXqXqXqXqXqXqXqXqXqXqX6X<X-XT.T.T.T.>X:X3X6X6X7XqX6X8X0X4X~.2.! y.x./.^.^.^.^././.`.'.{.9X8X2X;XT.T.T.T.T.T.T.T.@.y ;     cXcXcX",
"    7  .!.qXqXqXqXqXqXqXqXqXqXqXqXqXqX6X<X-XT.T.T.T.T.>X-X;X3X0X6X0X~.~.e.7.v.z.x.L./.^.^.^.|.[.'.{.{.9X9XqX3XQ.R.T.T.T.T.T.T.T.+.y X     cXcXcX",
"    7  .!.qXqX6XqXqX6X6XqXqXqXqX7X6X6X3X<X!.T.T.T.T.%.0.0.T.-X<X8X~.~.,.( d.B.^.^.^.^.^.^././.{.wX9XqXqX7X7X1X-XT.T.T.%.%.T.%.T.X.y X     cXcXcX",
"    * | $.1X<X<X<X1X<X<X<X3X5XqX1XE.4.+.O.&.T.T.T.T.0.8.4.3.9.9.~.e.7.k.l.M.G.^.^.^.^./.[.'.{.{.eX9XqXqXqX7X;XE.#.@.@.@.@.@.@.@...u X     cXcXcX",
"    * I O.T.T.T.T.T.T.T.E.:X3XqXQ. .7 * [ +.T.T.T.T.0.3.-.K Q K Q 1.k.A.H.H.^.^.^.|.^./.{.wXqXqX7X7XqXqXqX7X-X&.................[ u X     cXcXcX",
"    7 | $.;X;X;X:X<X<X<X:XE.!.O.| t X X 7 y {  .4.3.3.2.,.>.1.g.s.l.B./.^.^.^././.[.{.{.{.9XqXqXqXqX7X5X3X;XE.&.#.@.@.@.@.@.@.@.{ u X     cXcXcX",
"    7  .!.6X6X6X6X6X6XqXQ.8.I $ ; X       X ; 9 T ;.1.1.<.<.f.x.D.H.H.^.^.^././.[.{.0X9X9XqXqXqXqXqX6X1X:XE.R.0.%.%.%.%.%.%.%.%.X.y ;     cXcXcX",
"    7 -.~.eXeXgXgXgXgXgXeXw.I           X o + 1 c Z ! ( <.g.l.M.L.S.S.S.D.(.[.'.{.wX9XqXqXqXqXqXqXqX4XE.$.X.O.q.9.w.w.w.9.w.w.w.-.j ;     cXcXcX",
"    2 ! (.&XiXiXxXxXxXxXiX_.Y         . % q r r r r c S >.<.g.s.s.d.s.s.k.n.{.eX9X9XqXqXqXqXqXqXqXqX<XO.I * v ! b.b.B.B.B.b.b.B.>.v @     cXcXcX",
"    8 >.`.*XjXhXhXzXzXzXjX'.6.f s 1 % % - e r r q q s V ;.6.2.6.6.6.6.2.5.~.Q.3X5X5X5X5X4X5X4X5X5X8XQ.4.Y x H g.N.F.Z.U.U.U.U.Y.f.b @     cXcXcX",
"    9 7.].jXhXkXzXzXzXzXhXiXyX'.n.;.m q q q q q q < r ] 4.9.q.q.9.9.q.q.9.W.W.-X-X-X-X-X:X-X-XE.:X:XQ.e.v.b.B.C.Z.U.U.oXoXoXoXoXx.n #     cXcXcX",
"    9 7.].zXzXzXzXzXzXzXzXzXkXkXyXP.A a r q < < < < ] ] o.&.0.$.&.$.$.&.$.0.0.0.W.W.W.W.W.W.!.!.0.$.9.).].$XoXY.Z.U.oXXXOX$X$X$XD.~ #     cXcXcX",
"    9 v.tXzXzXzXzXzXzXzXlXhXfXaX`.g.N e q q < < < < e ] *.*.*.] ] ] ] h } =.7._._.).}.}.}.}.}._.3.*.-.v.`.$X$XOXoXoXY.U.U.oXOX$XD.~ #     cXcXcX",
"    9 7.].jXlXlXzXzXzXzXkXsX*XOXD.>.c < < < < < < < q a N C N c e e < e c H k./.|.&X=X=X=X=X=X(.,.N M g.D.OXOX@X$XXXoXU.U.U.oXOXB.~ =     cXcXcX",
"cXcX8 T ,.v.'.uXhXzXzXzXjX#Xm.>.A c e < < < < , & % 2 p C W ! ' _ W H S S ( s.x.L.(./.`.(.(.D.6.~ M N S ~ ` x.`.@X@XXXoXU.V.k.( ~ x & cXcXcXcXcX",
"cXcXcXcX  o T (.jXzXzXzXiX[.Y   . % , < < < < & O . # p T d.z.A.H.D.A.s.<.d.a.a.` i.d.` ! A C C C C f , + O n k.OX$X*X*X.Xk.v     cXcXcXcXcXcXcX",
"cXcXcXcXcXo Y ,.n.n.n.n.v.,.v   . O % % % % + + .   & n ( x.A.G.H.G.S.A.z.z.x.x.l.k.d.` ! A C C C C c 1 % . 9 n ` i.d.<.` T 0   cXcXcXcXcXcXcXcX",
"cXcXcXcXcXcXcX= 2 7 = = = = cXcXcX.     .   .       2 n i.H.^./.|.^.H.G.H.G.G.H.S.z.d.<.! A C C C C c 1 +   . O # # # # # # cXcXcXcXcXcXcXcXcXcX",
"cXcXcXcXcXcXcXcX          cXcXcXcXcX          # 5 0 R i.M.^.^.^.^.^.^.^.^.|.^.^.D.l.:.! ! Q Q K K K D 9 #                 cXcXcXcXcXcXcXcXcXcXcX",
"cXcXcXcXcXcXcXcXcXcXcXcXcXcXcXcXcXcXcXcX      9 R i.L.L.G.^.^.^.^.^.^.^.^.^.^.^.A.d.Q G Q >.:.:.:.:.~ p &     cXcXcXcXcXcXcXcXcXcXcXcXcXcXcXcXcX",
"cXcXcXcXcXcXcXcXcXcXcXcXcXcXcXcXcXcXcXcXcX    0 ` L.^.^.^.^.^.^.^.^.^.^.^.^.G.L.l.:.A Z K :.a.a.<.a.W x >     cXcXcXcXcXcXcXcXcXcXcXcXcXcXcXcXcX",
"cXcXcXcXcXcXcXcXcXcXcXcXcXcXcXcXcXcXcXcXcX    0 ` L.^.^.^.^.^.^.^.^.^.^.G.S.M.k.a.! A C Q ) a.a.a.a.~ k =     cXcXcXcXcXcXcXcXcXcXcXcXcXcXcXcXcX",
"cXcXcXcXcXcXcXcXcXcXcXcXcXcXcXcXcXcXcXcX# : : b i.L.^.^.^.^.^.^.^.^.^.^.G.L.s.) ( ! A K ( ( a.<.a.a.W p =     cXcXcXcXcXcXcXcXcXcXcXcXcXcXcXcXcX",
"cXcXcXcXcXcXcXcXcXcXcXcXcXcXcXcXcXcX  $ f E ` u.L.(.^.^.^.^.^.^.^.^.^.^.G.x.a.Q K ! ! >.:.<.a.d.a.a.~ x >     cXcXcXcXcXcXcXcXcXcXcXcXcXcXcXcXcX",
"cXcXcXcXcXcXcXcXcXcXcXcXcXcXcXcXcX    # z i.^././.^.^.^.^.^.^.^./.G.S.L.z.d.! C A ! <.a.<.a.<.<.) ( ~ 0 #     cXcXcXcXcXcXcXcXcXcXcXcXcXcXcXcXcX",
"cXcXcXcXcXcXcXcXcXcXcXcXcXcXcXcXcX    o z ` c.L.L./.|.^.^.^.S.L.x.k.` R b n C C A ! <.a.a.a.d.' n x 9 2 # cXcXcXcXcXcXcXcXcXcXcXcXcXcXcXcXcXcXcX",
"cXcXcXcXcXcXcXcXcXcXcXcXcXcXcXcXcX    o 0 ~ a.k.V.G.^.^.^./.L.z.d.R x # . & p C A ( <.<.g.g.<.Z 9 O   cXcXcXcXcXcXcXcXcXcXcXcXcXcXcXcXcXcXcXcXcX",
"cXcXcXcXcXcXcXcXcXcXcXcXcXcXcXcXcX    . > p S S W ( ' ' ~ R b v p 0 1 @ . # > , e p D S C C C a > .   cXcXcXcXcXcXcXcXcXcXcXcXcXcXcXcXcXcXcXcXcX",
"cXcXcXcXcXcXcXcXcXcXcXcXcXcXcXcXcX    . + , q w 4 e < & + O O . . . . cXcXcX. . o & , w q q q & +     cXcXcXcXcXcXcXcXcXcXcXcXcXcXcXcXcXcXcXcXcX",
"cXcXcXcXcXcXcXcXcXcXcXcXcXcXcXcXcX    . & < r a r r < & O         cXcXcXcXcX    O & q e e e e < + .   cXcXcXcXcXcXcXcXcXcXcXcXcXcXcXcXcXcXcXcXcX",
"cXcXcXcXcXcXcXcXcXcXcXcXcXcXcXcXcX    . > p B M M C a , +     cXcXcXcXcXcXcX    O , r a a a a q % .   cXcXcXcXcXcXcXcXcXcXcXcXcXcXcXcXcXcXcXcXcX",
"cXcXcXcXcXcXcXcXcXcXcXcXcXcXcXcXcX    . > a C C C V a 1 +     cXcXcXcXcXcXcX    + , r m m m a r , & % O cXcXcXcXcXcXcXcXcXcXcXcXcXcXcXcXcXcXcXcX",
"cXcXcXcXcXcXcXcXcXcXcXcXcXcXcXcXcX    . , p V C C C c 1 +     cXcXcXcXcXcXcX    o , r m m m a a r r q & o     cXcXcXcXcXcXcXcXcXcXcXcXcXcXcXcXcX",
"cXcXcXcXcXcXcXcXcXcXcXcXcXcXcXcXcX    . > a C C C C c 1 +     cXcXcXcXcXcXcX    o < a m m m m m m m e , +     cXcXcXcXcXcXcXcXcXcXcXcXcXcXcXcXcX"
};
