/* XPM */
static char *greater_naga1670870691[] = {
/* columns rows colors chars-per-pixel */
"72 72 235 2 ",
"   c None",
".  c #000000",
"X  c #0B0000",
"o  c #0C0B0B",
"O  c #0C0907",
"+  c #130000",
"@  c #1C0000",
"#  c #1C0E01",
"$  c #140E0A",
"%  c #131313",
"&  c #1C1C1C",
"*  c #1E1813",
"=  c #1B130F",
"-  c #220000",
";  c #2B0000",
":  c #320000",
">  c #3C0000",
",  c #3F0C0A",
"<  c #251A15",
"1  c #2A1E18",
"2  c #371612",
"3  c #3D3B04",
"4  c #2C221C",
"5  c #33251B",
"6  c #3B3114",
"7  c #232323",
"8  c #2B2B2B",
"9  c #2F2720",
"0  c #3D2C23",
"q  c #322B28",
"w  c #333333",
"e  c #3B3B3B",
"r  c #3C3129",
"t  c #430000",
"y  c #4C0000",
"u  c #520000",
"i  c #5A0000",
"p  c #630000",
"a  c #6C0000",
"s  c #740000",
"d  c #7C0000",
"f  c #4F3104",
"g  c #7E3F00",
"h  c #693400",
"j  c #463329",
"k  c #493429",
"l  c #533B2F",
"z  c #4B3D33",
"x  c #553D31",
"c  c #442D24",
"v  c #682A21",
"b  c #4F4D00",
"n  c #5A5A00",
"m  c #724F10",
"M  c #6A6700",
"N  c #4D4139",
"B  c #5A4338",
"V  c #6B4C3D",
"C  c #65483A",
"Z  c #64492C",
"A  c #6D642E",
"S  c #5B3847",
"D  c #414141",
"F  c #4A4A4A",
"G  c #4A4340",
"H  c #5B4B43",
"J  c #575451",
"K  c #67564B",
"L  c #755343",
"P  c #7D5947",
"I  c #6B5355",
"U  c #7D6656",
"Y  c #840000",
"T  c #8B0000",
"R  c #840A08",
"E  c #930000",
"W  c #9B0000",
"Q  c #981D18",
"!  c #A30000",
"~  c #AC0000",
"^  c #B30000",
"/  c #BB0000",
"(  c #AF1511",
")  c #872D24",
"_  c #C30000",
"`  c #CB0000",
"'  c #D40000",
"]  c #DC0000",
"[  c #D11A15",
"{  c #E30000",
"}  c #EB0000",
"|  c #EB0C0A",
" . c #F40000",
".. c #FD0000",
"X. c #E81F19",
"o. c #D0362B",
"O. c #EE3329",
"+. c #8C490A",
"@. c #B25E0E",
"#. c #9C6128",
"$. c #DB6F04",
"%. c #EA7601",
"&. c #F87E05",
"*. c #E27C1D",
"=. c #CC772E",
"-. c #E04839",
";. c #B22266",
":. c #F81C7F",
">. c #875A48",
",. c #8A634E",
"<. c #8A6756",
"1. c #956A55",
"2. c #976C56",
"3. c #9D725C",
"4. c #916C47",
"5. c #A3745C",
"6. c #A8785F",
"7. c #B37350",
"8. c #8D7663",
"9. c #987464",
"0. c #A47962",
"q. c #AB7A61",
"w. c #A67B67",
"e. c #B17E65",
"r. c #B97C63",
"t. c #AD4569",
"y. c #CE7853",
"u. c #F06D57",
"i. c #D87A6E",
"p. c #F07A62",
"a. c #DC5B63",
"s. c #BEBE00",
"d. c #B8AC0C",
"f. c #B08F32",
"g. c #A58E11",
"h. c #F88902",
"j. c #FE9801",
"k. c #FB911A",
"l. c #FEA702",
"z. c #FFB400",
"x. c #FEBF02",
"c. c #FDBE08",
"v. c #F5AF16",
"b. c #FA9724",
"n. c #F59636",
"m. c #EE8E32",
"M. c #C5B02D",
"N. c #F9B625",
"B. c #F4AF34",
"V. c #DA9D1E",
"C. c #DFCE05",
"Z. c #FFC100",
"A. c #FECB04",
"S. c #FFD400",
"D. c #FED904",
"F. c #F5D615",
"G. c #FEE902",
"H. c #FEF204",
"J. c #F6E819",
"K. c #F8D92B",
"L. c #FACA28",
"P. c #F8E720",
"I. c #9F826C",
"U. c #AB8169",
"Y. c #BB8469",
"T. c #B8856B",
"R. c #B88C71",
"E. c #BA947A",
"W. c #A18B78",
"Q. c #CA8E57",
"!. c #EF964B",
"~. c #D3AB51",
"^. c #F2B641",
"/. c #EDBE5A",
"(. c #F2A752",
"). c #C28A6E",
"_. c #D8936B",
"`. c #CA8F72",
"'. c #C58C70",
"]. c #CD9275",
"[. c #C7967A",
"{. c #D19476",
"}. c #D59779",
"|. c #D5997B",
" X c #DB9B7C",
".X c #DB8F74",
"XX c #E99A68",
"oX c #E09F7F",
"OX c #E59D74",
"+X c #E3876F",
"@X c #E9A369",
"#X c #F8AA66",
"$X c #F6B567",
"%X c #F1AD75",
"&X c #F2CB45",
"*X c #FBC66C",
"=X c #FC2882",
"-X c #BB7F82",
";X c #FE4888",
":X c #EC5481",
">X c #FC798B",
",X c #F76787",
"<X c #BE9B80",
"1X c #D99F81",
"2X c #CC9E81",
"3X c #FA8D8D",
"4X c #F09D86",
"5X c #DCA383",
"6X c #DAA788",
"7X c #D7AD8F",
"8X c #E4A382",
"9X c #EAA684",
"0X c #ECA987",
"qX c #ECAC8A",
"wX c #E3AC8C",
"eX c #F2AC89",
"rX c #F9A788",
"tX c #E9B08F",
"yX c #FBB38F",
"uX c #F4B18A",
"iX c #EDB392",
"pX c #E8B796",
"aX c #F4B592",
"sX c #FDB691",
"dX c #F3BC9A",
"fX c #FBBD99",
"gX c #FDB995",
"hX c #FFAA9A",
"jX c #FF9FA2",
"kX c #FCC19E",
"lX c #F3C19F",
"zX c #FCC6A2",
"xX c #FCC9A6",
"cX c #F8C9A6",
"vX c #FFD2AE",
/* pixels */
"                                                  . .               . . . . . .       . . . .           . .                                     ",
"                                                  o o               O o O O o o o     o O o o .         o o                                     ",
"                                              . % & & o . . . . . % & 7 7 7 7 8 & . o & & 8 8 & . . . & 7 7 %                                   ",
"                                              . % e w % . . . . . & w D D D F J 8 . % 7 e D D 7 . . . & D e & .                                 ",
"                                                % & & & 7 & & & 7 w w w e e e D w 7 & & & 7 7 & & & 7 8 8 7 %                                   ",
"                                                  O % 8 e w 8 e F D w w w 8 w w w e 7 o . O o & 8 D F w % .                                     ",
"                                                . . o & 7 7 & w D D e D K U U U 8.8.K w & % % 8 e e 8 & o .                                     ",
"                                          . . . . . . o o o o & w e e K w.|.1X|.7X7XW.J e 8 8 e F 8 % o . .                                     ",
"                                        o o o o o . . . . . o & w G K 9.-X3XjXsXhXjX-XI D w 7 w e & . . o o                                     ",
"                                      O % & & 7 % o . . . % 7 w w I w.i.a.;X>XsX>X;Xt.I e & % % & % . o & & o .                                 ",
"                                    O o & 8 8 8 7 o O . o 7 w w e 8.1X3X;X=X>XgX,X=X;.S 8 % . . . . o % 7 7 o .                                 ",
"                                  o % & & % 8 e w 7 7 & & 7 w e e <.1XjX>X,X3XzX3X:Xt.S 8 % . . . & 8 7 & o o                                   ",
"                                . o 7 8 % . 7 e D D e w w w 8 w D <.1XsX9X9XdXvX7X`.<.G 7 % . . . 7 F w o .                                     ",
"                                      7 o . o 7 8 w e e e w e e e U T.1X9XaXzXvXiX1X3.N 8 8 7 8 8 w D 8 o .                                     ",
"                                        . . . . % 8 w e D D D D D I 2.Y.8XsXzXvXpX8X0.S e D F F F D w & o .                                     ",
"                                        % & % % & 8 w w e w e e e F ,.0.'.8XiXzX[.2.H q 7 8 w w w 7 7 % O                                       ",
"                                    . O & w 8 8 8 8 w w w w w w w H P ,.6.R.8XgX1.q & o o o o o o o o o                                         ",
"                                    . O 7 D w 7 7 7 8 z H H J A A A 4.5.e.'.oXsX3.r 6 3 3 6 < $ . . .                                           ",
"                                    . o 7 D 8 % o % 9 L 9.0.w.f.d.M.Q.[.}.9XeXsX[.5.f.g.g.A C 5 . .                                             ",
"                                    O o 7 e & . X $ j 2.{. X9X&XH.K./.%XuXyXyXyXeX@XL.J.J.~.2.B * *                                             ",
"                                  o & 7 & & o . 1 C ,.).8X8X8X&XF.F.K.&X%XqXqXuX/.B.L.H.K.~.).U.8.H o                                           ",
"                                . o 8 e & . . . k 5..XeXyXeX8XB.Z.D.H.P./.8X8XoX^.c.S.H.P./.0XlXvX<.% .                                         ",
"                                  o & & o . . . k 6.}.0XyXeX8X!.l.z.D.F.K.&X^.^.N.x.A.D.K.*XdXcXvXU o .                                         ",
"                                    . O . . . . k 5.}.0XyXeX8X!.h.j.z.S.G.H.D.c.Z.x.Z.Z.L.*XvXvXvXU o .                                         ",
"                                      . . . < k >.).8XaXfX0X|.!.n.n.B.N.A.A.A.Z.x.x.z.l.N.*XxXxXvXU o .                                         ",
"                        .               . . l 2.).8XaXzXcXwX]._.XXXX@X(.b.j.z.x.Z.x.l.j.b.#XfXxXvXU $ .                                         ",
"                      > > :             . . C Y. XaXkXzXzX5X).].1X8X8XXX!.k.j.z.l.z.j.k.n.#XhXfXvXI.N 9                                         ",
"              . . . @ a ^ p +           . . C Y.5XkXzXkXaX|.q.).{. X XOXXX!.m.j.j.j.b.!.XX%XeXyXkX6XE.U 9 .                                     ",
"              + @ @ > T ] s X .         . . C Y.wXcXxXfXeX].3.e.).]. X8XOXOXm.%.%.h.m.OX X}. X0XyXkXvXI.9 .                                     ",
"          . > p s Y T d s y             . . L `.wXcXxXaXoXY.1.5.r.).{.}.}._.y.#.=.=.y.].].Y.T.{.eXkXvXI.5 .                                     ",
"          . y W ` } ] a .               . . L }.iXcXzXtX|.q.P ,.5.e.).`.`.).0.>.1.5.U.).Y.1.,.Y.oXdXxXI.5 .                                     ",
"        t i T _ ` W d y               o 4 0 1.|.iXcXcXtX{.,.c P e.).{.|.oX1X2X[.[.).}.wX[.3.,.Y.8XaXkX2XI.K r                                   ",
"    . . i ~ ` } / i X               . $ c P 6. XiXcXcXiX].V X C Y.{. X9XeXsXfXcXiX8XtXzX7Xw.,.Y.oXrXyXkXkXE.N .                                 ",
"    . . i ~ ` ] ~ y .               . $ l ,.Y.oXqXkXiX1X5.l . C Y.{.oX8X9X0XiXpX1X).[.pX[.U C ,.)._.(.#X$X~.g.b 3                               ",
"    . . u W ^ _ W > .               . $ x 3.Y.oXqXsXwXe.P 0 . C Y.}.oXoX|.|.|.|.T.1.w.`.5.l < B 1.=.k.k.N.F.C.d.M .                             ",
"    . . u E ^ ` W t .               . $ m 7.Q.@X$X$X~.4.l 1 . B q.`.}. X X|.|.5XU.,.0.`.0.r O 5 H @.%.j.l.x.S.C.M . .                           ",
"    . . u E / ] ^ y .               . # m *.k.N.L.K.M.A < O . k ,.6.). X8XqXiXdX[.3.R.7XR.z . = < +.$.&.h.j.x.C.M . . .                         ",
"    . . u E _ } / y .               . # +.&.j.z.D.H.C.b . . . 0 L 3.Y.{.9XaXlXcX2X0.[.pX<Xz . . . h @.$.&.k.v.v.+.* * < &                       ",
"    . . u E / ] ^ y .               . # +.%.h.j.x.G.s.b . . . c P 2.Y.].|.oX8XwXR.1.U.2XU.j . .   f f #.=.!.(.^.Q.I.8.8.K 4                     ",
"    . . u E / ' ~ t .               . # g $.%.&.z.G.s.b . . . 0 P 2.Y.].].`.`.].5.>.3.T.1.0 .       . l Y.qXyXgXcXvXvXvXI.9 .                   ",
"        > y d ~ ~ E s y             . # g $.%.&.l.A.d.f . . . 2 v >.y.|.oX8X0XpX[.q.R.5Xw.j .         0 C 1.].eXlXlXkXkXw.4 .                   ",
"        . X t Y / ' ' a . . . .     . # g %.&.&.j.x.d.f . . . : i ) q.|.0XhXkXcX6X`.6XlX<Xz .           O c 5.9XuXgXsXsX3.5 .                   ",
"          . > a W _ ` T u y y >   . . # h =.*.m.b.B.f.f . . . ; u ) o.y.u.p.%XlXwX|..X+X7.c .           . 5 V 3.'.uXeX0X1.4 .                   ",
"          . ; u d W ^ / / ! W a - . . $ Z 7.Q.XX@X@X7.k . . . > i d ( [ X.O.u.qX8X8Xy.o.Q , .               < j 1.9X X}.>.< .                   ",
"          . - > i d E / ' ' ` T > X . o c P e.1X0XwXU.k . . . : i Y ^ ' { | -.i.i.p.-.[ W > . .             . = V 6.5.2.C < .                   ",
"            + @ : i d ! ` ] } ~ p > + O = 5 ,. XqXdXE.l . . . ; i T / ' ' ' [ o.o.o.X.| ~ y . . .               5 j j 0 5                       ",
"              . + > p T / ] .._ Y u - . . . L .XtXzX2Xz . . . : i T _ ' ` _ _ _ ] ] {  ._ i @ X .                 . . . .                       ",
"                + - > s ^ ` } ` ! a ; . . . L }.qXfXE.z . . . : i T / ` _ _ ' { ] ' ] { ` E i : .                                               ",
"                  . + i ! / ] ' ` T > . . . L }.eXyXY.l . . . ; i Y ^ / _ _ { ..{ _ ` ] ] ` ~ u .                                               ",
"                  . + i ! / ` ' ] ! t . . . 5 V L P V 0 . . . : i E _ ] ' ' ] { ' ` ] } } { _ p .                                               ",
"                  . + i W ^ _ '  ./ y . . . O O O $ o     . . : i W ]  .{ ] ` _ ' ] }  .....] a .                                               ",
"                . . + i ! / ' { } ` d > - . . . . .       . . ; i E ` { ] ' ' ] ' ' { } } } ' E u >                                             ",
"              . . . + i ! ` } } } ' ^ T t . .             . . : i Y / ` _ ` {  .] ` ` { { ' ` / / p X .                                         ",
"            . . . . + u T _  .} ] ' ' ^ i .                 . ; t s ! _ ` ' {  .] _ _ ` ` ` ` ` ' a + .                                         ",
"      . . . . . . . X t s ~ { ] ' ' { ` p .                   + @ i ! ` ] } } } ' _ / / / ` ' ` ` p X .                                         ",
"    . . . . . . . . X > p W ' ' _ ` } ] a .                   X X u ! ' }  .} ] ` / / ! ^ ` ' ` _ i X .                                         ",
". . . . . . . . . . X : i E _ ` _ ` { ` a .                 . - : s _ { ] ] ] { _ ^ ~ ^ / / / / _ i X .                                         ",
". . . . . . . . . . X > p E / _ / ` ' _ p .               . . ; i W { } ' _ ' { _ ! ~ / / ! ! ^ _ p X .                                         ",
". . . . . . . . . . X : i T ~ / ' ] ' _ Y u > X         X - : a W / ' ] ' ` _ _ / ~ ^ ~ ~ ~ ^ ^ ~ i X .                                         ",
". . . . . . . . . . X > p Y W _ } } ' / ~ E y . . . . . X : i E ' ` _ ` ] ' / ! ^ / ^ ! ~ ^ / ~ ! u X .                                         ",
". . . . . . . . . . . - > p Y ! ` ' ` / ^ ~ d i i i i u y a Y / { ] _ / _ _ / ~ ^ ^ ^ ~ ~ ^ / ~ ~ u X .                                         ",
". . . . . . . . . . . X + > p T ! ^ / / / / / / / ` _ ~ ! ! ~ '  .{ ` / ^ ~ ^ / ^ ! ~ / / ~ ! ^ / i X .                                         ",
". . . . . . . . . . . . . : i s T W ~ / / _ _ ` ] } { ' ` _ ` ] } ] _ / ~ ~ ^ / ~ ~ ~ ^ ^ ~ ! W E u X                                           ",
". . . . . . . . . . . . . : i p a Y E ~ / / / / / ` ' ' ' ] ' ' ' _ ^ ~ ~ / ~ ! ~ / ^ ~ ~ ^ ! s > ;                                             ",
". . . . . . . . . . . . . ; y u i p Y W ! ^ ~ ! ~ / _ ' ' ] ] ` / / ! ~ ^ / ~ ! ^ / ^ ! ! ^ ! u .                                               ",
". . . . . . . . . . . . . + - ; ; > p d Y T W ^ / / / / / ` ` / ^ ~ ^ ^ ~ ~ ~ ^ ^ ~ ! ! ! ~ W y .                                               ",
". . . . . . . . . . . . . . . . . @ t p p p T / _ _ / ~ ! ^ _ ^ ! ~ / / ~ ! ^ _ ^ ! ! W W ! T t .                                               ",
"  . . . . . . . . . . . . . . . . X - ; ; : p T T E T Y Y T T T Y Y T T Y Y Y E Y Y a i u u y :                                                 ",
"    . . . . . . . . . . . . . . . . . X . X > i a p p p p p p p p p p p p p p p p p t @ . X X                                                   ",
"      . . . . . . . . . . . . . . . . . . . @ > > > > > > > > > > > > > > > > > > > ; + . . .                                                   ",
"              . . . . . . . . . . . . . . . X X + + + + + + + + + + + + + + + + + + +                                                           ",
"              . . . . . . . . . . . . . . . . . . . . . . . . . . . . . . . . . . . .                                                           "
};