/* XPM */
static char *cobble_blood1670866202[] = {
/* columns rows colors chars-per-pixel */
"72 72 256 2 ",
"   c black",
".  c #010101",
"X  c #020202",
"o  c gray1",
"O  c #040404",
"+  c gray2",
"@  c #060606",
"#  c #070707",
"$  c gray3",
"%  c #090909",
"&  c gray4",
"*  c #0B0B0B",
"=  c #0C0C0C",
"-  c gray5",
";  c #0E0E0E",
":  c gray6",
">  c #101010",
",  c #111111",
"<  c gray7",
"1  c #131313",
"2  c gray8",
"3  c #151515",
"4  c #161616",
"5  c gray9",
"6  c #181818",
"7  c #191919",
"8  c gray10",
"9  c #1B1B1B",
"0  c gray11",
"q  c #1D1D1D",
"w  c #1E1E1E",
"e  c gray12",
"r  c #202020",
"t  c gray13",
"y  c #222222",
"u  c #232323",
"i  c gray14",
"p  c #252525",
"a  c gray15",
"s  c #272727",
"d  c #282828",
"f  c gray16",
"g  c #2A2A2A",
"h  c gray17",
"j  c #2C2C2C",
"k  c #2D2D2D",
"l  c gray18",
"z  c #2F2F2F",
"x  c gray19",
"c  c #313131",
"v  c #323232",
"b  c gray20",
"n  c #343434",
"m  c #353535",
"M  c gray21",
"N  c #373737",
"B  c gray22",
"V  c #393939",
"C  c #3A3A3A",
"Z  c gray23",
"A  c #3C3C3C",
"S  c gray24",
"D  c #3E3E3E",
"F  c #3F3F3F",
"G  c gray25",
"H  c #414141",
"J  c gray26",
"K  c #434343",
"L  c #444444",
"P  c gray27",
"I  c #464646",
"U  c gray28",
"Y  c #484848",
"T  c #494949",
"R  c gray29",
"E  c #4B4B4B",
"W  c #4C4C4C",
"Q  c gray30",
"!  c #4E4E4E",
"~  c gray31",
"^  c #505050",
"/  c #515151",
"(  c gray32",
")  c #535353",
"_  c gray33",
"`  c #555555",
"'  c #565656",
"]  c gray34",
"[  c #585858",
"{  c gray35",
"}  c #5A5A5A",
"|  c #5B5B5B",
" . c gray36",
".. c #5D5D5D",
"X. c gray37",
"o. c #5F5F5F",
"O. c #606060",
"+. c gray38",
"@. c #626262",
"#. c gray39",
"$. c #646464",
"%. c #656565",
"&. c gray40",
"*. c #676767",
"=. c #686868",
"-. c DimGray",
";. c #6A6A6A",
":. c gray42",
">. c #6C6C6C",
",. c #6D6D6D",
"<. c gray43",
"1. c #6F6F6F",
"2. c gray44",
"3. c #717171",
"4. c #727272",
"5. c gray45",
"6. c #747474",
"7. c gray46",
"8. c #767676",
"9. c #777777",
"0. c gray47",
"q. c #797979",
"w. c gray48",
"e. c #7B7B7B",
"r. c #7C7C7C",
"t. c gray49",
"y. c #7E7E7E",
"u. c gray50",
"i. c #808080",
"p. c #818181",
"a. c gray51",
"s. c #838383",
"d. c #848484",
"f. c gray52",
"g. c #868686",
"h. c gray53",
"j. c #888888",
"k. c #898989",
"l. c gray54",
"z. c #8B8B8B",
"x. c gray55",
"c. c #8D8D8D",
"v. c #8E8E8E",
"b. c gray56",
"n. c #909090",
"m. c gray57",
"M. c #929292",
"N. c #939393",
"B. c gray58",
"V. c #959595",
"C. c gray59",
"Z. c #979797",
"A. c #989898",
"S. c gray60",
"D. c #9A9A9A",
"F. c #9B9B9B",
"G. c gray61",
"H. c #9D9D9D",
"J. c gray62",
"K. c #9F9F9F",
"L. c #A0A0A0",
"P. c gray63",
"I. c #A2A2A2",
"U. c gray64",
"Y. c #A4A4A4",
"T. c #A5A5A5",
"R. c gray65",
"E. c #A7A7A7",
"W. c gray66",
"Q. c #A9A9A9",
"!. c #AAAAAA",
"~. c gray67",
"^. c #ACACAC",
"/. c gray68",
"(. c #AEAEAE",
"). c #AFAFAF",
"_. c gray69",
"`. c #B1B1B1",
"'. c #B2B2B2",
"]. c gray70",
"[. c #B4B4B4",
"{. c gray71",
"}. c #B6B6B6",
"|. c #B7B7B7",
" X c gray72",
".X c #B9B9B9",
"XX c gray73",
"oX c #BBBBBB",
"OX c #BCBCBC",
"+X c gray74",
"@X c gray",
"#X c gray75",
"$X c #C0C0C0",
"%X c #C1C1C1",
"&X c gray76",
"*X c #C3C3C3",
"=X c gray77",
"-X c #C5C5C5",
";X c #C6C6C6",
":X c gray78",
">X c #C8C8C8",
",X c gray79",
"<X c #CACACA",
"1X c #CBCBCB",
"2X c gray80",
"3X c #CDCDCD",
"4X c #CECECE",
"5X c gray81",
"6X c #D0D0D0",
"7X c gray82",
"8X c #D2D2D2",
"9X c LightGray",
"0X c gray83",
"qX c #D5D5D5",
"wX c gray84",
"eX c #D7D7D7",
"rX c #D8D8D8",
"tX c gray85",
"yX c #DADADA",
"uX c gray86",
"iX c gainsboro",
"pX c #DDDDDD",
"aX c gray87",
"sX c #DFDFDF",
"dX c gray88",
"fX c #E1E1E1",
"gX c #E2E2E2",
"hX c gray89",
"jX c #E4E4E4",
"kX c gray90",
"lX c #E6E6E6",
"zX c #E7E7E7",
"xX c gray91",
"cX c #E9E9E9",
"vX c #EAEAEA",
"bX c gray92",
"nX c #ECECEC",
"mX c gray93",
"MX c #EEEEEE",
"NX c #EFEFEF",
"BX c gray94",
"VX c #F1F1F1",
"CX c gray95",
"ZX c #F3F3F3",
"AX c #F4F4F4",
"SX c gray96",
"DX c #F6F6F6",
"FX c gray97",
"GX c #F8F8F8",
"HX c #F9F9F9",
"JX c gray98",
"KX c #FBFBFB",
"LX c gray99",
"PX c #FDFDFD",
"IX c #FEFEFE",
"UX c white",
/* pixels */
"^ ! U G G G G F S m j w , r l g i d M C p : 6 e 8 < 9 c J T ^ G v i 4 > > 2 y x x x M S G G D N c d t a k S /  .! G d 1 > > > > < 7 r d z M S G ",
"! W L D F F G D C b g w < e g f p g N C s 2 8 e 0 5 r c G U ! G b f w 5 1 1 r l z z m Z D D Z N v d e s v F ^ [ W J j 6 2 < , > , 6 w s l M S G ",
"U P D N Z F A B b j p e 7 9 q p l m Z A z y t r i d l b V G U G V C A c w < 0 s h z v m N N N B V d 7 g H E ! Q E T C j i 0 4 , > 2 5 u l M S G ",
"G D N x B F C b j p r r r 6 , y N G G D N x d r j C A m v C G H G W } W f < 7 r d z c x x x v V G d 1 l ( [ R J T ^ Y J n s 0 3 > > > r l M S G ",
"G D N x x x k d i q 6 6 6 6 6 k P ! R I F B x f c Z D C V A G A B G E L z e r r t r r r y p d d d 0 , p S Y Y Y Y Y L G N j i q 7 0 r i s l m B ",
"F D N c f y t t q 4 , , , 6 w M ( } ) Q P F N x m A F F F F G B v B D S n j a r 7 < < < 3 0 e 7 1 , > q j C I Q U H G G V b j i r s l s r s l c ",
"C B c g y 9 p v v d e 5 , 6 e m ~ { ] ) T G Z M N V Z D D A C m x B H G M l s r 9 4 1 , < 4 7 5 4 1 > 7 p x Z J D C C C N M z t 0 u g y 9 r s g ",
"b c g u 9 2 h Y Q F v t > 6 e b T ` [ { W G D S V n M Z D V b c x C U P V l s r w q 6 < : < 2 6 0 3 > 6 e s x m n b n b M A v r 3 0 u 9 2 7 r u ",
"d s u r t y N ! ) R F k 0 w e k S T / ` R G D Z V m M V Z N n n n S U K M h u q 0 0 8 6 9 q t i d r 7 0 t a f h l x v b N C c q < 7 t 8 2 6 q t ",
"8 8 q r b L Y T R R U A v d t a j m H Y L G C m B V B M m B Z Z Z D K S x u 0 3 3 3 9 y h m Z B M l s s g f a a h x m C B M h 9 < 6 r q 9 0 e r ",
"< 2 9 y F { ) Y I R W I G z r w e s b A S D B v B F D N b V G D A Z C b a 0 4 > < 1 r l C P W U J C b v b x f p f l m Z M z p 8 2 0 i u y y y y ",
"7 9 y f Z E ~ / ^ T U K G h 7 8 w u f z b N B B F I L D V A G N z g a t 9 4 1 > 7 r l A K P U Y T H C A G D N x g s g k d t 0 8 0 s v k f f f f ",
"t y f x B F W } [ R G G G f 1 4 q r r t f x B F I Q W P G G G x u 8 1 > > > > > r l A R W P J T ^ Y H I Q W P A l r r r 7 1 2 9 i v G B c x x x ",
"r u k B A F K P I J F Z B x f y 9 0 u d d d n D K I I J G F G j 8 3 , < 3 5 1 > d S I Q ! R Y Y Y L G T ) ^ J b a 6 0 e 8 1 8 h V A G G G S V B ",
"r u c F F F C M M Z D N c N A j 7 6 p l s t x F G G G G G G G d 1 > > 1 8 q 4 > z R ! ~ ~ ~ Q U H H G E } ( F k e , 6 r 8 1 e V E P G U Q Y H F ",
"a s k n C F A N B A D C M Z F x q 7 e u t r g v B S H L P J G h 6 1 , < 3 9 w u V Q ( _ ) Q Y L G K P E ^ ~ U D x y w 8 4 , w N T U I Y T I H G ",
"k j f a b F D S S F F F D F F v u 9 6 5 9 r y p z Z J Y R P G l e 6 < > < 5 s N K ! _ } ' W J H G I W E U R / ) P N p 4 , : 0 b L T Q Y K H G G ",
"j g u 0 j C S F F S A A A B n h r 7 1 1 q d d d z m A P T G B g q 5 < < < 7 g A L E ~ ( ~ I F S Z L E R Y W ) _ Y A d 4 5 9 p n G I W L A A A A ",
"p u 0 3 p b V S S N n m m g r 9 4 1 , 2 p N M M c j x A H m g e 3 1 > , 5 w f m S L J G F F D V m S L R ( ) Q U D m d 0 u j n Z G J P S M m m m ",
"w 0 5 < e g v C V v j j j w 1 1 3 3 2 7 h D F F n a s b B h w 6 < 2 4 9 r p d l M S V n m C A N b B S U ) / L C b j s y k C F D S Z A m l k j j ",
"5 5 6 7 8 q s v x p e w e 9 7 e s d i i k N Z F n a u f h t 5 6 6 u l b v x h s z M N B B N N B V B N B Z B v j p w u d c Z S V m c l g s u e w ",
"> < 7 r 6 , 0 g d 8 > > > 6 e j C A m x x x B F n a r r w 5 > 6 e v Y W P A l r d z M S A m v C G B x g u r r w 5 > r l M S A m l s r r r 8 1 > ",
"r e 8 6 6 6 w p y 5 2 q d j z b M B N B B B B B m c j p e 9 6 i l V K Y Y K x r t e g b B B M z f d d y 9 w d j w > 6 w a k j p e 9 6 6 6 i v B ",
"l g q > 6 w e r 0 3 3 g S S S V b b C F F F V c m Z N f e e e l A F G L R T n r 7 < q g n C V s 1 8 r 9 2 0 z B i > , , 6 e w 5 , , , , , j Q | ",
"M b g y t r q 9 5 1 3 a C V C B M N B C C C v h g k g i e 0 7 k S J L U Y L z 8 6 4 q a h j h r 4 6 7 q r h V G l 0 7 4 5 7 5 1 > > > 1 3 h K ! ",
"S A V N h t 9 3 < > 2 u b b b M Z C M b b b h u w 8 8 q w 6 1 f S L R R I S d 1 6 0 e r r 0 7 9 q 6 1 r x A I T V g u q 7 1 < > > > > 4 q s b V ",
"A A D G n f e 2 < < 5 t j g d l m n k d g j i q 5 < 1 6 9 5 2 a m F Y T K C p > 4 9 q e q 5 4 e d a i l C J P P A n d q 7 3 1 , > > > 6 e f v V ",
"m M Z G Z M s 5 < 5 0 r p e 8 r s a e 9 r p w 4 1 > , 1 3 6 9 y f n F K H C p , < 2 7 q w 0 w g M D P K H D A C C Z d 4 5 7 6 1 > : > 6 e l D I ",
"M N A J H G l 7 3 7 w w e 6 < 4 9 8 3 1 6 w 5 > 1 5 7 5 5 9 y u u k B Z C m u < , > 3 9 e y s b G ~  .( L Z m b B D d 2 4 9 8 2 > , < 8 t c P ! ",
"E E R T L G c r 6 5 4 5 6 6 6 6 5 5 6 6 5 5 1 > r n N x g f f k c x l h s u w 7 3 > , 3 w f b V G E ` E S M B B N N d 8 5 5 3 < , 3 7 t d n H U ",
"O.X.] ^ Y H n a 0 3 > > : 6 e 8 1 2 9 w 5 > > > l / { R F N x B F n a 0 3 < 7 e 6 , > > 0 c G G G Y ^ L M n Z D N x d t 8 1 > : < 7 r d z M S F ",
"[ [ [ [ Q H S V l 0 , 1 6 6 6 3 , < 3 5 6 6 i l A R ! T I F N B B Z D B g e 9 6 6 6 6 6 y b K T ^ W Y J Z M v l s r r r 8 1 2 9 e 0 6 d M Z D G ",
"/ ( [ o.~ H L R S u , 6 e 6 , > > > > < 6 e m T Y K P R Q I F N c H ) ^ S g q , 5 w e e d m K ^ o.~ J G F N g e 7 < 7 e 8 1 5 i f q , d A F F G ",
"' ' [ } Q H I Q H d 4 6 8 6 4 4 4 2 , < 7 r N Q Y D D P Y L G V c S Q T N s w 4 w p t 0 e s v K _ Q I H A v i 6 2 > 3 7 6 4 7 e t 6 > p N A D G ",
".. .[ ) R H I W K j 9 5 1 6 0 q q 8 2 < 7 r B Q P B N D J H G B c B H A k y r w p j u 5 2 4 w v I T W K N h q < , > , < 4 9 9 6 3 , > t x N S G ",
"^ ~ Q W Y L L L C d 0 0 0 y s a i r 7 3 8 r M Y K B M V A D G A B Z D N s q r i j b d 8 1 , 3 d A L E G v a 9 1 , > > > 2 7 8 4 1 , > w g v V A ",
"n M S P Y R G n d 0 6 i c b M c k s r 9 q r v J H A V M M Z G K P K H m u 5 t h b C l t 6 1 2 i m S L V h y w 7 2 > : > , 2 4 7 7 2 : 8 u h v m ",
"w t l A K T V a 0 6 q l G F D V n k p e w w k C A A V m n C J T ~ I D z w 4 i v C F m f e 4 1 r l m Z v a y y r 7 < , > > , 4 8 0 4 , 5 0 i h l ",
"5 7 u l c n f 0 w f m C G A N N B v s w 8 5 u j l l x m Z J T Q ~ F k y 0 q h V A F C n f 8 < 0 s f l h f f f s r 7 2 > 1 6 6 5 4 1 > 1 4 q i s ",
"> < 6 r r r 8 < e A ! U G B c M S B g w 5 > 6 e r r d M J T / ^ ^ B 0 2 9 i v G G G G G n e , 8 r r r a k x x l s r 7 , 4 q 0 3 > > > > > 4 q r ",
"6 6 6 6 i l c x M G T W / L V Z D C z a e 6 6 6 9 w a x B B B m c s 0 0 u h M G A B Z D M i 6 6 6 0 e u a f k k y 6 2 > 4 q 0 3 , 2 6 2 : 4 q r ",
"e q 5 , s Z K T T L L / X.! G F F Z n k a e 6 , 4 q i h z f u 9 2 6 0 u f c B G B c M S N f q 5 , 6 e r r i h j w , : > 4 q 0 2 , 6 e 4 > 4 q r ",
"8 7 5 3 h S L Y Y U I Q _ Q I K H A m k u 9 3 > 1 6 w p d t 8 w t p g x N A D G B c N A B g w 4 > 3 7 8 8 0 r y 0 4 1 > 1 6 7 5 4 6 8 6 5 5 7 8 ",
"1 2 6 q k S H J I T Q T I T W U J A m j e 1 , > , < 5 w t 8 < p n B V D P T L G B c M S B g w 5 > , < 1 2 1 3 4 7 q 4 > , < 3 7 9 5 1 6 0 7 2 1 ",
"> < q d M J H G L E ~ R Y W ~ Y G C M x y 1 6 9 7 3 4 8 9 5 2 g S D A G Y E U L C c n V m a 9 5 2 < : 1 4 7 8 w p j i q 7 3 4 7 0 5 3 6 8 5 < > ",
"> 2 p M G T I J L E ^ ) ' ) ^ P C M V N f 9 a z d e 7 4 3 6 9 k S Z N V G P Y E S c c n k e 3 6 0 3 > 6 t d k b C J V v d e 7 4 3 6 9 6 3 < > > ",
"4 8 h A P W Y J K T ~ _ } ` ^ L N m C C k e x D m f r 7 3 8 r x A B v n Z K U Q F b x l a 7 < 8 r 9 4 r j M D P T ~ I G b s w 5 1 6 w 6 < , > > ",
"h h j l C P L H H L I P P R ~ U S V M n g r x D C n l s t r e h m n c M H U J D C V v g t 5 < 7 t p g x M F R ~ E U F B c h p w 6 5 5 6 6 3 , > ",
"G Z l r x D G G G G D N x G ! E K A m k s r x D G G A m l s r d z x x B I Q D x B F n a 0 3 < 7 r x F G G Y '  .! G B c x x j a w 5 > 6 r 8 1 > ",
"G F Z B n x M S K E Q J B Y ' W D n k a e 6 j A I Q R F m g r r t r r a x N z d d s y 9 4 < < 7 r h M Z D I / _ I B n z b M x y 6 1 > 1 5 6 6 6 ",
"G H U Q N i k C U _ } W F ~ ..Q V k a e 6 , d A R [ ' Y C k e 7 < < < 4 q y t t 8 1 < , > > < 7 r d z M S L E ! F c c x m A b e > > , > : 4 0 e ",
"I I Y R v q u z A R ( W I R Q J m g r 6 3 > d S T ` ) Y C g 8 6 4 3 4 5 6 8 q r 6 , , > , 2 6 y j l z B H R / ( L M V A S F N s 8 3 > 1 3 0 y a ",
"W R U K h 4 8 y l A I T Q K C m c d 0 < , > d S I ~ ! P C a 1 6 0 q q 8 4 2 8 r 6 , > > < 6 r k C m x C U / [ { W S K T I H C x a 9 > 4 0 u g k ",
"W E U L v y w q u v D P W D c c b j w 1 , > i m F Y Y H N p 2 6 9 0 0 7 1 , 4 0 6 2 2 2 4 7 r l A M x S Q ` ' _ Y A L E L C n k p 0 2 0 u d k c ",
"P P Y E K A k 0 q h N D P C c n B n p 7 2 > q d n F H V c a 9 6 3 3 3 1 > > < 3 6 8 9 9 7 3 7 s m c x G ) ' ~ U D m S L C z a e 7 8 9 u g j z x ",
"G H I W Q Q N q 6 u l m A n l v C M s 0 5 < 7 w g m B n z s r 8 2 3 5 5 4 4 5 6 e p i y w 6 4 i v v v J ` ' T D N x M Z n h u 9 5 9 r d z x c v ",
"G F D D J I m t 8 0 r s z a e s v z r 5 6 7 0 e t i g v m g r t t d x c k j x n N C n j p w q h V V V L / / U F N x z l M F S v f p r d z b N V ",
"G D N x B F n a 0 3 < 7 r 6 , 0 f d 8 < 7 r r r 8 1 9 c A k r f z A R W I J R ^ ^ ^ L M j p i v G G G I Q W P D N x d t B _ [ E A l r d z M S G ",
"B B B B B B v h y 5 , 2 6 6 6 w p j b B B B n x b M B V B B B A G T ) ( U J T ^ W Y J Z N v x x x x x V K Y Y P C x j d N Y ! R L M d i r k C G ",
"v v B F N c c z s 6 > > , 6 w e r l Y { ) Q P D Y ` / F n G Q Q Q _ | ] T K T ^ Y H G D D D C l y y y k A L R E S x z z M D P R E S z r 1 u N G ",
"i a k n h p a d u 6 > 1 4 6 7 u k C T ( E L J G P E I V b D R ^ ` ` _ ^ R I Y R R E T U L H D B v a 9 a n D P I B g z m S K R ( / G x r < 9 d l ",
"4 7 e a w 5 8 r w 3 , 5 q 6 1 a S I I L S M Z F S V m v v C K ^ | _ R U R E U J Q [ ` ~ T L G J U k 4 e k N D F c u x Z K R / [ ] K x r < 1 5 7 ",
"> < 9 i 0 3 5 8 6 1 < 6 r 6 , g U ~ I D V n B Z A A A A A A A R ' ( E R Q ~ E Y ( } ' ~ R I P Y E x 5 9 i h x c a 0 v P Y Y W ) _ H x y 3 2 2 2 ",
"> 1 e h u 0 6 4 1 , < 7 r 6 , j W _ Y F S Z B m F E ( / Q H m F Y ! ) _ / ^ ) ' ` ` ~ Y I T R U P x q 8 8 9 q 0 7 3 m / E F D P I Z x p 0 9 9 9 ",
"4 7 p v j a t 7 4 1 1 6 w 6 < k ! ` R J K L A m K _ | { ( F j B J Q { } ) ^ ] X.' ~ Y J K Y R L D z r 7 2 , > , < 1 B ] E B b V A m l a e t i a ",
"h k v V C C m l a w 6 5 4 6 6 j L W R R ! ( R K I E T H B h w B ! ) ` ) W T ^ ] ~ Y P H F D S C N s 7 5 6 4 < < 8 y B W J m c n m l a e 6 i n Z ",
"G G G G Y ~ R K B g w 5 > 6 e j C L E ( { O.[ / R K B g w 4 : B | } ) W P J T ^ Y H G F S m x x x r < 4 q q 3 1 y x B G C b x x l s r 5 > d L ^ ",
"^ ~ E Y W ~ R J A m k y 6 6 6 i v A K R ^ [ ^ T P H M i 6 7 6 x P P H G G H L Y Y Y P H A m c n B d 8 6 6 4 < 2 q d d d d d a y r 9 6 d M D P Y ",
"X. .` ~ ~ ^ R K G D C j e 6 , q h m A K R ( T J G G n e < 5 r f c c c m Z G G H Y ! T J A n c B F z t 7 1 > > 1 7 t 8 < 6 w q 4 , , , M ] / P H ",
"_ _ ` ' ^ R U I K S M d 8 6 4 q a l m A K R J Z N m h 9 > 3 8 y f g g l m C C C J T L S V N M B C g 0 4 , , 2 5 9 r 6 , 1 6 7 5 3 < > v ~ ! U I ",
"U Y ( ..^ L I E I Z l t 1 6 0 e t a l m A K Z n l d r 4 > , 1 9 y u u s l b b b Z J S M m V Z N b u 3 , > 1 6 q w r 6 , , < 3 7 9 3 > h J Y E Q ",
"G L ( O.^ J I Q Y C h w > 7 e r e i h v V G B x g u 0 3 > > > 5 w r r u h x x x B F C b n Z D N x r < > > 3 9 r r r 6 , > : 2 8 w 5 : d D I Q ^ "
};
