/* XPM */
static char *star671262842[] = {
/* columns rows colors chars-per-pixel */
"72 72 232 2 ",
"   c #020202",
".  c #0B0505",
"X  c #0D0C0C",
"o  c #140303",
"O  c #1B0303",
"+  c #130C0C",
"@  c #1B0C0C",
"#  c #131313",
"$  c #1B1414",
"%  c #1B1B1B",
"&  c #210303",
"*  c #2C0101",
"=  c #240A0A",
"-  c #2B0C0C",
";  c #350202",
":  c #3C0202",
">  c #350B0B",
",  c #380808",
"<  c #221515",
"1  c #2C1616",
"2  c #231C1C",
"3  c #2B1C1C",
"4  c #381717",
"5  c #341B1B",
"6  c #232323",
"7  c #2A2525",
"8  c #2B2B2B",
"9  c #332323",
"0  c #3B2323",
"q  c #342B2B",
"w  c #3B2C2C",
"e  c #333333",
"r  c #3A3535",
"t  c #3C3C3C",
"y  c #450303",
"u  c #470909",
"i  c #4B0A0A",
"p  c #540202",
"a  c #590909",
"s  c #491616",
"d  c #581818",
"f  c #640101",
"g  c #6A0202",
"h  c #6D0C0C",
"j  c #740202",
"k  c #7D0101",
"l  c #750C0C",
"z  c #681717",
"x  c #741414",
"c  c #761B1B",
"v  c #442424",
"b  c #492929",
"n  c #572727",
"m  c #542B2B",
"M  c #433333",
"N  c #4D3434",
"B  c #433C3C",
"V  c #4B3C3C",
"C  c #5C3333",
"Z  c #553838",
"A  c #692828",
"S  c #772828",
"D  c #623434",
"F  c #6B3434",
"G  c #673B3B",
"H  c #6D3C3C",
"J  c #783333",
"K  c #753C3C",
"L  c #7D3D3D",
"P  c #434343",
"I  c #4B4444",
"U  c #4B4B4B",
"Y  c #584444",
"T  c #534B4B",
"R  c #5C4D4D",
"E  c #535353",
"W  c #5A5454",
"Q  c #5A5A5A",
"!  c #634B4B",
"~  c #6C4949",
"^  c #754444",
"/  c #7C4343",
"(  c #7D4D4D",
")  c #6D5454",
"_  c #635858",
"`  c #6C5D5D",
"'  c #725454",
"]  c #7F5353",
"[  c #745A5A",
"{  c #7D5C5C",
"}  c #646464",
"|  c #6D6363",
" . c #6C6B6B",
".. c #746464",
"X. c #7D6262",
"o. c #756A6A",
"O. c #747474",
"+. c #7C7676",
"@. c #7D7D7D",
"#. c #840101",
"$. c #8B0202",
"%. c #840C0C",
"&. c #8D0B0B",
"*. c #930101",
"=. c #960B0B",
"-. c #8C1616",
";. c #971919",
":. c #A60303",
">. c #A90000",
",. c #BA0505",
"<. c #A71717",
"1. c #B31010",
"2. c #8A2727",
"3. c #952727",
"4. c #8A3838",
"5. c #953838",
"6. c #A52222",
"7. c #BB2F2F",
"8. c #A63636",
"9. c #B83535",
"0. c #C30202",
"q. c #CD0101",
"w. c #D20101",
"e. c #D80B0B",
"r. c #CD1414",
"t. c #D41818",
"y. c #FF0505",
"u. c #ED1414",
"i. c #E21919",
"p. c #CB2222",
"a. c #D22C2C",
"s. c #CC3B3B",
"d. c #D43838",
"f. c #F33939",
"g. c #844444",
"h. c #8B4747",
"j. c #8C4B4B",
"k. c #914545",
"l. c #934B4B",
"z. c #9B4E4E",
"x. c #875A5A",
"c. c #985656",
"v. c #A64E4E",
"b. c #BC4A4A",
"n. c #A75656",
"m. c #B65B5B",
"M. c #826262",
"N. c #886868",
"B. c #8B6B6B",
"V. c #996767",
"C. c #936C6C",
"Z. c #897676",
"A. c #847E7E",
"S. c #937474",
"D. c #9B7474",
"F. c #947B7B",
"G. c #9E7B7B",
"H. c #A46666",
"J. c #B96767",
"K. c #A77A7A",
"L. c #BC7979",
"P. c #CD4949",
"I. c #C35B5B",
"U. c #D35A5A",
"Y. c #F44C4C",
"T. c #C36565",
"R. c #CB6666",
"E. c #CB6C6C",
"W. c #D76767",
"Q. c #D16B6B",
"!. c #CE7878",
"~. c #DA7777",
"^. c #E76666",
"/. c #E27272",
"(. c #E77676",
"). c #F97575",
"_. c #848484",
"`. c #8B8383",
"'. c #8A8A8A",
"]. c #938181",
"[. c #938C8C",
"{. c #9A8A8A",
"}. c #939393",
"|. c #999595",
" X c #9C9B9B",
".X c #AA8282",
"XX c #A88C8C",
"oX c #B78A8A",
"OX c #A59C9C",
"+X c #BB9393",
"@X c #BF9B9B",
"#X c #A4A4A4",
"$X c #ACA5A5",
"%X c #AAAAAA",
"&X c #BAA8A8",
"*X c #B5B4B4",
"=X c #BDB6B6",
"-X c #BCBBBB",
";X c #C98989",
":X c #D58787",
">X c #C79898",
",X c #DA9595",
"<X c #D39C9C",
"1X c #E88888",
"2X c #FF8282",
"3X c #F18D8D",
"4X c #E79797",
"5X c #F79999",
"6X c #C5A7A7",
"7X c #D4A2A2",
"8X c #DAA4A4",
"9X c #DCA8A8",
"0X c #C8B6B6",
"qX c #D9B8B8",
"wX c #E1AAAA",
"eX c #FBA4A4",
"rX c #E6B3B3",
"tX c #F8B7B7",
"yX c #C4C2C2",
"uX c #CCC5C5",
"iX c #CACACA",
"pX c #D4CACA",
"aX c #D5D5D5",
"sX c #DBD5D5",
"dX c #DCDBDB",
"fX c #EAC5C5",
"gX c #FBC6C6",
"hX c #E8D8D8",
"jX c #FAD5D5",
"kX c #E8E6E6",
"lX c #FCE8E8",
"zX c #FFF3F3",
/* pixels */
"E U U P P P t P t e 8 6 X % 8 8 6 8 e t 6 X % % % # % 8 P U E t 8 8 % # X # 6 e e 8 e P P t t t 8 6 6 6 8 P E Q E P 8 # X X # X # % % 8 8 e t P ",
"U U P t t P P t e e 8 % # 6 8 8 6 8 t t 8 # % % % % 6 e t U U P 8 8 % % # # % 8 8 e e t t P t e e 8 % 8 8 P E E U P 8 % # # # # # # % 8 8 t t t ",
"U P t t t P t e e 8 6 6 % % % 6 8 e t t 8 6 6 6 6 8 8 e t P P t t t t 8 % # % 8 8 8 e e e e e t e 8 % 8 t U E U U U t 8 6 % # # # # # 6 8 e t P ",
"P t e e e P r e 8 6 6 6 6 # # 6 e P P t t 8 8 % 8 t t e 8 t P P P U Q U 8 X % 6 8 8 e 8 e e e t P 8 # 8 E Q U P U U P P e 8 % # # X # 6 e e t P ",
"t t e e e 8 8 8 6 % % # # % % 8 P E P P P e e 8 8 t t t t t P t t P U P e % 6 % 6 6 6 6 6 6 8 6 8 % # 6 t U U P U U P P t 8 % % % % % 6 8 8 e e ",
"t P e e 8 6 6 6 % # # # # # 6 e E Q E E P P e 8 t t t P P t t t e t t t e 8 8 6 % # X # # % 6 % # X # % 8 t P E P t P t t e e 6 6 8 8 8 6 8 8 e ",
"t r e 8 6 % 6 e e 8 % % # % % e E Q Q E U P t e e t t t t t t t e e P t e e 6 % # # # # # # % # # # # # 6 8 t P t t t t e t 8 6 % 6 8 6 % % 6 8 ",
"e e 8 6 % # 8 P E t e 6 X # 6 e U E E Q U t P t t e e t t t e 8 e t P P t 8 8 6 6 6 # # X # # % % % X % 6 6 e e t e 8 e t t e % # % 6 % # % 6 6 ",
"8 6 6 6 6 6 e U E U t 8 % % 6 8 P U U E U P t t t e e r t e e e e t P P e 8 6 % % 6 % # 6 % 6 6 6 6 % % 6 6 8 8 8 e e e e t e % # # 6 % # # % 6 ",
"% % % % 8 P U U U U U t e 8 6 6 8 e P U P t t e e t t r e t t t t t P t e 6 % % # # % 6 8 e t e t 8 8 6 8 8 6 6 8 e e t t e 8 % # % 6 % % % % 6 ",
"# # % 6 P Q E U P U E P P 8 6 % 6 6 e t t P e e t P P e e t t t t t t e 6 % # # # # 6 8 r P U U t t e e e 8 8 6 6 e e t e e 6 % # % 6 6 6 6 6 6 ",
"% % 6 8 t U E E E P P P P 8 % % % 6 8 8 e r r t P P P t t t P e e 8 6 6 % # # X % 6 8 t P P U P U P t t P t t 8 8 6 8 8 8 % % % 6 6 e 8 8 8 6 8 ",
"% 6 8 8 t t U Q Q U P t t 8 # # % 6 % 6 8 8 t t P U U P P P t e % % # # X # # # 6 8 t U U P P U E U t U U U P t e % 6 % % # # % 6 e P e e 8 e 8 ",
"6 6 8 t t t P P P P t t t 8 8 6 % % 6 8 8 8 e t P P U P B P P 8 % % + # # # # + 6 t U U U U P U P P t U E E P e 6 % % 6 % X % 8 t t t P P t t e ",
"% 6 e t t P t e e t t t 8 t t 8 % % 6 8 6 6 8 P t P P B V V V q % $ $ 2 6 7 6 % t W Q Q Q E U U t P t E Q E P 8 6 X % % % # % t U P P P E P P t ",
"8 8 8 e t P t e t t t t t t P 8 % % 6 6 6 % 8 e t t Z J 2.2.2.4.~ G G ~ ' [ [ X.A.}. X}._.} U P P P P U E E P t e 6 % % # # % t U U P U U P P P ",
"8 8 8 8 e t t t t t P t P t B e 6 % $ % % 6 6 6 e t F 6.r.e.t.d.R.Q.!.~.,X<X7X7XqXsXdXaX*X@.U P P U E U U U E E P r 6 # # X % e P U U U P P P t ",
"8 8 6 % 8 t t t P t t t t r e 8 6 6 r V Y R W R R ~ 4.6.,.,.0.7.I.~.3XeXtXtX9X>X&X-X-X-X%X}.O. . . . . ...| Q W U t 8 # % % 6 e P P U P t t t P ",
"6 6 % # 6 e t t t t e e e 8 6 % # r [ K.oX+X+X+XL.J.v.S f p p d D D.rXgXgXrXK.) T W Q Q O. X*X-X=X&X@X@X>XXX..U P e 8 % 6 8 e t P P P t e e t e ",
"% % % # % 8 e t t e 8 8 8 7 2 7 9 Y K.>X<X8X8X<X,X!.c.m $ . o . $ ..pXlXjXwXM.2 . + X % U }.iXdXsXqX9X7X7X+XN.T P t e 6 8 t t P t r P e 8 8 8 8 ",
"% % % % % % 8 e e 6 % % 7 N g.j.c.x.x.{ M.x.X.X.x./ C 0 % # X   # } pXzXjX9XX.$ . % % % e Q @._.@.Z.M.X.{ N.S.S.S.B.! r e t t t e e 8 8 6 6 6 6 ",
"X X % % % # % 8 8 # # X < ^ E.~.~.m.C 2 < $ $ $ $ $ $ $ % # X X %  .iXkXgX8XM.2 # 6 8 e 8 6 % % % % % # $ V D.7X9X7XS.I t t t e 8 6 6 6 6 % X # ",
"% % % % % % % 6 q C G / g.j.l.k.h.H w $ % % % # # # % % % # % t  .@.`.`.S.N.{ ) B % % % 6 % # # # # # X X 7 ! N.B.C.x.( j.( ~ w 6 % # % # 6 e t ",
"e 8 % X % % % 6 N l.J.E.J./ 5 3 1 3 7 e e e 8 8 8 8 e 6 % X 6 O.=X'.I 8 7 w { +XM.2 X X # 6 8 6 X # % # # % 7 3 7 7 ~ n.T.T.c.m # # # # # 8 U Q ",
"t e 8 % 6 6 5 s c 5.v.n.l.C % $ $ 2 8 e r r e 6 8 8 8 6 # X % _.dX}.8     % { 8XD.7 . . # 6 8 % # # % % 6 6 6 % # + v g.n.z.k.S s - + # # 8 P U ",
"t t t t 8 2 s %.&.z b v v 9 6 6 6 8 8 e e 8 8 6 % % % # % X 8 _.iX'.8     $ [ <XD.q # # # % # % % # # % 8 e e e 6 % 3 0 v n z &.%.a @ # % 8 e r ",
"t t t t M d l $.k y O . + # % % 6 6 6 % % 6 % # X X X # % e U _.#X .6     + Y G.B.W e 6 # X # # % % $ 6 8 8 e 8 7 6 # . . @ , j $.j i > 2 8 e t ",
"e e t P S 3.=.h i = + . . X . + # # + . + + + X X . X # q } }.A.Q t #   . + 9 Z X.[. .t % # # # % % 2 % % % $ $ $ $ + . . . O y h &.=.d 3 q t P ",
"t e N D 5.a.9.J N r r w 9 9 5 5 5 4 > ; ; ; > 5 5 5 9 w ! OXuX{.T t w 9 5 5 4 s x.6XOX} B t r r w w 0 5 5 4 > , , , > 4 5 q 0 b F 9.a.3.d b I U ",
"U U 4.6.d.^.~.+X|.|.}.F.S.c.l.l.k.4.-.*.$.*.;.5.l.z.c.V.XX9XfX0X}.].S.N.x.5.2.=.b.4X8X@X X|.[.F.S.c.l.l.l.5.;.$.*.$.;.5.c.V.D.D.K.:X1XP.;.S Z U ",
"Q ) 8.p.Y.eXgXjXhXsXpXqX<X:XE.R.R.U.p.q.w.q.a.U.~.1X1X,X7X9XrXuXpXqX7X;X!.R.a.r.a.^.,XqXsXhXhXrX<X:XQ.E.R.P.p.w.q.w.a.U.!.,X8XrXfXjXjX).i.<.C t ",
"Q _ v.Y.2XgXgXtX8XXXo.` ) ^ K K J S x k j j x J H.>X<XG.[ ' ) ..O.o.{ ' / J c j x J ~ ..F.>X<XK.[ ^ K K K S x j j j x F K ' S.0XjXzXlX).u.<.C P ",
"W ' H.~.5XfXfX4XJ.G 9 2 < @ @ + @ o o O o o o $ ` $X$X} 2 # # # # % # $ # @ o o o + . $ m n.m.K 2 + + @ + @ o o o o @ $ 2 8 W #XdXkXhX).i.<.F V ",
"V.V.c.z.C.].S.x.g.L F F C 5                   # Q %X#XQ % + % % # % 6 6 # # X . X X . + s 3.9.c o                   8 Q  . .+._.'.}.].l.=.=.-.2.",
"(.E.h.0 7 7 7 9 C l.I.R.m.F @                 # Q %X#XQ 6 % e 8 6 8 e e 6 % % % % 6 # . i =.1.h o                 X W %XiXyX X} t 8 7 3 , j ,.e.",
").~.L $ . X # $ 0 / n.I.m.J y y : : : : O   % t  .}._.U 6 8 t t r t P e 8 % 6 6 8 e 6 + > j *.j y & . # e t P t t P O.%X-X*X'.P #       . g w.y.",
"2X~.g.$ # 8 6 6 3 0 m m A x :.>.>.>.>.*.p O P _._. .U e 6 e t P P P P e 6 % 6 8 e t 6 % = , f #.*.p @ P `.%X%X%X%X%X_.} Q E P 6 # X X . o f w.y.",
"2X(./ @ % t e 6 $ X + . = l 0.w.w.w.w.0.j , [ 6XXXR q 6 8 e t P E P P 8 % # 6 e r r 8 6 # o , &.r.%.4 ) *XaXaXsXaXiX@.8 X X X # % # X X o g r.y.",
"eX1X( $ # 8 8 % % % % % 3 i j k k k #.#.#.#.8.^.R.z.D 0 6 6 8 t U t 8 6 % % 8 e e 6 % # X . 4 k.W.9.-.J X.@.@.@.@.@.E % X X # # # # X . o z d.f.",
"tX9Xx.$ X % # # % t P P e 2 O o O O = > k 0.u.u.f.U.v.m $ . # q U e % # % 6 e t 8 # X X X X e A.rX^.t.&.s 2 % % % % # X # % % # X # X X o D U.).",
"gXwXM.$ X 6 e 8 e P U U U e % X . % U ` L &.*.*.;.5.h.( ~ ! ! r 6 # X # # $ % 6 B Q  .}  .} O.@.F.k.&.#.k p &     X X X # % % % # # # X . F E.2X",
"tX<XM.2 # e t U U P P E Q P 8 6 # t _.%XX.4 * * = 4 Z C.oX>XoX! % # # # # $ # % W #XyXyXyXyX#X .e 1 ; g >.*.y @ # X X X % % % # # % % X % G E.).",
".XK.M.! M 8 e P P U P U E t e t E  ._.'.W % . . . # q ) D.K.G.o.Q Q Q W W Y Z Z [ [.#X#X#XOX_.U # . @ y #.&.S n 5 + X # # % % # # # % e W { n.n.",
"V ! N..X[ q 6 e P U U U P 8 6 Q  X|.O.P 8 # X X X + $ q B V ! ].*X*X%XOXXX.XJ.m.z.~ T T T U t 6 X X . = ; z 5.z.C $ X X X # # % # X % } #X].! N ",
"# q N.7XD.9 % 8 P P U U P 6 % } yX*XQ % # X # # X X X + % w _ $XhXaX*XOXXXK.R.Y.9.c a i s - + + X X X X o v v.R.L @ X % % # % # # X % _.aX|.P # ",
"# 8 B.wXG.q % e P U E E U 6 %  .iX*XE # # % % $ + + . + 3 ! G.0XkX*XO.W R ~ 5.f.p.1.:.*.j : o . . # X X . 5 v.Q.g.< % 6 6 % % # + + 6 '.dX}.e X ",
"# 8 ..>XG.T t e e P U U P t P O.%X XP X # # 3 > : , , 4 m x..X6X*X@.t % 2 5 x ,.,.,.,.>.$.f : : ; - # X . 3 g.m.g.s 9 e 8 6 % # # 6 B `.*X@.8 # ",
"8 e Y ..F.'. .t 8 e t 8 8 Q '.@.O.E 6   X X i %.*.=.=.5.k.' ) ` } U 8 6 6 9 s p g g f f j #.*.*.#.i + X . @ v F / j.D 7 % 6 6 # 3 Y N.Z.O.U 6 X ",
"B t 8 6 O.*X XE 8 e e 6 e @.*X@.e + O O O & f ,.q.w.p.P.v.D < # % % 6 e B P 6 + o @ o O y $.0.w.,.x 3 % 6 % 6 w / m.h.5 3 7 2 2 B N.oXX.r % # # ",
"P t t t Q @.}.'. .U t Q _._. .P # & p #.$.#.k j g g h c C 0 # # # % % 8 e e 6 # % # # X = y f g l / _._._._.`._.M./ L g.D w w ! M.N.[ B % # % # ",
"P P P U t r O.%X X} T '.0XA.9 = o y *.q.w.w.$.: o @ + @ $ % % # # X # # % 6 6 % # # X # + o . o 1 O.uXdXdXaXdXyX@.r ^ I.c.C Y C..X) 6 % # % % 6 ",
"P P U U e 6 U @.}.A.F.6XpXL.x g g j #.*.*.$.a 1 % 6 6 % % % % % % # # # % % % 6 # # # X # . X X % E _.}.}.}.}.'.A.o.K.~.E.V.N.B...P # X # % 6 6 ",
"U U U P 8 # 6 P o.XX7XrXeX^.t.w.q.:.f ; * * $ 8 t t t t e 6 # % % % % % # # % 6 % # X X # # % 6 8 8 8 8 8 8 e P _.0XwX3X1X,X.XM.P 8 X % % 6 8 8 ",
"U U U P e 6 6 % V S.+X7X<X/.Y.f.f.s.d       X 6 8 t t t e 6 # # % % % % # # # % % # # # # # % 6 8 #       # 8 E #XkXfX:X:X;XK.W 8 % # % 6 6 8 e ",
"I P U U P t 8 % 8 T ..N.Z.;XeXeXeXL.Z .     X X # % 6 8 e 6 % % # % # # # # # # # % % % # X . . # .       8  .%XaXkX0XS.X.) T w % % % 6 8 8 8 e ",
"P P P U U U r 6 % 7 e t E `.pXhXhX*XQ 6 % % % % % % 6 6 6 6 % % # # # # # # # # % 6 6 % $ @ O O O O $ $ $ T  XsXdXkX#XW t q 8 % # % 6 8 8 e e e ",
"P t t P P P e 6 % % % 8 e E @.'.}.}._.@._.@.@.@.@.O.Q t 6 # X # X # $ % # % % % % % % $ - a j k k 2.4.g.{ Z.[. X}.}. .t e P t e 8 6 6 8 8 e t t ",
"P P e e t P e 6 % # # % 6 6 8 e P }  XaXdXdXdXdXdXaX#XE % X X X X # # # + + + . + + . o y *.w.w.e.d.Q.:X<X+XZ.W U P e 6 r E Q U t 8 6 6 e e t t ",
"e e t e e t e 8 6 # # # % % # 6 8 P @.#X#X#X#X%X%X%X X_. . . . . ...[ ' ' ) ~ H F F z h l =.<.<.<.8.n.K..XF.} P t 8 8 8 r P U U P t 8 6 6 8 t P ",
"e e e P e e e 8 8 % X # X % % % % e Q O. . .} Q } O.'.#X-XiXiXiXyX0X6X>X>X;X;XE.R.J.P.7.1.2.n n s M N V T W E U t e e 8 e P P U U t 8 % # 6 e t ",
"6 6 e e 6 6 8 6 6 % # # # % % 6 8 t U E U U P P P E } '.%X-X-X-X0X&X>X+X+XoXoXJ.J.J.I.7.3.J B e e 8 % 6 e P P P e 8 8 e P P U E E t e 6 # % 8 8 ",
"# % 6 6 6 % % 6 6 # X # % % # 6 t U P P t e t t P t P E Q  .O.@._.@.o...o...[ ' [ x.x.L G V B P U 8 # 6 8 t t P e 6 e t P U U Q Q P 8 6 # # # % ",
"X # % 6 % # # % # # # % 6 # # 8 U U P t t e e t t t t t P P P U Q E U U U E T I E Q W T U I P U U 8 % % 6 8 8 e 6 6 e P U P E E E P e 6 # # # # ",
"X # 6 8 6 % % # # # # # 6 % X 8 U E U P t t t e P U E E U P e P U U E E E E E W W W U U P U U U P e % % % % % % % # e E U P t P P t e 6 % % % % ",
"# % 6 e 8 6 6 % % # # % % % X e U E U P P P P e P E Q Q E t 8 t P E E Q E E Q Q Q E P P P U U P t e 6 # # # # # # # e Q U e e t t e 8 6 6 6 6 6 ",
"8 8 e t t e e 8 6 % % # # # % 8 P U U U U E U P P E U t t 8 % e U E E E U U U Q U U U t t t t t e 8 % % % # # # % 6 t U P e e e e 8 8 % % 6 e t ",
"P t P P P U E P t 8 % # # % % 8 t P U E Q Q Q E U P t 8 % # # t Q Q E U P P U E U t t t t e e 8 e 6 # # % % # # 6 8 e P t e e e 8 6 6 # # 8 P E ",
"E E U P E E U P t t 8 6 % # % 6 e t P U E Q U P P P e 6 % % % 8 U P P t t P P U U U U P t e e e e 8 % # % # # # % 8 8 6 8 6 6 6 6 % % 8 e t t U ",
"Q Q E E U E P P P t t 8 % % # % 8 e t P U E U P P P e % # % 6 6 e e e e t t t t P E U P t e e t t 8 6 % # X # # % % % # % % % # # # # e Q E P t ",
"Q E E Q E U U P P t e 8 % % # % 6 e e t P U t t e e 8 % X # % 6 6 8 8 8 e t t t t U P t t t e e t 8 % # # # # # % 6 % # # % % % # # X e E U U U ",
"U P E Q E P P U P t 8 6 # % % 6 % 8 8 e t P t e e 6 6 # X # # % 6 6 6 6 e e e e t P t e e t t t e 6 # # # # % % % 6 # # # # # % % # # 8 t U U U ",
"P P E Q E P P E U t 8 % X % % 6 6 6 8 e t t t e 8 6 % # # # # # 6 % 6 6 8 e e e t t t e e t t e 8 6 # # X # % 6 % 6 % # X X # % 6 # # 8 t P U E "
};
