/* XPM */
static char *dngn1670871921[] = {
/* columns rows colors chars-per-pixel */
"72 72 223 2 ",
"   c None",
".  c #000000",
"X  c #0F0202",
"o  c #0F0B0B",
"O  c #1E0101",
"+  c #1E0D0D",
"@  c #130000",
"#  c #171414",
"$  c #1F1212",
"%  c #1F1C1C",
"&  c #2F0000",
"*  c #270000",
"=  c #350000",
"-  c #3E0000",
";  c #2E1717",
":  c #2F1919",
">  c #261616",
",  c #3A1C1C",
"<  c #3B1818",
"1  c #252525",
"2  c #2E2323",
"3  c #2E2E2E",
"4  c #3F2020",
"5  c #362828",
"6  c #343434",
"7  c #3D3232",
"8  c #3D3D3D",
"9  c #4D0101",
"0  c #460303",
"q  c #550000",
"w  c #5E0101",
"e  c #4D1717",
"r  c #5B1818",
"t  c #640000",
"y  c #6F0000",
"u  c #6C0C0C",
"i  c #740000",
"p  c #7F0000",
"a  c #7F0C0C",
"s  c #7F1313",
"d  c #7D1B1B",
"f  c #671111",
"g  c #4D2626",
"h  c #4E2929",
"j  c #452222",
"k  c #592D2D",
"l  c #4B3737",
"z  c #5E3131",
"x  c #5F3A3A",
"c  c #7F2020",
"v  c #7B2727",
"b  c #633232",
"n  c #6F3939",
"m  c #693838",
"M  c #7F3232",
"N  c #743B3B",
"B  c #7E3C3C",
"V  c #6F2323",
"C  c #454545",
"Z  c #4D4545",
"A  c #4F4E4E",
"S  c #594747",
"D  c #565656",
"F  c #5D5D5D",
"G  c #5A5555",
"H  c #654C4C",
"J  c #6F4848",
"K  c #7F4040",
"L  c #7F4C4C",
"P  c #6F5454",
"I  c #675353",
"U  c #7F5353",
"Y  c #7D5C5C",
"T  c #735959",
"R  c #636363",
"E  c #6F6E6E",
"W  c #6D6161",
"Q  c #7F6161",
"!  c #7F6D6D",
"~  c #716B6B",
"^  c #737373",
"/  c #7F7575",
"(  c #7E7E7E",
")  c #840000",
"_  c #8E0000",
"`  c #8F0E0E",
"'  c #9E0000",
"]  c #970606",
"[  c #8F1414",
"{  c #8F1F1F",
"}  c #9D1C1C",
"|  c #A40000",
" . c #AE0000",
".. c #B30101",
"X. c #BF0000",
"o. c #B40808",
"O. c #AD1515",
"+. c #8C2525",
"@. c #8F3434",
"#. c #8F3F3F",
"$. c #9F3030",
"%. c #B93030",
"&. c #B73333",
"*. c #C30101",
"=. c #CF0000",
"-. c #CA0D0D",
";. c #D20000",
":. c #DF0000",
">. c #D20C0C",
",. c #DB1515",
"<. c #EF0000",
"1. c red",
"2. c #FF0F0F",
"3. c #FF1414",
"4. c #FF1C1C",
"5. c #EF1616",
"6. c #CB3939",
"7. c #CE2929",
"8. c #FF2828",
"9. c #FF2020",
"0. c #FF3D3D",
"q. c #FF3030",
"w. c #824242",
"e. c #8F4848",
"r. c #8F4343",
"t. c #9B4E4E",
"y. c #9D4747",
"u. c #8F5353",
"i. c #8E5B5B",
"p. c #9F5050",
"a. c #9F5E5E",
"s. c #A94949",
"d. c #AD5757",
"f. c #BA5B5B",
"g. c #8D6464",
"h. c #8E6C6C",
"j. c #866565",
"k. c #926C6C",
"l. c #8C7676",
"z. c #9E7A7A",
"x. c #9D7474",
"c. c #AD6E6E",
"v. c #BF6060",
"b. c #B46262",
"n. c #AA7B7B",
"m. c #CD5050",
"M. c #FF4141",
"N. c #FF4848",
"B. c #FF5656",
"V. c #EF4B4B",
"C. c #CF6868",
"Z. c #C46868",
"A. c #CD7A7A",
"S. c #DF7171",
"D. c #D87878",
"F. c #D56060",
"G. c #FF6060",
"H. c #FD6868",
"J. c #EF7878",
"K. c #E17474",
"L. c #FF7575",
"P. c #FF7B7B",
"I. c #F37D7D",
"U. c #E76565",
"Y. c #8E8D8D",
"T. c #898383",
"R. c #9F8888",
"E. c #949393",
"W. c #9E9D9D",
"Q. c #9E9696",
"!. c #AB8585",
"~. c #BA8989",
"^. c #A79393",
"/. c #B99797",
"(. c #A5A5A5",
"). c #AEAEAE",
"_. c #ABA1A1",
"`. c #B9A8A8",
"'. c #B6B5B5",
"]. c #BDBDBD",
"[. c #BDB4B4",
"{. c #CF9999",
"}. c #D89898",
"|. c #D38D8D",
" X c #FF8080",
".X c #FF8C8C",
"XX c #FF9191",
"oX c #FF9A9A",
"OX c #F39393",
"+X c #EE8E8E",
"@X c #CFABAB",
"#X c #DFA9A9",
"$X c #D7A5A5",
"%X c #C6B9B9",
"&X c #DBB7B7",
"*X c #E5A6A6",
"=X c #E6ACAC",
"-X c #FFA3A3",
";X c #FEADAD",
":X c #EEB4B4",
">X c #EFBFBF",
",X c #FFB3B3",
"<X c #FCB9B9",
"1X c #C3C3C3",
"2X c #CECECE",
"3X c #CFC2C2",
"4X c #D9C5C5",
"5X c #DFDEDE",
"6X c #D3D2D2",
"7X c #FFC1C1",
"8X c #FFCBCB",
"9X c #FFD4D4",
"0X c #FFDDDD",
"qX c #F1D1D1",
"wX c #EFD8D8",
"eX c #E3E2E2",
"rX c #EFEFEF",
"tX c #FFE5E5",
"yX c #FFEFEF",
"uX c #F1E0E0",
"iX c #FEF5F5",
"pX c #FFFFFF",
"aX c #F3F2F2",
/* pixels */
"                                                                                                                                                ",
"                                                                                                                                                ",
"                                                                                                                                                ",
"                                                                                                                                                ",
"                                                                                                                                                ",
"                                                                                                                                                ",
"                                                                                                                                                ",
"                                                                                                                                                ",
"                                                                                                                                                ",
"                                                                                                                                                ",
"                                                                                                                                                ",
"                                                                                                                                                ",
"                                                                                                                                                ",
"                                                                                                                                                ",
"                                                                                                                                                ",
"                                                                                                                                                ",
"                                                      1.1.1.1.0.L. XP.XX;X>X7X>X0XpXpXpXpX                                                      ",
"                                                      -.X.X.*.%.f.D.OX-X,X<X#X{.`.].].].1X                                                      ",
"                                      <X7X7X7X7X;X.Xm.V 9 9 q e g k.&X9X7X:Xx.l Z A D A ^ '.pXpXpXtX7X7X7X7X                                    ",
"                                    *X#X#X#X#X#X}.D.d.g . . . . . I 2XyX9X#XP . . . . . 8 W.eXeX5X4X#X#X#X*X                                    ",
"                             X X XZ.i.P P P P P J n b 4       . . R 2XiX9X#XP . .       3 F E E E W P P P j.~.7X7X7X                            ",
"                             XP. XZ.h . . . . . . . .           . R 2XyX9X*XP .           . . . . . . . . l !.7X7X7X                            ",
"                          d.w.K K n ,                         D ( ( ( / ! Y j.Y S o                       5 H Q Q Q c.J.                        ",
"                   X X X Xw.+ o o o                       . . ( eXW.6 o o 2 j.:XY o . . .                   o o o o w.J. X X X                  ",
"                7.s.s.p.p.b o . .                         . . ( rXW.3 . . % h.7XQ o . .                       . . . b t.p.p.s.7.                ",
"              1.*.f : : : >                               . . ( rXW.6 . . % k.<XQ o .                               > : : : r o.1.              ",
"            ;.*._ - . . . .                               6 8 ( '.^ 1 . . # P /.Q C 6                               . . . . & ) *.=.            ",
"          1...t - @ . . . . . . . . . . . . . . . . . . % ^ ).( D 6 o . . X 2 l / ).( 3 . . . . . . . . . . . . . . . . . . @ = w | 1.          ",
"        3.4.O.j % % % % % $ $ $ $ + + O O O * $ $ $ $ $ 7 Q.iXY.3 > % $ $ + + * l.uX^.Z % % % % % > + + $ + + * O * + + $ > % % < } 9.4.        ",
"      1.M.H.A.!.Y.E.Y.l.h.i.e.e.e.@.[ _ _ _ +.w.e.e.u.g.z.@X9X%XE.T.h.g.u.r.{ _ Z.;X@X^.E.Y.E.l.h.i.e.e.e.@.[ _ _ _ +.e.u.g.h.h.x.A..XB.3.      ",
"    1.1.G.,X9XiXpXpXiX0X7X-X X XP.B.q.1.1.1.M.P.P. XXX;X7X7X7XtXpXtX8X,XXXH.0.1.M.L.;XtXpXpXiX9X7X-X X X XG.8.1.1.1.M.L.oX,X<X7X7XtXpX X3.1.    ",
"    M.0.XX9X9X8X&X^.l.! Q L K K K @.s i p p d #.c.*X*Xn.Y Q Q ! ( / j.Y L B d p c B U / ^.@X:X~.Q U K K B M s p p p c B L U R.&XtXiXpXP.2.1.    ",
"    L.L.<XiXqXoXZ.x o o o o o o o o X @ X X X o R 2X%XG o o o # o o o o o o X @ o X o o h b.D.K o o o o o o X X @ X o o o o Z ).pXpXpX X3.1.    ",
"    f.p.x.Q.R.b.e.N z z b ; . . . . . . . . . . I 2X1XA . . . . . . . . . . . . . . . . < &.V.V . . . . . . . . . . 3 D F F E Y.W.W.W.s.]  .    ",
" XK.K ; 2 3 2 : k p.C.C.F.m o . . . . . . . . . R 2X].A . .                           . - O.,.u . . . . . . . . . . R 1X2X2X(.R 6 3 3 : = i ;.1.",
" XS.N . . . . . , e.v.v.f.M 0 - 0 - - = O . % 8 E (.W.C .                             . = _ ..i - * . # 6 8 C 8 8 C T.'.].].W.Z . . . . . w =.1.",
" XS.n . .         j h h h [ |  . . . .' 0 . D (.Y.R C 3                                   0 w )  .q X 8 Y.).).).'.).( D A A C 3       . . w =.1.",
".XS.n .           . . . . i =.:.:.:.:.*.i * h.qX^.l $                                     . + [ 4.[ & G '.eX5XeXeXeX^ o . . .           . w >.3.",
"-X|.J .                   9 y y y y y i i _ 6.H.F.s.N 4 . . .                     . . . . . $ u..Xm.] +.T E E E E E A                   . r 6.N.",
"7X#XP .                     . . . . . O _ 1.1.1.0.H.v.h . . .                     . . . . . % Y.pX X2.' = . . . . .                     . b C. X",
"7X*XP .                       . . % D ! B p p p s B w.U Q Q Q l o               D ( ( ( ( ( T.( ( B a p p t * . .                       . z C. X",
"7X#XP .                         . 8 (.6X~ X X X X o l n.:X:X:XY o . . . . . . . ( 5XrXrXrXrX6XE o o X t *...9 .                         . z C. X",
"7X*Xl.S l                     8 D ^ Y.Y.D . . . . . 5 Y x.z.z.! R F R F G H x z Q W.W.W.W.W.E.D . . . 9 _ ` V k 4                     C F j.D. X",
"    }.$XP o .               . D ).(.R 3 1             2 2 2 5 / 1X2X2X3X@X{.A.C.L 7 3 3 6 3 3 1         * r y.f.b .                 . ^ 1X4X    ",
"    7X7XY o .               . R 2X].A .               . o > h Q.aXeX2X[./.|.S.G.$.0 - - & @ . .         . 4 d.K.n .               . . ( rXpX    ",
"    7X7XQ o .               . F 2X1XA .       . . . . . o S !.4XiX1XE A Z b &.8.,.o. . .) = . . .       . , d.K.n .               . . ( rXpX    ",
"      7Xh.1 %             % % R '.).C . .   O O O O O + 5 j.*X4X5XE.3 . . * ) :.:.:.:.:...w O * * @     . , t.Z.N + +             % % T.rXpX    ",
"        /.E.E 1         . D Y.T.^ D 1 . . . w _ _ _ [ @.e.U P W E D 1     @ q y y y y y i ) _ _ _ w X . . + g N w.e.k o         $ H j./.        ",
"          pXW.6 .     . . T.rXW.3 . . . . . p <.1.1.9.B.K.n . . . .         . . . . . . - ..1.1.1.p X . . . . $ e. XK o .     . > k.7X          ",
"            '.Y.E 8 % D ( ( ( A # O q ) p p p ) p p a M N h                             = t p p p B l.( ( ( ( / i.K K B b > 5 H j.!.            ",
"              rX'.A % Y.rX( % o . - | <.<.<.) @ X X X o o                                 X X X X ( 5XrXrXrXrX6XE o K K.t.: 7 n.:X              ",
"              pX%Xl.T _.yXc.f w t t _ | ' ' t X . . . . .                                   . . . F W.W.W.W.(.E.^ R c.I.v.U Y ~.7X              ",
"                  $X$X:X8XU.>.*.*.| t & & & *                                                     1 3 3 3 6 6 C Y.2X*X X+X}.{.                  ",
"                  7X>X7X7XL.M.0.0.7.e . . . .                                                     . . . . o 3 D ).pX8X.XoX<X7X                  ",
"                          ,X,X,X;X~.l . . . . . . . .                                       . . . . . . . 3 ^ '.6XpXtX                          ",
"                            pXpXpX1XR % 1 % % % > 1 %                                     O O * O * $ $ % A ).pXpXpX                            ",
"                                  2X(.Y.Y.Y.Y.E.Y.Y.( 8 . . . . . . . . . . . . . . . . = i _ _ _ +.r.u.g.R.%X                                  ",
"                                    pXpXpXpXpXpXpXpX].A . . . . . . . . . . . . . . . . -  .1.1.1.M.L.oX,X<X                                    ",
"                                                    2XE.T.( ( ( ( / Q Q Q i.L K w.w.v a _ *.                                                    ",
"                                                      rXrXrXrXrXrXwX7X:X:X=XOXJ.J.J.V.5.<.                                                      ",
"                                                        pXpXpXpXpXtX8X7X7X<XoX X X XB.3.                                                        ",
"                                                                                                                                                ",
"                                                                                                                                                ",
"                                                                                                                                                ",
"                                                                                                                                                ",
"                                                                                                                                                ",
"                                                                                                                                                ",
"                                                                                                                                                ",
"                                                                                                                                                ",
"                                                                                                                                                ",
"                                                                                                                                                ",
"                                                                                                                                                "
};
