/* XPM */
static char *torch11671204915[] = {
/* columns rows colors chars-per-pixel */
"72 72 195 2 ",
"   c #010101",
".  c #0D0303",
"X  c #0C0C0C",
"o  c #140303",
"O  c #1C0505",
"+  c #130D0D",
"@  c #1B0B0B",
"#  c #19100D",
"$  c #131313",
"%  c #1C1414",
"&  c #1E1816",
"*  c #1B1B1B",
"=  c #220303",
"-  c #2C0202",
";  c #250C06",
":  c #220C0C",
">  c #2C0B0B",
",  c #320101",
"<  c #3C0201",
"1  c #390D06",
"2  c #330C0C",
"3  c #23120E",
"4  c #36150B",
"5  c #3D1B0C",
"6  c #231414",
"7  c #2B1313",
"8  c #231915",
"9  c #2D1A13",
"0  c #221B1B",
"q  c #2C1C1B",
"w  c #321212",
"e  c #341914",
"r  c #3C1E11",
"t  c #321D1D",
"y  c #3B1C1C",
"u  c #2E211B",
"i  c #3C2219",
"p  c #232323",
"a  c #2C2323",
"s  c #2B2B2B",
"d  c #352626",
"f  c #3E2323",
"g  c #312C2C",
"h  c #333333",
"j  c #383333",
"k  c #3B3B3B",
"l  c #470D01",
"z  c #520F00",
"x  c #461A0B",
"c  c #571A04",
"v  c #5A1C05",
"b  c #411F10",
"n  c #4C220E",
"m  c #4E2C0A",
"M  c #54220B",
"N  c #5C240B",
"B  c #5C2809",
"V  c #4B2717",
"C  c #5B2B13",
"Z  c #572E1B",
"A  c #6C2807",
"S  c #62250A",
"D  c #652A0C",
"F  c #762905",
"G  c #7A2905",
"H  c #67370B",
"J  c #793505",
"K  c #6B3919",
"L  c #773112",
"P  c #763516",
"I  c #462E2A",
"U  c #56392B",
"Y  c #443535",
"T  c #4A3C35",
"R  c #463C3C",
"E  c #603D22",
"W  c #7A421D",
"Q  c #5F402C",
"!  c #4E443A",
"~  c #584839",
"^  c #62452C",
"/  c #7B5129",
"(  c #6C5137",
")  c #67503B",
"_  c #745230",
"`  c #434343",
"'  c #4B4544",
"]  c #4B4B4B",
"[  c #534D47",
"{  c #5A4E42",
"}  c #54544F",
"|  c #535353",
" . c #5F5F50",
".. c #5B5B5B",
"X. c #6A5A41",
"o. c #686852",
"O. c #777754",
"+. c #7D7D56",
"@. c #626262",
"#. c gray42",
"$. c #717171",
"%. c #7D7D7D",
"&. c #812400",
"*. c #822B03",
"=. c #8B2D02",
"-. c #922F01",
";. c #863606",
":. c #933301",
">. c #9A3100",
",. c #9D3B00",
"<. c #883B10",
"1. c #A23D00",
"2. c #8E4004",
"3. c #9A4807",
"4. c #864919",
"5. c #974811",
"6. c #84501E",
"7. c #8C521D",
"8. c #995512",
"9. c #A64400",
"0. c #A54707",
"q. c #A94503",
"w. c #AC4B02",
"e. c #AF490C",
"r. c #AE5200",
"t. c #A0510B",
"y. c #B25502",
"u. c #B55A01",
"i. c #BA5D06",
"p. c #B5530A",
"a. c #B65B0D",
"s. c #BB5C0C",
"d. c #B54E10",
"f. c #A25B1B",
"g. c #BA5514",
"h. c #BE5C12",
"j. c #BB6107",
"k. c #BD610A",
"l. c #BE6015",
"z. c #834E21",
"x. c #945C21",
"c. c #AA5C21",
"v. c #B66523",
"b. c #C05D14",
"n. c #C3660F",
"m. c #C46612",
"M. c #C76914",
"N. c #CA6C16",
"B. c #C4621C",
"V. c #CC6E19",
"C. c #CC731A",
"Z. c #CE7B1E",
"A. c #D2731E",
"S. c #CE6B21",
"D. c #D57424",
"F. c #D97727",
"G. c #DA7927",
"H. c #D87A27",
"J. c #DC7B2A",
"K. c #E07F2D",
"L. c #817F55",
"P. c #B78534",
"I. c #D28122",
"U. c #DC842C",
"Y. c #DB8A2C",
"T. c #C5953C",
"R. c #E28731",
"E. c #E78E36",
"W. c #E79437",
"Q. c #E89639",
"!. c #EC9C3D",
"~. c #EAA13D",
"^. c #918952",
"/. c #909058",
"(. c #9A985A",
"). c #AFA152",
"_. c #B1B15E",
"`. c #BCB95F",
"'. c #C4BF5F",
"]. c #EFAB42",
"[. c #F3AA46",
"{. c #F3AB46",
"}. c #E8BE4F",
"|. c #F7B14B",
" X c #F8B74D",
".X c #FAB94F",
"XX c #FDBE52",
"oX c #D0C45E",
"OX c #E7CD5D",
"+X c #FDCA56",
"@X c #E1D45F",
"#X c #FDD65A",
"$X c #D6D262",
"%X c #FEE762",
"&X c #FEF266",
/* pixels */
"| ] ] ` k ` ` ` k h s * $ p s s p * $ X $ $ $ p p s h s h ` | ` h p $ $ $ $ p s h s h k ` ` k h h p p p s k | ..] ` p $ $ $ X $ $ $ p s s h ` ` ",
"] ] ` k ` k k ` k h h p $ p s p p * * $ $ $ * * p h h h h ` ] k h s * * $ $ p s h s h k k k k k h s * s h k | | ] ` s * $ $ $ X $ * * p h h k k ",
"] ` k k k ` ` ` k k h s p p s p p * * * $ * * * p h k k ` ` k k h h h s * $ * s s s h h k k h h h s * s ` ] ] ] ] ] k s p * $ $ X $ * p s h ` ` ",
"` k h h h ` k ` ` ` k k h p p p p * p * p * $ $ p k ` ] ] k h k k ] ] ` a 8 * * s s h h h s h k ` s $ s | ..] ` ] | ` ` h s * $ $ $ $ p s k k ` ",
"k ` h g h k k ` ] ` ` ` h h s p p p * p * * $ $ $ p h k ` k s h k k ` T Z C i 0 * p u p p p p p p p * s ` ` ] ` k k k ` k s p * * * p p p h h h ",
"` k k g h h k ] | | | ` k h h s p * p * $ $ X $ $ $ * h k k h s s k k U L =.C p * $ $ p p $ $ $ $ * * p h k ` ] h p h k k h s p p p s p p p h h ",
"k h h h h k ` ] ` ` ` ` k h p p * * * * * $ $ $ $ * p s k h h h g h k j V C C N i % 9 x V 6 * $ $ * * p p h k k h p h k k k h s p s s p * p p s ",
"h h h s k ` ` ` k k h k ` s $ $ $ $ $ $ * * $ $ * p s h h k k k g h h s u 7 N -.M 0 n G F i 0 * * * $ $ p p h h h h k k k k h h s p p * $ * p p ",
"s s s s k ` ` ` k h h h k s $ $ $ X $ $ $ p * $ * s h h j j k j h j Z Z E K L >.A n v S v e 0 0 s * $ * p p s s s h h ` k k h h s p * * $ $ * * ",
"p p * * s h k h h k k h h s p $ $ X $ $ * * * * p s h h k k h k k U L 5.c.v.e.>.=.&.S r 9 6 : s h s * p s s p s p h k k k k h s p * $ * * * * $ ",
"p * $ $ p s s g h h k h s s p $ $ $ + + * p * 0 p s h h k h s j U P ;.q.b.b.5.F F F M t 6 = = a k s * p s s p p s h h k h h s p * * $ * p * $ $ ",
"p p $ $ * p s s h h s s * * p * $ X @ @ % 0 q 2 9 a s p p * p Z P <.9.w.e.3.L 5 5 n r w > > = 0 s p * * p s s h s p s s h s h s s s s s s p p p ",
"* p $ $ * * p s s p * * $ $ p $ $ + O O & 0 w < 2 0 * $ + # # D :.q.y.y.1.=.v 3 & * 7 < < - = 6 p $ $ $ * s h k s p * p p h h s h h ` k h h s h ",
"$ * * $ p p s p p p p $ $ $ * $ $ + + 6 # : 7 7 q a p * & 5 B ;.q.p.m.l.0.-.G N 5 : > < < 7 8 * * * * * p p h h p * * * * p p h ` ` k ` k k k h ",
"$ $ $ p s s p * $ * * * $ X $ $ $ $ * 0 : = : 0 s s s p q S >.9.u.n.H.S.e.>.>.>.v = - < 1 t s 0 $ * * p p p s s p $ * p * $ p k ] ` ` ` ] ] k ` ",
"$ * p p p s 0 : % * p $ X $ $ X $ $ * 0 8 6 8 p s s s s q S >.d.M.G.W.Y.h.9.>.>.v : 1 v v f p * X $ p * * * p s p p * * $ $ * k ] ] ` ] ] ` ` ` ",
"s s s p p p 8 > 2 7 * % $ $ $ X $ $ * p p s s s s h s p u D >.g.G.W.{.~.C.r.1.>.N % x *.F V p $ $ $ p * $ * * p h h p $ $ X * h ` ] ] ] ` ` ` ` ",
"s s p * * p q , 2 7 8 % $ $ $ $ + + % p p s s s s s p * u D >.p.N.U.!.!.Y.C.s.1.F x M S M u p * * * * * $ * * p h k s * * * p h ` ` ] ` k k k k ",
"p p p $ 0 s t , , - > 6 * * * % @ @ $ $ p p * * $ * * $ 8 S >.w.i.C.U.W.~.~.Z.r.,.*.S l 4 9 p p s p p * * * * p s h s * p s h k ` ` ` k h k h h ",
"p $ $ $ 0 s q > - , - : * 0 p % O O @ + % * % + $ $ $ $ & n G 2.w.s.V.U.!.~.Z.w.9.1.A l - 6 0 s s p * p * p * p p s p p s k k ` k ` k h s s s s ",
"$ $ * * * * % @ = , , > : 8 0 * + o O O @ : + $ X $ $ $ & u 5 F ,.w.s.V.U.R.B.1.q.w.J z 1 : * * s * $ * $ * * $ * * p s h k k k h h s s p p * p ",
"$ $ * * * $ $ $ # , < , O % 0 * $ + O O O = @ + $ $ $ $ * $ + B >.9.y.m.A.F.g.>.9.r.;.c < ; $ * p * $ $ $ X X $ $ $ p s h ` k h s p p p p * $ $ ",
"p * * * $ * $ * & : - = - > > > > = = = O O + X $ X $ $ * & $ H 9.p.M.A.G.G.b.q.9.1.-.G v < : 6 * $ $ $ $ * $ X X $ * * p s s s s h k h h h h h ",
"s s * $ * * p * * $ + = - < < < < < = O @ $ X $ X $ $ $ $ $ $ W r.m.G.J.U.G.m.u.9.>.>.>.G z - 6 p * $ $ * * $ $ $ X $ $ * * p p p k ] ` ` ` ....",
"h h p * * p * * * $ $ + = - < < < - = O o @ + + $ $ $ $ $ $ * B 3.s.D.U.K.F.h.0.9.9.1.>.*.z - 3 * * $ * * * $ $ $ X $ * $ * * p s h ` ] ] ] ] ] ",
"` k h s p p * $ $ X $ + + = , - = = o + O O + X $ * * $ X $ $ B -.d.D.J.K.F.g.>.9.r.w.>.&.z - O $ * * $ $ $ X X X $ $ * * $ * p s h h ] ..] ` k ",
"k k h h s p * $ $ $ $ $ $ @ = = = O + $ O = O @ @ & & @ # 5 m J ,.l.Y.E.R.F.B.d.p.y.w.9.=.z - @ X * p * $ $ $ $ $ $ $ * * $ * p s h h ` | ] ` k ",
"h h k k s p * $ $ $ $ $ $ @ @ O O = % & @ = = = = > > O ; m 3.w.r.C.!.[.E.K.F.S.m.u.u.y.2.M = @ $ $ p * * * * * $ $ $ $ $ * p s h h ` ` ] ` ` ` ",
"h h h k h p * $ $ * * * $ $ $ + O O 6 8 @ = - - , , - = 1 J n.i.u.Z.[.|.!.E.E.E.C.u.j.k.8.M = @ $ * * * * p * * * $ $ $ * * s s h k ` ` ` ` ] ] ",
"k k k h s $ $ * * $ $ * * * * $ @ @ @ @ = = = = - < < , 1 W A.n.u.Z.].XX|.[.[.[.I.k.k.V.f.M O # * $ * * p * * * * p $ $ * s k k ` ` ` ` | ] ] ` ",
"k k k h p $ $ * 0 $ $ * * p p * $ + O O O O = O - < < 2 x 4.G.N.i.H.[.XXXXXXXX XY.i.M.A.f.C : 6 p * $ $ * * $ $ p s * $ p h ` ] | ` ` | @.| ` ` ",
"` k h p * $ $ $ $ $ $ $ * $ $ $ $ + + O = - = : ; , 2 t I 6.N.N.C.Y.[.XXXX.X[.!.U.C.N.M.f.^ s p * $ $ $ * $ $ $ * s p * s ` ` ] ` ] ` ] ] ] ` ` ",
"k k s p * $ $ $ $ X X $ $ X $ X X $ $ + = , : 0 7 > e j ! 4.u.N.U.W.|.+X.X X!.U.U.U.C.s.8.^ k s 0 * $ $ $ + O = 8 p 0 p s ` ] ] ` ` | ` ` ` k ` ",
"k h s * $ $ $ $ $ $ $ $ $ $ $ $ $ $ $ + : , : * % = 9 h ! W 9.a.M.Y.{.+X#X#X X!.U.C.s.w.5.^ k g 0 @ @ X + $ @ @ * 0 * * s h k k k ` ] ] ] ] ` ` ",
"h s p $ * * * p * $ $ * * $ $ $ * % $ $ = - = $ $ + * h T P >.w.u.H.{.+X%X&X#X XY.j.w.,.<.U R q = O O o X $ % 0 * p * $ * p s h h ` ` ] ..] ` ` ",
"s s * $ * p * * $ $ $ $ * * $ + * * @ @ = - O + $ $ p j ' W 1.5.7.P.}.OXoX'.OX#XT.x.5.0.<.U k 9 = = O @ + $ * * * 0 $ $ $ * p p s h ` ` | ] ` ` ",
"s p * * 0 p * $ $ $ $ $ $ $ $ + O : = = = - O $ $ % p k { z.r.7.) ^.@X$X(.L.'.&X).X./ t.5.^ k q O : 6 % $ $ $ $ $ $ $ $ $ $ * p p s h ` ` ` k h ",
"* p p * * p * $ $ $ X X + + $ + = = - - = = + $ $ * p k [ / 8._ } L.`._.O. .(.oX^.} ( 7.4.~ k u = @ * * $ $ X $ $ $ $ $ $ X $ $ p p s k ` k h s ",
"p * * $ $ $ $ $ $ X + @ O + X % # % @ @ % % % * % # 0 j ' ~ ( { }  .+.O. .} o./.o.} } ) ~ ! k q @ + $ * $ $ $ $ $ * * p * $ $ $ $ * p h k h s p ",
"p p $ $ $ X $ $ X $ X @ O O $ $ 0 0 $ $ $ p 0 p 6 O 7 g k ` | | | } ] ] | | | ] ] ..| ] ] ! j 0 X $ $ $ * * * $ * p s s p $ $ $ $ X $ p ` h p p ",
"$ * $ * * * $ $ $ + X + @ @ @ + % * $ * * p * # O = @ 0 s k ] ..#.@.| | @.@...] @.#...| ` h s 0 + $ * % 7 6 0 0 % 6 7 e a g s p p * * p p p p * ",
"$ $ * p * * * $ X $ $ X $ o O o $ $ * p 0 p 6 = = = O + $ k ] #.%.#.....$.%.@.] #.%.#...k s * $ + * * 6 - 2 a s 7 - - , y R ` k s p * * $ * * p ",
"p p * * * * * $ $ * $ $ X + O @ X $ $ * * * % : @ : @ $ % h ] @.%.$.| ..$.%.#.] #.%.$.| ` s p $ $ $ * % 7 7 7 t w , 2 y f I Y k k h s p * $ * * ",
"h h s p * $ $ * * p * $ $ X + + $ X $ $ $ $ % * 0 * % * $ s ` @.%.#.....$.%.@.] #.%.#...` s p * X $ $ % % 6 7 , - , I Y I y y Y ` ` k s * * $ $ ",
"k k s p * $ $ * p p p * $ $ $ $ $ $ + @ $ * * * p 0 * $ $ s ` ..#.@.| ..$.%.@.| ..#.@.| k s * $ $ $ $ $ * p 7 2 w w Y ] R y f R | ` ` s * $ $ $ ",
"h s s * $ $ $ p p s p p * $ $ $ * % @ @ 6 p p p p 0 * $ $ s ` ] ..| ] ..$.%.@.| | ..| ` k s $ * * $ $ * * p a a I Y ' ] ' R R ] ] ] ` s * $ $ X ",
"h s s p * $ * p p s s s p * $ $ * * : : 0 s p p * 0 % $ % s j ` ' ] ] ..#.#.@.] ] ] ` k h * $ $ p $ $ $ 0 p s g ` ] ] | ] ] ] ] ] ` k s $ $ X $ ",
"k k s s s s s s s h k h p p * p a p 0 6 0 s * * % % @ @ @ 6 q j ` ] ] | ....| ] ] ` k g p * $ * p * $ $ * 0 * p h k ` ` ` ` ` ` ` ` h p * $ $ $ ",
"` k k s h ` k h h k k k s p p p s s s p p * % $ + O = = = = = j k ` ] ] ] | ] ] ` k h s 0 % $ * * * + $ 0 0 $ $ p h k k k h h k ` h h s p * $ X ",
"k ` k ` k k h k k h k s s p * * 0 0 p * p p $ $ + O = 6 0 0 8 s k k ` ] ] ] ] ` ` k h p p * * % 6 : : : : : * * p p h k k k k ` ` k s p * * * * ",
"` ` ] ] k h k k k h s s p * $ $ + $ * p * p $ $ @ O # p s p s s h k k ` ] ] ] ` k h s s p s s 6 - , - - , > 6 0 p p s ` ` ` ` ] ] k s p $ $ * p ",
"` ` ] ] ` h k k k k h s p * $ * * * * 7 8 6 * % @ = : q p s p h h h k k ` ` k k h h s s s p p 8 - > 7 > : : * p * * p s s s h k ` h p * $ * p p ",
"] ] ] ` k k k ` ` k k h s p * p p a 7 - - - 6 * 6 > ; q s p p s h h h k k ` k h s s p s s p p 6 = 7 d 0 % $ * 0 * $ $ $ * $ p s h p $ * * p s s ",
"] ] ] ` ` ` k k k k ` h h s p p s a 7 = > > 7 0 6 - = @ $ * * p h h h k k ` k k h s p * $ * * % = 7 t p $ $ $ * * $ $ $ $ $ * p p * $ * p s s s ",
"` ` ] ] ] ] ` k h k k k s s p p p 0 % @ % 6 0 p 7 > = o X X   * s k k ` ] ] ` ` h h p X X   X o - - w : @ $ $ $ $ * $ $ $ * * $ * * * p s s s h ",
"` ` ` ] | ] ` k h k ` h s p p * p 0 $ $ * 8 0 0 7 - = o       * h h k ` ` ] ` k h h p X       o - - - ; + $ $ $ * p * $ $ * * $ $ * p s s h h h ",
"` k ` k ` ` ` k k h h s s p * * p p $ + # > > : - < - .       * s k k k k ` k k j j p X       + t 9 6 % $ $ $ * * p * $ $ $ $ * * * * p h h k h ",
"` ` h s k k ` k ` h s s p $ X * s s * $ : , , - < < - o       * s h h k k ` k h h h p X     X $ h p p * $ $ * p p * $ $ X $ $ * p * p s s h k ` ",
"h k h k k h k k h p p * $ * * * 0 * : = - - , , , < < = O .   * h k k k ` ] ` k h h * X   X X * * p p * $ $ $ * * p * $ $ $ $ $ * p p p p s h h ",
"s h k ` h h s h s * X $ $ * * * $ @ : - - , , - < < < , - .   * s k k ` ] ] ` ` k h p X X $ * $ $ * * * $ X X $ * * $ $ X X $ $ $ p h p $ * s h ",
"p s s h s p s s p * $ $ $ * * * 0 0 8 7 > = ; 7 > - > - O X   X * s h k ` ` ` k s * $   X p s p $ $ * * $ $ $ $ $ * $ $ $ $ $ $ $ p h p $ * p p ",
"* $ p p * * * * * $ $ $ * * $ * p s d a 0 + 0 s 0 % @ + . X       $ s k k ` k s * X     $ s h s * * $ $ * * $ $ $ $ $ X $ * * $ $ p h * $ $ $ * ",
"X $ * p * $ $ * * $ $ * p * $ p s s s s p * s s p * $ $ X X       $ s h k k k h *       $ h k h s p $ * * * * $ $ $ X $ $ * * $ $ p h p $ $ $ $ ",
"$ $ p s p * * * $ X $ $ p p p s s h h h g h g g p $ $ X X X       $ s h h h h h *       $ h ] k h p * * $ * p p * X $ $ X $ $ $ $ p s p * * * * ",
"$ * p h s p p $ $ $ $ $ p p s s h s h k k ` k h s * $ $ X X       X * s p s p s $       $ h ] ` ` h s * $ $ p s p $ $ $ X $ X $ $ * s p p * p p ",
"s s h k k k k s p * * * $ p s s k k k ` ] | ] ` k s s * $ X       X X $ $ X $ X X       $ s ` ] | ] k s * $ p s s s * $ X $ $ $ $ * s * * * p s ",
"` k ` k ` | ] ` k s p $ $ * p s k ` ] | ......| ] ` k s * X                             $ s h ] ....| h * $ * p h k p $ $ $ X $ $ * p * $ * s h ",
"] | ] ] ] ] ] ` k h s p * $ $ p h k ` ] | ..] ` ` ` h p $ $ X X                         $ s h ` | ] ` k s * * * p h p $ $ $ $ $ $ $ $ * * s h h ",
"@...| | | ] ] ` k ` k s p * $ * s h k ` ] | ] ` ` ` h p $ * p $                         X p h k ` ` ` k g s * $ * p $ $ $ * * $ X $ $ p s h k ` ",
"| | | | | ] ] ` ` ` h s $ * $ * p s h k ` ] ` k h h s * $ $ * $                     X * p h h k k h s s p p * $ * * * $ $ * * $ $ $ X p h k ` ` ",
"` ] | ..| ` ` ] ` k s p $ * * * p s s h k ` k h s s p $ $ $ $ X                     $ s h h k h g s * $ $ $ * * * p $ X $ $ $ * * $ $ p k ` ] ] ",
"` ` | @.| ` ` ] ` k s p $ $ p p p p s h k k k h s p * $ X X $ X X X X X X       X $ p s h k k k s p $ $ $ $ * p p p * $ $ $ $ * * * $ p k ] ] | "
};
