/* XPM */
static char *torch1670786744[] = {
/* columns rows colors chars-per-pixel */
"72 72 151 2 ",
"   c None",
".  c #000000",
"X  c #0B0B0B",
"o  c #121212",
"O  c gray10",
"+  c #262626",
"@  c #2B2B2B",
"#  c #343434",
"$  c gray23",
"%  c #73381C",
"&  c #5D3C2C",
"*  c #4C3F38",
"=  c #7A421D",
"-  c #5F402C",
";  c #4E443A",
":  c #5C4732",
">  c #5B4937",
",  c #51453D",
"<  c #5C4C3C",
"1  c #62442C",
"2  c #64482C",
"3  c #7E5027",
"4  c #77512B",
"5  c #7D532C",
"6  c #624D38",
"7  c #6D5135",
"8  c #67503B",
"9  c #6A5138",
"0  c #745230",
"q  c #434343",
"w  c #4A4643",
"e  c #4C4C4C",
"r  c #5A4E42",
"t  c #524E4A",
"y  c #544C43",
"u  c #54544F",
"i  c gray33",
"p  c #5F5F50",
"a  c #5C5C5C",
"s  c #6A5A41",
"d  c #626251",
"f  c #6B6B53",
"g  c #777754",
"h  c #7D7D56",
"j  c #636363",
"k  c gray42",
"l  c #717171",
"z  c #7D7D7D",
"x  c #9A2F00",
"c  c #9A3100",
"v  c #9F3800",
"b  c #843610",
"n  c #8B3F10",
"m  c #A23C00",
"M  c #9F4305",
"N  c #984A0E",
"B  c #8D4310",
"V  c #814E1C",
"C  c #954D11",
"Z  c #84501E",
"A  c #8C521D",
"S  c #975310",
"D  c #9A5613",
"F  c #A64300",
"G  c #A94601",
"H  c #AC4B01",
"J  c #AB440A",
"K  c #AF490C",
"L  c #B24E0B",
"P  c #AF5100",
"I  c #A0510B",
"U  c #B25502",
"Y  c #B55A01",
"T  c #BA5D06",
"R  c #B5530A",
"E  c #B65B0D",
"W  c #BB5C0C",
"Q  c #B54E10",
"!  c #BA5514",
"~  c #BE5C12",
"^  c #BB6107",
"/  c #BE610A",
"(  c #BE6015",
")  c #B1631A",
"_  c #834E21",
"`  c #945C21",
"'  c #9E5D21",
"]  c #C05D14",
"[  c #C3660F",
"{  c #C46612",
"}  c #C76914",
"|  c #CA6C16",
" . c #C4631B",
".. c #CA661F",
"X. c #CC6E19",
"o. c #CC731A",
"O. c #CE7B1E",
"+. c #D2731E",
"@. c #CE6B21",
"#. c #CD7529",
"$. c #D57424",
"%. c #D97727",
"&. c #D77E25",
"*. c #DA7927",
"=. c #D37728",
"-. c #D87628",
";. c #DC7B2A",
":. c #E07F2D",
">. c #817F55",
",. c #B78534",
"<. c #D28122",
"1. c #DC842C",
"2. c #DB8A2C",
"3. c #C5953C",
"4. c #E28731",
"5. c #E78E36",
"6. c #E79437",
"7. c #E89037",
"8. c #E99539",
"9. c #E79F3A",
"0. c #EC9C3D",
"q. c #EAA13D",
"w. c #9C8D4D",
"e. c #858557",
"r. c #909058",
"t. c #9A985A",
"y. c #AFA152",
"u. c #B1B15E",
"i. c #BCB95F",
"p. c #C4BF5F",
"a. c #EFAB42",
"s. c #F1A543",
"d. c #F3AB46",
"f. c #F5AE48",
"g. c #E8BE4F",
"h. c #F7B14B",
"j. c #F9B64D",
"k. c #F5BA4D",
"l. c #FAB94F",
"z. c #FDBE52",
"x. c #D0C45E",
"c. c #E1CB5D",
"v. c #EDCF5C",
"b. c #FDC655",
"n. c #FDCD57",
"m. c #E1D45F",
"M. c #FDD65A",
"N. c #D2D263",
"B. c #DAD161",
"V. c #FEE762",
"C. c #FEF266",
/* pixels */
"                                                                                                                                                ",
"                                                                                                                                                ",
"                                                                                                                                                ",
"                                                                        c c                                                                     ",
"                                                                                                                                                ",
"                                                                            x c       x x                                                       ",
"                                                                            J x x     x                                                         ",
"                                                                    x J @.$.Q x x x x                                                           ",
"                                                                  v m J ~ @.Q x x x                                                             ",
"                                                                x m G H K K m                                                                   ",
"                                                              v v G R U m c c                                                                   ",
"                                                            c m G R } ~ G x c x                                                                 ",
"                                                          c x F U [ $.@.K c x x                                                                 ",
"                                                          x c L } &.6.4.( F v x                                                                 ",
"                                                          c x ! %.6.f.9.o.P M x       x x                                                       ",
"                                                          x c R X.1.0.9.2.o.E F m     x                                                         ",
"                                                          c c G T X.1.6.q.9.O.P F c x                                                           ",
"                                                            c m H W X.1.0.q.O.H F m m                                                           ",
"                                                              m m H W o.1.4. .m F H H                                                           ",
"                                                                v G U [ $.$.! c F P P                                                           ",
"                                                                G R { +.*.%.] H F F m v                                                         ",
"                                                                U { %.1.:.*.| U F c x x c                                                       ",
"                                                                F ~ $.:.4.%.~ G F G m c c                                                       ",
"                                                                x L $.:.;.$.! c F P H v c                                                       ",
"                                                              G m  .4.6.4.*. .Q R Y H G m                                                       ",
"                                                            Y U P o.q.q.5.:.-.$.{ Y U U P                                                       ",
"                                                          [ / T U O.q.h.0.5.5.5.o.Y T ^ /                                                       ",
"                                                          +.+.[ Y <.a.b.h.d.d.s.<.^ / X.+.                                                      ",
"                                                          #.*.| / <.d.z.z.z.l.j.1./ { $.=.                                                      ",
"                                                        > ' | | X.2.d.z.z.l.d.0.1.+.| } ) 5                                                     ",
"                                                      $ , V Y | ;.8.h.z.z.j.0.:.1.:.+.W D 2 q                                                   ",
"                                                      q ; = F R | 2.f.b.M.M.j.0.1.X.W H n : q                                                   ",
"                                                      q ; % c G Y &.q.n.V.C.M.l.2.^ H v b & $                                                   ",
"                                                      q , = m N A ,.c.v.x.p.c.M.3.` S F B - q                                                   ",
"                                                      e y _ U A 8 w.m.B.t.h p.C.y.s 3 I C 1 q                                                   ",
"                                                      e y 4 D 0 t h i.u.g p t.N.r.u 8 A V : q                                                   ",
"                                                      q w < 7 r e d h g s u f e.f i y 8 6 ; q                                                   ",
"                                                      q q q i e i i e e i i u e e i i e e q q                                                   ",
"                                                        q e e a k j i i j k a e a k a i e q                                                     ",
"                                                          e i k z k i a l z j e k z l a e                                                       ",
"                                                          e q j z l i a l z j e k z l i e                                                       ",
"                                                          q q j z l i a l z j e k z k a e                                                       ",
"                                                          $ q i k j i a l z j e a l j e e                                                       ",
"                                                          q q e i i u a l z j e i i e e q                                                       ",
"                                                            q q e e e i k l j e e e e q q                                                       ",
"                                                              q q q e i i a i e e q q                                                           ",
"                                                              $ q q e e e e e e q q $                                                           ",
"                                                        + + + # $ $ q e e e e e q $ # @ + +                                                     ",
"                                                      + + @ + @ # $ q q e e q q $ # @ @ + + +                                                   ",
"                                                      + + + + @ # # $ $ q q q $ # @ @ + @ + @                                                   ",
"                                                      + + + + @ # # # # $ q $ # # + + + + + +                                                   ",
"                                                      O O O O + @ # $ $ q q $ $ # @ + O O O O                                                   ",
"                                                      . X X . + # # $ q e e q $ # # + X . X X                                                   ",
"                                                      . . . . O @ $ $ q q e q $ $ # + . . . .                                                   ",
"                                                      . . . . O # # # $ q q $ # # # + . . . .                                                   ",
"                                                      . . . . O @ # # $ $ q $ # # # + X . . .                                                   ",
"                                                        . . . O # # $ $ q q q $ $ # O . . .                                                     ",
"                                                          . . O @ $ q q e e q q $ # + X .                                                       ",
"                                                          . . X O + # $ q q q $ @ O o . .                                                       ",
"                                                          . . . . O @ # $ q $ # O X . . .                                                       ",
"                                                          . . . . o @ # $ $ $ # O . . . .                                                       ",
"                                                          . . . . o @ # # # # # O . . . .                                                       ",
"                                                          . . . . X + + + @ + + o . . . .                                                       ",
"                                                          . . . . X X X o X o o X . . . .                                                       ",
"                                                            . . . . . . . . . . . . . . .                                                       ",
"                                                              . . . . . . . . . . . . . .                                                       ",
"                                                                . . . . . . . . . . . . .                                                       ",
"                                                                . . . . . . . . . . . .                                                         ",
"                                                                . . . . . . . . . . .                                                           ",
"                                                                . . . . . . . . . .                                                             ",
"                                                                        . . . . .                                                               ",
"                                                                        . . . .                                                                 "
};
