/* XPM */
static char *torch21671204914[] = {
/* columns rows colors chars-per-pixel */
"72 72 204 2 ",
"   c #010101",
".  c #0B0505",
"X  c #0C0C0C",
"o  c #140202",
"O  c #1C0505",
"+  c #130D0D",
"@  c #1B0B0B",
"#  c #1C130E",
"$  c #131313",
"%  c #1B1414",
"&  c #1B1817",
"*  c #1B1B1B",
"=  c #220303",
"-  c #2C0202",
";  c #260A06",
":  c #220C0C",
">  c #2C0B0B",
",  c #330101",
"<  c #3B0201",
"1  c #340D02",
"2  c #320C0C",
"3  c #3B0B0B",
"4  c #27120A",
"5  c #3B1A0B",
"6  c #231414",
"7  c #2B1313",
"8  c #2B1B14",
"9  c #221B1B",
"0  c #2C1B1B",
"q  c #321111",
"w  c #351B15",
"e  c #3A1E12",
"r  c #311C1C",
"t  c #3B1C1C",
"y  c #3E250C",
"u  c #2A211D",
"i  c #3B2417",
"p  c #232323",
"a  c #2C2322",
"s  c #2B2B2B",
"d  c #312423",
"f  c #3E2323",
"g  c #302B2A",
"h  c #333333",
"j  c #383535",
"k  c #3B3B3B",
"l  c #430B01",
"z  c #490B01",
"x  c #4B1906",
"c  c #591100",
"v  c #5A1E06",
"b  c #681D02",
"n  c #761F00",
"m  c #4E210B",
"M  c #572305",
"N  c #54220B",
"B  c #5C230B",
"V  c #492817",
"C  c #4A321D",
"Z  c #5C3619",
"A  c #652B0A",
"S  c #772604",
"D  c #742D01",
"F  c #792B03",
"G  c #683506",
"H  c #743609",
"J  c #663818",
"K  c #783E14",
"L  c #723C1B",
"P  c #422E2E",
"I  c #4F3622",
"U  c #48372C",
"Y  c #5B3726",
"T  c #443535",
"R  c #433C37",
"E  c #453C3B",
"W  c #493D3C",
"Q  c #653622",
"!  c #643E26",
"~  c #6D421E",
"^  c #7A441E",
"/  c #5F402C",
"(  c #4E433B",
")  c #5A4838",
"_  c #644123",
"`  c #62452C",
"'  c #714C2E",
"]  c #6D4F32",
"[  c #6A5138",
"{  c #745230",
"}  c #434343",
"|  c #4B4544",
" . c #4B4B4B",
".. c #534D47",
"X. c #5A4E42",
"o. c #54544F",
"O. c #535353",
"+. c #5F5F50",
"@. c #5B5B5B",
"#. c #726149",
"$. c #686852",
"%. c #776C50",
"&. c #777754",
"*. c #7D7D56",
"=. c #626262",
"-. c gray42",
";. c #717171",
":. c #7D7D7D",
">. c #862D03",
",. c #932E01",
"<. c #893602",
"1. c #84310C",
"2. c #953100",
"3. c #9A3100",
"4. c #883B10",
"5. c #A53E04",
"6. c #8B460A",
"7. c #994604",
"8. c #884716",
"9. c #834F1E",
"0. c #994A12",
"q. c #88521E",
"w. c #975311",
"e. c #965519",
"r. c #A54301",
"t. c #A94602",
"y. c #AB4C00",
"u. c #AD4B0E",
"i. c #B24E0B",
"p. c #AC5301",
"a. c #A3540E",
"s. c #B05400",
"d. c #B45901",
"f. c #B55708",
"g. c #B8580A",
"h. c #A45519",
"j. c #B65112",
"k. c #BB5514",
"l. c #BE5B15",
"z. c #BD610A",
"x. c #BD681A",
"c. c #834E21",
"v. c #8C592B",
"b. c #925120",
"n. c #865C31",
"m. c #A65F24",
"M. c #A46127",
"N. c #AF6928",
"B. c #BA6B28",
"V. c #B27432",
"C. c #C05B18",
"Z. c #C1660E",
"A. c #C46513",
"S. c #C76A13",
"D. c #CA6B16",
"F. c #C3681C",
"G. c #CC6D19",
"H. c #CE721C",
"J. c #CE7C1D",
"K. c #D2731E",
"L. c #D07B1F",
"P. c #CE6B21",
"I. c #D06E21",
"U. c #CA7526",
"Y. c #D57524",
"T. c #D57B25",
"R. c #DA7A27",
"E. c #D6792B",
"W. c #DC7C2A",
"Q. c #E07F2D",
"!. c #CF862D",
"~. c #D48424",
"^. c #DC852A",
"/. c #DB8B2B",
"(. c #D78731",
"). c #E1822F",
"_. c #E38631",
"`. c #E38C32",
"'. c #E89739",
"]. c #E9A43C",
"[. c #E6A83C",
"{. c #838357",
"}. c #979759",
"|. c #AF9652",
" X c #BF9A52",
".X c #B5B45E",
"XX c #EDA442",
"oX c #EFAA42",
"OX c #F3AE48",
"+X c #F6B34A",
"@X c #F6BE4F",
"#X c #FBBE51",
"$X c #DDC95D",
"%X c #F5CC52",
"&X c #FDCE58",
"*X c #FAD057",
"=X c #FDDB5D",
"-X c #C2C261",
";X c #D5D564",
":X c #E6E566",
">X c #FEEC63",
",X c #F8E864",
"<X c #FEF567",
"1X c #FEFD6A",
/* pixels */
"O. . .} } } k k k h s p $ p s s p * $ $ $ X * p p s h h h }  .} s p $ $ $ $ p s h s k k } k k k h s p p s k O.@.O.k p $ $ $ X $ $ $ p p h h k } ",
" . .} k k } } } k j s p $ p s p p * $ $ $ $ $ p p s h h k }  .} h s * $ $ $ p s s h h k k } k h h p p p h k O.O. .} s * $ $ $ X $ * * s h h k } ",
" .} k k k k } } k k h s p p s p p * * * * * $ $ p h k k } k k k k k h s * X p p s s h h k h k k k p * s }  . . . . .k s p * $ $ X $ * p s h k } ",
"} k h h j } k } } } k k s p p p p * p p p * * $ p k }  . .} s k k }  .} p $ * p s s h h s h h h } s $ s O.@. .}  .O.} } h s * $ $ X $ p s k k } ",
"k } h h h j k }  .}  .k k s s p p * p * * $ $ X $ p s } } k s k j E ( W s * p p p * p p s p p p p p * s } }  .} k k k k k s p * * * p p p h h h ",
"} k h h h h k  .O.O. .} k k h s p * p * * $ $ $ $ $ p h } h h s h U Q Q T s s * * $ * * * $ $ + $ * * p h k }  .h p h } k h s p p p s p p p h h ",
"k h h h h j } } } } } } } s p p * * * * $ * $ $ $ * p h k k h h h Z 1.1.C a * * * $ & * * $ & & $ * $ p p h k k h s h k k k h s p s s p * p p s ",
"h h h s k  . .} } k k k k s * $ $ $ $ $ * * $ $ * p s s s k k h s ! b.k.b._ i $ $ * * $ $ * * * * * $ * p p h h h s h } k k h h s p p * $ * p p ",
"s s s s k } } k k h h h k s $ $ X $ $ $ * 9 * $ p s s h h h k j h ' B.E.Y.B.J $ & * * $ & & 9 p s * $ * p s s s s h h } k } h h s p * * $ $ * * ",
"p p * * s k k h h k k k h s * * $ $ X $ $ p 9 * p s h k k k j k k ) n.m.B.P.q.Z i $ & * & @ : a h s * p p s p p s s k k k h h s p * $ * * * * $ ",
"p * & X * s s h h k k h s p p * $ + X + * * p 9 p s h h k h s j k T U _ 0.z.x.B.~ # $ * 6 : = d k s p p s s s p s h h k h h s p p * $ * p * $ $ ",
"p * & $ * p s s s s s p p * * * $ + + @ & p 6 q 7 p p p p p * s h h g I 6.Z.F.P.~ 9 6 7 > = = 9 h p $ * p s s h s p s s h s h s s s s s s p p p ",
"p * * $ & * s s s p * * $ * p * $ + O O # p q < 2 9 * $ $ X $ * h a p C e.G.l.u.A u 7 < < - = 6 * * $ $ * s h k h p p * p s s h h h } h s h h h ",
"* $ * $ p p p p p p * $ X $ $ $ $ + % : : # 7 q 0 a p p * $ $ * d a p I m.E.j.3.M 6 > < < 7 6 * * $ * * * p h h p $ * p p p s h k } } } } } h h ",
"$ $ * * p h p & $ * * * $ $ $ $ $ $ * * : O : * p s s p * $ $ y A V 0 I m.Y.j.3.v = - < 3 r s p $ * * p p p s s p X $ p * $ p h  .} } }  . .} k ",
"* * * p p s p @ % p p $ X X $ X + $ * 9 9 7 9 s a h s p * * % N ,.A r C M.E.j.3.v O ; > 7 a a * X $ p * * p p s p p p * $ $ p h  . .}  . .} } k ",
"s s p p p p 6 > 2 6 * & + $ $ X $ $ * * a a s s s s s p p * * e N N v H 0.l.l.k.J # % 9 9 p p & $ * p * $ * * p h h p $ $ $ * h }  . . .} } } } ",
"s s p * p p 0 , < 7 9 & $ $ % + + + * * s s s s s s p p * p p * $ x S ,.3.5.C.W.^ % + 6 9 * * * $ * * * $ * * p h k s * $ * p h } }  .} k k k } ",
"p p * $ * s r , , - : 6 * * * % @ @ + & * p * * * & $ * & i V w + x 2.r.u.j.A.G.K 6 @ : 7 9 * p s p p * * * p p s h s * p s h k } } } k h h h h ",
"* * * $ p s 0 > - - , 7 * p * 9 O O + + & * & $ X $ $ $ % m F x # B 3.C.F.I.S.z.H # : - - 6 p s s p p * p * * * p s p p s k k } k k k h h s s s ",
"$ * * * * * & @ = , , - : 9 9 & + @ o O @ : + + $ X $ $ 6 N F B x H a.K.T.R.S.d.D ; - , , 6 * * s * * $ * $ $ * * * p s h k } k h h s s p p p * ",
"$ $ $ * & $ $ + @ 2 < - O 6 * * $ + O = O = + + $ X $ * 9 8 5 v n h.!.'._.W.S.d.D < , l , : $ & * * $ X $ $ $ X $ X p s h k k h s s p p p * $ $ ",
"p * * * $ * & & % : ; - - - q > > = = O O o + + X $ $ $ * & $ B ,.x.].OX`.Y.A.s.F l < < , = : & p * $ $ $ $ $ $ $ $ * * s s s s s s k h h h h k ",
"s s * $ * * p * * % + = - , < < l , - O + $ $ + $ $ X $ $ & p G 7.H.oXoXR.A.f.r.>.b c < , - - 7 p $ $ $ * * $ $ $ X $ $ $ * p p s k  .} k } O.@.",
"h h p * p * * * $ $ $ + = - < < , - = o o + + + $ $ $ $ $ $ & G p.L.oX[.J.p.r.2.3.3.n l , , - : * * $ $ * * $ $ X $ $ $ * * * p s h } }  . . .O.",
"} k h s p * * * $ $ $ + + ; , - - = O + O O @ X $ * * $ # y G H r.F.`.`.S.d.g.k.i.t.<.n c l - : $ * * * $ $ X $ X $ * * * $ * p s h k  .@. .k k ",
"k k h h s p * $ $ $ $ $ + @ = = = O + $ O = O @ % 9 & @ 4 G p.r.3.j.Y.Y.Z.g.G.R.S.d.t.3.n z - @ X * p * $ $ $ $ $ X $ * * $ * p s h h } O. .k h ",
"h h k k s p * $ $ $ & $ $ + @ O O = % & @ O = = = - : ; 4 G d.y.r.g.Y.W.~.L.H.K.D.S.g.t.<.x = O $ $ p * * * * * $ $ $ $ * $ p s h k k }  . .}  .",
"h h h k h p * $ $ * * * $ $ $ + O O % 6 : O - - , , - - 1 G d.s.s.A.L.`.'.].~.g.D.K.D.f.6.m O + $ * * p p p * * $ $ $ X $ p s s h k } } }  . . .",
"k k k h s $ $ * & $ $ * * $ * $ @ @ @ : = = = = - , , - 1 H z.z.Z.S.K._.oX+X/.Z.H.W.K.S.7.x = : * $ $ * * * * $ * p * $ * s h k } k } } O. . .} ",
"k k k h p $ $ * * $ $ * p p p * $ + O O O O = = - < < , l 8.G.Y.H.D.S.J.].+X`.K.R.Q.R.L.h.N = % p $ $ $ p * $ $ p h p $ p k }  . . .k O.@.O.} } ",
"} k h p * X $ * $ $ $ $ $ * $ $ $ + + O = - = : > , , q V 9.R.R.R.H.Z.J.].#X].`.).).W.R.M.Z & * p * $ $ $ $ + $ * s * * s k  . . .}  . .O. .} } ",
"} k s p * $ $ $ X $ $ $ X $ $ $ $ X + + = , 7 9 7 - 2 a U 9.S.S.S.K./.[.%X*X%X].`.Q.Y.H.h._ g a p $ $ + $ X O O 6 p * p h }  . .}  .O.} } } k } ",
"k h s * * $ $ $ $ $ X $ $ $ $ $ $ $ $ $ = - : * % : 9 h ( 9.d.d.d.J.].&X>X<X&X#XXX).K.g.w.` k g % % + + $ + @ : 9 * * * p j k k k }  . . .} } } ",
"h s p X $ * * * * $ $ $ * * + $ * * $ + : - : + + + * h ( ^ t.A.^.[.%X>X<X1X>X=X@XXXT.i.6.` k a ; O O O + $ * 9 9 p * $ * p s s h k }  .@.O.} } ",
"s s p $ * p p * * $ $ & * $ X % & & @ @ = - @ + $ $ u g R L 3.U.OX*X<X1X1X1X1X1X=X#X(.u.4.Y j 0 O = O @ $ $ $ * * * $ $ $ $ p s s k k  .O. .} k ",
"p p * * p * * $ $ $ X $ $ $ $ + @ = ; = - = O X $ & p h ( ^ 5.N.|.$X,X,X;X-X:X1X$X XV.a.4./ j a = O & % + $ $ $ $ $ $ $ $ $ * p s s h k  .} k h ",
"p p p * * * * $ $ X X $ + + $ X = = = - = O @ $ & * p k X.q.p.v.#.}.:X;X}.{.-X1X.X%.n.a.w.` j a = % * & $ $ $ X $ $ $ $ $ $ $ $ * p s k k h h s ",
"p * $ * $ & $ $ $ $ $ X O + $ % % # : @ @ 6 % & % % 0 j ..{ e.{ ..*..X.X&.$.}.;X}.o.[ c.c.) j a + + & & & $ $ $ $ * * p p $ $ $ * * * s k h s s ",
"p p * X $ X $ $ X + + O O O X $ * * % $ * p * p 6 = 6 h | ) ] X. .$.&.&.+.O.$.{.$.o.X.[ [ ( j a + + $ $ * * & $ $ p s s p $ X $ X $ $ s } h p p ",
"$ $ * $ * $ $ $ X $ $ X O + O + % & * & * p & % O = 6 s k }  .O.O.O. . .O.O.O. .O.O.O. . .} h p $ $ & 6 7 6 9 9 9 7 7 r a g s p * * * p s p p * ",
"$ $ $ * p p $ $ $ $ X $ + O O O + $ * * * p : O = = : 9 s E  .=.-.=.O.O.=.=.@. .@.-.=.O.} h s * X & * 6 - > a g 7 - - , t E | j s s * * $ $ * p ",
"p p * p * p * $ $ $ $ $ $ + O + + $ $ * * * % : @ : % + & h  .-.:.;.@.@.;.:.-. .-.:.;.O.} s * & $ $ & % 6 > 7 r q , 2 t f P T k k h s p * $ * * ",
"k h s p * $ $ * p * * $ X X $ + $ $ $ $ $ $ & * 9 * & & $ s  .=.:.;.O.@.;.:.=.O.-.:.-.@.} s p $ $ $ $ & 9 6 > 2 - - f W P t t T } } k s * * $ $ ",
"k k s p $ $ $ * p p p * $ $ X $ $ $ + + + * * 9 * p 9 $ * s } =.:.;.@.@.;.:.=. .-.:.;.O.} s * & $ $ $ $ * 9 7 q q q T  .E t P T O.} } s * * $ X ",
"h h p p * $ $ p p s p p * $ $ $ & % @ @ 9 p p p 9 p * $ & s k @.-.=.O.@.;.:.=.O.@.-.=. .k s $ & * $ $ $ * p a d P T | O.| E W | O.} k s * $ $ $ ",
"h s s p * $ * p s s s s p * $ * 9 9 : : 9 s p p * * & % $ s k  .O.O.O.@.;.:.=. .O.O.O. .k p $ * * * $ $ * p p h E  . . . . . . .O.} k s $ X X $ ",
"k k s s s s s p s h j s s p * p p p 9 % 9 s * & % % @ @ : a j E  . . .O.-.;.@. . . .} k h * $ * p * $ $ 9 p * p h k }  .} k } | } k h s * $ $ $ ",
"k k h h h } k h h k k k s p p p s s s p * p * $ + O = = = : 7 j }  . .O.@.=.O.O. .} k s p * $ & p & X & * * & % p s k } j h h k k k h s * * X X ",
"} } k } k k h k k h h h s p * * * p * p * p $ $ + O = @ # O = g k }  . . . . . .} } h p $ $ + % 6 : O : : 6 % * p s h k k k k } } k s s * * * * ",
"} } } O.k h k k k h s s p * $ $ $ $ * p p p & $ @ O : 9 p 9 9 s k k }  . . . .} } k h p * * * 7 , - - - - > 9 p * p h k } } }  . .k h p X $ * * ",
"}  .}  .} h k k k k h s p * * $ * * 6 6 6 6 % % @ = : 9 s p s s h k k }  . .} } k h s s s s p 6 - > q > ; : 6 * * * p s s s h k k h p * * * p s ",
" . .} } } k k k } k k h s p * p p a 7 - - - 7 * 6 - > 9 p a p s h h k k }  .k k h s s s p s p 9 = 6 a 9 # % * * * $ $ $ * $ p s h p $ * * p s s ",
" . . .} } } } k k } k h h s p p s a 7 = > > 6 * 6 - > 9 p s s s h h h h k k k h s s s p s p p * = 7 a 9 $ $ * * * $ $ $ $ $ * p p * $ * p s s h ",
"} }  . . . .} k h k k k s s p p p 9 % @ 6 6 9 p 6 > - % * $ & p h h k k } } k k h s p * $ * & @ - > 2 7 @ $ $ $ $ * $ $ $ $ * * * * * p s s s h ",
"} } }  .O. .} k h k k h h p p * p * % $ & 9 9 9 7 , = o . X X * h h k }  . .} k j h p X X . . + , - - : + + $ $ * p * $ $ * * $ $ * p s s s s h ",
"} } } k } } } k k h h s s * * * p p & + # 7 : > - , - o       * h h k } }  .} k k h * .       + r 6 6 % $ $ $ $ * p * $ $ $ * * * * p s s h k k ",
"} k h s k } k } k h h p * * $ * s s * + = - , , < < - .       * h h k k } } k h k h p X       $ s s p * $ $ * p * p $ $ X X $ * * p * s h h k k ",
"h k k k h k k h h s * * * $ * * * 9 : = - , , - , < , o       * s h h h k } k h h h * X     . $ p * p $ $ $ $ * * * * $ X $ $ $ * p s p * s h k ",
"s h h } h h s h s * $ $ $ * * * $ @ : - - - - , < < < = o .   * h h k } }  .} k h h p X   X $ $ $ * p * $ $ $ $ * p $ $ $ $ X $ $ p s * $ * s h ",
"p p s h s p s s p $ $ $ $ * $ * * 9 6 q > : > 7 > - > = O X   * s k k }  . .} } k h p X X p s p $ * * & $ $ $ X $ * $ $ $ $ $ $ $ p h p $ $ p p ",
"* * p p * * * * p $ $ $ * * $ * p a s a 9 + 9 a 0 % @ @ X X   X * s h k } } } k s * X   $ s h s * * $ $ * * $ $ $ $ $ $ $ * * $ $ p s p $ $ $ * ",
"X $ * p * $ * * * $ $ * p * * p s h h s p * s s p & $ $ $         $ s k k } k h * .     $ h k h s p $ * * * * $ $ X $ X $ * * $ $ p h p $ $ $ $ ",
"$ $ p s p * * $ $ X $ * * p p s s h s h s h s h p $ X $ X .       $ s h k k h h *       $ h  .k h p * * * $ p p * $ X $ $ $ $ X $ p s s * * * * ",
"$ * p h s p p * * $ $ * * p s s h h h h k } k h s * * $ $ X       $ s h h h h h *       $ s  .} } h s p $ $ p s * * $ X $ $ $ $ $ * s p p * p p ",
"s s h k k k h s p * * $ * p p s h k k  . .O. .} k s p * $ X       X * s p s s p $       $ s }  .O. .k s * $ * s s s * $ $ X X $ $ * s * * * p s ",
"k k } k  .O. .} k s * * $ $ p s k }  .O.O.=.@.O. .} k s * .       . X X $ $ X $ .       * s h  .=.O.O.h * $ * p h k p $ $ $ X $ $ * p * $ * s h ",
"O.O. . . . . .} k h s p $ * * p h k }  .O.@. . .} } h p $ $                             $ s h } O. .} k s p * * p h p $ $ $ $ $ $ $ $ * * s h h ",
"=.@.O.O. . . .} } k k s * * $ * s h k }  .O. .k k } h p $ $ $ X                         X p h k } } } h s p * $ * p * $ $ * * $ $ X X p s h k } ",
"O.O.O.O.O. . .} } k h s * * $ * p s h k }  .} k k h s * $ $ * X                         X s j j k h s s p p * * * p $ $ $ $ * * $ $ $ p h k } } ",
"}  .O.@.O. .}  .} k s p $ * * p p s s h k } k h s s p & $ X $ X                     X & p s k j h s * $ $ $ * * p * $ $ $ $ $ * * $ $ p k }  . .",
"k } O.=. .k  . . .k s * $ $ p p p p s h k k k h s p * $ X $ $ X                     $ p h k k j h * $ $ $ $ * p * p * $ X $ $ * * * X s k  . .O."
};
