/* XPM */
static char *torch41671204914[] = {
/* columns rows colors chars-per-pixel */
"72 72 207 2 ",
"   c #010101",
".  c #0B0505",
"X  c #0C0C0C",
"o  c #140202",
"O  c #1C0505",
"+  c #130D0D",
"@  c #1B0B0B",
"#  c #131313",
"$  c #1B1414",
"%  c #1B1B1B",
"&  c #220303",
"*  c #2C0202",
"=  c #220C0C",
"-  c #2C0C0B",
";  c #330101",
":  c #3B0101",
">  c #320C0C",
",  c #3B0B08",
"<  c #23180E",
"1  c #37150C",
"2  c #231413",
"3  c #2B1313",
"4  c #281C14",
"5  c #221B1B",
"6  c #2C1C1B",
"7  c #321311",
"8  c #381A13",
"9  c #311C1C",
"0  c #3B1C1C",
"q  c #36220F",
"w  c #2B221C",
"e  c #3C2412",
"r  c #232323",
"t  c #2C2222",
"y  c #2B2B2B",
"u  c #312323",
"i  c #3E2323",
"p  c #342B2B",
"a  c #3A302B",
"s  c #333333",
"d  c #393434",
"f  c #3B3B3B",
"g  c #420A02",
"h  c #4A0B01",
"j  c #510E00",
"k  c #481607",
"l  c #431E0D",
"z  c #551A00",
"x  c #5B1F0B",
"c  c #701E00",
"v  c #5C260D",
"b  c #552E0A",
"n  c #5B290A",
"m  c #59310B",
"M  c #432819",
"N  c #4B341F",
"B  c #5B3515",
"V  c #682708",
"C  c #752A03",
"Z  c #623409",
"A  c #69370A",
"S  c #723104",
"D  c #7A3202",
"F  c #7C3B04",
"G  c #77370B",
"H  c #672F16",
"J  c #693317",
"K  c #6C341B",
"L  c #733113",
"P  c #753A1E",
"I  c #462E2A",
"U  c #42322B",
"Y  c #48352A",
"T  c #583827",
"R  c #433533",
"E  c #463A35",
"W  c #453C3C",
"Q  c #493D3C",
"!  c #7E430A",
"~  c #7B441D",
"^  c #5F402C",
"/  c #4F463D",
"(  c #56473A",
")  c #66462D",
"_  c #77512B",
"`  c #654B36",
"'  c #6A5138",
"]  c #735335",
"[  c #434343",
"{  c #4B4544",
"}  c #4B4B4B",
"|  c #534D47",
" . c #5A4E42",
".. c #54544F",
"X. c #535353",
"o. c #5F5F50",
"O. c #5B5B5B",
"+. c #6D5643",
"@. c #726049",
"#. c #686852",
"$. c #777754",
"%. c #7D7D56",
"&. c #626262",
"*. c gray42",
"=. c #717171",
"-. c #7D7D7D",
";. c #892D01",
":. c #942F01",
">. c #992F00",
",. c #833807",
"<. c #84310C",
"1. c #943002",
"2. c #9B3100",
"3. c #9B3F02",
"4. c #873712",
"5. c #8A3F13",
"6. c #A23C01",
"7. c #884709",
"8. c #9A4101",
"9. c #944B06",
"0. c #9D4D03",
"q. c #814711",
"w. c #934D10",
"e. c #88521E",
"r. c #9A5613",
"t. c #A74400",
"y. c #AC4C01",
"u. c #A4470A",
"i. c #AB440B",
"p. c #B14C0B",
"a. c #A25003",
"s. c #AB5401",
"d. c #A6570C",
"f. c #B35602",
"g. c #B45901",
"h. c #B65A0A",
"j. c #B85B0F",
"k. c #B44D10",
"l. c #A65418",
"z. c #BB5514",
"x. c #9E6019",
"c. c #BE691F",
"v. c #854E25",
"b. c #895326",
"n. c #9A5826",
"m. c #A75B23",
"M. c #9A6335",
"N. c #AC6224",
"B. c #B66825",
"V. c #AB6E38",
"C. c #B86F32",
"Z. c #C15C18",
"A. c #C1650D",
"S. c #C36615",
"D. c #C96C15",
"F. c #C9661E",
"G. c #CD741B",
"H. c #CA781B",
"J. c #D0711D",
"K. c #CE6B21",
"L. c #D37323",
"P. c #D67926",
"I. c #DC7D2A",
"U. c #E07F2D",
"Y. c #817F55",
"T. c #CF8629",
"R. c #D38523",
"E. c #DC842C",
"W. c #DB8330",
"Q. c #E1812E",
"!. c #E38631",
"~. c #E58D34",
"^. c #E79637",
"/. c #E79738",
"(. c #EB963B",
"). c #ED9C3E",
"_. c #858557",
"`. c #909058",
"'. c #9A985A",
"]. c #A19153",
"[. c #B4A557",
"{. c #B1B15E",
"}. c #BCB95F",
"|. c #C89446",
" X c #D3A14A",
".X c #C4BF5F",
"XX c #EEA440",
"oX c #F1A443",
"OX c #F3AB46",
"+X c #F5AE48",
"@X c #EDB748",
"#X c #F4B449",
"$X c #F9B64D",
"%X c #F6BA4D",
"&X c #FABA4F",
"*X c #FCBC51",
"=X c #D0C45E",
"-X c #E9C95A",
";X c #F7C753",
":X c #FCD55A",
">X c #FCD85B",
",X c #FDE25F",
"<X c #D6D262",
"1X c #FEE661",
"2X c #FDEC63",
"3X c #FEF466",
"4X c #FFFF6B",
/* pixels */
"X.} } [ [ [ f [ f s y r # % s y r % # # X # % % y y s s s [ X.f s r # # # # r s y s d f [ [ [ s s y r r y f X.O.} [ r # # # # X # % r y y f f [ ",
"} } [ f f [ [ f f s y r # r y r r % % # # # % % r y s s s [ } [ s y % # # # r y s y s f f f f s s r % y s f } O.} [ y % # # # # # # % r y s f f ",
"} [ f f f f f [ [ f d y r r r r r % % % # % % # r s f [ [ f f f f f s y % # % r y s s s f s f s f r % y [ } } } } [ f y r % # # # # # r s f f [ ",
"[ f s s f f [ [ [ f [ s y y r r r % r r r % # # r d [ } } f s f f [ } [ r # % r r s y s s y s f [ y # y X.O.} [ } X.} [ s r % # X # # r y s f [ ",
"f [ s s s s f [ } [ [ [ d s y r r % r % % % # # # r s f [ f s a U W [ [ y % r r % r r y r r r r r r % y [ [ } [ [ f f [ f y r % % % % r y y s s ",
"[ f s s s s f } X.X.X.[ [ s y y r % r % # # X # # # % s f f p I H T E f s y y % % # # % % # # # # % % r s f [ } s % s f f s y r r r y y r r s s ",
"f s s s s f [ } [ [ [ [ [ s r r % % % % # % # # # % r y f s f H 1.L Y s y r % % # % # % % % # % # % % % r s f f s r s [ f s s y r y y r % % r y ",
"s s s y f } [ [ [ f s s [ y % # # # # # % % # # % r y s s T K L :.L U a b m q # % % % # # % 5 % % % # % r r s s s s s f [ [ s s y y r % # % r r ",
"y y y y f [ [ [ f s s s [ y # # X # X # # % % # % y s s U K :.:.:.L I N ! 9.b X # % % # # $ 5 r y % # % r r y y y s f [ f f f s y r % % # # % % ",
"y r % % y s f f s f f f s r r # # # # # % r % % r y s d R K >.<.L T U N 7.a.b # # # % % $ 2 2 t s y % r y y r r y y s [ f s s r r % # % % % % # ",
"% % # # % y y y s f f s y r r % # # + # % r r 5 r y s d R J >.L Y U p N 7.a.m # X # # % 2 = & u f y % r y y y r r s s s s s y r % % % % r % % # ",
"r % # # % r y s y y y r r r r # # X O @ $ % 3 3 6 w r y u V 6.G ^ T M B 7.a.b # < 8 8 1 - & & 2 s r % % r y y s y r y s y s y s y y y y r r r r ",
"r % % # % % y y y r r # X # r % # + O O 2 % 7 : > 4 % # < Z y.9.7.q.S <.0.a.m + l V x g : * O 2 r # # # % y s f s % r r r y s s y f [ s y s s y ",
"# % % # % y r % r r % % # # # # # + @ 2 2 = 3 3 6 t r % w m a.s.g.y.3.t.f.d.A < V 1.C h : 3 6 $ # % % % % y s s r % % % r r r s [ [ f [ [ f f s ",
"# # % % y y r # # % % # X # # # # # % 5 = O 2 5 t y y y 5 e b 7.s.f.y.h.H.T.x.A ,.1.c h , 9 y % # # % r % r y y % # % % % # r f } } [ } } } f [ ",
"% % % r r y w 2 $ % r # # X # # X # % r 2 2 5 r y y y r r % # A s.g.f.D.).#XR.g.t.2.V g 7 t y % # % r % % r r y r r % % % # % s [ } [ [ } [ [ [ ",
"y y r r r r 6 > > 2 r % X # # # X # % 5 r y y p y y y r w e v n Z F 8.j.I.^.G.g.s.t.S 8 4 r % % X % % % # % % y y s r # # X % s [ [ } } [ [ [ [ ",
"y y r % % r 6 ; : 3 2 $ # # # # + # % r r y y y y r y % 6 v :.v < l ;.i.F.U.D.g.g.f.G e 5 % r % % % r % # % % r s f y # % % r s [ [ } [ [ f f f ",
"r r % # % y 9 ; ; * = 2 % % % $ @ @ + # % r % % % % % # 4 v 2.S b V :.i.F.I.J.A.h.y.S k = 5 r r r r % % % % % r y s y % r y s f [ [ [ f s s s f ",
"% % % # r y 6 - * * ; 3 % r % 2 & O + + % 5 # # # X # # 2 V 2.3.9.8.2.i.F.I.I.P.z.3.V g ; 2 % y y y % r % r % r r y y r y f f [ [ f f s y y y y ",
"# # % % % % 5 @ = ; ; * = $ r $ @ o O O @ @ @ # # # # # 4 V 6.t.y.y.i.z.K.U.U.U.Z.6.C h ; 2 % % y r # % # % % # % % r y s s [ s s s y y y r % r ",
"# # % % # # # # @ ; : * O 2 5 % # + O O & & @ + X # # % w A y.t.6.p.Z.K.P.Q.U.U.S.y.;.j ; @ # % r # # # # X X # # X r y s [ [ s y y r r % % # # ",
"r % % % % % # % $ 3 * & * - 7 - = * & O O @ + X # X # # 4 A a.3.2.k.L.Q.!.!.Q.Q.S.a.C h ; * = $ r % X # # % # X # X % % y y y y y y s s y s s s ",
"y y % # # % r % % # + & ; ; : : : ; * O o + # X # X # # $ e B D :.k.L.!.(.).~.I.l.C z , * * * 3 % % # # % % # # # # # X % % r r y f } [ [ } O.O.",
"f s r % % r % % % # X @ & ; : ; ; * & O o + + # # # # # # # % n :.k.K.~.+X$X).U.q.: * ; ; ; * = % # % # % # # X X # # # % # % r y s [ } } } } } ",
"f f s y r r % # # # # + + & ; * * & O + O O @ X # % % # # + # b 8.S.^.XX$X$X(.U.l.S z g : ; * @ # % % % # # # # # X % % % # % r y s s } O.} [ f ",
"f f d s y r % # # # # # # O * & & O + # O & O @ $ 2 $ @ + + + Z s.H.XX*X*X$X).U.D.f.D k ; ; * @ # # r % # # # # # # # % % # % y s s s [ X.} [ f ",
"s s f f y % % # # % # # # + + O O O $ % @ & & & & - = & o + # Z s.H./.OX$X$X).U.D.g.F l 3 & & @ # % r % % % % % # X # # # % % y s s f [ } [ [ [ ",
"s s s f y r % # # % % % # # # + O & 2 $ = & * * ; ; ; & & o # m s.D.E.(.+X$X).U.G.g.,.e 2 O O @ # % % % % r % % % # # # % r r s s f [ [ [ [ } X.",
"f f f f y % % % % # # % % # % # @ @ @ = & O & & * ; ; ; * 8 M ! j.G.W.).%X;XOX~.G.A.w.B e - O $ # % % % r % % % % r # # % y s f [ [ [ [ X.} } [ ",
"f f f y % # # % % # # % r r % % # + O O & & & O * : : ; , J m.c.G.E.).%X:X,X;XOX~.L.B.m.~ l & 2 % % # # % % # % r s % # r s [ } X.[ [ X.&.X.[ [ ",
"[ f y y % # # # # # # # # % % # # X @ o & & & = - ; ; 3 e b.E.Q.!.).*X:X2X3X:X$X).~.!.U.B.B 5 % % # # # % # + # % r r % y f } } [ } [ } } } [ f ",
"[ f y r # # X # X # # # X # # X # + # + & ; = 5 3 - > u U M.I.(.XX%X:X1X3X3X;X(.).oX(.!.B.) y t r % # X # + O O $ r r % s [ } [ [ } } } [ [ f [ ",
"f s y % % % # % # # X # # # # # # # # + = ; = $ @ & 6 s / M.U.).&X>X2X4X4X3X@XI.).*XoX~.C.] f y $ @ + + + # @ = $ r % % y d [ f f [ } } } [ [ [ ",
"s y r # % % % % % # # # % % # # % # # # & * = # # + % s / v.z.I.(.%X:X1X3X3X;X).).).W.K.n.` R 9 & O O O + # % 5 5 r % # % r y y s f [ } O.X.[ [ ",
"y y % # % % r % % # # % % # # # $ $ @ @ & * O # # # 5 s Q P 2.Z.I.).$X:X2X3X>X*X).W.F.i.4.^ f 6 & & O @ + # # % % % # # # % % y s s f } X.} [ f ",
"r r r % r % % # # # # # # # # @ @ & = & & * O + # % r s / P 6.l.V.|.;X-X=X.X=X>X XV.N.u.5.T f w O = 2 $ # # # # # # # # # # % % y y s [ [ [ f s ",
"r % r % % % % # # X X X X # X + = & * * & & + # # % r f  .e.f.b.+.].<X<X'._..X3X[.@._ d.w.) f 6 O = % % # # X # # # # # # # # % % r y s [ f s y ",
"r % % # # % # # # # + @ O + # + = 2 @ @ @ $ $ # $ = 6 f  ._ r.] | Y.}.{.$.o.'.<X`...' b.v.^ d t @ + # % # % # # # % % r % # # # % % % y f s y r ",
"r r # # X # X # X X # O & o # # % % # # % r r r $ O 3 s { ( '  .} #.%.$.o.X.#._.#... .' ' { f w # X # # % % # # % % y s r # X # # X # y [ s r r ",
"# % % % # # # # # X # X O O O # % # # % % r 5 = O & 2 y f [ } X.X.X.X.} X.X.X.} X.X.X.X.} f d r # # # $ 3 2 5 r % 3 3 9 u p y r r % % % y r r r ",
"# # # % r r % # X # + # # O O O + # % r r % 2 O & & = 5 y [ X.O.*.O.X.X.&.&.O.} O.*.O.X.[ s y % # # r 3 - - 6 u 3 * * ; 0 W [ f y r % % # % % % ",
"r r % r % % # % # % # # X X o O # # # % % % $ @ @ = = + # s } *.-.=.O.O.=.-.&.X.*.-.=.X.[ y % # # # % $ = 3 6 9 > ; 7 0 i I R f f s y r # % % % ",
"s s y r % # # % r % % # # # + # # X # # # # $ 5 5 % % # # s { &.-.=.X.O.=.-.&.} *.-.*.O.[ s r % X # # $ % 3 - > ; * 0 Q a 0 0 R [ [ f y % % # # ",
"f s y r % # # r r r r % # # X # # # # + # % % % r % % # # y [ &.-.=.O.O.=.-.&.X.&.-.=.X.} y % % # # # # 5 5 3 > > 7 R } W 0 i Q X.[ [ y % % # # ",
"s s y % # # # % r y r r % # # # % $ @ O 2 r r r r r % % % y [ X.*.&.X.O.=.-.&.} O.=.O.X.f y # # % # # # % r t u I Q { } { W Q } } } [ y % # X X ",
"s s y r r # % r r y y y r % # % % 5 = = 5 y y % % % $ # % y [ { X.X.X.O.=.-.&.X.X.O.X.[ f r # % r % # # % r y y [ } } } } } } } } [ f y # # X # ",
"f s s r y r y y y s f s r r % r r r 5 2 5 y r # $ = = @ @ w s [ } } } X.&.=.&.} } } [ f y % # % r % # # % r % r s f [ } [ f [ { [ f f r % # # # ",
"[ f f y f f f s s f [ s s y r r y y r % r r # # @ O & O & = 3 d [ [ } X.O.O.X.X.} [ f y r % # # % # # # % % # # r s f f f s s f [ s s y r % # X ",
"[ f [ [ f s f s s f s y y % % % r % r r r % % # + O & = $ & & p [ [ } } } } } } [ [ s r $ # # $ 3 = = = 3 = $ % r y s [ f f f [ [ f y r # % % % ",
"[ [ [ X.f s s f f s s y r % # # # # % r r r $ # + O @ 5 r 5 5 y s [ [ } } X.} [ [ d s r % % % 3 ; * * * * - 2 r % r s f [ [ [ { } f s r # % % r ",
"[ [ [ } [ f f f f f s y r r # # % % 2 3 2 2 $ # @ & = 4 r y r y s s [ [ [ } [ [ f s y y y y r 2 * > 3 - & = 5 r % % r y y y s f f s r % # % r r ",
"X.} } [ [ f f [ [ f f s y r r r r t 3 * * * 3 % = - & 5 y y y y s s f [ [ [ [ f s s y r y r r 5 & 3 u 5 $ $ % % % # # # % # r y s r # % % r y y ",
"} } [ [ [ [ [ f f f f f s r r r y t 3 & - - 2 % 2 ; - 5 y r y y s s s s f [ f s s r r y r y y $ & 3 u 5 # # # % % # # # # # # r r % # % r y y y ",
"[ [ [ } } } [ f f f [ s s y r % r r $ @ 2 2 5 r 3 - - = # % # r s s f f [ [ [ s s y r r % # # @ * - > = @ # # # # % # # # % % % % % % r y y y s ",
"[ [ } } } X.[ s s f f s y r % r r % # # $ 5 5 % 2 ; & o . . X % s s f [ [ } [ [ s s r X X   X @ * * * = + # # # % r % # # % % # # % r y y s s s ",
"[ [ [ f [ [ [ f s f s y y % % % r r # # 2 - - - * : & o       % y f [ [ [ [ [ [ f s % X       + 6 6 2 $ # # # % % % % # # # # % % % % y s s s f ",
"f f s y f [ f [ f s y y r % # % y y % + & * ; ; ; : * o       % s s s f [ [ [ s f s r X       # s y % % # # % r r r # # X # # % r % r r y s f [ ",
"f f f f s f f s s r r % % % # % % 5 2 & * ; ; * : : * o       % y s s s [ [ f s s s % X     . # 5 % % % # # # % % r % # # # # # % r r r r y s s ",
"y s s [ s s y s y % # X X # r % # @ & * * * * ; : : : & o .   % s s f [ [ [ [ f s s r X   X # # # % r % # X X # % % # # X X # # # r s r # % y s ",
"r r y s y r r y r % # # # # % % % 5 3 3 3 & - 3 - - * & O X   % s f f [ [ X.[ [ f s r X X r y % # % % # # # # # # % # X # # # # # r s r # # r r ",
"% % r r % % % r % % X # r % # % r y t t 5 + 4 t 6 $ + @ X X   X # r s [ [ [ [ f y % X   # y s y % % # # % % # # # # # # # % % # # r s % # # # # ",
"X # % r % # # % % # # % r % % % y s s y r % y y y # # # #         # y f f [ s s % .     # s [ s y % # % % % % # # # X # # % % # # r s r # # # # ",
"# # r y r % % % # X X % r r r y y s y s y s y s r # X # X X       # y s s f f s %       # s [ [ d y % % # % r r % X # X # # # # # r y r r % % % ",
"# % r s y r r % # # # # r r y y s s s s f [ f s y % # # X X       # y s s s s s %       # s } } [ s y % # # r y r # # # X # X # # % s r r r r r ",
"y y s f f f s y r % % % # r y y s f [ [ } X.} [ f y y % # X       X % y r y y r #       # y [ [ X.[ f y % # r y r y r # X # # # # % r r # r r r ",
"[ f [ f [ X.} [ f y % # # % % y f [ } X.O.&.X.X.} [ f y % .       . X X # # X # .       # y s } &.O.X.s % # % r s [ r # # # X # # # r # # % y y ",
"} X.} } } } } [ [ s y r % # % r s f [ } } O.X.} [ [ s r # #                             # y s [ X.} [ f y % % % r s r # # # # # # # % % % y s f ",
"&.O.X.X.X.} } [ f [ f y % % # % y s f [ } X.[ [ [ [ s % # # # X                         X r s f [ [ [ f s y % # # r % # # % r # X # # r y s f [ ",
"X.X.X.X.X.} } [ [ [ s y % % # % r y s f [ } [ f s s y % # # % X                         # r s f d s y y r % % # % r # # # # % # # # X r s f [ [ ",
"[ } X.O.X.[ [ } [ f s r # % % r r y y s f [ f s s r r # # X # X                     X % r y f s s y % # % # % % % r # # # # # % % # # r f [ } } ",
"[ [ X.&.} [ } } [ f y % X % % r r r y s f f f s y r % # # # # X                     # r s f f f y r # X # # % r r r # # # # # % r % # r [ [ } X."
};
