/* XPM */
static char *torch31671204914[] = {
/* columns rows colors chars-per-pixel */
"72 72 205 2 ",
"   c #010101",
".  c #0B0505",
"X  c #0C0C0C",
"o  c #140202",
"O  c #1C0505",
"+  c #130D0D",
"@  c #1B0B0B",
"#  c #16120F",
"$  c #131313",
"%  c #1B1414",
"&  c #1B1817",
"*  c #1B1B1B",
"=  c #220303",
"-  c #2C0202",
";  c #290C05",
":  c #220C0C",
">  c #2C0B0B",
",  c #320101",
"<  c #3C0100",
"1  c #340C02",
"2  c #320C0C",
"3  c #23140D",
"4  c #29190E",
"5  c #33110F",
"6  c #37180D",
"7  c #231414",
"8  c #2B1313",
"9  c #2A1B14",
"0  c #221B1B",
"q  c #2C1C1B",
"w  c #331210",
"e  c #361A15",
"r  c #3B1C1C",
"t  c #2A211D",
"y  c #3C2319",
"u  c #232323",
"i  c #2C2323",
"p  c #2B2B2B",
"a  c #312323",
"s  c #3E2323",
"d  c #322C2B",
"f  c #333333",
"g  c #393434",
"h  c #3B3B3B",
"j  c #420B04",
"k  c #4C0E03",
"l  c #520E00",
"z  c #431C0A",
"x  c #4A1C08",
"c  c #531002",
"v  c #5B1A06",
"b  c #671A03",
"n  c #741E00",
"m  c #492409",
"M  c #4C200D",
"N  c #5A250B",
"B  c #462313",
"V  c #4A2313",
"C  c #44241A",
"Z  c #4C2B1B",
"A  c #552611",
"S  c #582B12",
"D  c #5A311C",
"F  c #5F3918",
"G  c #672806",
"H  c #6D2906",
"J  c #7C2602",
"K  c #7D2A06",
"L  c #752C0B",
"P  c #792C09",
"I  c #6B3407",
"U  c #7B350B",
"Y  c #622D16",
"T  c #69341C",
"R  c #793613",
"E  c #753B1A",
"W  c #422E2E",
"Q  c #42342B",
"!  c #4E3428",
"~  c #573627",
"^  c #443535",
"/  c #473A32",
"(  c #443C3C",
")  c #493D3C",
"_  c #623622",
"`  c #79421B",
"'  c #5F402C",
"]  c #4E443A",
"[  c #584839",
"{  c #62442A",
"}  c #7B5129",
"|  c #624D38",
" . c #6C5137",
".. c #67503B",
"X. c #745230",
"o. c #434343",
"O. c #4B4544",
"+. c #4B4B4B",
"@. c #534D47",
"#. c #5A4E42",
"$. c #54544F",
"%. c #535353",
"&. c #5F5F50",
"*. c #5B5B5B",
"=. c #6A5A41",
"-. c #686852",
";. c #777754",
":. c #7D7D56",
">. c #626262",
",. c gray42",
"<. c #717171",
"1. c #7D7D7D",
"2. c #802400",
"3. c #812A02",
"4. c #892C02",
"5. c #802F0B",
"6. c #952F01",
"7. c #8D3006",
"8. c #893609",
"9. c #923501",
"0. c #9C3300",
"q. c #963D07",
"w. c #883B10",
"e. c #A33D01",
"r. c #A23B07",
"t. c #8C4506",
"y. c #9A4709",
"u. c #864A19",
"i. c #964B12",
"p. c #84501E",
"a. c #8C521D",
"s. c #995512",
"d. c #A74400",
"f. c #A84700",
"g. c #AC4B02",
"h. c #AB4906",
"j. c #B34D0F",
"k. c #AF5100",
"l. c #B15401",
"z. c #B55901",
"x. c #B95D05",
"c. c #B4530C",
"v. c #B8550E",
"b. c #BA5A0C",
"n. c #B54E10",
"m. c #A25919",
"M. c #B65716",
"N. c #BD5B12",
"B. c #BB6107",
"V. c #BD610A",
"C. c #BF6711",
"Z. c #834E21",
"A. c #945C21",
"S. c #AA5F21",
"D. c #B36424",
"F. c #C35E1A",
"G. c #C2650F",
"H. c #C36510",
"J. c #C66913",
"K. c #CA6C16",
"L. c #C8641D",
"P. c #CC6E19",
"I. c #CE711B",
"U. c #D1741E",
"Y. c #CC6920",
"T. c #CF7723",
"R. c #D57524",
"E. c #D67725",
"W. c #DA7A27",
"Q. c #DC7C2A",
"!. c #E07F2D",
"~. c #B8943A",
"^. c #D38323",
"/. c #DC822A",
"(. c #DB8C2C",
"). c #CB9633",
"_. c #DE9332",
"`. c #E1822F",
"'. c #E38631",
"]. c #E48B33",
"[. c #E39534",
"{. c #E99439",
"}. c #EC9B3D",
"|. c #9C914F",
" X c #858557",
".X c #979759",
"XX c #AFA152",
"oX c #B1B15E",
"OX c #BCB95F",
"+X c #C4BF5F",
"@X c #EEA541",
"#X c #F1A543",
"$X c #F5B24A",
"%X c #F9BC4F",
"&X c #FCBE52",
"*X c #E1CB5D",
"=X c #F9CC55",
"-X c #E9DF5C",
";X c #F7DA59",
":X c #FDDA5C",
">X c #D5D564",
",X c #EEEE68",
"<X c #FEE862",
"1X c #FEF567",
"2X c #FEFC6A",
/* pixels */
"%.+.+.o.o.o.h o.h f p u $ * f p u * * $ $ X * * u p f f f o.%.o.f u $ $ $ $ u p f p h h h o.h f p p * p p h %.*.+.o.p $ $ $ X $ $ * * p p f h o.",
"+.+.o.h h o.o.h h g p u $ u p u u * $ $ $ $ * * p p f f f o.+.h f p * & $ $ u p p f f h o.h h h f p * p f h +.*.+.o.p $ $ $ X $ $ $ * p f f h o.",
"+.o.h h h h h o.o.h f p u u u u u * * * * * $ $ u f h h o.o.h h f g f p * $ * p p p p h h h h h h p $ p o.+.+.+.+.+.h p u * $ $ $ $ * u p f h o.",
"o.h f f h h o.o.o.h o.f p p u u * u * u * u * $ u f o.+.+.h f f o.o.+.o.u $ $ u p p f p p p p h h p $ p %.*.+.o.+.%.o.o.f p * $ X $ $ u p h h o.",
"h o.f f f f h o.+.o.o.o.g f p u * u u u & & $ X * u f h o.h f f f o.o.( d t t u u * u p u u u u p * $ p o.+.+.o.h h h o.h p u * * * u u p p f f ",
"o.h f f f f h +.%.%.%.o.o.f p p u u * * & $ $ $ $ $ * f h h f f f f o./ ~ Y C * * $ * * * & $ $ $ * * p p h o.+.f u f h h f p u u u p u u p p f ",
"h f f f f h o.+.o.o.o.o.o.f u u * * * * $ $ $ $ $ * u f h f f f p f h ! L 4.A * * $ * * * $ & $ $ * $ u p p h h f u f h h f f p u p p u * u u p ",
"f f f p h +.o.o.o.h f f o.p * $ $ $ $ $ * * $ $ * u p p f ! T ! d Q Y Y S M 9 $ $ * * $ $ * 0 * * * $ * * p p h p f h h h h h f p u u * $ * u u ",
"p p p u f +.o.h h f f f o.p $ $ X $ + $ & * * $ * p f f Q T 9.T g ! 5.P V % # X & & & $ & & 0 u p * $ * u u p p f p f o.h h f f p u * * $ $ * * ",
"u u * * p g h f f h h h f u u $ $ $ $ $ & u * * u p f g ^ E d.R _ R 7.7.E ~ A z 4 & $ * & @ : i f p * u p p u p p f h o.h h f p u * $ * * * $ * ",
"u u & $ u p p f f h h f p u u * $ X + $ & u * 0 u p f g / ` k.t.w.7.9.r.M.D.i.3.x % & * 7 : = i h p u u p p u u p p f h f f p u * * * * u * $ $ ",
"u * $ $ * u p p p p p u u u u $ $ + @ + & * q 8 9 t i u t F t.t.5.5.P q.M.L.n.e.G 6 e w - : = q p u $ * u p p f p u p p p f p p p p p p p u u u ",
"u * $ $ & * p p p u u $ X $ u * $ + O = % u w < 5 0 * $ $ 4 m Z ! Z C S q.j.h.g.8.U N j < - O : u $ $ $ * p f h p u * u p p f p p h o.f f f p f ",
"$ * $ * u u u u u u * * $ $ $ $ $ $ + : : @ 8 5 q i u * $ $ $ * i i q C L 0.f.x.g.0.J c j 2 q * * * * * u u f f u * * u * u u h o.o.o.h h h h f ",
"$ $ * u u f u & $ * u $ X $ $ $ + $ * 0 @ = 7 0 i p p u * & X & 0 y A L 4.r.c.K.b.g.9.J b C p 0 $ * * u u u p p u $ * * * $ u h +.o.o.o.+.+.h o.",
"* * u * u p u : % * * $ $ $ X $ $ $ * 0 0 7 0 u p p p p u * $ & * B 3.0.6.r.F.!.K.z.g.0.K V u * X * * * * * u p u u * * $ $ * h +.+.o.+.+.o.o.o.",
"p u u u u u 0 2 2 8 * & $ X $ X $ $ * 0 u i p p p p p u u u * & $ B K 0.d.k.T.}./.P.v.r.K C u $ $ * u * $ * * p p h u $ $ X * h o.+.+.+.o.o.o.o.",
"p p u u * u q , 2 8 7 & $ & $ $ + + * * p p p p p u u u * * u * X x 3.0.g.V.(.&X}.`.F.d.K B u * $ * * * $ * * u p h p $ * * u f o.o.+.o.h h h h ",
"u u * $ 0 p q , , - > 7 * * * % @ @ $ % * u * * * * & $ $ * u 9 z H 9.k.H.^.[.#X].I.N.r.J B u u p u u * * * * u p h u * u p f h o.o.o.h f h f f ",
"u * $ $ * p q > - , - : * 0 u % = O + + % * & $ X $ $ $ $ * * B J 9.f.C._.@X{.].R.V.k.0.J x * p p u u * * * u * u p p u p h h h o.h h f p p p p ",
"* $ $ * * * & : : , , ; : & 0 & + @ o O @ @ % + $ X $ & & 4 y H 0.d.g.C.].#X[.U.C.k.q.4.b 6 * t u u * $ * $ $ * * * u p f h h h f f f p p u * * ",
"$ $ * u * $ X $ @ , < , = 7 0 * $ + O = = = @ X $ X $ * t x H 9.g.f.y.c.R.].R.G.c.e.4.b k ; $ & * * $ X X $ $ $ $ X u p h h h f p u * u * * $ $ ",
"* u * $ & * & * % : : - = - 5 > ; = = O o O + $ X $ $ & 9 N 9.f.l.g.e.j.Y.W.J.z.d.6.n l < - : 7 u * $ $ $ * $ X $ X $ u u p p p p f h f f f h h ",
"p p * $ & u * * * % + = - < < < j , - = + + $ X $ $ X X 7 I f.k.l.b.N.L.R.W.J.z.d.0.4.n v j - 7 u $ $ $ * * $ $ $ $ $ $ * * u u u h +.o.o.o.%.*.",
"f f p * * u * * * $ X + : , < , , - = O o @ + $ $ $ $ $ 4 I B.z.z.H.R.`.!.Q.J.z.d.0.0.0.J l , : * $ * $ $ $ $ $ X $ $ $ * * * u p f o.+.+.+.+.+.",
"h h f p u u * $ $ $ X $ + = , - - = o + O O @ X $ & & $ 3 G d.d.f.b.R.!.!.R.F.f.d.d.e.0.2.l - @ $ * * * $ $ $ $ $ X * * * $ * u p f f +.%.+.h h ",
"h h f f p u * $ X $ $ $ $ O = = = O + % O O O @ % 7 & % : N 0.0.0.M.R.Q.!.R.v.0.d.k.g.0.2.l = O $ $ * * * $ $ $ $ $ $ * * $ * u f f f o.%.+.h h ",
"f f h h p * * $ $ & * $ $ + @ O O O % & @ = = = = - : O ; G e.e.d.v.R.W.!.Q.F.n.c.z.g.d.4.x = @ $ * u * * * * * $ X $ $ * * * p f f h o.+.+.+.o.",
"f f h h p u * $ & * * * $ $ $ X O O % 7 : O - - , , , - 1 G l.k.l.F.R.!.!.!.Q.R.H.z.z.l.t.x O @ $ * * * u * u * $ $ $ $ $ u p p f h o.o.o.+.+.+.",
"f h f h u * * * * $ $ * $ & * & @ @ @ : = = = = - , , - 1 U V.x.z.J.E.!.'.].!.!.K.z.x.V.y.x O @ $ * $ * * u * $ * u * X * p h h o.o.h +.+.+.+.+.",
"o.h h p u $ $ * * $ $ * u u * * $ + O O = O = = - < < , 1 u.U.G.z.H.R.].}.#X{.!.K.z.G.I.m.A O 7 * * $ $ * * $ $ u f u $ u h o.+.+.o.o.%.>.%.o.o.",
"h h f p * $ $ $ $ $ $ $ * $ * $ $ + + O O - = : ; , , w C a.W.K.x.K.Q.{.$X%X#X'.I.V.H.U.S.D 0 * u * $ $ $ $ $ $ * p u $ p h +.o.+.+.o.+.+.+.o.h ",
"o.h p u * $ $ $ X $ $ $ $ $ $ X $ X + + = , 7 0 8 - 2 a Q p.J.K.P./.{.$X=X:X=X}.'.I.K.H.m.{ d u 0 & $ X X + O O 7 u u * f o.+.o.o.+.+.+.o.o.o.o.",
"h h u * * $ $ $ $ $ X $ & $ X $ & $ $ + = , : * % : 9 f ] p.z.K.Q.{.$X=X<X1X:X&X}.`.U.V.s.{ h d 7 % O $ + $ % : 0 * * * u h h h h o.+.+.+.o.o.h ",
"f p u $ $ * u * * $ $ $ * $ X & & & & + : - = $ $ + 0 f ] E d.b.J._.=X<X1X1X:X&X[.K.b.g.t.{ h q = O O O + $ & * 0 u * & * u p f f h o.+.*.%.o.o.",
"p u * $ * u * * * $ $ $ * * + % & & + @ = - O + X $ * f ) E 0.h.z.).;X2X2X1X:X&X(.G.g.e.w.~ h q O = O + + $ & * * * $ X $ * u u f f h +.%.+.o.h ",
"u u u * * u * $ $ $ $ $ $ $ X + O : = : = - O $ & & u f ] ` e.y.a.~.-X,X>X>X*X=X).A.i.q.u.' h q = : % % $ $ $ $ $ $ $ $ $ $ * * p p f h o.o.h f ",
"u u * * * * * $ $ X X X + $ $ + O = - - = = + $ $ * u h #.Z.l.Z.| |.,X>X.X X+X,XXX=.} s.i.' h q O @ * & $ $ $ X $ $ $ $ $ $ $ * * u p h o.h p p ",
"* u * * & & $ $ $ X X + O + $ + % @ @ O % @ & * & @ q h @.} s.X.@.:.OXoX;.&.|.>X.X$...A.p.' h q @ % $ & & & $ $ $ * u u * $ $ $ $ * * f h f p p ",
"u * $ $ $ X $ X $ $ + @ O O X & * * & $ * u 0 0 % O 8 f O.#. .#.+.-.;.;.&.$.-. X-.$.#...[ ] h i $ X $ $ * * $ $ * * u f u $ X $ $ $ $ p h f u u ",
"* $ * $ * $ $ $ $ X X + @ O O + & & & * * * 0 7 : O 7 p h o.+.%.%.%.+.%.%.%.+.%.%.%.%.+.+.h f u $ $ & 7 8 7 q 0 & 8 8 q a d p u u * * * p u u u ",
"$ $ * * * u * $ $ $ $ X + + O + $ $ * * * u : O = O = 0 p ( %.*.,.*.%.%.>.,.*.+.*.,.>.%.o.f p * X * * 7 - > i a 8 - , - r ( o.h p u * * $ * * * ",
"u * u u * * * $ * $ $ $ X + O O + $ $ * * * & : : : @ + & f +.>.1.,.*.*.<.1.>.+.,.1.<.%.o.p u $ $ $ * % 7 8 q q 2 , 5 r W W ^ g h f p u * $ * * ",
"h f p * * $ $ * * * * * $ + X $ X $ $ $ $ $ % * * 0 * $ $ f +.>.1.,.*.*.<.1.>.%.,.1.,.*.o.f * * X $ $ % 7 7 8 - - , s ) W r r ^ o.o.h p * * $ $ ",
"h h p u * $ $ * u u u * $ $ X $ $ $ $ + $ & * * u u * & & p o.>.1.<.*.*.<.1.>.+.>.1.<.*.o.p * $ $ $ $ $ * q 8 2 5 w ^ +.^ r s ) %.o.o.p * $ $ X ",
"f f p * * $ $ * u u u u * & $ $ & % @ O 7 p u u * u * $ $ p o.%.,.>.%.*.<.1.>.%.*.<.*.%.h p $ & * & $ $ * u i a W ^ O.%.O.) ) O.+.+.o.p * $ $ $ ",
"f p p u * $ * u u f f p u * $ & * 0 : : u p u * * 0 * $ & p o.+.*.%.+.*.<.1.>.+.%.*.+.+.f u $ * u $ $ $ * u p p h +.+.+.+.+.+.+.+.o.h p $ $ $ X ",
"h h p p p p p p p f f f u * * * p u 0 % q u u * % @ : O @ i g o.O.+.+.*.>.<.>.+.+.+.o.h f * $ * u * $ $ * u * u f o.o.+.o.h o.O.o.h f p * $ $ X ",
"h h h p f h h f f h h h p p u u p p u * u u & $ + O = O = : 8 g o.o.+.%.*.*.%.+.+.o.h f u & $ & u $ $ $ * * & $ u f h h h f f h o.f f p * * $ $ ",
"h o.h o.h h h h h f h p p * * * u * u u u * * X + O = : @ : = d o.o.+.+.+.+.%.+.o.o.f u & $ $ % 7 : : : : 8 % * u u f h h h h o.o.h f u * * * * ",
"o.o.+.+.o.f h h h f p p u * $ $ + & * u u * * $ O O @ 0 u 0 0 p f o.o.+.+.+.+.o.o.h f u * * * 8 , - - - - > 7 u u u p o.h o.o.+.+.h f u $ $ * * ",
"o.o.+.+.h f h h h h f p u * * $ * * % 8 7 7 % & + = : q p u u p f f o.o.+.+.o.o.f f p p p u u 7 - > 5 > ; : & 0 * * u p f p f h h f u * $ * u p ",
"+.+.+.o.h h h o.o.h h f p u u u p u 8 ; - - 8 0 8 = > 0 u i u p f f h h o.o.o.h f p p p u p u 0 = 8 i q + % * * * $ $ * * * u u f u $ * * u p p ",
"+.+.+.o.o.o.h h h h h h f u u u p i > - > ; 7 * 7 - ; q p u p p f f f h h o.h f p p p u p u u * = 8 i q $ $ & * $ $ $ X X $ * u u * $ * u p p f ",
"+.o.+.+.+.+.o.h h h o.f f u u * u 0 % @ 7 7 0 u q - ; % * $ $ p f f f o.o.o.o.f f p u * $ * & + - - w 7 + $ $ $ * * $ $ $ * * * * * * u p p f p ",
"h o.o.+.+.%.o.h f h h f p p * u u * $ $ & 0 0 0 8 - = o . X X * f f h o.+.o.o.o.f f u $ . . . @ - - - : + $ $ $ $ u * $ $ * * $ $ * * p f p p f ",
"o.o.o.h o.o.o.h h f f f u * * * u u & $ @ > > : - < - .       * p h h o.o.+.o.o.h f * X       + q q 8 $ $ $ $ * * u $ $ $ $ $ * * * u p p f h h ",
"h h f f h o.h o.h f p u u * $ * p p & + = - , - , < - o       * f f f h o.o.h f h f u X       $ d u u * $ $ * * * u $ $ $ $ $ * * u u u f f h h ",
"h h h f f h h f f u u * * $ * * * 0 7 = - , , , < < - o       * p f f f o.o.h f f f * X     . $ u * u * $ $ $ * * * * $ $ $ $ $ * u p u u p f h ",
"p f f o.f f p f p * $ $ $ * * * & + = - - - - , , < < = o .   * f f h o.o.o.o.h f f u X   X $ $ $ * * * $ $ $ $ * u * $ X X $ $ $ u p * $ * p p ",
"u u p h p u p p u $ $ $ $ * $ * * 0 8 8 > = > 8 2 - > = O .   * p h o.o.+.+.o.o.h f u X X * p * & $ * * $ $ $ $ $ $ $ X $ $ $ $ $ u f u $ * u u ",
"$ * u u * * * * u $ $ $ * * $ * u p i i 0 + 0 i 0 7 @ + X .   X * u f h o.o.o.h p * X   $ f f p * * $ $ * * $ $ $ $ $ $ $ * $ $ $ u p u $ $ $ $ ",
"$ $ * u * $ * * * $ $ * u * * u p f f p u * u f u & $ $ X X       $ p h h o.h f * .     * f h f p * $ * * * * $ $ $ X $ $ * * $ $ u p u $ $ $ * ",
"X $ * p u * * $ $ X $ * u u u u p f p f p f f p u & X $ X X       $ p f h h f f *       $ f +.o.f u * * $ * * p $ $ $ $ $ $ $ $ $ u f u * * * * ",
"* * u f p u * * $ $ $ * * u p f f f f f h o.h h u * $ $ X X       $ p f f f f f *       $ f +.o.o.f p * $ * u p u $ $ $ $ X X $ $ u p p * u u u ",
"p p f h h h h p p * * $ * u u f f h h o.+.%.+.o.h f p * $ X       X * p u p p u $       $ p o.+.%.+.h p & $ u u p p * $ X $ $ X $ * u u * * u u ",
"h o.o.o.+.+.+.o.h u * * X $ u p h +.+.%.*.*.*.+.+.o.h p * X       . X X $ $ X $ .       $ p f +.>.*.%.f * $ * u f h u $ $ $ $ $ $ * u * $ * p f ",
"%.+.+.o.+.+.+.o.h h p u * * $ u p h o.+.%.*.+.+.o.h f u $ $                             $ p f o.+.+.o.h u u * * u f u $ $ $ $ $ X $ $ * u p f f ",
"*.*.%.+.+.+.+.o.h h h p * * $ * p h h o.+.+.+.o.o.o.f u $ $ $ X                         X u f h o.o.o.h f u * $ * u * $ $ * * $ X $ $ u p f h h ",
"%.%.*.*.%.+.+.+.o.h h u * * $ * u p f h o.+.o.h f f p * $ $ * X                         X p f h h f p p u u * * * * $ $ $ * * $ $ $ X u f h o.o.",
"+.+.%.*.%.o.o.+.o.h f u $ * * u u p p h h o.h f p p u $ $ $ $ X                     X & u p h g f u * $ $ $ * * * u * X $ $ $ * * $ $ u h o.+.+.",
"h o.%.*.%.o.o.+.+.h p * $ $ * u * u p f h o.h p p u * $ X X $ X                     $ u f h h g p u $ $ $ $ * u u u $ $ $ $ $ * * * X p h +.+.%."
};
